<svg xmlns="http://www.w3.org/2000/svg" width="50.605" height="70.825" viewBox="0 0 50.605 70.825">
  <g id="Group_355" data-name="Group 355" transform="translate(-2483.558 -11789.789)">
    <g id="Group_354" data-name="Group 354">
      <g id="Group_353" data-name="Group 353">
        <path id="Path_4695" data-name="Path 4695" d="M2488.146,11860.4v-15.79h-4.588v-3.121h13.979v3.121h-6.209v15.79Z" fill="#fff"/>
        <path id="Path_4696" data-name="Path 4696" d="M2507.842,11841.268a9.675,9.675,0,0,1,0,19.347,9.353,9.353,0,0,1-9.486-9.674A9.5,9.5,0,0,1,2507.842,11841.268Zm0,16.194a6.528,6.528,0,1,0-6.24-6.521A6.247,6.247,0,0,0,2507.842,11857.462Z" fill="#fff"/>
        <path id="Path_4697" data-name="Path 4697" d="M2520.745,11841.485h7.521c3.681,0,5.9,2.466,5.9,5.492,0,2.715-2.247,5.461-6.116,5.461h-4.119v7.958h-3.183Zm3.183,3.059v4.837h4.088c2,0,2.964-1.093,2.964-2.4a2.487,2.487,0,0,0-2.746-2.434Z" fill="#fff"/>
      </g>
    </g>
    <path id="Path_4698" data-name="Path 4698" d="M2509.016,11831v-40l10,10" fill="none" stroke="#fff" stroke-miterlimit="10" stroke-width="1"/>
  </g>
</svg>
