<svg xmlns="http://www.w3.org/2000/svg" viewBox="0 0 19.76 201.21"><defs><style>.cls-1{fill:none;stroke:#fff;stroke-miterlimit:10;}.cls-2{fill:#fff;}</style></defs><g id="Layer_2" data-name="Layer 2"><g id="トップ"><line class="cls-1" x1="0.5" x2="0.5" y2="100"/><polyline class="cls-1" points="0.5 100 0.5 200 10.5 190"/><path class="cls-2" d="M11.26,1.73a3.82,3.82,0,0,0-1,2.69c0,.88.38,1.46,1,1.46,1.2,0,1.46-1.51,1.93-2.91A3.32,3.32,0,0,1,16.37.36c2.1,0,3.39,2,3.39,4.05a5.43,5.43,0,0,1-2.28,4.35l-1.2-1.39a3.88,3.88,0,0,0,1.66-3c0-1.35-.78-2.09-1.51-2.09-1.06,0-1.42.89-1.86,2.35-.51,1.71-1.38,3.16-3.18,3.16-2,0-2.92-1.73-2.92-3.42A5.14,5.14,0,0,1,10,.62Z"/><path class="cls-2" d="M16.26,17.14a3.66,3.66,0,0,0-2.14-6.73,3.64,3.64,0,0,0-3.81,3.64,4.29,4.29,0,0,0,.62,2.18l-1.55.88a5.55,5.55,0,0,1,4.74-8.6,5.55,5.55,0,0,1,5.64,5.54,5.45,5.45,0,0,1-2.48,4.6Z"/><path class="cls-2" d="M19.63,19.08v4.63a3.19,3.19,0,0,1-3.2,3.44,3.23,3.23,0,0,1-3.12-2.77l-4.71,2v-2l4.64-2V20.94H8.6V19.08Zm-1.78,1.86H15v2.62c0,1.17.63,1.73,1.4,1.73a1.45,1.45,0,0,0,1.42-1.6Z"/><path class="cls-2" d="M19.76,33a5.54,5.54,0,0,1-5.64,5.54A5.55,5.55,0,0,1,8.47,33a5.46,5.46,0,0,1,5.65-5.53A5.54,5.54,0,0,1,19.76,33Zm-9.45,0a3.64,3.64,0,0,0,3.81,3.64,3.64,3.64,0,1,0,0-7.28A3.64,3.64,0,0,0,10.31,33Z"/><path class="cls-2" d="M19.76,44.36a5.54,5.54,0,0,1-5.64,5.53,5.55,5.55,0,0,1-5.65-5.53,5.46,5.46,0,0,1,5.65-5.53A5.54,5.54,0,0,1,19.76,44.36Zm-9.45,0A3.64,3.64,0,0,0,14.12,48a3.64,3.64,0,1,0,0-7.28A3.64,3.64,0,0,0,10.31,44.36Z"/><path class="cls-2" d="M8.6,51h11v1.86H10.42v3.18H8.6Z"/></g></g></svg>