<svg xmlns="http://www.w3.org/2000/svg" width="285.747" height="424.016" viewBox="0 0 285.747 424.016">
  <g id="Group_381" data-name="Group 381" transform="translate(-2134.016 -12702.099)">
    <path id="Path_4845" data-name="Path 4845" d="M2269.738,12816.871h103.246v23.228H2269.738Z" fill="#ff0"/>
    <path id="Path_4846" data-name="Path 4846" d="M2167.491,12840.1v-115.228h-33.475V12702.1h120.573v22.772h-63.87V12840.1Z" fill="#ff0"/>
    <path id="Path_4847" data-name="Path 4847" d="M2167.491,12840.1l72.643-138h23l30.06,138h-23.456l-6.6-30.742h-55.109l-15.94,30.742Zm51.921-53.06h38.94l-11.386-53.059Z" fill="#fff"/>
    <path id="Path_4848" data-name="Path 4848" d="M2294.06,12954.871l72.644-138h23l30.059,138h-23.455l-6.6-30.742h-55.109l-15.941,30.742Zm51.921-53.06h38.94l-11.386-53.06Z" fill="#ff0"/>
    <path id="Path_4849" data-name="Path 4849" d="M2296.337,13092.871l-63.762-94.979v94.979h-24.594v-138h23.228l62.851,94.056v-94.056h24.594v171.243Z" fill="#fff"/>
  </g>
</svg>
