<svg xmlns="http://www.w3.org/2000/svg" width="404.345" height="600" viewBox="0 0 404.345 600"><g transform="translate(-2742.008 0.004)"><path d="M2934.062,162.4h146.1v32.868h-146.1Z" fill="#ff0"/><path d="M2789.377,195.272V32.22h-47.369V0h170.617V32.22h-90.38V195.272Z" fill="#ff0"/><path d="M2789.377,195.272,2892.17,0h32.546l42.536,195.276h-33.19l-9.346-43.5h-77.981l-22.557,43.5Zm73.47-75.081h55.1L2901.838,45.11Z" fill="#fff"/><path d="M2968.478,357.68,3071.272,162.4h32.546l42.535,195.276h-33.19l-9.345-43.5h-77.982l-22.556,43.5Zm73.47-75.081h55.1l-16.112-75.082Z" fill="#ff0"/><path d="M2971.7,552.956l-90.226-134.4v134.4h-34.8V357.68h32.868l88.938,133.093V357.68h34.8V600Z" fill="#fff"/></g></svg>