<svg xmlns="http://www.w3.org/2000/svg" width="207.202" height="27.148" viewBox="0 0 207.202 27.148">
  <g id="Group_368" data-name="Group 368" transform="translate(-2403.633 -12453.905)">
    <path id="Path_4748" data-name="Path 4748" d="M2423.345,12481.054l-2.867-17.92-6.362,17.92h-5.2l-5.286-27.148h4.524l4.032,20.429,7.213-20.429h4.166l3.137,20.249,8.6-20.249h4.7l-11.783,27.148Z" fill="#fff"/>
    <path id="Path_4749" data-name="Path 4749" d="M2435.938,12481.054l14.291-27.148h4.524l5.914,27.148h-4.614l-1.3-6.048h-10.841l-3.137,6.048Zm10.213-10.438h7.662l-2.241-10.438Z" fill="#fff"/>
    <path id="Path_4750" data-name="Path 4750" d="M2465,12453.905h11.38c5.286,0,8.467,3.539,8.467,7.885a7.946,7.946,0,0,1-6.81,7.66l4.928,11.6h-4.973l-4.883-11.424h-3.539v11.424H2465Zm4.57,4.391v6.943h6.452c2.867,0,4.255-1.568,4.255-3.449,0-1.837-1.388-3.494-3.942-3.494Z" fill="#fff"/>
    <path id="Path_4751" data-name="Path 4751" d="M2489.536,12453.905h11.379c5.286,0,8.467,3.539,8.467,7.885a7.946,7.946,0,0,1-6.81,7.66l4.928,11.6h-4.973l-4.882-11.424h-3.54v11.424h-4.569Zm4.569,4.391v6.943h6.452c2.867,0,4.256-1.568,4.256-3.449,0-1.837-1.389-3.494-3.943-3.494Z" fill="#fff"/>
    <path id="Path_4752" data-name="Path 4752" d="M2510.332,12481.054l14.291-27.148h4.524l5.915,27.148h-4.615l-1.3-6.048h-10.84l-3.137,6.048Zm10.214-10.438h7.661l-2.24-10.438Z" fill="#fff"/>
    <path id="Path_4753" data-name="Path 4753" d="M2556.775,12481.054l-12.9-19.219v19.219h-4.479v-27.148h4.569l12.723,19.04v-19.04h4.48v27.148Z" fill="#fff"/>
    <path id="Path_4754" data-name="Path 4754" d="M2571.26,12481.054v-22.669h-6.586v-4.479h20.07v4.479h-8.915v22.669Z" fill="#fff"/>
    <path id="Path_4755" data-name="Path 4755" d="M2594.035,12481.054V12470.3l-7.84-16.4h4.883l5.645,11.783,8.512-11.783h5.6l-12.231,16.576v10.572Z" fill="#fff"/>
  </g>
</svg>
