<svg xmlns="http://www.w3.org/2000/svg" width="340.205" height="27.775" viewBox="0 0 340.205 27.775">
  <g id="Group_377" data-name="Group 377" transform="translate(-2338.913 -12670.734)">
    <path id="Path_4783" data-name="Path 4783" d="M2338.913,12698.2v-27.148h4.57v22.669h7.84v4.479Z" fill="#fff"/>
    <path id="Path_4784" data-name="Path 4784" d="M2354.993,12698.2v-27.148h4.57v27.148Z" fill="#fff"/>
    <path id="Path_4785" data-name="Path 4785" d="M2366.2,12698.2v-27.148h17.7v4.391h-13.126v6.943h9.587v4.391h-9.587v11.424Z" fill="#fff"/>
    <path id="Path_4786" data-name="Path 4786" d="M2387.374,12698.2v-27.148h17.382v4.391h-12.813v6.943h13.171v4.391h-13.171v7.033h9.767v4.391Z" fill="#fff"/>
    <path id="Path_4787" data-name="Path 4787" d="M2422.585,12698.2v-27.148h4.569v27.148Z" fill="#fff"/>
    <path id="Path_4788" data-name="Path 4788" d="M2451.171,12698.2l-12.9-19.219v19.219h-4.481v-27.148h4.57l12.723,19.04v-19.04h4.481v27.148Z" fill="#fff"/>
    <path id="Path_4789" data-name="Path 4789" d="M2462.245,12698.2v-27.148h17.7v4.391h-13.126v6.943h9.587v4.391h-9.587v11.424Z" fill="#fff"/>
    <path id="Path_4790" data-name="Path 4790" d="M2494.447,12670.734a13.89,13.89,0,0,1,0,27.775c-7.751,0-13.619-5.913-13.619-13.888A13.644,13.644,0,0,1,2494.447,12670.734Zm0,23.251c5.241,0,8.96-4.167,8.96-9.363,0-5.107-3.584-9.363-8.96-9.363s-8.96,4.256-8.96,9.363C2485.487,12689.818,2489.205,12693.985,2494.447,12693.985Z" fill="#fff"/>
    <path id="Path_4791" data-name="Path 4791" d="M2512.864,12671.048h11.379c5.286,0,8.467,3.539,8.467,7.885a7.946,7.946,0,0,1-6.81,7.66l4.928,11.6h-4.973l-4.882-11.424h-3.539v11.424h-4.57Zm4.57,4.391v6.943h6.451c2.867,0,4.256-1.567,4.256-3.449,0-1.837-1.389-3.494-3.943-3.494Z" fill="#fff"/>
    <path id="Path_4792" data-name="Path 4792" d="M2544.842,12679.066l-6.273,19.13h-4.659l8.96-27.148h4.615l3.36,14.828,7.526-14.828h4.839l2.284,27.148h-4.479l-1.7-19.175-7.124,13.306h-4.3Z" fill="#fff"/>
    <path id="Path_4793" data-name="Path 4793" d="M2567.711,12698.2l14.291-27.148h4.524l5.914,27.148h-4.614l-1.3-6.048h-10.84l-3.137,6.048Zm10.214-10.438h7.661l-2.24-10.438Z" fill="#fff"/>
    <path id="Path_4794" data-name="Path 4794" d="M2598.986,12698.2v-22.669H2592.4v-4.479h20.071v4.479h-8.915v22.669Z" fill="#fff"/>
    <path id="Path_4795" data-name="Path 4795" d="M2615.95,12698.2v-27.148h4.571v27.148Z" fill="#fff"/>
    <path id="Path_4796" data-name="Path 4796" d="M2638.934,12670.734a13.89,13.89,0,0,1,0,27.775c-7.751,0-13.62-5.913-13.62-13.888A13.644,13.644,0,0,1,2638.934,12670.734Zm0,23.251c5.241,0,8.96-4.167,8.96-9.363,0-5.107-3.584-9.363-8.96-9.363s-8.96,4.256-8.96,9.363C2629.974,12689.818,2633.691,12693.985,2638.934,12693.985Z" fill="#fff"/>
    <path id="Path_4797" data-name="Path 4797" d="M2674.728,12698.2l-12.9-19.219v19.219h-4.48v-27.148h4.57l12.723,19.04v-19.04h4.48v27.148Z" fill="#fff"/>
  </g>
</svg>
