<svg xmlns="http://www.w3.org/2000/svg" width="212.522" height="27.775" viewBox="0 0 212.522 27.775">
  <g id="Group_359" data-name="Group 359" transform="translate(-2403.874 -12019.306)">
    <path id="Path_4716" data-name="Path 4716" d="M2403.874,12046.768v-27.148h4.569v22.669h7.84v4.479Z" fill="#fff"/>
    <path id="Path_4717" data-name="Path 4717" d="M2417.882,12046.768l14.291-27.148h4.524l5.914,27.148H2438l-1.3-6.048h-10.841l-3.136,6.048Zm10.214-10.438h7.661l-2.24-10.438Z" fill="#fff"/>
    <path id="Path_4718" data-name="Path 4718" d="M2464.325,12046.768l-12.9-19.219v19.219h-4.481v-27.148h4.571l12.722,19.04v-19.04h4.481v27.148Z" fill="#fff"/>
    <path id="Path_4719" data-name="Path 4719" d="M2475.4,12046.768v-27.148h8.737c8.109,0,14.067,5.868,14.067,13.574,0,7.975-5.958,13.574-14.784,13.574Zm8.737-4.479c5.779,0,9.408-3.9,9.408-9.095,0-5.107-3.36-9.095-9.453-9.095h-4.121v18.189Z" fill="#fff"/>
    <path id="Path_4720" data-name="Path 4720" d="M2504.385,12040.227a9.512,9.512,0,0,0,6.631,2.509c2.15,0,3.584-.94,3.584-2.464,0-2.957-3.719-3.583-7.168-4.749-3.584-1.209-6.408-3.584-6.408-7.885,0-5.151,4.839-8.332,9.947-8.332a13.355,13.355,0,0,1,10.707,5.6l-3.406,2.957a9.615,9.615,0,0,0-7.436-4.077c-3.315,0-5.151,1.927-5.151,3.719,0,2.6,2.194,3.494,5.778,4.569,4.212,1.254,7.8,3.4,7.8,7.84,0,4.839-4.256,7.168-8.423,7.168a12.663,12.663,0,0,1-9.184-3.629Z" fill="#fff"/>
    <path id="Path_4721" data-name="Path 4721" d="M2544.323,12027.907a9.082,9.082,0,0,0-7.615-4.077c-5.376,0-8.96,4.256-8.96,9.363,0,5.2,3.718,9.363,8.96,9.363a10.569,10.569,0,0,0,5.376-1.523l2.15,3.808a13.451,13.451,0,0,1-7.526,2.24c-7.751,0-13.619-5.913-13.619-13.888a13.644,13.644,0,0,1,13.619-13.888,13.436,13.436,0,0,1,11.334,6.093Z" fill="#fff"/>
    <path id="Path_4722" data-name="Path 4722" d="M2546.639,12046.768l14.291-27.148h4.524l5.914,27.148h-4.614l-1.3-6.048h-10.841l-3.136,6.048Zm10.214-10.438h7.661l-2.241-10.438Z" fill="#fff"/>
    <path id="Path_4723" data-name="Path 4723" d="M2575.7,12019.619h10.8c5.287,0,8.468,3.539,8.468,7.885,0,3.9-3.226,7.84-8.781,7.84h-5.913v11.424H2575.7Zm4.571,4.39v6.944h5.868c2.867,0,4.257-1.567,4.257-3.449,0-1.837-1.39-3.5-3.944-3.5Z" fill="#fff"/>
    <path id="Path_4724" data-name="Path 4724" d="M2598.655,12046.768v-27.148h17.383v4.39h-12.812v6.944h13.17v4.391h-13.17v7.033h9.765v4.391Z" fill="#fff"/>
  </g>
</svg>
