<svg xmlns="http://www.w3.org/2000/svg" width="87.799" height="27.148" viewBox="0 0 87.799 27.148">
  <g id="Group_362" data-name="Group 362" transform="translate(-2465.116 -12128.19)">
    <path id="Path_4728" data-name="Path 4728" d="M2465.116,12128.19h10.8c5.287,0,8.468,3.538,8.468,7.885,0,3.9-3.226,7.84-8.781,7.84h-5.913v11.424h-4.571Zm4.571,4.39v6.944h5.868c2.867,0,4.257-1.567,4.257-3.449,0-1.837-1.39-3.5-3.944-3.5Z" fill="#fff"/>
    <path id="Path_4729" data-name="Path 4729" d="M2488.071,12155.339v-27.148h4.571v22.669h7.839v4.479Z" fill="#fff"/>
    <path id="Path_4730" data-name="Path 4730" d="M2502.08,12155.339l14.291-27.148h4.525l5.914,27.148H2522.2l-1.3-6.048h-10.841l-3.137,6.048Zm10.214-10.438h7.661l-2.24-10.438Z" fill="#fff"/>
    <path id="Path_4731" data-name="Path 4731" d="M2548.524,12155.339l-12.9-19.219v19.219h-4.48v-27.148h4.57l12.723,19.04v-19.04h4.48v27.148Z" fill="#fff"/>
  </g>
</svg>
