<svg xmlns="http://www.w3.org/2000/svg" width="213.271" height="27.775" viewBox="0 0 213.271 27.775">
  <g id="Group_371" data-name="Group 371" transform="translate(-2399.747 -12345.02)">
    <path id="Path_4758" data-name="Path 4758" d="M2403.106,12365.94a9.515,9.515,0,0,0,6.631,2.509c2.151,0,3.584-.94,3.584-2.464,0-2.957-3.718-3.584-7.168-4.749-3.584-1.209-6.406-3.584-6.406-7.885,0-5.151,4.838-8.332,9.945-8.332a13.351,13.351,0,0,1,10.707,5.6l-3.405,2.957a9.614,9.614,0,0,0-7.436-4.077c-3.316,0-5.153,1.927-5.153,3.719,0,2.6,2.2,3.494,5.78,4.569,4.211,1.254,7.795,3.4,7.795,7.84,0,4.839-4.256,7.168-8.422,7.168a12.662,12.662,0,0,1-9.184-3.629Z" fill="#fff"/>
    <path id="Path_4759" data-name="Path 4759" d="M2429.01,12372.481v-22.668h-6.586v-4.48h20.07v4.48h-8.915v22.668Z" fill="#fff"/>
    <path id="Path_4760" data-name="Path 4760" d="M2445.976,12345.333h11.378c5.287,0,8.467,3.539,8.467,7.885a7.946,7.946,0,0,1-6.809,7.66l4.927,11.6h-4.972l-4.883-11.424h-3.539v11.424h-4.569Zm4.569,4.39v6.944H2457c2.867,0,4.256-1.567,4.256-3.449,0-1.837-1.389-3.5-3.942-3.5Z" fill="#fff"/>
    <path id="Path_4761" data-name="Path 4761" d="M2490.161,12362.76a10.035,10.035,0,1,1-20.07,0v-17.427h4.569v17.427a5.4,5.4,0,0,0,5.466,5.466,5.3,5.3,0,0,0,5.465-5.466v-17.427h4.57Z" fill="#fff"/>
    <path id="Path_4762" data-name="Path 4762" d="M2515.769,12353.621a9.085,9.085,0,0,0-7.617-4.077c-5.376,0-8.96,4.256-8.96,9.363,0,5.2,3.718,9.364,8.96,9.364a10.56,10.56,0,0,0,5.376-1.524l2.151,3.808a13.446,13.446,0,0,1-7.527,2.24c-7.751,0-13.619-5.913-13.619-13.888a13.644,13.644,0,0,1,13.619-13.888,13.436,13.436,0,0,1,11.334,6.093Z" fill="#fff"/>
    <path id="Path_4763" data-name="Path 4763" d="M2527.527,12372.481v-22.668h-6.586v-4.48h20.071v4.48H2532.1v22.668Z" fill="#fff"/>
    <path id="Path_4764" data-name="Path 4764" d="M2564.353,12362.76a10.036,10.036,0,0,1-20.071,0v-17.427h4.57v17.427a5.4,5.4,0,0,0,5.465,5.466,5.3,5.3,0,0,0,5.465-5.466v-17.427h4.571Z" fill="#fff"/>
    <path id="Path_4765" data-name="Path 4765" d="M2570.739,12345.333h11.38c5.286,0,8.467,3.539,8.467,7.885a7.946,7.946,0,0,1-6.81,7.66l4.928,11.6h-4.973l-4.882-11.424h-3.539v11.424h-4.571Zm4.571,4.39v6.944h6.451c2.867,0,4.256-1.567,4.256-3.449,0-1.837-1.389-3.5-3.943-3.5Z" fill="#fff"/>
    <path id="Path_4766" data-name="Path 4766" d="M2595.276,12372.481v-27.148h17.383v4.39h-12.812v6.944h13.171v4.391h-13.171v7.033h9.765v4.391Z" fill="#fff"/>
  </g>
</svg>
