<svg xmlns="http://www.w3.org/2000/svg" width="178.767" height="27.776" viewBox="0 0 178.767 27.776">
  <g id="Group_374" data-name="Group 374" transform="translate(-2419.632 -12562.162)">
    <path id="Path_4769" data-name="Path 4769" d="M2419.632,12589.625v-27.148h4.57v22.668h7.84v4.48Z" fill="#fff"/>
    <path id="Path_4770" data-name="Path 4770" d="M2446.951,12562.162a13.891,13.891,0,0,1,0,27.776c-7.751,0-13.619-5.913-13.619-13.888A13.644,13.644,0,0,1,2446.951,12562.162Zm0,23.252c5.241,0,8.96-4.168,8.96-9.363,0-5.107-3.584-9.362-8.96-9.362s-8.96,4.255-8.96,9.362C2437.991,12581.246,2441.709,12585.414,2446.951,12585.414Z" fill="#fff"/>
    <path id="Path_4771" data-name="Path 4771" d="M2484.677,12570.764a9.085,9.085,0,0,0-7.615-4.075c-5.376,0-8.96,4.255-8.96,9.362,0,5.2,3.717,9.363,8.96,9.363a10.584,10.584,0,0,0,5.376-1.523l2.15,3.807a13.431,13.431,0,0,1-7.526,2.241c-7.751,0-13.62-5.913-13.62-13.888a13.645,13.645,0,0,1,13.62-13.889,13.44,13.44,0,0,1,11.334,6.094Z" fill="#fff"/>
    <path id="Path_4772" data-name="Path 4772" d="M2486.992,12589.625l14.291-27.148h4.525l5.914,27.148h-4.615l-1.3-6.049h-10.841l-3.137,6.049Zm10.214-10.439h7.661l-2.24-10.437Z" fill="#fff"/>
    <path id="Path_4773" data-name="Path 4773" d="M2518.268,12589.625v-22.67h-6.586v-4.479h20.07v4.479h-8.915v22.67Z" fill="#fff"/>
    <path id="Path_4774" data-name="Path 4774" d="M2535.231,12589.625v-27.148h4.571v27.148Z" fill="#fff"/>
    <path id="Path_4775" data-name="Path 4775" d="M2558.215,12562.162a13.891,13.891,0,0,1,0,27.776c-7.751,0-13.619-5.913-13.619-13.888A13.644,13.644,0,0,1,2558.215,12562.162Zm0,23.252c5.241,0,8.96-4.168,8.96-9.363,0-5.107-3.584-9.362-8.96-9.362s-8.96,4.255-8.96,9.362C2549.255,12581.246,2552.973,12585.414,2558.215,12585.414Z" fill="#fff"/>
    <path id="Path_4776" data-name="Path 4776" d="M2594.009,12589.625l-12.9-19.219v19.219h-4.48v-27.148h4.57l12.723,19.039v-19.039h4.48v27.148Z" fill="#fff"/>
  </g>
</svg>
