<svg xmlns="http://www.w3.org/2000/svg" width="224.735" height="27.775" viewBox="0 0 224.735 27.775">
  <g id="Group_356" data-name="Group 356" transform="translate(-2398.866 -11910.734)">
    <path id="Path_4699" data-name="Path 4699" d="M2398.866,11938.2v-27.148h4.57v27.148Z" fill="#fff"/>
    <path id="Path_4700" data-name="Path 4700" d="M2417.462,11919.066l-6.273,19.13h-4.659l8.96-27.148h4.614l3.361,14.828,7.526-14.828h4.839l2.284,27.148h-4.479l-1.7-19.174-7.124,13.3h-4.3Z" fill="#fff"/>
    <path id="Path_4701" data-name="Path 4701" d="M2440.331,11938.2l14.291-27.148h4.524l5.915,27.148h-4.615l-1.3-6.048h-10.84l-3.137,6.048Zm10.214-10.438h7.661l-2.24-10.438Z" fill="#fff"/>
    <path id="Path_4702" data-name="Path 4702" d="M2484.8,11933.224v-3.942h-5.153v-4.391h9.722v10.887a14.443,14.443,0,0,1-8.735,2.732c-7.751,0-13.619-5.913-13.619-13.888a13.618,13.618,0,0,1,26.028-5.869l-3.942,2.105c-1.479-2.777-3.988-5.6-8.467-5.6-5.376,0-8.96,4.256-8.96,9.363,0,5.2,3.718,9.363,8.96,9.363A10.466,10.466,0,0,0,2484.8,11933.224Z" fill="#fff"/>
    <path id="Path_4703" data-name="Path 4703" d="M2496.751,11938.2v-27.148h17.383v4.391h-12.813v6.943h13.171v4.391h-13.171v7.033h9.766v4.391Z" fill="#fff"/>
    <path id="Path_4704" data-name="Path 4704" d="M2529.634,11911.048h4.524l3.9,20.294,9.856-20.294h4.883l-13.4,27.148h-4.525Z" fill="#fff"/>
    <path id="Path_4705" data-name="Path 4705" d="M2555.661,11938.2v-27.148h4.57v27.148Z" fill="#fff"/>
    <path id="Path_4706" data-name="Path 4706" d="M2566.866,11938.2v-27.148h17.383v4.391h-12.812v6.943h13.17v4.391h-13.17v7.033h9.765v4.391Z" fill="#fff"/>
    <path id="Path_4707" data-name="Path 4707" d="M2606.935,11938.2l-2.868-17.92-6.361,17.92h-5.2l-5.286-27.148h4.524l4.032,20.429,7.213-20.429h4.166l3.137,20.249,8.6-20.249h4.705l-11.784,27.148Z" fill="#fff"/>
  </g>
</svg>
