<svg xmlns="http://www.w3.org/2000/svg" width="209.404" height="41.365" viewBox="0 0 209.404 41.365">
  <g id="Group_365" data-name="Group 365" transform="translate(-2405.856 -12236.448)">
    <path id="Path_4734" data-name="Path 4734" d="M2405.856,12263.424v-26.668h17.075v4.313h-12.586v6.821h12.937v4.313h-12.937v6.909h9.593v4.313Z" fill="#fff"/>
    <path id="Path_4735" data-name="Path 4735" d="M2431.323,12266.725l3.036-3.917a13.26,13.26,0,0,1-8.272-12.718,13.38,13.38,0,1,1,16.1,13.334v8.009c0,3.961-2.727,6.381-6.6,6.381s-6.381-2.552-6.381-5.853C2429.211,12270.465,2429.607,12268.969,2431.323,12266.725Zm8.142-7.437c5.148,0,8.8-4.093,8.8-9.2,0-5.017-3.521-9.2-8.8-9.2s-8.8,4.181-8.8,9.2C2430.663,12255.194,2434.315,12259.287,2439.465,12259.287Zm-1.717,12.1v-6.072l-3.168,4.313a3.236,3.236,0,0,0-.792,2.068,1.907,1.907,0,0,0,1.936,1.848A1.954,1.954,0,0,0,2437.748,12271.389Z" fill="#fff"/>
    <path id="Path_4736" data-name="Path 4736" d="M2476.884,12253.874a9.858,9.858,0,0,1-19.715,0v-17.118h4.488v17.118a5.307,5.307,0,0,0,5.369,5.369,5.2,5.2,0,0,0,5.37-5.369v-17.118h4.488Z" fill="#fff"/>
    <path id="Path_4737" data-name="Path 4737" d="M2483.2,12263.424v-26.668h4.488v26.668Z" fill="#fff"/>
    <path id="Path_4738" data-name="Path 4738" d="M2494.221,12236.756h10.6c5.193,0,8.318,3.477,8.318,7.745,0,3.829-3.169,7.7-8.626,7.7h-5.809v11.222h-4.488Zm4.488,4.313v6.821h5.765c2.816,0,4.18-1.54,4.18-3.389,0-1.8-1.364-3.433-3.872-3.433Z" fill="#fff"/>
    <path id="Path_4739" data-name="Path 4739" d="M2522.76,12244.633l-6.161,18.791h-4.578l8.8-26.668h4.532l3.3,14.566,7.393-14.566h4.753l2.244,26.668h-4.4l-1.672-18.835-7,13.07h-4.225Z" fill="#fff"/>
    <path id="Path_4740" data-name="Path 4740" d="M2548.5,12263.424v-26.668h17.074v4.313H2552.99v6.821h12.939v4.313H2552.99v6.909h9.594v4.313Z" fill="#fff"/>
    <path id="Path_4741" data-name="Path 4741" d="M2587.783,12263.424l-12.674-18.879v18.879h-4.4v-26.668h4.488l12.5,18.7v-18.7h4.4v26.668Z" fill="#fff"/>
    <path id="Path_4742" data-name="Path 4742" d="M2602.015,12263.424v-22.268h-6.47v-4.4h19.715v4.4H2606.5v22.268Z" fill="#fff"/>
  </g>
</svg>
