<svg xmlns="http://www.w3.org/2000/svg" width="318.952" height="39.608" viewBox="0 0 318.952 39.608"><g transform="translate(-1359.736 -675.773)"><path d="M1363.617,714.4V701.038h-3.881V698.4h11.826v2.639h-5.253V714.4Z" fill="#fff"/><path d="M1373.293,714.4v-16h10.243v2.587h-7.55v4.091h7.761v2.587h-7.761v4.145h5.755V714.4Z" fill="#fff"/><path d="M1386.283,714.4v-16h2.693v13.357h4.619v2.64Z" fill="#fff"/><path d="M1397.356,711.228a1.676,1.676,0,1,1,0,3.352,1.676,1.676,0,0,1,0-3.352Z" fill="#fff"/><path d="M1399.815,689.571a12.777,12.777,0,0,1,12.751-12.936c6.776,0,12.382,5.113,12.382,13.429v11.827a12.481,12.481,0,0,1-12.752,12.936c-6.837,0-12.381-4.928-12.381-13.429Zm6.283.493v11.088c0,5.605,2.834,7.392,6.1,7.392,3.388,0,6.469-1.972,6.469-7.146V690.31c0-5.606-2.834-7.392-6.1-7.392C1409.178,682.918,1406.1,684.889,1406.1,690.064Z" fill="#fff"/><path d="M1440.657,714.4V706.2h-13.676v-5.729l19.158-24.7,4.866,3.757-16.077,20.7h5.729v-4.312h6.036v4.312h4.189V706.2h-4.189V714.4Z" fill="#fff"/><path d="M1455.246,704.848a11.156,11.156,0,0,0,8.192,4.127c3.573,0,5.976-2.095,5.976-5.3,0-2.956-2.157-5.236-6.407-5.236h-6.529V677.066h18.048V683.1h-11.888v9.3h1.047c7.823,0,12.2,4.867,12.2,11.273s-4.989,11.15-12.566,11.15c-4.8,0-9.548-1.91-12.135-5.852Z" fill="#fff"/><path d="M1493.021,704.232h-12.69v-5.544h12.69Z" fill="#fff"/><path d="M1494.285,714.4v-5.852l14.845-16.571c2.218-2.464,2.464-3.819,2.464-5.051,0-2.4-1.971-4.065-4.5-4.065-2.341,0-4.127,1.416-5.3,2.34l-3.881-4.5a13.047,13.047,0,0,1,9.671-4.066,10.253,10.253,0,0,1,10.349,10.164c0,4.743-2.4,7.515-4.743,10.1l-10.164,11.335h14.722v6.16Z" fill="#fff"/><path d="M1520.232,714.4v-5.852l14.846-16.571c2.217-2.464,2.464-3.819,2.464-5.051,0-2.4-1.972-4.065-4.5-4.065-2.341,0-4.127,1.416-5.3,2.34l-3.881-4.5a13.043,13.043,0,0,1,9.671-4.066,10.253,10.253,0,0,1,10.349,10.164c0,4.743-2.4,7.515-4.743,10.1l-10.165,11.335H1543.7v6.16Z" fill="#fff"/><path d="M1570.413,682.733l-19.1,32.648-5.421-3.141,17.063-29.137h-15.4v-6.037h22.853Z" fill="#fff"/><path d="M1580.813,704.232h-12.69v-5.544h12.69Z" fill="#fff"/><path d="M1586.032,704.848a11.156,11.156,0,0,0,8.193,4.127c3.572,0,5.975-2.095,5.975-5.3,0-2.956-2.157-5.236-6.407-5.236h-6.529V677.066h18.049V683.1h-11.889v9.3h1.047c7.823,0,12.2,4.867,12.2,11.273s-4.989,11.15-12.566,11.15c-4.8,0-9.548-1.91-12.135-5.852Z" fill="#fff"/><path d="M1610.131,689.571a12.778,12.778,0,0,1,12.751-12.936c6.777,0,12.382,5.113,12.382,13.429v11.827a12.48,12.48,0,0,1-12.751,12.936c-6.838,0-12.382-4.928-12.382-13.429Zm6.284.493v11.088c0,5.605,2.833,7.392,6.1,7.392,3.388,0,6.468-1.972,6.468-7.146V690.31c0-5.606-2.834-7.392-6.1-7.392C1619.495,682.918,1616.415,684.889,1616.415,690.064Z" fill="#fff"/><path d="M1645.238,698.38v-5.852h2.587c4,0,5.914-2.033,5.914-4.867a4.7,4.7,0,0,0-4.805-4.8,8.029,8.029,0,0,0-5.544,2.217l-3.758-4.373a12.889,12.889,0,0,1,9.487-4.066,10.771,10.771,0,0,1,11.026,10.965,9.353,9.353,0,0,1-3.634,7.638,9.541,9.541,0,0,1,4.5,8.439c0,6.407-5.113,11.15-12.69,11.15a14.253,14.253,0,0,1-12.012-5.852l4.127-4.189c1.725,2.094,4.5,4.25,7.823,4.25,3.943,0,6.222-2.156,6.222-5.359,0-2.956-2.033-5.3-6.653-5.3Z" fill="#fff"/><path d="M1672.405,714.4V684.212l-7.761,3.08-2.156-5.36,10.964-4.866h5.236V714.4Z" fill="#fff"/></g></svg>
