<svg xmlns="http://www.w3.org/2000/svg" width="332.773" height="46.877" viewBox="0 0 332.773 46.877">
  <g id="Group_1070" data-name="Group 1070" transform="translate(-320.926 -702.548)">
    <path id="Path_10287" data-name="Path 10287" d="M320.926,703.078h19.2c8.922,0,14.289,5.973,14.289,13.307,0,5.746-4.158,11.567-11.492,12.928l8.317,19.583h-8.392l-8.242-19.28h-5.972V748.9h-7.712Zm7.712,7.409v11.719h10.887c4.839,0,7.183-2.646,7.183-5.821,0-3.1-2.344-5.9-6.654-5.9Z" fill="#fff"/>
    <path id="Path_10288" data-name="Path 10288" d="M361.068,748.9V703.078H390.4v7.409H368.78v11.719h22.228v7.41H368.78v11.87h16.482v7.41Z" fill="#fff"/>
    <path id="Path_10289" data-name="Path 10289" d="M400.227,737.857a16.053,16.053,0,0,0,11.19,4.234c3.629,0,6.049-1.588,6.049-4.158,0-4.99-6.276-6.049-12.1-8.015-6.049-2.041-10.812-6.048-10.812-13.307,0-8.694,8.165-14.063,16.784-14.063,9.073,0,15.878,5.9,18.071,9.451l-5.746,4.99c-1.966-2.8-6.579-6.88-12.551-6.88-5.6,0-8.695,3.251-8.695,6.276,0,4.385,3.7,5.9,9.753,7.711,7.107,2.117,13.156,5.747,13.156,13.232,0,8.165-7.183,12.1-14.214,12.1a21.374,21.374,0,0,1-15.5-6.124Z" fill="#fff"/>
    <path id="Path_10290" data-name="Path 10290" d="M434.4,748.9V703.078h7.712V748.9Z" fill="#fff"/>
    <path id="Path_10291" data-name="Path 10291" d="M452.048,748.9V703.078h14.743c13.685,0,23.741,9.9,23.741,22.909,0,13.458-10.056,22.909-24.95,22.909Zm14.743-7.561c9.753,0,15.877-6.578,15.877-15.348,0-8.62-5.67-15.349-15.953-15.349H459.76v30.7Z" fill="#fff"/>
    <path id="Path_10292" data-name="Path 10292" d="M497.225,748.9V703.078h29.336v7.409H504.937v11.719h22.229v7.41H504.937v11.87h16.482v7.41Z" fill="#fff"/>
    <path id="Path_10293" data-name="Path 10293" d="M563.466,748.9,541.691,716.46V748.9h-7.56V703.078h7.712l21.472,32.133V703.078h7.561V748.9Z" fill="#fff"/>
    <path id="Path_10294" data-name="Path 10294" d="M613.52,717.065a15.331,15.331,0,0,0-12.853-6.88c-9.073,0-15.122,7.182-15.122,15.8,0,8.77,6.275,15.8,15.122,15.8a17.823,17.823,0,0,0,9.072-2.571l3.63,6.427a22.7,22.7,0,0,1-12.7,3.78c-13.081,0-22.985-9.98-22.985-23.438,0-13.005,10.056-23.439,22.985-23.439a22.678,22.678,0,0,1,19.128,10.283Z" fill="#fff"/>
    <path id="Path_10295" data-name="Path 10295" d="M623.759,748.9V703.078h29.335v7.409H631.471v11.719H653.7v7.41H631.471v11.87h16.482v7.41Z" fill="#fff"/>
  </g>
</svg>
