<svg xmlns="http://www.w3.org/2000/svg" viewBox="0 0 261 147.25"><defs><style>.cls-1,.cls-2,.cls-3{fill:none;stroke:#000;stroke-miterlimit:10;}.cls-2{stroke-dasharray:3.02 3.02;}.cls-3{stroke-dasharray:3.05 3.05;}.cls-4{fill:#fff;}</style></defs><g id="Layer_2" data-name="Layer 2"><g id="内容"><polyline class="cls-1" points="260.5 145.25 260.5 146.75 259 146.75"/><line class="cls-2" x1="255.98" y1="146.75" x2="3.51" y2="146.75"/><polyline class="cls-1" points="2 146.75 0.5 146.75 0.5 145.25"/><line class="cls-3" x1="0.5" y1="142.2" x2="0.5" y2="3.52"/><polyline class="cls-1" points="0.5 2 0.5 0.5 2 0.5"/><line class="cls-2" x1="5.02" y1="0.5" x2="257.49" y2="0.5"/><polyline class="cls-1" points="259 0.5 260.5 0.5 260.5 2"/><line class="cls-3" x1="260.5" y1="5.05" x2="260.5" y2="143.73"/><path d="M171.12,75.66H160.47a30,30,0,0,1-59.94,0H89.87a40.63,40.63,0,0,0,81.25,0Z"/><path class="cls-4" d="M122.26,55a.74.74,0,1,0,.74.74A.74.74,0,0,0,122.26,55Zm1.87,34a.74.74,0,1,0,.74.73A.73.73,0,0,0,124.13,89Zm-1.87-28.77a.74.74,0,1,0,.74.74A.74.74,0,0,0,122.26,60.19Zm1.87,23.55a.74.74,0,1,0,.74.73A.73.73,0,0,0,124.13,83.74Zm0-5.22a.74.74,0,1,0,.74.74A.74.74,0,0,0,124.13,78.52Zm0-10.43a.73.73,0,0,0-.73.73.74.74,0,1,0,.73-.73Zm0-5.22a.74.74,0,1,0,.74.73A.73.73,0,0,0,124.13,62.87Zm-1.87,2.54a.74.74,0,1,0,.74.74A.74.74,0,0,0,122.26,65.41Zm1.87,7.89a.74.74,0,1,0,.74.74A.74.74,0,0,0,124.13,73.3Zm0-15.65a.74.74,0,1,0,.74.74A.74.74,0,0,0,124.13,57.65ZM120.25,73.3A.74.74,0,1,0,121,74,.74.74,0,0,0,120.25,73.3Zm0-10.43a.74.74,0,1,0,.74.73A.73.73,0,0,0,120.25,62.87Zm-.41-9.09a.74.74,0,0,0,1.15-.61v0C120.6,53.35,120.22,53.56,119.84,53.78Zm.41,14.31a.73.73,0,0,0-.73.73.74.74,0,1,0,.73-.73Zm2,7.76a.73.73,0,0,0-.74.73.74.74,0,0,0,1.48,0A.73.73,0,0,0,122.26,75.85Zm0-5.22a.74.74,0,1,0,.74.73A.74.74,0,0,0,122.26,70.63Zm0,10.43a.74.74,0,0,0-.74.74.74.74,0,0,0,1.48,0A.74.74,0,0,0,122.26,81.06Zm0,5.22A.74.74,0,1,0,123,87,.74.74,0,0,0,122.26,86.28Zm0,5.22a.74.74,0,0,0-.74.73.69.69,0,0,0,.08.32q.42.21.87.39a.74.74,0,0,0,.53-.71A.74.74,0,0,0,122.26,91.5Zm-2-33.85a.74.74,0,1,0,.74.74A.74.74,0,0,0,120.25,57.65ZM128,89a.74.74,0,1,0,.74.73A.73.73,0,0,0,128,89Zm0-15.66a.74.74,0,1,0,.74.74A.74.74,0,0,0,128,73.3Zm0,10.44a.74.74,0,1,0,.74.73A.73.73,0,0,0,128,83.74Zm0-20.87a.74.74,0,1,0,.74.73A.73.73,0,0,0,128,62.87Zm0,5.22a.73.73,0,0,0-.73.73.74.74,0,1,0,.73-.73Zm2,18.19a.74.74,0,1,0,.74.74A.74.74,0,0,0,130,86.28Zm0,5.22a.74.74,0,1,0,.74.73A.74.74,0,0,0,130,91.5Zm-2-33.85a.74.74,0,1,0,.74.74A.74.74,0,0,0,128,57.65Zm0-5.22a.74.74,0,1,0,.74.74A.74.74,0,0,0,128,52.43Zm-1.87,28.63a.74.74,0,0,0-.74.74.74.74,0,0,0,1.48,0A.74.74,0,0,0,126.14,81.06Zm3.88,0a.74.74,0,0,0-.74.74.74.74,0,0,0,1.48,0A.74.74,0,0,0,130,81.06Zm-3.88,5.22a.74.74,0,1,0,.74.74A.74.74,0,0,0,126.14,86.28ZM128,94.17a.75.75,0,0,0-.5.2c.37.06.75.11,1.13.15A.74.74,0,0,0,128,94.17Zm-1.87-18.32a.73.73,0,0,0-.74.73.74.74,0,0,0,1.48,0A.73.73,0,0,0,126.14,75.85Zm0,15.65a.74.74,0,1,0,.74.73A.74.74,0,0,0,126.14,91.5Zm0-36.53a.74.74,0,1,0,.74.74A.74.74,0,0,0,126.14,55Zm0,5.22a.74.74,0,1,0,.74.74A.74.74,0,0,0,126.14,60.19Zm0,5.22a.74.74,0,1,0,.74.74A.74.74,0,0,0,126.14,65.41Zm0,5.22a.74.74,0,1,0,.74.73A.74.74,0,0,0,126.14,70.63Zm-2-18.2a.74.74,0,1,0,.74.74A.74.74,0,0,0,124.13,52.43ZM112.49,83.74a.75.75,0,0,0-.42.13c.25.43.51.84.79,1.24a.73.73,0,0,0-.37-1.37Zm0-5.22a.74.74,0,1,0,.74.74A.74.74,0,0,0,112.49,78.52Zm-1.87-13.11a.73.73,0,0,0-.41.12c-.1.29-.19.58-.28.88a.75.75,0,0,0,.69.47.74.74,0,1,0,0-1.47Zm0,5.22a.74.74,0,1,0,.74.73A.74.74,0,0,0,110.62,70.63Zm1.87,2.67a.74.74,0,1,0,.74.74A.74.74,0,0,0,112.49,73.3Zm2,7.76a.74.74,0,0,0-.74.74.74.74,0,0,0,1.48,0A.74.74,0,0,0,114.5,81.06Zm-2-13a.73.73,0,0,0-.73.73.74.74,0,1,0,.73-.73Zm2,18.19a.73.73,0,0,0-.57.27c.31.37.63.74,1,1.09a.73.73,0,0,0,.35-.62A.74.74,0,0,0,114.5,86.28Zm-2-23.41a.74.74,0,1,0,.74.73A.73.73,0,0,0,112.49,62.87Zm34.92-3.75a.75.75,0,0,0,.57-.26c-.31-.38-.63-.74-1-1.1a.75.75,0,0,0-.34.63A.73.73,0,0,0,147.41,59.12ZM110.62,75.85a.73.73,0,0,0-.74.73.74.74,0,0,0,1.48,0A.73.73,0,0,0,110.62,75.85Zm3.88,0a.73.73,0,0,0-.74.73.74.74,0,0,0,1.48,0A.73.73,0,0,0,114.5,75.85Zm34.92-14.19a.75.75,0,0,0,.42-.13c-.25-.42-.51-.84-.79-1.24a.75.75,0,0,0-.37.64A.74.74,0,0,0,149.42,61.66Zm1.83,2.68c-.17-.4-.35-.8-.54-1.19a.76.76,0,0,0-.15.45A.74.74,0,0,0,151.25,64.34Zm-5.71-7.89.14,0c-.29-.26-.58-.5-.88-.75v0A.74.74,0,0,0,145.54,56.45ZM109,73.43c0,.39,0,.78.07,1.16a.73.73,0,0,0,.25-.55A.75.75,0,0,0,109,73.43Zm1.64,7.64c.16.4.34.79.53,1.18a.71.71,0,0,0,.16-.45A.73.73,0,0,0,110.67,81.07ZM130,51.23a.72.72,0,0,0,.68-.47c-.45,0-.9,0-1.34.06A.74.74,0,0,0,130,51.23Zm3.88,0a.75.75,0,0,0,.5-.2c-.37-.06-.75-.11-1.12-.15A.73.73,0,0,0,133.9,51.23ZM116.37,68.09a.73.73,0,0,0-.73.73.74.74,0,1,0,.73-.73Zm2,2.54a.74.74,0,1,0,.74.73A.74.74,0,0,0,118.38,70.63Zm-3.88,0a.74.74,0,1,0,.74.73A.74.74,0,0,0,114.5,70.63Zm3.88,10.43a.74.74,0,0,0-.74.74.74.74,0,0,0,1.48,0A.74.74,0,0,0,118.38,81.06Zm0-15.65a.74.74,0,1,0,.74.74A.74.74,0,0,0,118.38,65.41Zm1.87,18.33a.74.74,0,1,0,.74.73A.73.73,0,0,0,120.25,83.74Zm-1.87-23.55a.74.74,0,1,0,.74.74A.74.74,0,0,0,118.38,60.19ZM120.25,89a.74.74,0,1,0,.74.73A.73.73,0,0,0,120.25,89Zm-1.87-2.68a.74.74,0,1,0,.74.74A.74.74,0,0,0,118.38,86.28Zm0-31.31a.74.74,0,1,0,.74.74A.74.74,0,0,0,118.38,55Zm0,20.88a.73.73,0,0,0-.74.73.74.74,0,1,0,1.48,0A.73.73,0,0,0,118.38,75.85Zm-2,13.11h-.14c.29.26.58.51.88.75v0A.74.74,0,0,0,116.37,89ZM114.5,60.19a.74.74,0,1,0,.74.74A.74.74,0,0,0,114.5,60.19Zm0,5.22a.74.74,0,1,0,.74.74A.74.74,0,0,0,114.5,65.41Zm1.87,18.33a.74.74,0,1,0,.74.73A.73.73,0,0,0,116.37,83.74Zm0-5.22a.74.74,0,1,0,.74.74A.74.74,0,0,0,116.37,78.52Zm0-20.87a.74.74,0,1,0,.74.74A.74.74,0,0,0,116.37,57.65Zm0,5.22a.74.74,0,1,0,.74.73A.73.73,0,0,0,116.37,62.87Zm3.88,15.65a.74.74,0,1,0,.74.74A.74.74,0,0,0,120.25,78.52Zm-3.88-5.22a.74.74,0,1,0,.74.74A.74.74,0,0,0,116.37,73.3ZM128,78.52a.74.74,0,1,0,.74.74A.74.74,0,0,0,128,78.52Zm15.52,5.22a.74.74,0,1,0,.74.73A.73.73,0,0,0,143.53,83.74Zm0,5.22a.74.74,0,1,0,.74.73A.73.73,0,0,0,143.53,89Zm-1.87-18.33a.74.74,0,1,0,.74.73A.74.74,0,0,0,141.66,70.63Zm1.87-13a.74.74,0,1,0,.74.74A.74.74,0,0,0,143.53,57.65Zm-3.88,20.87a.74.74,0,1,0,.74.74A.74.74,0,0,0,139.65,78.52Zm2-23.55a.74.74,0,1,0,.74.74A.74.74,0,0,0,141.66,55Zm1.87,7.9a.74.74,0,1,0,.74.73A.73.73,0,0,0,143.53,62.87Zm0,5.22a.73.73,0,0,0-.73.73.74.74,0,1,0,.73-.73Zm0,5.21a.74.74,0,1,0,.74.74A.74.74,0,0,0,143.53,73.3Zm0,5.22a.74.74,0,1,0,.74.74A.74.74,0,0,0,143.53,78.52Zm-1.87-13.11a.74.74,0,1,0,.74.74A.74.74,0,0,0,141.66,65.41Zm-2-2.54a.74.74,0,1,0,.74.73A.73.73,0,0,0,139.65,62.87Zm0,5.22a.73.73,0,0,0-.73.73.74.74,0,1,0,.73-.73Zm0,5.21a.74.74,0,1,0,.74.74A.74.74,0,0,0,139.65,73.3Zm0-15.65a.74.74,0,1,0,.74.74A.74.74,0,0,0,139.65,57.65Zm1.27,34.58v0c.39-.2.77-.41,1.15-.63a.74.74,0,0,0-1.15.61Zm-1.48-39.77a.74.74,0,1,0,.95.71.83.83,0,0,0-.07-.32Zm2.22,33.82a.74.74,0,1,0,.74.74A.74.74,0,0,0,141.66,86.28Zm0-5.22a.74.74,0,0,0-.74.74.74.74,0,0,0,1.48,0A.74.74,0,0,0,141.66,81.06Zm0-5.21a.73.73,0,0,0-.74.73.74.74,0,0,0,1.48,0A.73.73,0,0,0,141.66,75.85Zm0-15.66a.74.74,0,1,0,.74.74A.74.74,0,0,0,141.66,60.19Zm7.76,15.66a.73.73,0,0,0-.74.73.74.74,0,0,0,.74.74.73.73,0,0,0,.73-.74A.72.72,0,0,0,149.42,75.85Zm0-10.44a.74.74,0,1,0,0,1.47.74.74,0,0,0,0-1.47Zm0,5.22a.74.74,0,1,0,.73.73A.73.73,0,0,0,149.42,70.63Zm0,10.43a.74.74,0,0,0-.74.74.73.73,0,0,0,.74.73.72.72,0,0,0,.73-.73A.73.73,0,0,0,149.42,81.06Zm3.4-10.25a.71.71,0,0,0-.26.55.73.73,0,0,0,.32.61C152.87,71.58,152.85,71.19,152.82,70.81Zm-5.41-7.94a.74.74,0,1,0,.74.73A.73.73,0,0,0,147.41,62.87Zm3.88,5.22a.73.73,0,0,0-.73.73.74.74,0,1,0,.73-.73Zm0,10.43a.74.74,0,1,0,.41,1.35c.1-.29.19-.58.28-.87A.74.74,0,0,0,151.29,78.52Zm0-5.22A.74.74,0,1,0,152,74,.74.74,0,0,0,151.29,73.3Zm-5.75,13a.74.74,0,1,0,0,1.47.74.74,0,0,0,0-1.47Zm1.87-18.19a.73.73,0,0,0-.73.73.74.74,0,1,0,.73-.73Zm-1.87-2.68a.74.74,0,1,0,0,1.47.74.74,0,0,0,0-1.47Zm0,5.22a.74.74,0,1,0,.73.73A.73.73,0,0,0,145.54,70.63Zm0,10.43a.74.74,0,0,0-.74.74.73.73,0,0,0,.74.73.72.72,0,0,0,.73-.73A.73.73,0,0,0,145.54,81.06Zm0-5.21a.73.73,0,0,0-.74.73.74.74,0,0,0,.74.74.73.73,0,0,0,.73-.74A.72.72,0,0,0,145.54,75.85Zm0-15.66a.74.74,0,1,0,0,1.47.74.74,0,0,0,0-1.47Zm1.87,13.11a.74.74,0,1,0,.74.74A.74.74,0,0,0,147.41,73.3Zm0,5.22a.74.74,0,1,0,.74.74A.74.74,0,0,0,147.41,78.52Zm0,5.22a.74.74,0,1,0,.74.73A.73.73,0,0,0,147.41,83.74Zm-15.52,0a.74.74,0,1,0,.74.73A.73.73,0,0,0,131.89,83.74Zm0-31.31a.74.74,0,1,0,.74.74A.74.74,0,0,0,131.89,52.43Zm2,13a.74.74,0,1,0,.74.74A.74.74,0,0,0,133.9,65.41Zm0,26.09a.74.74,0,1,0,.74.73A.74.74,0,0,0,133.9,91.5Zm-2-28.63a.74.74,0,1,0,.74.73A.73.73,0,0,0,131.89,62.87Zm2,13a.73.73,0,0,0-.74.73.74.74,0,0,0,1.48,0A.73.73,0,0,0,133.9,75.85Zm0,10.43a.74.74,0,1,0,.74.74A.74.74,0,0,0,133.9,86.28Zm5.75-2.54a.74.74,0,1,0,.74.73A.73.73,0,0,0,139.65,83.74ZM133.9,70.63a.74.74,0,1,0,.74.73A.74.74,0,0,0,133.9,70.63Zm0,10.43a.74.74,0,0,0-.74.74.74.74,0,0,0,1.48,0A.74.74,0,0,0,133.9,81.06Zm-2-23.41a.74.74,0,1,0,.74.74A.74.74,0,0,0,131.89,57.65ZM130,55a.74.74,0,1,0,.74.74A.74.74,0,0,0,130,55Zm0,5.22a.74.74,0,1,0,.74.74A.74.74,0,0,0,130,60.19Zm0,5.22a.74.74,0,1,0,.74.74A.74.74,0,0,0,130,65.41Zm0,5.22a.74.74,0,1,0,.74.73A.74.74,0,0,0,130,70.63ZM131.89,89a.74.74,0,1,0,.74.73A.73.73,0,0,0,131.89,89Zm0-10.44a.74.74,0,1,0,.74.74A.74.74,0,0,0,131.89,78.52ZM130,75.85a.73.73,0,0,0-.74.73.74.74,0,0,0,1.48,0A.73.73,0,0,0,130,75.85Zm1.87-2.55a.74.74,0,1,0,.74.74A.74.74,0,0,0,131.89,73.3Zm0,20.87a.74.74,0,0,0-.68.47c.45,0,.9,0,1.34-.06A.74.74,0,0,0,131.89,94.17Zm0-26.08a.73.73,0,0,0-.73.73.74.74,0,1,0,.73-.73Zm5.89,13a.74.74,0,0,0-.74.74.74.74,0,0,0,1.48,0A.74.74,0,0,0,137.78,81.06Zm0-10.43a.74.74,0,1,0,.74.73A.74.74,0,0,0,137.78,70.63Zm0,5.22a.73.73,0,0,0-.74.73.74.74,0,0,0,1.48,0A.73.73,0,0,0,137.78,75.85Zm0,10.43a.74.74,0,1,0,.74.74A.74.74,0,0,0,137.78,86.28Zm0-20.87a.74.74,0,1,0,.74.74A.74.74,0,0,0,137.78,65.41ZM139.65,89a.74.74,0,1,0,.74.73A.73.73,0,0,0,139.65,89Zm-1.87-34a.74.74,0,1,0,.74.74A.74.74,0,0,0,137.78,55Zm0,36.53a.74.74,0,1,0,.74.73A.74.74,0,0,0,137.78,91.5Zm0-31.31a.74.74,0,1,0,.74.74A.74.74,0,0,0,137.78,60.19Zm-2,28.77a.74.74,0,1,0,.74.73A.73.73,0,0,0,135.77,89Zm0-10.44a.74.74,0,1,0,.74.74A.74.74,0,0,0,135.77,78.52ZM133.9,60.19a.74.74,0,1,0,.74.74A.74.74,0,0,0,133.9,60.19Zm1.87,23.55a.74.74,0,1,0,.74.73A.73.73,0,0,0,135.77,83.74ZM133.9,55a.74.74,0,1,0,.74.74A.74.74,0,0,0,133.9,55Zm1.87,7.9a.74.74,0,1,0,.74.73A.73.73,0,0,0,135.77,62.87Zm0-10.44a.74.74,0,1,0,.74.74A.74.74,0,0,0,135.77,52.43Zm0,5.22a.74.74,0,1,0,.74.74A.74.74,0,0,0,135.77,57.65Zm0,15.65a.74.74,0,1,0,.74.74A.74.74,0,0,0,135.77,73.3Zm0-5.21a.73.73,0,0,0-.73.73.74.74,0,1,0,.73-.73Z"/><polygon points="126.89 79.2 126.89 66.2 138.27 72.7 126.89 79.2"/><path d="M95.48,35.07,92.3,44.78H89.93L94.48,31h2.35l1.7,7.53L102.35,31h2.46L106,44.78H103.7L102.83,35,99.21,41.8H97Z"/><path d="M114.55,30.84a7.05,7.05,0,0,1,0,14.1,6.82,6.82,0,0,1-6.92-7A6.93,6.93,0,0,1,114.55,30.84Zm0,11.8a4.55,4.55,0,0,0,4.55-4.75,4.55,4.55,0,1,0-9.1,0A4.55,4.55,0,0,0,114.55,42.64Z"/><path d="M122.5,31h2.3l2,10.31,5-10.31h2.48l-6.8,13.79h-2.3Z"/><path d="M135.68,44.78V31H138V44.78Z"/><path d="M141.32,44.78V31h8.83v2.23h-6.51v3.53h6.69V39h-6.69v3.57h5v2.23Z"/><path d="M157,41h-4.69V39H157Z"/><path d="M160,44.78V31h5.94a4,4,0,0,1,1.95,7.56,3.35,3.35,0,0,1,.89,2.39c0,2.07-1.71,3.84-4.32,3.84Zm2.32-11.56v3.53h3.43c1.46,0,2.16-.8,2.16-1.75a1.81,1.81,0,0,0-2-1.78Zm0,5.76v3.57h2.25a1.77,1.77,0,0,0,1.89-1.75,1.81,1.81,0,0,0-2-1.82Z"/></g></g></svg>