<svg xmlns="http://www.w3.org/2000/svg" viewBox="0 0 256.2 92.56"><g id="Layer_2" data-name="Layer 2"><g id="内容"><path d="M0,38.27H21.59c10.58,0,16.94,7.07,16.94,15.77,0,7.79-6.45,15.68-17.56,15.68H9.14V92.56H0Zm9.14,8.78V60.94H20.88c5.73,0,8.51-3.14,8.51-6.9s-2.78-7-7.89-7Z"/><path d="M45.44,92.56V38.27h9.14V83.6H70.26v9Z"/><path d="M73.19,92.56l28.59-54.29h9l11.82,54.29h-9.23l-2.59-12.09H89.14L82.87,92.56ZM93.62,71.69h15.32l-4.48-20.88Z"/><path d="M165.64,92.56l-25.8-38.43V92.56h-9V38.27H140l25.44,38.08V38.27h9V92.56Z"/><path d="M204.43,77.78H186V69.72h18.46Z"/><path d="M215.88,92.56V38.27h23.38c10.58,0,16.94,7.07,16.94,15.77A15.65,15.65,0,0,1,247,68a13.32,13.32,0,0,1,3.49,9.41c0,8.15-6.72,15.14-17,15.14ZM225,47.05V60.94h13.53c5.73,0,8.51-3.14,8.51-6.9s-2.78-7-7.89-7Zm0,22.67V83.78h8.87c4.39,0,7.44-3,7.44-6.9s-2.78-7.16-7.89-7.16Z"/><path d="M33.88,17.16V3H29.77V.2H42.31V3H36.74V17.16Z"/><path d="M39.66,17.16,48.59.2h2.83l3.69,17H52.23l-.81-3.78H44.64l-2,3.78ZM46,10.64h4.79l-1.4-6.52Z"/><path d="M57.21,17.16V.2h2.85v17Z"/><path d="M61.22,17.16,70.16.2H73l3.7,17H73.79L73,13.38H66.21l-2,3.78Zm6.39-6.52H72.4L71,4.12Z"/><path d="M89.65,17.16l-8.07-12v12H78.79V.2h2.85l8,11.9V.2h2.8v17Z"/><path d="M103.31.2h7.11c3.31,0,5.3,2.21,5.3,4.92a5,5,0,0,1-4.26,4.79l3.08,7.25h-3.11L108.38,10h-2.21v7.14h-2.86Zm2.86,2.74V7.28h4c1.79,0,2.66-1,2.66-2.16a2.23,2.23,0,0,0-2.46-2.18Z"/><path d="M118,17.16V.2h10.87V2.94h-8V7.28h8.23V10H120.9v4.4H127v2.74Z"/><path d="M132.4,13.08a6,6,0,0,0,4.14,1.56c1.35,0,2.25-.58,2.25-1.54,0-1.84-2.33-2.24-4.49-3s-4-2.24-4-4.93c0-3.22,3-5.21,6.22-5.21a8.33,8.33,0,0,1,6.69,3.5l-2.13,1.85a6,6,0,0,0-4.65-2.55c-2.07,0-3.22,1.2-3.22,2.32,0,1.63,1.37,2.19,3.62,2.86,2.63.78,4.87,2.13,4.87,4.9,0,3-2.66,4.48-5.27,4.48a7.91,7.91,0,0,1-5.74-2.27Z"/><path d="M144.91,17.16V.2h2.86v17Z"/><path d="M151.32,17.16V.2h5.46a8.43,8.43,0,0,1,8.79,8.48c0,5-3.73,8.48-9.24,8.48Zm5.46-2.8a5.5,5.5,0,0,0,5.88-5.68c0-3.19-2.11-5.68-5.91-5.68h-2.58V14.36Z"/><path d="M167.9,17.16V.2h10.86V2.94h-8V7.28H179V10h-8.23v4.4h6.1v2.74Z"/><path d="M192.28,17.16l-8.07-12v12h-2.79V.2h2.85l7.95,11.9V.2H195v17Z"/><path d="M210.67,5.38a5.68,5.68,0,0,0-4.76-2.55,5.59,5.59,0,0,0-5.6,5.85,5.6,5.6,0,0,0,5.6,5.85,6.59,6.59,0,0,0,3.36-.95L210.61,16A8.53,8.53,0,0,1,197.4,8.68,8.52,8.52,0,0,1,205.91,0,8.38,8.38,0,0,1,213,3.81Z"/><path d="M214.31,17.16V.2h10.86V2.94h-8V7.28h8.23V10h-8.23v4.4h6.11v2.74Z"/></g></g></svg>