<svg xmlns="http://www.w3.org/2000/svg" width="70.916" height="84.72" viewBox="0 0 70.916 84.72">
  <g id="Group_118" data-name="Group 118" transform="translate(-1292.146 -325.609)">
    <g id="Group_117" data-name="Group 117">
      <g id="Group_115" data-name="Group 115">
        <path id="Path_132" data-name="Path 132" d="M1311.647,370.235a16.348,16.348,0,1,0,20.222-11.2A16.383,16.383,0,0,0,1311.647,370.235Zm.4.123a15.939,15.939,0,1,1,10.923,19.708A15.963,15.963,0,0,1,1312.043,370.358Z"/>
        <path id="Path_133" data-name="Path 133" d="M1305.186,368.375a23.076,23.076,0,1,0,28.544-15.812A23.111,23.111,0,0,0,1305.186,368.375Zm.4.118a22.669,22.669,0,1,1,15.531,28.046A22.693,22.693,0,0,1,1305.582,368.493Z"/>
        <path id="Path_134" data-name="Path 134" d="M1337.913,382.125a12.546,12.546,0,0,0,1.825-3.834,12.681,12.681,0,0,0,.471-4.358l5.818-2.832-6.14.652a13.1,13.1,0,0,0-2.645-5.278l2.388-5.346-3.784,3.927a13.036,13.036,0,0,0-10.125-3.083l-1.095-5.149-.764,5.539a12.806,12.806,0,0,0-5.4,3.088l-4.547-3.554,3.182,5.079a13,13,0,0,0-2.568,8.768l-5.338,2.6,5.655-.607a12.872,12.872,0,0,0,2.955,5.629l-2.2,4.958,3.542-3.673a12.788,12.788,0,0,0,10.364,2.786l1.091,5.179.785-5.64a12.878,12.878,0,0,0,5.138-3.174l4.78,3.746Z"/>
        <path id="Path_135" data-name="Path 135" d="M1337.773,339.427,1327.6,374.864l-3.624-6.565Z"/>
        <path id="Path_136" data-name="Path 136" d="M1314.724,351.673l9.255,16.626-3.516-.406Z"/>
        <path id="Path_137" data-name="Path 137" d="M1292.156,364.7l35.446,10.16-6.575,3.629Z"/>
        <path id="Path_138" data-name="Path 138" d="M1363.041,385.027,1327.6,374.864l6.574-3.616Z"/>
        <path id="Path_139" data-name="Path 139" d="M1350.813,362.02l-16.656,9.2.4-3.511Z"/>
        <path id="Path_140" data-name="Path 140" d="M1304.391,387.7l16.656-9.177-.406,3.506Z"/>
        <path id="Path_141" data-name="Path 141" d="M1317.441,410.313l10.162-35.449,3.625,6.574Z"/>
        <path id="Path_142" data-name="Path 142" d="M1340.479,398.053l-9.251-16.615,3.513.4Z"/>
        <path id="Path_143" data-name="Path 143" d="M1314.669,351.712l9.317,16.731,1.593-3.348-10.79-13.453Z" fill="#ff0"/>
        <path id="Path_144" data-name="Path 144" d="M1337.706,339.4,1327.5,375l6.725-3.744,3.609-31.832Z" fill="#ff0"/>
        <path id="Path_145" data-name="Path 145" d="M1323.972,368.242l-31.81-3.617-.016.14,35.595,10.222L1324,368.252Z" fill="#ff0"/>
        <path id="Path_146" data-name="Path 146" d="M1327.623,374.8l-.16-.046,3.75,6.733,31.835,3.614.014-.138Z" fill="#ff0"/>
        <path id="Path_147" data-name="Path 147" d="M1334.127,371.163l-.118.062,3.357,1.582,13.484-10.736-.079-.1Z" fill="#ff0"/>
        <path id="Path_148" data-name="Path 148" d="M1327.572,374.807l-6.589,3.676-3.608,31.819.129.027,10.213-35.6Z" fill="#ff0"/>
        <path id="Path_149" data-name="Path 149" d="M1317.811,376.946l-13.454,10.711.076.109,16.759-9.255-3.354-1.582Z" fill="#ff0"/>
        <path id="Path_150" data-name="Path 150" d="M1331.16,381.41l-1.534,3.228,10.8,13.457.1-.075-9.312-16.733Z" fill="#ff0"/>
        <path id="Path_151" data-name="Path 151" d="M1314.669,351.712l9.317,16.731,1.593-3.348-10.79-13.453Zm.51.633c.91,1.141,10.2,12.71,10.243,12.768-.032.073-1.342,2.818-1.443,3.046C1323.857,367.935,1315.881,353.618,1315.179,352.345Z"/>
        <path id="Path_152" data-name="Path 152" d="M1337.706,339.4,1327.5,375l6.725-3.744,3.609-31.832Zm-.1.815c-.17,1.53-3.5,30.894-3.51,30.959-.059.036-6.1,3.4-6.378,3.556C1327.8,374.428,1337.186,341.7,1337.6,340.217Z"/>
        <path id="Path_153" data-name="Path 153" d="M1323.972,368.242l-31.81-3.617-.016.14,35.595,10.222L1324,368.252Zm-.057.132c.031.06,3.4,6.115,3.548,6.38-.3-.088-33.024-9.463-34.505-9.889C1294.484,365.03,1323.837,368.368,1323.915,368.374Z"/>
        <path id="Path_154" data-name="Path 154" d="M1327.623,374.8l-.16-.046,3.75,6.733,31.835,3.614.014-.138Zm34.624,10.067c-1.521-.173-30.888-3.492-30.949-3.505-.04-.056-3.4-6.11-3.557-6.375C1328.047,375.066,1360.765,384.448,1362.247,384.867Z"/>
        <path id="Path_155" data-name="Path 155" d="M1334.127,371.163l-.118.062,3.357,1.582,13.484-10.736-.079-.1Zm16.007-8.7c-1.14.915-12.719,10.133-12.79,10.188-.073-.033-2.819-1.333-3.035-1.439C1334.528,371.094,1348.858,363.182,1350.134,362.466Z"/>
        <path id="Path_156" data-name="Path 156" d="M1327.572,374.807l-6.589,3.676-3.608,31.819.129.027,10.213-35.6Zm-.071.193c-.09.313-9.483,33.033-9.906,34.515.17-1.527,3.5-30.891,3.511-30.95C1321.171,378.531,1327.218,375.151,1327.5,375Z"/>
        <path id="Path_157" data-name="Path 157" d="M1317.811,376.946l-13.454,10.711.076.109,16.759-9.255-3.354-1.582Zm.048.139c.068.023,2.82,1.333,3.039,1.44-.222.121-14.552,8.04-15.827,8.739C1306.211,386.361,1317.8,377.134,1317.859,377.085Z"/>
        <path id="Path_158" data-name="Path 158" d="M1331.16,381.41l-1.534,3.228,10.8,13.457.1-.075-9.312-16.733Zm.07.173c.125.222,8.094,14.532,8.8,15.8-.9-1.132-10.188-12.7-10.242-12.759C1329.824,384.549,1331.135,381.8,1331.23,381.583Z"/>
      </g>
      <g id="Group_116" data-name="Group 116">
        <path id="Path_159" data-name="Path 159" d="M1343.46,332.187c0,.871,0,1.719.03,2.158a1.035,1.035,0,0,1-.8.291s-.44-.664-1.065-1.44l-3.081-3.816a18.842,18.842,0,0,0-1.448-1.707,1.993,1.993,0,0,0-.074.853l0,2.591a9.124,9.124,0,0,0,.212,2.439.864.864,0,0,0,.772.421l.362.064c.115.082.08.376,0,.455-.718-.018-1.254-.041-1.786-.041-.49,0-.981.028-1.489.046a.428.428,0,0,1-.007-.457l.23-.057c.362-.061.628-.145.727-.431a9.482,9.482,0,0,0,.2-2.445l-.015-3.4a3,3,0,0,0-.084-1.124.837.837,0,0,0-.759-.447l-.375-.059c-.1-.1-.077-.426.056-.467.615.033,1.285.041,1.836.041a11.071,11.071,0,0,0,1.124-.046c.123.615,1,1.617,2.2,3.05l1.124,1.313c.584.687.97,1.164,1.277,1.466a1.92,1.92,0,0,0,.051-.593l.005-1.841a9.514,9.514,0,0,0-.2-2.442c-.133-.274-.411-.366-.779-.435l-.35-.04a.425.425,0,0,1,0-.481c.715.028,1.234.044,1.786.044.49,0,.976-.005,1.489-.033a.4.4,0,0,1,0,.459l-.24.044a.821.821,0,0,0-.717.439,8.728,8.728,0,0,0-.2,2.452Z"/>
      </g>
    </g>
  </g>
</svg>
