<svg xmlns="http://www.w3.org/2000/svg" viewBox="0 0 70.92 84.72"><defs><style>.cls-1{fill:#1a53ff;}</style></defs><g id="Layer_2" data-name="Layer 2"><g id="内容"><path d="M19.5,44.63a16.35,16.35,0,1,0,20.22-11.2A16.38,16.38,0,0,0,19.5,44.63Zm.4.12A15.94,15.94,0,1,1,30.82,64.46,16,16,0,0,1,19.9,44.75Z"/><path d="M13,42.77A23.08,23.08,0,1,0,41.58,27,23.11,23.11,0,0,0,13,42.77Zm.4.11A22.67,22.67,0,1,1,29,70.93,22.68,22.68,0,0,1,13.44,42.88Z"/><path d="M45.77,56.52a12.94,12.94,0,0,0,2.29-8.2l5.82-2.83-6.14.65a13.18,13.18,0,0,0-2.64-5.27l2.38-5.35L43.7,39.45a13,13,0,0,0-10.12-3.09l-1.1-5.15-.76,5.54a12.82,12.82,0,0,0-5.4,3.09l-4.55-3.55L25,41.37a12.52,12.52,0,0,0-2.1,4.21,12.76,12.76,0,0,0-.47,4.55l-5.34,2.6,5.65-.61a12.92,12.92,0,0,0,3,5.63l-2.2,5L27,59a12.88,12.88,0,0,0,4.66,2.47,12.73,12.73,0,0,0,5.7.31L38.45,67l.79-5.64a12.91,12.91,0,0,0,5.14-3.17l4.78,3.74Z"/><polygon points="45.63 13.82 35.46 49.26 31.83 42.69 45.63 13.82"/><polygon points="22.58 26.06 31.83 42.69 28.32 42.28 22.58 26.06"/><polygon points="0.01 39.09 35.46 49.26 28.88 52.88 0.01 39.09"/><polygon points="70.9 59.42 35.46 49.26 42.03 45.64 70.9 59.42"/><polygon points="58.67 36.41 42.01 45.61 42.41 42.1 58.67 36.41"/><polygon points="12.24 62.09 28.9 52.91 28.5 56.42 12.24 62.09"/><polygon points="25.3 84.7 35.46 49.26 39.08 55.83 25.3 84.7"/><polygon points="48.33 72.44 39.08 55.83 42.59 56.23 48.33 72.44"/><path class="cls-1" d="M22.52,26.1l9.32,16.73,1.59-3.34L22.64,26Z"/><path class="cls-1" d="M45.56,13.79l-10.2,35.6,6.72-3.74,3.61-31.84Z"/><path class="cls-1" d="M31.83,42.63,0,39l0,.14L35.6,49.38l-3.74-6.74Z"/><path class="cls-1" d="M35.48,49.19l-.16,0,3.75,6.74L70.9,59.49l0-.14Z"/><path class="cls-1" d="M42,45.55l-.12.07,3.36,1.58L58.7,36.46l-.07-.1Z"/><path class="cls-1" d="M35.43,49.2l-6.59,3.67L25.23,84.69l.13,0,10.21-35.6Z"/><path class="cls-1" d="M25.67,51.34,12.21,62.05l.08.11L29.05,52.9l-3.36-1.58Z"/><path class="cls-1" d="M39,55.8,37.48,59l10.8,13.46.11-.08L39.08,55.68Z"/><path d="M22.52,26.1l9.32,16.73,1.59-3.34L22.64,26Zm.51.64c.91,1.14,10.2,12.71,10.25,12.76s-1.35,2.82-1.45,3Z"/><path d="M45.56,13.79l-10.2,35.6,6.72-3.74,3.61-31.84Zm-.1.82c-.17,1.53-3.5,30.89-3.51,31l-6.38,3.55C35.66,48.82,45,16.09,45.46,14.61Z"/><path d="M31.83,42.63,0,39l0,.14L35.6,49.38l-3.74-6.74Zm-.06.13,3.55,6.38L.81,39.26C2.34,39.42,31.69,42.76,31.77,42.76Z"/><path d="M35.48,49.19l-.16,0,3.75,6.74L70.9,59.49l0-.14ZM70.1,59.26c-1.52-.18-30.89-3.49-30.95-3.51s-3.4-6.11-3.55-6.37Z"/><path d="M42,45.55l-.12.07,3.36,1.58L58.7,36.46l-.07-.1Zm16-8.69L45.2,47l-3-1.43Z"/><path d="M35.43,49.2l-6.59,3.67L25.23,84.69l.13,0,10.21-35.6Zm-.07.19c-.09.31-9.49,33-9.91,34.52C25.62,82.38,29,53,29,53S35.07,49.54,35.36,49.39Z"/><path d="M25.67,51.34,12.21,62.05l.08.11L29.05,52.9l-3.36-1.58Zm0,.14c.07,0,2.82,1.33,3,1.44-.22.12-14.55,8-15.82,8.73Z"/><path d="M39,55.8,37.48,59l10.8,13.46.11-.08L39.08,55.68Zm.07.17,8.8,15.8L37.64,59C37.68,58.94,39,56.19,39.08,56Z"/><path d="M51.31,6.58c0,.87,0,1.72,0,2.16a1,1,0,0,1-.8.29s-.44-.67-1.07-1.44L46.39,3.77A19.2,19.2,0,0,0,45,2.06a2,2,0,0,0-.08.86V5.51A9.12,9.12,0,0,0,45.08,8a.88.88,0,0,0,.77.42l.37.06c.11.08.07.38,0,.46-.72,0-1.26,0-1.79,0s-1,0-1.49,0c-.07-.08-.11-.37,0-.46l.23,0c.36-.06.62-.15.72-.43A9.66,9.66,0,0,0,44.1,5.5l0-3.4A3.17,3.17,0,0,0,44,1a.85.85,0,0,0-.76-.45L42.86.47c-.09-.09-.07-.42.06-.46.61,0,1.28,0,1.83,0a9,9,0,0,0,1.13,0c.12.62,1,1.62,2.2,3.05L49.2,4.37c.58.68,1,1.16,1.28,1.46a1.92,1.92,0,0,0,.05-.59V3.4A9.14,9.14,0,0,0,50.33,1c-.13-.28-.41-.37-.78-.44l-.35,0a.42.42,0,0,1,0-.48c.72,0,1.24,0,1.79,0s1,0,1.49,0a.41.41,0,0,1,0,.46l-.24,0a.83.83,0,0,0-.71.44,8.75,8.75,0,0,0-.21,2.45Z"/></g></g></svg>