<svg xmlns="http://www.w3.org/2000/svg" width="169.679" height="526.592" viewBox="0 0 169.679 526.592">
  <g id="Group_748" data-name="Group 748" transform="translate(-250 -3812.7)">
    <path id="Path_4889" data-name="Path 4889" d="M250,3812.7h67.48c33.04,0,52.919,22.121,52.919,49.28,0,24.36-20.159,49-54.879,49H278.56v71.4H250Zm28.56,27.44v43.4h36.68c17.92,0,26.6-9.8,26.6-21.56,0-11.48-8.68-21.84-24.64-21.84Z"/>
    <path id="Path_4890" data-name="Path 4890" d="M250,3982.38H419.679v28.56H278v49H250Z" fill="#fff"/>
    <path id="Path_4891" data-name="Path 4891" d="M250,4043.893l169.679,89.32v28.28L250,4198.453v-28.84l37.8-8.12v-67.76l-37.8-19.6Zm65.24,63.84v47.88l65.239-14Z"/>
    <path id="Path_4892" data-name="Path 4892" d="M358.64,4339.292,278,4219.173v120.119H250V4169.613h28.56l79.52,119v-119l28-6v175.679Z"/>
  </g>
</svg>
