<svg xmlns="http://www.w3.org/2000/svg" xmlns:xlink="http://www.w3.org/1999/xlink" width="425.007" height="89.084" viewBox="0 0 425.007 89.084">
  <defs>
    <clipPath id="clip-path">
      <rect width="425.007" height="89.084" fill="none"/>
    </clipPath>
  </defs>
  <g id="Repeat_Grid_1" data-name="Repeat Grid 1" clip-path="url(#clip-path)">
    <g id="Group_854" data-name="Group 854" transform="translate(-1230.329 -1558.661)">
      <path id="Path_7453" data-name="Path 7453" d="M1230.329,1558.661h35.427c17.347,0,27.784,11.613,27.784,25.873,0,12.789-10.584,25.725-28.813,25.725h-19.4v37.486h-14.994Zm14.994,14.406v22.786h19.257c9.408,0,13.965-5.145,13.965-11.319,0-6.027-4.557-11.467-12.936-11.467Z"/>
      <path id="Path_7454" data-name="Path 7454" d="M1305.839,1647.745v-89.084h14.994v74.384h25.726v14.7Z"/>
      <path id="Path_7455" data-name="Path 7455" d="M1352.317,1647.745l46.894-89.084h14.848l19.4,89.084h-15.141l-4.263-19.845h-35.575l-10.291,19.845Zm33.517-34.252h25.138l-7.351-34.251Z"/>
      <path id="Path_7456" data-name="Path 7456" d="M1504.946,1647.745l-42.337-63.064v63.064h-14.7v-89.084H1462.9l41.749,62.476v-62.476h14.7v89.084Z"/>
      <path id="Path_7457" data-name="Path 7457" d="M1569.533,1623.49h-30.282v-13.231h30.282Z"/>
      <path id="Path_7458" data-name="Path 7458" d="M1574.189,1647.745l46.9-89.084h14.847l19.405,89.084h-15.142l-4.263-19.845h-35.575l-10.29,19.845Zm33.517-34.252h25.138l-7.35-34.251Z"/>
    </g>
  </g>
</svg>
