<svg xmlns="http://www.w3.org/2000/svg" width="291.983" height="26.045" viewBox="0 0 291.983 26.045">
  <g id="Group_856" data-name="Group 856" transform="translate(-1295.598 -1501.245)">
    <path id="Path_7477" data-name="Path 7477" d="M1301.772,1527V1505.74H1295.6v-4.2h18.819v4.2h-8.36V1527Z"/>
    <path id="Path_7478" data-name="Path 7478" d="M1310.263,1527l13.4-25.457h4.242l5.545,25.457h-4.326l-1.219-5.671H1317.74L1314.8,1527Zm9.578-9.788h7.183l-2.1-9.788Z"/>
    <path id="Path_7479" data-name="Path 7479" d="M1336.463,1527v-25.457h4.285V1527Z"/>
    <path id="Path_7480" data-name="Path 7480" d="M1342.38,1527l13.4-25.457h4.243l5.545,25.457h-4.327l-1.218-5.671h-10.166l-2.94,5.671Zm9.578-9.788h7.183l-2.1-9.788Z"/>
    <path id="Path_7481" data-name="Path 7481" d="M1384.9,1527l-12.1-18.021V1527h-4.2v-25.457h4.285l11.93,17.854v-17.854h4.2V1527Z"/>
    <path id="Path_7482" data-name="Path 7482" d="M1405.392,1501.539h10.67c4.957,0,7.939,3.319,7.939,7.394a7.451,7.451,0,0,1-6.385,7.183l4.621,10.88h-4.663L1413,1516.284h-3.319V1527h-4.285Zm4.285,4.117v6.511h6.049c2.689,0,3.991-1.47,3.991-3.234,0-1.723-1.3-3.277-3.7-3.277Z"/>
    <path id="Path_7483" data-name="Path 7483" d="M1427.366,1527v-25.457h16.3v4.117H1431.65v6.511H1444v4.117H1431.65v6.595h9.158V1527Z"/>
    <path id="Path_7484" data-name="Path 7484" d="M1448.785,1520.863a8.923,8.923,0,0,0,6.218,2.352c2.017,0,3.36-.882,3.36-2.31,0-2.773-3.486-3.361-6.72-4.453-3.362-1.134-6.008-3.361-6.008-7.393,0-4.831,4.537-7.814,9.326-7.814A12.524,12.524,0,0,1,1465,1506.5l-3.193,2.773a9.017,9.017,0,0,0-6.973-3.823c-3.108,0-4.831,1.806-4.831,3.487,0,2.436,2.059,3.276,5.419,4.284,3.948,1.177,7.309,3.193,7.309,7.352,0,4.536-3.991,6.721-7.9,6.721a11.868,11.868,0,0,1-8.611-3.4Z"/>
    <path id="Path_7485" data-name="Path 7485" d="M1467.44,1527v-25.457h4.286V1527Z"/>
    <path id="Path_7486" data-name="Path 7486" d="M1476.915,1527v-25.457h8.191c7.6,0,13.191,5.5,13.191,12.729,0,7.477-5.587,12.728-13.862,12.728Zm8.191-4.2c5.419,0,8.822-3.655,8.822-8.527,0-4.789-3.151-8.528-8.864-8.528H1481.2V1522.8Z"/>
    <path id="Path_7487" data-name="Path 7487" d="M1501.678,1527v-25.457h16.3v4.117h-12.014v6.511h12.35v4.117h-12.35v6.595h9.157V1527Z"/>
    <path id="Path_7488" data-name="Path 7488" d="M1538.136,1527l-12.1-18.021V1527h-4.2v-25.457h4.285l11.93,17.854v-17.854h4.2V1527Z"/>
    <path id="Path_7489" data-name="Path 7489" d="M1565.6,1509.311a8.52,8.52,0,0,0-7.142-3.823c-5.041,0-8.4,3.991-8.4,8.78,0,4.872,3.486,8.779,8.4,8.779a9.908,9.908,0,0,0,5.041-1.428l2.017,3.57a12.6,12.6,0,0,1-7.058,2.1c-7.268,0-12.771-5.545-12.771-13.022a12.8,12.8,0,0,1,12.771-13.023,12.6,12.6,0,0,1,10.628,5.713Z"/>
    <path id="Path_7490" data-name="Path 7490" d="M1570.946,1527v-25.457h16.3v4.117h-12.014v6.511h12.35v4.117h-12.35v6.595h9.158V1527Z"/>
  </g>
</svg>
