<svg xmlns="http://www.w3.org/2000/svg" width="424.713" height="89.084" viewBox="0 0 424.713 89.084">
  <g id="Group_858" data-name="Group 858" transform="translate(-1230.329 -1908.662)">
    <path id="Path_7491" data-name="Path 7491" d="M1230.329,1908.662h35.427c17.347,0,27.784,11.613,27.784,25.872,0,12.789-10.584,25.726-28.813,25.726h-19.4v37.486h-14.994Zm14.994,14.406v22.786h19.257c9.408,0,13.965-5.146,13.965-11.32,0-6.027-4.557-11.466-12.936-11.466Z"/>
    <path id="Path_7492" data-name="Path 7492" d="M1305.763,1997.746v-89.084h14.994v74.383h25.726v14.7Z"/>
    <path id="Path_7493" data-name="Path 7493" d="M1352.165,1997.746l46.894-89.084h14.847l19.405,89.084h-15.142l-4.263-19.846h-35.574l-10.291,19.846Zm33.517-34.252h25.137l-7.35-34.252Z"/>
    <path id="Path_7494" data-name="Path 7494" d="M1504.718,1997.746l-42.337-63.065v63.065h-14.7v-89.084h14.994l41.749,62.476v-62.476h14.7v89.084Z"/>
    <path id="Path_7495" data-name="Path 7495" d="M1569.229,1973.49h-30.283v-13.23h30.283Z"/>
    <path id="Path_7496" data-name="Path 7496" d="M1588.891,1997.746v-89.084h38.368c17.345,0,27.783,11.613,27.783,25.872a25.684,25.684,0,0,1-15.142,22.933,21.836,21.836,0,0,1,5.734,15.435c0,13.377-11.026,24.844-27.931,24.844Zm14.994-74.678v22.786h22.2c9.408,0,13.966-5.146,13.966-11.32,0-6.027-4.558-11.466-12.937-11.466Zm0,37.192v23.079h14.553c7.2,0,12.2-5,12.2-11.319,0-6.468-4.558-11.76-12.937-11.76Z"/>
  </g>
</svg>
