<svg xmlns="http://www.w3.org/2000/svg" width="200" height="161.276" viewBox="0 0 200 161.276">
  <g id="Group_614" data-name="Group 614" transform="translate(-275 -3873.72)">
    <path id="Path_2264" data-name="Path 2264" d="M475,3935H448.781a73.781,73.781,0,1,1-147.561,0H275a100,100,0,0,0,200,0Z"/>
    <path id="Path_2265" data-name="Path 2265" d="M354.716,3884.086a1.812,1.812,0,1,0,1.811,1.811A1.811,1.811,0,0,0,354.716,3884.086Zm4.61,83.65a1.811,1.811,0,1,0,1.812,1.812A1.811,1.811,0,0,0,359.326,3967.736Zm-4.61-70.806a1.812,1.812,0,1,0,1.811,1.811A1.811,1.811,0,0,0,354.716,3896.93Zm4.61,57.962a1.811,1.811,0,1,0,1.812,1.812A1.811,1.811,0,0,0,359.326,3954.892Zm0-12.844a1.811,1.811,0,1,0,1.812,1.812A1.811,1.811,0,0,0,359.326,3942.048Zm0-25.687a1.811,1.811,0,1,0,1.812,1.811A1.81,1.81,0,0,0,359.326,3916.361Zm0-12.844a1.811,1.811,0,1,0,1.812,1.811A1.811,1.811,0,0,0,359.326,3903.517Zm-4.61,6.257a1.812,1.812,0,1,0,1.811,1.811A1.811,1.811,0,0,0,354.716,3909.774Zm4.61,19.43a1.811,1.811,0,1,0,1.812,1.812A1.811,1.811,0,0,0,359.326,3929.2Zm0-38.531a1.811,1.811,0,1,0,1.812,1.811A1.811,1.811,0,0,0,359.326,3890.673Zm-9.55,38.531a1.811,1.811,0,1,0,1.811,1.812A1.812,1.812,0,0,0,349.776,3929.2Zm0-25.687a1.811,1.811,0,1,0,1.811,1.811A1.811,1.811,0,0,0,349.776,3903.517Zm-1.007-22.372a1.811,1.811,0,0,0,2.818-1.505c0-.015,0-.03,0-.044C350.629,3880.084,349.691,3880.6,348.769,3881.145Zm1.007,35.216a1.811,1.811,0,1,0,1.811,1.811A1.811,1.811,0,0,0,349.776,3916.361Zm4.94,19.1a1.811,1.811,0,1,0,1.811,1.811A1.811,1.811,0,0,0,354.716,3935.462Zm0-12.844a1.811,1.811,0,1,0,1.811,1.811A1.811,1.811,0,0,0,354.716,3922.618Zm0,25.688a1.811,1.811,0,1,0,1.811,1.811A1.811,1.811,0,0,0,354.716,3948.306Zm0,12.844a1.811,1.811,0,1,0,1.811,1.811A1.811,1.811,0,0,0,354.716,3961.15Zm0,12.844a1.808,1.808,0,0,0-1.635,2.588q1.062.5,2.148.959a1.811,1.811,0,0,0-.513-3.547Zm-4.94-83.321a1.811,1.811,0,1,0,1.811,1.811A1.811,1.811,0,0,0,349.776,3890.673Zm19.1,77.063a1.811,1.811,0,1,0,1.811,1.812A1.811,1.811,0,0,0,368.877,3967.736Zm0-38.532a1.811,1.811,0,1,0,1.811,1.812A1.811,1.811,0,0,0,368.877,3929.2Zm0,25.688a1.811,1.811,0,1,0,1.811,1.812A1.811,1.811,0,0,0,368.877,3954.892Zm0-51.375a1.811,1.811,0,1,0,1.811,1.811A1.81,1.81,0,0,0,368.877,3903.517Zm0,12.844a1.811,1.811,0,1,0,1.811,1.811A1.81,1.81,0,0,0,368.877,3916.361Zm4.94,44.789a1.811,1.811,0,1,0,1.811,1.811A1.811,1.811,0,0,0,373.817,3961.15Zm0,12.844a1.811,1.811,0,1,0,1.811,1.811A1.811,1.811,0,0,0,373.817,3973.994Zm-4.94-83.321a1.811,1.811,0,1,0,1.811,1.811A1.81,1.81,0,0,0,368.877,3890.673Zm0-12.844a1.811,1.811,0,1,0,1.811,1.811A1.81,1.81,0,0,0,368.877,3877.829Zm-4.611,70.477a1.811,1.811,0,1,0,1.812,1.811A1.811,1.811,0,0,0,364.266,3948.306Zm9.551,0a1.811,1.811,0,1,0,1.811,1.811A1.811,1.811,0,0,0,373.817,3948.306Zm-9.551,12.844a1.811,1.811,0,1,0,1.812,1.811A1.811,1.811,0,0,0,364.266,3961.15Zm4.611,19.43a1.8,1.8,0,0,0-1.234.488q1.373.217,2.768.365A1.805,1.805,0,0,0,368.877,3980.58Zm-4.611-45.118a1.811,1.811,0,1,0,1.812,1.811A1.811,1.811,0,0,0,364.266,3935.462Zm0,38.532a1.811,1.811,0,1,0,1.812,1.811A1.811,1.811,0,0,0,364.266,3973.994Zm0-89.908a1.812,1.812,0,1,0,1.812,1.811A1.811,1.811,0,0,0,364.266,3884.086Zm0,12.844a1.812,1.812,0,1,0,1.812,1.811A1.811,1.811,0,0,0,364.266,3896.93Zm0,12.844a1.812,1.812,0,1,0,1.812,1.811A1.811,1.811,0,0,0,364.266,3909.774Zm0,12.844a1.811,1.811,0,1,0,1.812,1.811A1.811,1.811,0,0,0,364.266,3922.618Zm-4.94-44.789a1.811,1.811,0,1,0,1.812,1.811A1.811,1.811,0,0,0,359.326,3877.829Zm-28.652,77.063a1.8,1.8,0,0,0-1.042.332q.924,1.557,1.947,3.047a1.81,1.81,0,0,0-.9-3.379Zm0-12.844a1.811,1.811,0,1,0,1.812,1.812A1.811,1.811,0,0,0,330.674,3942.048Zm-4.61-32.274a1.8,1.8,0,0,0-1,.3q-.369,1.065-.692,2.151a1.81,1.81,0,1,0,1.692-2.453Zm0,12.844a1.811,1.811,0,1,0,1.811,1.811A1.811,1.811,0,0,0,326.064,3922.618Zm4.61,6.586a1.811,1.811,0,1,0,1.812,1.812A1.811,1.811,0,0,0,330.674,3929.2Zm4.94,19.1a1.811,1.811,0,1,0,1.812,1.811A1.811,1.811,0,0,0,335.614,3948.306Zm-4.94-31.945a1.811,1.811,0,1,0,1.812,1.811A1.81,1.81,0,0,0,330.674,3916.361Zm4.94,44.789a1.808,1.808,0,0,0-1.391.652q1.13,1.388,2.347,2.7a1.809,1.809,0,0,0-.956-3.347Zm-4.94-57.633a1.811,1.811,0,1,0,1.812,1.811A1.811,1.811,0,0,0,330.674,3903.517Zm85.956-9.222a1.811,1.811,0,0,0,1.392-.652q-1.129-1.388-2.348-2.7a1.81,1.81,0,0,0,.956,3.347Zm-90.566,41.167a1.811,1.811,0,1,0,1.811,1.811A1.811,1.811,0,0,0,326.064,3935.462Zm9.55,0a1.811,1.811,0,1,0,1.812,1.811A1.811,1.811,0,0,0,335.614,3935.462Zm85.956-34.909a1.8,1.8,0,0,0,1.042-.332q-.924-1.557-1.947-3.047a1.811,1.811,0,0,0,.9,3.379Zm4.5,6.58q-.613-1.484-1.308-2.924a1.807,1.807,0,0,0,1.308,2.924Zm-14.047-19.424a1.749,1.749,0,0,0,.342-.034q-1.05-.95-2.15-1.844c0,.022,0,.044,0,.066A1.811,1.811,0,0,0,412.019,3887.709Zm-89.874,41.811q.047,1.44.169,2.859a1.809,1.809,0,0,0-.169-2.859Zm4.034,18.792q.612,1.484,1.307,2.924a1.807,1.807,0,0,0-1.307-2.924Zm47.638-73.447a1.811,1.811,0,0,0,1.683-1.145q-1.665.019-3.306.135A1.811,1.811,0,0,0,373.817,3874.865Zm9.551,0a1.8,1.8,0,0,0,1.234-.488q-1.374-.218-2.769-.365A1.807,1.807,0,0,0,383.368,3874.865Zm-43.143,41.5a1.811,1.811,0,1,0,1.811,1.811A1.81,1.81,0,0,0,340.225,3916.361Zm4.94,6.257a1.811,1.811,0,1,0,1.811,1.811A1.811,1.811,0,0,0,345.165,3922.618Zm-9.551,0a1.811,1.811,0,1,0,1.812,1.811A1.811,1.811,0,0,0,335.614,3922.618Zm9.551,25.688a1.811,1.811,0,1,0,1.811,1.811A1.811,1.811,0,0,0,345.165,3948.306Zm0-38.532a1.812,1.812,0,1,0,1.811,1.811A1.811,1.811,0,0,0,345.165,3909.774Zm4.611,45.118a1.811,1.811,0,1,0,1.811,1.812A1.812,1.812,0,0,0,349.776,3954.892Zm-4.611-57.962a1.812,1.812,0,1,0,1.811,1.811A1.811,1.811,0,0,0,345.165,3896.93Zm4.611,70.806a1.811,1.811,0,1,0,1.811,1.812A1.812,1.812,0,0,0,349.776,3967.736Zm-4.611-6.586a1.811,1.811,0,1,0,1.811,1.811A1.811,1.811,0,0,0,345.165,3961.15Zm0-77.064a1.812,1.812,0,1,0,1.811,1.811A1.811,1.811,0,0,0,345.165,3884.086Zm0,51.376a1.811,1.811,0,1,0,1.811,1.811A1.811,1.811,0,0,0,345.165,3935.462Zm-4.94,32.274a1.757,1.757,0,0,0-.342.034q1.05.95,2.15,1.844c0-.022,0-.044,0-.066A1.811,1.811,0,0,0,340.225,3967.736Zm-4.611-70.806a1.812,1.812,0,1,0,1.812,1.811A1.811,1.811,0,0,0,335.614,3896.93Zm0,12.844a1.812,1.812,0,1,0,1.812,1.811A1.811,1.811,0,0,0,335.614,3909.774Zm4.611,45.118a1.811,1.811,0,1,0,1.811,1.812A1.811,1.811,0,0,0,340.225,3954.892Zm0-12.844a1.811,1.811,0,1,0,1.811,1.812A1.811,1.811,0,0,0,340.225,3942.048Zm0-51.375a1.811,1.811,0,1,0,1.811,1.811A1.811,1.811,0,0,0,340.225,3890.673Zm0,12.844a1.811,1.811,0,1,0,1.811,1.811A1.811,1.811,0,0,0,340.225,3903.517Zm9.551,38.531a1.811,1.811,0,1,0,1.811,1.812A1.812,1.812,0,0,0,349.776,3942.048Zm-9.551-12.844a1.811,1.811,0,1,0,1.811,1.812A1.811,1.811,0,0,0,340.225,3929.2Zm28.652,12.844a1.811,1.811,0,1,0,1.811,1.812A1.811,1.811,0,0,0,368.877,3942.048Zm38.2,12.844a1.811,1.811,0,1,0,1.812,1.812A1.811,1.811,0,0,0,407.079,3954.892Zm0,12.844a1.811,1.811,0,1,0,1.812,1.812A1.811,1.811,0,0,0,407.079,3967.736Zm-4.61-45.118a1.811,1.811,0,1,0,1.811,1.811A1.811,1.811,0,0,0,402.469,3922.618Zm4.61-31.945a1.811,1.811,0,1,0,1.812,1.811A1.811,1.811,0,0,0,407.079,3890.673Zm-9.55,51.375a1.811,1.811,0,1,0,1.811,1.812A1.811,1.811,0,0,0,397.529,3942.048Zm4.94-57.962a1.812,1.812,0,1,0,1.811,1.811A1.811,1.811,0,0,0,402.469,3884.086Zm4.61,19.431a1.811,1.811,0,1,0,1.812,1.811A1.811,1.811,0,0,0,407.079,3903.517Zm0,12.844a1.811,1.811,0,1,0,1.812,1.811A1.81,1.81,0,0,0,407.079,3916.361Zm0,12.843a1.811,1.811,0,1,0,1.812,1.812A1.811,1.811,0,0,0,407.079,3929.2Zm0,12.844a1.811,1.811,0,1,0,1.812,1.812A1.811,1.811,0,0,0,407.079,3942.048Zm-4.61-32.274a1.812,1.812,0,1,0,1.811,1.811A1.811,1.811,0,0,0,402.469,3909.774Zm-4.94-6.257a1.811,1.811,0,1,0,1.811,1.811A1.81,1.81,0,0,0,397.529,3903.517Zm0,12.844a1.811,1.811,0,1,0,1.811,1.811A1.81,1.81,0,0,0,397.529,3916.361Zm0,12.843a1.811,1.811,0,1,0,1.811,1.812A1.811,1.811,0,0,0,397.529,3929.2Zm0-38.531a1.811,1.811,0,1,0,1.811,1.811A1.81,1.81,0,0,0,397.529,3890.673Zm3.129,85.132c0,.015,0,.03,0,.044.956-.488,1.894-1.007,2.816-1.549a1.811,1.811,0,0,0-2.818,1.5Zm-3.642-97.9a1.814,1.814,0,1,0,2.147.959Q398.1,3878.362,397.016,3877.9Zm5.453,83.246a1.811,1.811,0,1,0,1.811,1.811A1.811,1.811,0,0,0,402.469,3961.15Zm0-12.844a1.811,1.811,0,1,0,1.811,1.811A1.811,1.811,0,0,0,402.469,3948.306Zm0-12.844a1.811,1.811,0,1,0,1.811,1.811A1.811,1.811,0,0,0,402.469,3935.462Zm0-38.532a1.812,1.812,0,1,0,1.811,1.811A1.811,1.811,0,0,0,402.469,3896.93Zm19.1,38.532a1.811,1.811,0,1,0,1.811,1.811A1.811,1.811,0,0,0,421.57,3935.462Zm0-25.688a1.812,1.812,0,1,0,1.811,1.811A1.811,1.811,0,0,0,421.57,3909.774Zm0,12.844a1.811,1.811,0,1,0,1.811,1.811A1.811,1.811,0,0,0,421.57,3922.618Zm0,25.688a1.811,1.811,0,1,0,1.811,1.811A1.811,1.811,0,0,0,421.57,3948.306Zm8.361-25.24a1.808,1.808,0,0,0,.169,2.859Q430.052,3924.485,429.931,3923.066Zm-13.3-19.549a1.811,1.811,0,1,0,1.811,1.811A1.811,1.811,0,0,0,416.63,3903.517Zm9.551,12.844a1.811,1.811,0,1,0,1.811,1.811A1.811,1.811,0,0,0,426.181,3916.361Zm0,25.687a1.811,1.811,0,1,0,1,3.322q.367-1.067.692-2.152A1.811,1.811,0,0,0,426.181,3942.048Zm0-12.844a1.811,1.811,0,1,0,1.811,1.812A1.812,1.812,0,0,0,426.181,3929.2Zm-14.162,31.946a1.811,1.811,0,1,0,1.812,1.811A1.811,1.811,0,0,0,412.019,3961.15Zm4.611-44.789a1.811,1.811,0,1,0,1.811,1.811A1.81,1.81,0,0,0,416.63,3916.361Zm-4.611-6.587a1.812,1.812,0,1,0,1.812,1.811A1.811,1.811,0,0,0,412.019,3909.774Zm0,12.844a1.811,1.811,0,1,0,1.812,1.811A1.811,1.811,0,0,0,412.019,3922.618Zm0,25.688a1.811,1.811,0,1,0,1.812,1.811A1.811,1.811,0,0,0,412.019,3948.306Zm0-12.844a1.811,1.811,0,1,0,1.812,1.811A1.811,1.811,0,0,0,412.019,3935.462Zm0-38.532a1.812,1.812,0,1,0,1.812,1.811A1.811,1.811,0,0,0,412.019,3896.93Zm4.611,32.274a1.811,1.811,0,1,0,1.811,1.812A1.811,1.811,0,0,0,416.63,3929.2Zm0,12.844a1.811,1.811,0,1,0,1.811,1.812A1.811,1.811,0,0,0,416.63,3942.048Zm0,12.844a1.811,1.811,0,1,0,1.811,1.812A1.811,1.811,0,0,0,416.63,3954.892Zm-38.2,0a1.811,1.811,0,1,0,1.811,1.812A1.812,1.812,0,0,0,378.428,3954.892Zm0-77.063a1.811,1.811,0,1,0,1.811,1.811A1.811,1.811,0,0,0,378.428,3877.829Zm4.94,31.945a1.812,1.812,0,1,0,1.811,1.811A1.811,1.811,0,0,0,383.368,3909.774Zm0,64.22a1.811,1.811,0,1,0,1.811,1.811A1.811,1.811,0,0,0,383.368,3973.994Zm-4.94-70.477a1.811,1.811,0,1,0,1.811,1.811A1.811,1.811,0,0,0,378.428,3903.517Zm4.94,31.945a1.811,1.811,0,1,0,1.811,1.811A1.811,1.811,0,0,0,383.368,3935.462Zm0,25.688a1.811,1.811,0,1,0,1.811,1.811A1.811,1.811,0,0,0,383.368,3961.15Zm14.161-6.258a1.811,1.811,0,1,0,1.811,1.812A1.811,1.811,0,0,0,397.529,3954.892Zm-14.161-32.274a1.811,1.811,0,1,0,1.811,1.811A1.811,1.811,0,0,0,383.368,3922.618Zm0,25.688a1.811,1.811,0,1,0,1.811,1.811A1.811,1.811,0,0,0,383.368,3948.306Zm-4.94-57.633a1.811,1.811,0,1,0,1.811,1.811A1.811,1.811,0,0,0,378.428,3890.673Zm-4.611-6.587a1.812,1.812,0,1,0,1.811,1.811A1.811,1.811,0,0,0,373.817,3884.086Zm0,12.844a1.812,1.812,0,1,0,1.811,1.811A1.811,1.811,0,0,0,373.817,3896.93Zm0,12.844a1.812,1.812,0,1,0,1.811,1.811A1.811,1.811,0,0,0,373.817,3909.774Zm0,12.844a1.811,1.811,0,1,0,1.811,1.811A1.811,1.811,0,0,0,373.817,3922.618Zm4.611,45.118a1.811,1.811,0,1,0,1.811,1.812A1.812,1.812,0,0,0,378.428,3967.736Zm0-25.688a1.811,1.811,0,1,0,1.811,1.812A1.812,1.812,0,0,0,378.428,3942.048Zm-4.611-6.586a1.811,1.811,0,1,0,1.811,1.811A1.811,1.811,0,0,0,373.817,3935.462Zm4.611-6.258a1.811,1.811,0,1,0,1.811,1.812A1.812,1.812,0,0,0,378.428,3929.2Zm0,51.376a1.812,1.812,0,0,0-1.684,1.145q1.665-.02,3.306-.135A1.809,1.809,0,0,0,378.428,3980.58Zm0-64.219a1.811,1.811,0,1,0,1.811,1.811A1.811,1.811,0,0,0,378.428,3916.361Zm14.49,31.945a1.811,1.811,0,1,0,1.812,1.811A1.811,1.811,0,0,0,392.918,3948.306Zm0-25.688a1.811,1.811,0,1,0,1.812,1.811A1.811,1.811,0,0,0,392.918,3922.618Zm0,12.844a1.811,1.811,0,1,0,1.812,1.811A1.811,1.811,0,0,0,392.918,3935.462Zm0,25.688a1.811,1.811,0,1,0,1.812,1.811A1.811,1.811,0,0,0,392.918,3961.15Zm0-51.376a1.812,1.812,0,1,0,1.812,1.811A1.811,1.811,0,0,0,392.918,3909.774Zm4.611,57.962a1.811,1.811,0,1,0,1.811,1.812A1.811,1.811,0,0,0,397.529,3967.736Zm-4.611-83.65a1.812,1.812,0,1,0,1.812,1.811A1.811,1.811,0,0,0,392.918,3884.086Zm0,89.908a1.811,1.811,0,1,0,1.812,1.811A1.811,1.811,0,0,0,392.918,3973.994Zm0-77.064a1.812,1.812,0,1,0,1.812,1.811A1.811,1.811,0,0,0,392.918,3896.93Zm-4.94,70.806a1.811,1.811,0,1,0,1.812,1.812A1.811,1.811,0,0,0,387.978,3967.736Zm0-25.688a1.811,1.811,0,1,0,1.812,1.812A1.811,1.811,0,0,0,387.978,3942.048Zm-4.61-45.118a1.812,1.812,0,1,0,1.811,1.811A1.811,1.811,0,0,0,383.368,3896.93Zm4.61,57.962a1.811,1.811,0,1,0,1.812,1.812A1.811,1.811,0,0,0,387.978,3954.892Zm-4.61-70.806a1.812,1.812,0,1,0,1.811,1.811A1.811,1.811,0,0,0,383.368,3884.086Zm4.61,19.431a1.811,1.811,0,1,0,1.812,1.811A1.811,1.811,0,0,0,387.978,3903.517Zm0-25.688a1.811,1.811,0,1,0,1.812,1.811A1.811,1.811,0,0,0,387.978,3877.829Zm0,12.844a1.811,1.811,0,1,0,1.812,1.811A1.811,1.811,0,0,0,387.978,3890.673Zm0,38.531a1.811,1.811,0,1,0,1.812,1.812A1.811,1.811,0,0,0,387.978,3929.2Zm0-12.843a1.811,1.811,0,1,0,1.812,1.811A1.81,1.81,0,0,0,387.978,3916.361Z" fill="#fff"/>
    <path id="Path_2266" data-name="Path 2266" d="M366.122,3943.722v-32l28,16Z"/>
  </g>
</svg>
