<svg xmlns="http://www.w3.org/2000/svg" viewBox="0 0 271.37 271.37" style=""><g id="Layer_2" data-name="Layer 2"><g id="Layer_1-2" data-name="Layer 1"><path id="Path_2275" data-name="Path 2275" d="M193,258.73c1.06-.49,2.12-1,3.16-1.52l-182-182c-.52,1.05-1,2.1-1.52,3.16Zm9.43-4.85c1-.56,2-1.13,3-1.72L19.21,66c-.58,1-1.16,2-1.72,3Zm17.09-11.46c.86-.69,1.73-1.38,2.59-2.09l-191-191c-.71.86-1.41,1.72-2.09,2.59l52.66,52.66ZM182.9,262.93c1.13-.42,2.26-.85,3.38-1.3L9.74,85.1c-.45,1.12-.88,2.25-1.3,3.38Zm44.31-27.07c.81-.74,1.62-1.49,2.41-2.26L37.77,41.75c-.76.8-1.52,1.61-2.26,2.42Zm-16,12.57c.93-.62,1.85-1.26,2.77-1.91L24.85,57.38c-.65.92-1.28,1.84-1.91,2.77Zm-39.12,18c1.21-.33,2.42-.69,3.62-1.06L6,95.65c-.37,1.2-.72,2.4-1.06,3.62Zm-93-7.38q4,1.83,8.07,3.39l-78.2-78.2q1.56,4.07,3.39,8.07ZM55.9,245.47l-30-30A137,137,0,0,0,55.9,245.47ZM101.26,267c2,.53,4.08,1,6.14,1.45L3,164c.44,2.06.92,4.1,1.46,6.14Zm33,4.4c1.55,0,3.11,0,4.66,0L0,132.49c0,1.55,0,3.1,0,4.66Zm-15.3-1q2.61.33,5.22.54L.49,147.22q.23,2.63.54,5.22Zm29,.48c1.42-.12,2.83-.27,4.24-.44L1,119.18c-.18,1.41-.32,2.82-.45,4.23Zm12.55-1.72c1.3-.25,2.6-.5,3.9-.78L3.06,107q-.42,2-.78,3.9ZM247.2,213q1-1.38,1.89-2.79l-188-188q-1.4.93-2.79,1.89Zm23.52-90.68c-.17-1.78-.38-3.55-.63-5.32L154.34,1.28Q151.69.92,149,.65Zm-.18,28.37c.16-1.43.29-2.85.41-4.28l-146-146c-1.42.11-2.85.24-4.27.4Zm.82-13.46c0-1.57,0-3.13,0-4.7L138.81,0c-1.56,0-3.13,0-4.7,0Zm-3.42-32q-.72-3.17-1.6-6.28l-94-94q-3.12-.87-6.28-1.6ZM234.4,228.79c.76-.81,1.51-1.62,2.25-2.44L45,34.72Q43.79,35.83,42.59,37Zm27-144.35q-1.74-4.29-3.8-8.49L195.42,13.81q-4.18-2.06-8.49-3.8ZM223.15,32l16.28,16.28q-3.69-4.36-7.8-8.49t-8.48-7.8Zm29.62,172.38c.58-1,1.15-2,1.7-3L70,16.9c-1,.55-2,1.12-3,1.7Zm5-9.3c.51-1.05,1-2.12,1.5-3.18L79.53,12.13c-1.06.48-2.13,1-3.18,1.5Zm-16.68,26.15q1.05-1.29,2.07-2.61L52.8,28.23,50.19,30.3Zm27.53-58.13c.26-1.3.51-2.62.74-3.93L112.25,2q-2,.35-3.93.75Zm-2.86,11.43c.36-1.22.71-2.44,1-3.66L100.56,4.6c-1.23.33-2.44.67-3.66,1Zm-3.65,10.62c.44-1.13.87-2.27,1.28-3.4L89.68,8c-1.13.41-2.27.84-3.4,1.28Z"/></g></g></svg>
