<svg id="Layer_1" data-name="Layer 1" xmlns="http://www.w3.org/2000/svg" viewBox="0 0 407.87 396.23"><defs><style>.cls-1{fill:#fff;opacity:0.2;}</style></defs><path class="cls-1" d="M62.84,154.43a3.23,3.23,0,1,0,4.57,0A3.24,3.24,0,0,0,62.84,154.43ZM.51,200.14a3.23,3.23,0,1,0,4.57,0A3.24,3.24,0,0,0,.51,200.14ZM109,91.68a3.23,3.23,0,1,0,4.57,0A3.22,3.22,0,0,0,109,91.68Zm48.2-48.2a3.23,3.23,0,1,0,4.57,0A3.24,3.24,0,0,0,157.17,43.48Zm24.1-24.1a3.23,3.23,0,1,0,4.57,0A3.24,3.24,0,0,0,181.27,19.38ZM145.12,55.53a3.23,3.23,0,1,0,4.57,0A3.24,3.24,0,0,0,145.12,55.53ZM195.4,21.87a3.24,3.24,0,1,0,4.57,0A3.23,3.23,0,0,0,195.4,21.87ZM12.56,188.09a3.23,3.23,0,1,0,4.57,0A3.24,3.24,0,0,0,12.56,188.09Zm48.21-48.21a3.24,3.24,0,1,0,4.57,0A3.23,3.23,0,0,0,60.77,139.88Zm-22,38.65a3.23,3.23,0,1,0,4.57,0A3.24,3.24,0,0,0,38.74,178.53ZM159.25,58a3.23,3.23,0,1,0,4.57,0A3.22,3.22,0,0,0,159.25,58Zm24.1-24.11a3.24,3.24,0,1,0,4.57,0A3.23,3.23,0,0,0,183.35,33.92ZM36.66,164a3.24,3.24,0,1,0,4.58,0A3.24,3.24,0,0,0,36.66,164Zm60.26-60.26a3.23,3.23,0,1,0,4.57,0A3.22,3.22,0,0,0,96.92,103.73Zm72.3-72.3a3.23,3.23,0,1,0,4.57,0A3.24,3.24,0,0,0,169.22,31.43ZM171.3,46a3.23,3.23,0,1,0,4.57,0A3.22,3.22,0,0,0,171.3,46Zm-86.43,69.8a3.24,3.24,0,1,0,4.57,0A3.23,3.23,0,0,0,84.87,115.78ZM111,106.23a3.24,3.24,0,1,0,4.58,0A3.24,3.24,0,0,0,111,106.23ZM99,118.28a3.23,3.23,0,1,0,4.57,0A3.24,3.24,0,0,0,99,118.28ZM14.64,202.63a3.23,3.23,0,1,0,4.57,0A3.24,3.24,0,0,0,14.64,202.63Zm60.25-60.25a3.23,3.23,0,1,0,4.57,0A3.24,3.24,0,0,0,74.89,142.38ZM121,79.63a3.23,3.23,0,1,0,4.57,0A3.22,3.22,0,0,0,121,79.63Zm-48.2,48.2a3.24,3.24,0,1,0,4.57,0A3.23,3.23,0,0,0,72.82,127.83ZM26.69,190.58a3.23,3.23,0,1,0,4.57,0A3.24,3.24,0,0,0,26.69,190.58ZM147.2,70.08a3.23,3.23,0,1,0,4.57,0A3.22,3.22,0,0,0,147.2,70.08ZM212,14.39a3.23,3.23,0,1,0-4.57,0A3.24,3.24,0,0,0,212,14.39ZM50.79,166.48a3.23,3.23,0,1,0,4.57,0A3.24,3.24,0,0,0,50.79,166.48ZM24.61,176a3.23,3.23,0,1,0,4.57,0A3.24,3.24,0,0,0,24.61,176ZM193.32,7.33a3.23,3.23,0,1,0,4.57,0A3.24,3.24,0,0,0,193.32,7.33ZM133.07,67.58a3.23,3.23,0,1,0,4.57,0A3.24,3.24,0,0,0,133.07,67.58Zm2.08,14.55a3.23,3.23,0,1,0,4.57,0A3.22,3.22,0,0,0,135.15,82.13Zm-48.21,48.2a3.23,3.23,0,1,0,4.57,0A3.24,3.24,0,0,0,86.94,130.33Zm36.15-36.15a3.24,3.24,0,1,0,4.58,0A3.24,3.24,0,0,0,123.09,94.18ZM48.71,151.94a3.24,3.24,0,1,0,4.58,0A3.24,3.24,0,0,0,48.71,151.94Zm-17.86,66.9a3.23,3.23,0,1,0,4.57,0A3.22,3.22,0,0,0,30.85,218.84Zm82.27-98.9a3.23,3.23,0,1,0,4.57,0A3.24,3.24,0,0,0,113.12,119.94ZM187.5,62.18a3.23,3.23,0,1,0,4.57,0A3.24,3.24,0,0,0,187.5,62.18Zm-2.08-14.54a3.24,3.24,0,1,0,4.58,0A3.24,3.24,0,0,0,185.42,47.64ZM151.35,98.33a3.23,3.23,0,1,0,4.57,0A3.24,3.24,0,0,0,151.35,98.33Zm-24.1,24.1a3.23,3.23,0,1,0,4.57,0A3.24,3.24,0,0,0,127.25,122.43Zm22-38.64a3.23,3.23,0,1,0,4.57,0A3.24,3.24,0,0,0,149.27,83.79ZM91.1,158.58a3.23,3.23,0,1,0,4.57,0A3.24,3.24,0,0,0,91.1,158.58ZM28.77,204.29a3.23,3.23,0,1,0,4.57,0A3.24,3.24,0,0,0,28.77,204.29Zm14.13,2.5a3.23,3.23,0,1,0,4.57,0A3.24,3.24,0,0,0,42.9,206.79ZM175.45,74.23a3.23,3.23,0,1,0,4.57,0A3.24,3.24,0,0,0,175.45,74.23ZM137.22,95.84a3.23,3.23,0,1,0,4.57,0A3.24,3.24,0,0,0,137.22,95.84Zm2.08,14.54a3.23,3.23,0,1,0,4.57,0A3.24,3.24,0,0,0,139.3,110.38ZM77,156.09a3.23,3.23,0,1,0,4.57,0A3.24,3.24,0,0,0,77,156.09Zm96.4-96.4a3.23,3.23,0,1,0,4.57,0A3.24,3.24,0,0,0,173.37,59.69ZM64.92,168.14a3.23,3.23,0,1,0,4.57,0A3.24,3.24,0,0,0,64.92,168.14Zm-24.1,24.1a3.23,3.23,0,1,0,4.57,0A3.24,3.24,0,0,0,40.82,192.24Zm120.5-120.5a3.23,3.23,0,1,0,4.57,0A3.24,3.24,0,0,0,161.32,71.74Zm-36.15,36.15a3.23,3.23,0,1,0,4.57,0A3.24,3.24,0,0,0,125.17,107.89ZM55,194.74a3.23,3.23,0,1,0,4.57,0A3.24,3.24,0,0,0,55,194.74ZM163.4,86.28a3.23,3.23,0,1,0,4.57,0A3.24,3.24,0,0,0,163.4,86.28ZM52.87,180.19a3.23,3.23,0,1,0,4.57,0A3.24,3.24,0,0,0,52.87,180.19ZM209.53,23.54a3.23,3.23,0,1,0,4.57,0A3.22,3.22,0,0,0,209.53,23.54ZM16.72,216.34a3.23,3.23,0,1,0,4.57,0A3.24,3.24,0,0,0,16.72,216.34ZM197.47,35.59a3.24,3.24,0,1,0,4.58,0A3.24,3.24,0,0,0,197.47,35.59ZM67,182.68a3.24,3.24,0,1,0,4.57,0A3.25,3.25,0,0,0,67,182.68Zm36.15-36.15a3.23,3.23,0,1,0,4.57,0A3.24,3.24,0,0,0,103.15,146.53Zm-24.1,24.1a3.24,3.24,0,1,0,4.57,0A3.25,3.25,0,0,0,79.05,170.63Zm120.5-120.5a3.23,3.23,0,1,0,4.57,0A3.24,3.24,0,0,0,199.55,50.13ZM115.2,134.48a3.23,3.23,0,1,0,4.57,0A3.24,3.24,0,0,0,115.2,134.48Zm96.4-96.4a3.23,3.23,0,1,0,4.57,0A3.24,3.24,0,0,0,211.6,38.08ZM101.07,132a3.23,3.23,0,1,0,4.57,0A3.24,3.24,0,0,0,101.07,132ZM223.65,26a3.23,3.23,0,1,0,4.57,0A3.24,3.24,0,0,0,223.65,26ZM89,144a3.23,3.23,0,1,0,4.57,0A3.24,3.24,0,0,0,89,144Zm66.49-17.45a3.23,3.23,0,1,0,4.57,0A3.22,3.22,0,0,0,155.51,126.59ZM83.2,198.89a3.23,3.23,0,1,0,4.57,0A3.24,3.24,0,0,0,83.2,198.89ZM45,220.5a3.23,3.23,0,1,0,4.57,0A3.22,3.22,0,0,0,45,220.5ZM189.58,75.89a3.23,3.23,0,1,0,4.57,0A3.24,3.24,0,0,0,189.58,75.89Zm-72.3,72.31a3.23,3.23,0,1,0,4.57,0A3.24,3.24,0,0,0,117.28,148.2Zm-24.1,24.1a3.23,3.23,0,1,0,4.57,0A3.22,3.22,0,0,0,93.18,172.3Zm-22,38.64a3.23,3.23,0,1,0,4.57,0A3.24,3.24,0,0,0,71.15,210.94ZM191.66,90.44a3.23,3.23,0,1,0,4.57,0A3.24,3.24,0,0,0,191.66,90.44ZM32.92,232.55a3.24,3.24,0,1,0,4.58,0A3.24,3.24,0,0,0,32.92,232.55ZM227.81,54.29a3.23,3.23,0,1,0,4.57,0A3.24,3.24,0,0,0,227.81,54.29Zm-122.58,106a3.23,3.23,0,1,0,4.57,0A3.22,3.22,0,0,0,105.23,160.25Zm-24.1,24.1a3.23,3.23,0,1,0,4.57,0A3.22,3.22,0,0,0,81.13,184.35ZM57,208.45a3.23,3.23,0,1,0,4.57,0A3.22,3.22,0,0,0,57,208.45ZM165.48,100a3.23,3.23,0,1,0,4.57,0A3.24,3.24,0,0,0,165.48,100Zm74.38-57.75a3.23,3.23,0,1,0,4.57,0A3.24,3.24,0,0,0,239.86,42.24Zm-72.3,72.3a3.23,3.23,0,1,0,4.57,0A3.22,3.22,0,0,0,167.56,114.54ZM59.1,223a3.23,3.23,0,1,0,4.57,0A3.24,3.24,0,0,0,59.1,223Zm60.26-60.25a3.23,3.23,0,1,0,4.57,0A3.22,3.22,0,0,0,119.36,162.74Zm-24.11,24.1a3.24,3.24,0,1,0,4.58,0A3.24,3.24,0,0,0,95.25,186.84Zm82.28-98.9a3.23,3.23,0,1,0,4.57,0A3.24,3.24,0,0,0,177.53,87.94ZM153.43,112a3.24,3.24,0,1,0,4.57,0A3.25,3.25,0,0,0,153.43,112Zm72.3-72.3a3.23,3.23,0,1,0,4.57,0A3.24,3.24,0,0,0,225.73,39.74Zm-46.12,62.75a3.23,3.23,0,1,0,4.57,0A3.22,3.22,0,0,0,179.61,102.49Zm-72.31,72.3a3.24,3.24,0,1,0,4.58,0A3.24,3.24,0,0,0,107.3,174.79Zm24.11-24.1a3.23,3.23,0,1,0,4.57,0A3.22,3.22,0,0,0,131.41,150.69Zm84.35-84.35a3.23,3.23,0,1,0,4.57,0A3.24,3.24,0,0,0,215.76,66.34Zm-14.13-2.5a3.23,3.23,0,1,0,4.57,0A3.24,3.24,0,0,0,201.63,63.84Zm2.08,14.55a3.23,3.23,0,1,0,4.57,0A3.24,3.24,0,0,0,203.71,78.39ZM69.08,196.4a3.23,3.23,0,1,0,4.57,0A3.22,3.22,0,0,0,69.08,196.4Zm60.25-60.25a3.23,3.23,0,1,0,4.57,0A3.24,3.24,0,0,0,129.33,136.15Zm84.35-84.36a3.23,3.23,0,1,0,4.57,0A3.24,3.24,0,0,0,213.68,51.79ZM47.05,235a3.23,3.23,0,1,0,4.57,0A3.24,3.24,0,0,0,47.05,235Zm96.41-96.4a3.23,3.23,0,1,0,4.57,0A3.22,3.22,0,0,0,143.46,138.64Zm-2.08-14.55a3.24,3.24,0,1,0,4.57,0A3.25,3.25,0,0,0,141.38,124.09ZM256.06,58.44a3.24,3.24,0,1,0,4.58,0A3.24,3.24,0,0,0,256.06,58.44Zm-120.5,120.5a3.24,3.24,0,1,0,4.57,0A3.25,3.25,0,0,0,135.56,178.94Zm-14.13-2.49a3.23,3.23,0,1,0,4.57,0A3.24,3.24,0,0,0,121.43,176.45Zm72.31-72.3a3.23,3.23,0,1,0,4.57,0A3.22,3.22,0,0,0,193.74,104.15Zm-34.08,50.69a3.23,3.23,0,1,0,4.57,0A3.24,3.24,0,0,0,159.66,154.84Zm22-38.64a3.24,3.24,0,1,0,4.58,0A3.24,3.24,0,0,0,181.68,116.2ZM61.18,236.7a3.23,3.23,0,1,0,4.57,0A3.24,3.24,0,0,0,61.18,236.7ZM169.63,128.25a3.24,3.24,0,1,0,4.58,0A3.24,3.24,0,0,0,169.63,128.25Zm-94.32,111a3.23,3.23,0,1,0,4.57,0A3.24,3.24,0,0,0,75.31,239.2Zm82.27-98.9a3.23,3.23,0,1,0,4.57,0A3.24,3.24,0,0,0,157.58,140.3ZM232,82.54a3.23,3.23,0,1,0,4.57,0A3.24,3.24,0,0,0,232,82.54ZM111.46,203.05a3.23,3.23,0,1,0,4.57,0A3.24,3.24,0,0,0,111.46,203.05ZM241.94,56a3.23,3.23,0,1,0,4.57,0A3.22,3.22,0,0,0,241.94,56ZM63.26,251.25a3.23,3.23,0,1,0,4.57,0A3.24,3.24,0,0,0,63.26,251.25Zm22-38.65a3.23,3.23,0,1,0,4.57,0A3.24,3.24,0,0,0,85.28,212.6ZM217.84,80.05a3.23,3.23,0,1,0,4.57,0A3.22,3.22,0,0,0,217.84,80.05Zm-22,38.64a3.23,3.23,0,1,0,4.57,0A3.24,3.24,0,0,0,195.81,118.69ZM133.48,164.4a3.23,3.23,0,1,0,4.57,0A3.24,3.24,0,0,0,133.48,164.4Zm72.31-72.3a3.23,3.23,0,1,0,4.57,0A3.22,3.22,0,0,0,205.79,92.1ZM229.89,68a3.23,3.23,0,1,0,4.57,0A3.22,3.22,0,0,0,229.89,68ZM87.36,227.15a3.23,3.23,0,1,0,4.57,0A3.24,3.24,0,0,0,87.36,227.15Zm58.17-74.8a3.23,3.23,0,1,0,4.57,0A3.24,3.24,0,0,0,145.53,152.35Zm62.33-45.71a3.23,3.23,0,1,0,4.57,0A3.24,3.24,0,0,0,207.86,106.64Zm-134.63,118a3.23,3.23,0,1,0,4.57,0A3.24,3.24,0,0,0,73.23,224.65Zm24.1-24.1a3.23,3.23,0,1,0,4.57,0A3.24,3.24,0,0,0,97.33,200.55ZM244,70.49a3.24,3.24,0,1,0,4.58,0A3.24,3.24,0,0,0,244,70.49Zm-134.63,118a3.23,3.23,0,1,0,4.57,0A3.24,3.24,0,0,0,109.38,188.5Zm14.13,2.5a3.23,3.23,0,1,0,4.57,0A3.24,3.24,0,0,0,123.51,191Zm48.2-48.21a3.23,3.23,0,1,0,4.57,0A3.24,3.24,0,0,0,171.71,142.79ZM99.41,215.1a3.23,3.23,0,1,0,4.57,0A3.24,3.24,0,0,0,99.41,215.1Zm84.35-84.36a3.23,3.23,0,1,0,4.57,0A3.24,3.24,0,0,0,183.76,130.74Zm36.15-36.15a3.23,3.23,0,1,0,4.57,0A3.24,3.24,0,0,0,219.91,94.59Zm-72.3,72.3a3.24,3.24,0,1,0,4.57,0A3.25,3.25,0,0,0,147.61,166.89ZM49.13,248.75a3.23,3.23,0,1,0,4.57,0A3.24,3.24,0,0,0,49.13,248.75Zm112.61-80.19a3.23,3.23,0,1,0,4.57,0A3.24,3.24,0,0,0,161.74,168.56ZM200,147a3.23,3.23,0,1,0,4.57,0A3.24,3.24,0,0,0,200,147Zm-14.13-2.49a3.23,3.23,0,1,0,4.57,0A3.24,3.24,0,0,0,185.84,144.46Zm-12.05,12a3.23,3.23,0,1,0,4.57,0A3.24,3.24,0,0,0,173.79,156.51ZM187.92,159a3.23,3.23,0,1,0,4.57,0A3.24,3.24,0,0,0,187.92,159Zm-24.1,24.1a3.23,3.23,0,1,0,4.57,0A3.22,3.22,0,0,0,163.82,183.1Zm-60.26,60.25a3.24,3.24,0,1,0,4.58,0A3.24,3.24,0,0,0,103.56,243.35Zm12.06-12a3.23,3.23,0,1,0,4.57,0A3.22,3.22,0,0,0,115.62,231.3Zm34.07-50.69a3.23,3.23,0,1,0,4.57,0A3.24,3.24,0,0,0,149.69,180.61Zm-10,26.59a3.23,3.23,0,1,0,4.57,0A3.22,3.22,0,0,0,139.72,207.2Zm12.05-12a3.23,3.23,0,1,0,4.57,0A3.22,3.22,0,0,0,151.77,195.15ZM89.44,240.86a3.23,3.23,0,1,0,4.57,0A3.22,3.22,0,0,0,89.44,240.86Zm12-12.05a3.23,3.23,0,1,0,4.57,0A3.24,3.24,0,0,0,101.49,228.81Zm12.05-12.05a3.23,3.23,0,1,0,4.57,0A3.24,3.24,0,0,0,113.54,216.76Zm62.33-45.71a3.23,3.23,0,1,0,4.57,0A3.22,3.22,0,0,0,175.87,171.05Zm-48.2,48.2a3.23,3.23,0,1,0,4.57,0A3.22,3.22,0,0,0,127.67,219.25ZM222,108.3a3.24,3.24,0,1,0,4.57,0A3.25,3.25,0,0,0,222,108.3Zm2.08,14.55a3.23,3.23,0,1,0,4.57,0A3.24,3.24,0,0,0,224.07,122.85Zm22-38.65a3.23,3.23,0,1,0,4.57,0A3.24,3.24,0,0,0,246.09,84.2Zm2.08,14.55a3.23,3.23,0,1,0,4.57,0A3.24,3.24,0,0,0,248.17,98.75Zm-38.23,21.61a3.23,3.23,0,1,0,4.57,0A3.24,3.24,0,0,0,209.94,120.36ZM91.51,255.4a3.24,3.24,0,1,0,4.58,0A3.24,3.24,0,0,0,91.51,255.4Zm46.13-62.74a3.23,3.23,0,1,0,4.57,0A3.24,3.24,0,0,0,137.64,192.66Zm122.58-106a3.23,3.23,0,1,0,4.57,0A3.24,3.24,0,0,0,260.22,86.7ZM234,96.25a3.24,3.24,0,1,0,4.57,0A3.25,3.25,0,0,0,234,96.25ZM125.59,204.71a3.23,3.23,0,1,0,4.57,0A3.24,3.24,0,0,0,125.59,204.71ZM236.12,110.8a3.23,3.23,0,1,0,4.57,0A3.24,3.24,0,0,0,236.12,110.8ZM77.39,252.91a3.23,3.23,0,1,0,4.57,0A3.22,3.22,0,0,0,77.39,252.91ZM258.14,72.15a3.23,3.23,0,1,0,4.57,0A3.24,3.24,0,0,0,258.14,72.15ZM212,134.9a3.23,3.23,0,1,0,4.57,0A3.24,3.24,0,0,0,212,134.9ZM65.34,265a3.23,3.23,0,1,0,4.57,0A3.22,3.22,0,0,0,65.34,265Zm14.12,2.49a3.23,3.23,0,1,0,4.57,0A3.24,3.24,0,0,0,79.46,267.45ZM272.27,74.65a3.23,3.23,0,1,0,4.57,0A3.24,3.24,0,0,0,272.27,74.65Zm-74.38,57.76a3.23,3.23,0,1,0,4.57,0A3.24,3.24,0,0,0,197.89,132.41Zm-19.95,52.35a3.24,3.24,0,1,0,4.58,0A3.24,3.24,0,0,0,177.94,184.76Zm-36.15,36.15a3.23,3.23,0,1,0,4.57,0A3.24,3.24,0,0,0,141.79,220.91Zm96.41-96.4a3.23,3.23,0,1,0,4.57,0A3.22,3.22,0,0,0,238.2,124.51Zm12.05-12.05a3.23,3.23,0,1,0,4.57,0A3.22,3.22,0,0,0,250.25,112.46Zm12.05-12a3.23,3.23,0,1,0,4.57,0A3.24,3.24,0,0,0,262.3,100.41Zm-10,26.59a3.24,3.24,0,1,0,4.58,0A3.24,3.24,0,0,0,252.32,127Zm-12,12.05a3.24,3.24,0,1,0,4.58,0A3.24,3.24,0,0,0,240.27,139.05Zm-24.1,24.1a3.24,3.24,0,1,0,4.57,0A3.25,3.25,0,0,0,216.17,163.15Zm-84.35,84.36a3.23,3.23,0,1,0,4.57,0A3.24,3.24,0,0,0,131.82,247.51ZM81.54,281.17a3.23,3.23,0,1,0,4.57,0A3.24,3.24,0,0,0,81.54,281.17Zm24.1-24.11a3.24,3.24,0,1,0,4.57,0A3.25,3.25,0,0,0,105.64,257.06ZM274.35,88.36a3.23,3.23,0,1,0,4.57,0A3.24,3.24,0,0,0,274.35,88.36ZM214.1,148.61a3.23,3.23,0,1,0,4.57,0A3.22,3.22,0,0,0,214.1,148.61Zm74.38-57.76a3.23,3.23,0,1,0,4.57,0A3.22,3.22,0,0,0,288.48,90.85ZM190,172.71a3.23,3.23,0,1,0,4.57,0A3.22,3.22,0,0,0,190,172.71Zm-96.41,96.4a3.24,3.24,0,1,0,4.57,0A3.25,3.25,0,0,0,93.59,269.11ZM168,211.36a3.23,3.23,0,1,0,4.57,0A3.24,3.24,0,0,0,168,211.36Zm36.15-36.15a3.23,3.23,0,1,0,4.57,0A3.24,3.24,0,0,0,204.12,175.21Zm-48.2,48.2a3.23,3.23,0,1,0,4.57,0A3.24,3.24,0,0,0,155.92,223.41ZM276.43,102.9a3.23,3.23,0,1,0,4.57,0A3.22,3.22,0,0,0,276.43,102.9ZM180,199.31a3.23,3.23,0,1,0,4.57,0A3.24,3.24,0,0,0,180,199.31Zm-36.15,36.15a3.23,3.23,0,1,0,4.57,0A3.24,3.24,0,0,0,143.87,235.46Zm58.18-74.8a3.23,3.23,0,1,0,4.57,0A3.22,3.22,0,0,0,202.05,160.66ZM117.69,245a3.24,3.24,0,1,0,4.57,0A3.25,3.25,0,0,0,117.69,245Zm48.2-48.2a3.24,3.24,0,1,0,4.58,0A3.24,3.24,0,0,0,165.89,196.81Zm60.26-60.25a3.23,3.23,0,1,0,4.57,0A3.22,3.22,0,0,0,226.15,136.56Zm2.07,14.54a3.24,3.24,0,1,0,4.57,0A3.25,3.25,0,0,0,228.22,151.1ZM95.67,283.66a3.23,3.23,0,1,0,4.57,0A3.24,3.24,0,0,0,95.67,283.66ZM264.38,115a3.23,3.23,0,1,0,4.57,0A3.22,3.22,0,0,0,264.38,115ZM129.74,233a3.23,3.23,0,1,0,4.57,0A3.24,3.24,0,0,0,129.74,233Zm62.33-45.7a3.23,3.23,0,1,0,4.57,0A3.24,3.24,0,0,0,192.07,187.26Zm-72.3,72.3a3.23,3.23,0,1,0,4.57,0A3.24,3.24,0,0,0,119.77,259.56Zm-12,12.05a3.23,3.23,0,1,0,4.57,0A3.24,3.24,0,0,0,107.72,271.61Zm46.12-62.75a3.23,3.23,0,1,0,4.57,0A3.24,3.24,0,0,0,153.84,208.86ZM133.9,261.22a3.23,3.23,0,1,0,4.57,0A3.24,3.24,0,0,0,133.9,261.22ZM266.45,128.67a3.23,3.23,0,1,0,4.57,0A3.24,3.24,0,0,0,266.45,128.67ZM194.15,201a3.23,3.23,0,1,0,4.57,0A3.24,3.24,0,0,0,194.15,201Zm2.08,14.54a3.23,3.23,0,1,0,4.57,0A3.24,3.24,0,0,0,196.23,215.51Zm96.4-96.4a3.23,3.23,0,1,0,4.57,0A3.24,3.24,0,0,0,292.63,119.11ZM182.1,213a3.23,3.23,0,1,0,4.57,0A3.24,3.24,0,0,0,182.1,213ZM148,263.71a3.23,3.23,0,1,0,4.57,0A3.22,3.22,0,0,0,148,263.71ZM278.5,116.62a3.23,3.23,0,1,0,4.57,0A3.24,3.24,0,0,0,278.5,116.62Zm-118.42,135a3.23,3.23,0,1,0,4.57,0A3.22,3.22,0,0,0,160.08,251.66Zm120.5-120.5a3.23,3.23,0,1,0,4.57,0A3.24,3.24,0,0,0,280.58,131.16ZM146,249.17a3.23,3.23,0,1,0,4.57,0A3.24,3.24,0,0,0,146,249.17Zm-34.07,50.69a3.24,3.24,0,1,0,4.57,0A3.23,3.23,0,0,0,111.88,299.86ZM242.35,152.77a3.23,3.23,0,1,0,4.57,0A3.24,3.24,0,0,0,242.35,152.77Zm-58.17,74.79a3.23,3.23,0,1,0,4.57,0A3.24,3.24,0,0,0,184.18,227.56Zm-12.05,12.05a3.23,3.23,0,1,0,4.57,0A3.24,3.24,0,0,0,172.13,239.61Zm46.12-62.74a3.23,3.23,0,1,0,4.57,0A3.24,3.24,0,0,0,218.25,176.87ZM136,275.76a3.23,3.23,0,1,0,4.57,0A3.22,3.22,0,0,0,136,275.76Zm-12,12.05a3.23,3.23,0,1,0,4.57,0A3.22,3.22,0,0,0,123.93,287.81Zm46.12-62.74a3.23,3.23,0,1,0,4.57,0A3.24,3.24,0,0,0,170.05,225.07Zm60.25-60.25a3.23,3.23,0,1,0,4.57,0A3.24,3.24,0,0,0,230.3,164.82ZM121.85,273.27a3.23,3.23,0,1,0,4.57,0A3.24,3.24,0,0,0,121.85,273.27ZM304.68,107.06a3.23,3.23,0,1,0,4.57,0A3.24,3.24,0,0,0,304.68,107.06Zm-72.3,72.3a3.23,3.23,0,1,0,4.57,0A3.24,3.24,0,0,0,232.38,179.36Zm12.05-12.05a3.23,3.23,0,1,0,4.57,0A3.24,3.24,0,0,0,244.43,167.31Zm-36.15,36.15a3.23,3.23,0,1,0,4.57,0A3.24,3.24,0,0,0,208.28,203.46Zm-2.08-14.54a3.23,3.23,0,1,0,4.57,0A3.24,3.24,0,0,0,206.2,188.92Zm-96.4,96.4a3.23,3.23,0,1,0,4.57,0A3.24,3.24,0,0,0,109.8,285.32ZM290.55,104.56a3.24,3.24,0,1,0,4.57,0A3.25,3.25,0,0,0,290.55,104.56Zm-22,38.65a3.23,3.23,0,1,0,4.57,0A3.24,3.24,0,0,0,268.53,143.21Zm-48.2,48.2a3.23,3.23,0,1,0,4.57,0A3.24,3.24,0,0,0,220.33,191.41Zm34.07-50.69a3.23,3.23,0,1,0,4.57,0A3.24,3.24,0,0,0,254.4,140.72Zm2.08,14.54a3.23,3.23,0,1,0,4.57,0A3.24,3.24,0,0,0,256.48,155.26ZM158,237.12a3.23,3.23,0,1,0,4.57,0A3.24,3.24,0,0,0,158,237.12ZM97.75,297.37a3.23,3.23,0,1,0,4.57,0A3.24,3.24,0,0,0,97.75,297.37Zm209-176.6a3.23,3.23,0,1,0,4.57,0A3.24,3.24,0,0,0,306.76,120.77Zm2.08,14.54a3.23,3.23,0,1,0,4.57,0A3.22,3.22,0,0,0,308.84,135.31Zm12.05-12a3.23,3.23,0,1,0,4.57,0A3.24,3.24,0,0,0,320.89,123.26Zm-122.58,106a3.23,3.23,0,1,0,4.57,0A3.22,3.22,0,0,0,198.31,229.22Zm2.07,14.55a3.23,3.23,0,1,0,4.57,0A3.24,3.24,0,0,0,200.38,243.77Zm-38.23,21.61a3.24,3.24,0,1,0,4.58,0A3.24,3.24,0,0,0,162.15,265.38ZM114,313.58a3.23,3.23,0,1,0,4.57,0A3.24,3.24,0,0,0,114,313.58Zm72.31-72.31a3.24,3.24,0,1,0,4.57,0A3.23,3.23,0,0,0,186.26,241.27ZM126,301.53a3.23,3.23,0,1,0,4.57,0A3.24,3.24,0,0,0,126,301.53ZM234.46,193.07a3.23,3.23,0,1,0,4.57,0A3.22,3.22,0,0,0,234.46,193.07ZM140.13,304a3.23,3.23,0,1,0,4.57,0A3.24,3.24,0,0,0,140.13,304Zm12.05-12a3.23,3.23,0,1,0,4.57,0A3.24,3.24,0,0,0,152.18,292Zm120.51-120.5a3.23,3.23,0,1,0,4.57,0A3.22,3.22,0,0,0,272.69,171.47Zm-36.16,36.15a3.24,3.24,0,1,0,4.58,0A3.24,3.24,0,0,0,236.53,207.62Zm-14.12-2.5a3.23,3.23,0,1,0,4.57,0A3.22,3.22,0,0,0,222.41,205.12Zm48.2-48.2a3.23,3.23,0,1,0,4.57,0A3.24,3.24,0,0,0,270.61,156.92ZM138.05,289.48a3.23,3.23,0,1,0,4.57,0A3.24,3.24,0,0,0,138.05,289.48Zm110.54-93.91a3.23,3.23,0,1,0,4.57,0A3.22,3.22,0,0,0,248.59,195.57Zm10-26.6a3.23,3.23,0,1,0,4.57,0A3.24,3.24,0,0,0,258.56,169ZM246.51,181a3.23,3.23,0,1,0,4.57,0A3.24,3.24,0,0,0,246.51,181Zm38.23-21.61a3.24,3.24,0,1,0,4.57,0A3.23,3.23,0,0,0,284.74,159.41Zm-24.1,24.11a3.23,3.23,0,1,0,4.57,0A3.22,3.22,0,0,0,260.64,183.52Zm-72.31,72.3a3.23,3.23,0,1,0,4.57,0A3.24,3.24,0,0,0,188.33,255.82Zm-14.12-2.5a3.24,3.24,0,1,0,4.57,0A3.23,3.23,0,0,0,174.21,253.32Zm38.22-21.6a3.23,3.23,0,1,0,4.57,0A3.24,3.24,0,0,0,212.43,231.72Zm-2.07-14.55a3.23,3.23,0,1,0,4.57,0A3.22,3.22,0,0,0,210.36,217.17Zm84.35-84.35a3.23,3.23,0,1,0,4.57,0A3.24,3.24,0,0,0,294.71,132.82ZM128.08,316.07a3.23,3.23,0,1,0,4.57,0A3.24,3.24,0,0,0,128.08,316.07ZM296.79,147.36a3.24,3.24,0,1,0,4.57,0A3.23,3.23,0,0,0,296.79,147.36Zm-14.13-2.49a3.23,3.23,0,1,0,4.57,0A3.24,3.24,0,0,0,282.66,144.87Zm-58.18,74.8a3.24,3.24,0,1,0,4.58,0A3.24,3.24,0,0,0,224.48,219.67Zm-60.25,60.25a3.23,3.23,0,1,0,4.57,0A3.24,3.24,0,0,0,164.23,279.92Zm-14.13-2.49a3.24,3.24,0,1,0,4.58,0A3.24,3.24,0,0,0,150.1,277.43Zm26.18-9.56a3.23,3.23,0,1,0,4.57,0A3.24,3.24,0,0,0,176.28,267.87ZM204.54,272a3.23,3.23,0,1,0,4.57,0A3.24,3.24,0,0,0,204.54,272Zm-14.13-2.49a3.23,3.23,0,1,0,4.57,0A3.24,3.24,0,0,0,190.41,269.53Zm12.05-12a3.23,3.23,0,1,0,4.57,0A3.24,3.24,0,0,0,202.46,257.48Zm-10,26.59a3.23,3.23,0,1,0,4.57,0A3.24,3.24,0,0,0,192.49,284.07Zm-24.1,24.1a3.24,3.24,0,1,0,4.57,0A3.25,3.25,0,0,0,168.39,308.17Zm118.42-135a3.23,3.23,0,1,0,4.57,0A3.24,3.24,0,0,0,286.81,173.13Zm14.13,2.49a3.23,3.23,0,1,0,4.57,0A3.24,3.24,0,0,0,300.94,175.62Zm-12.05,12a3.23,3.23,0,1,0,4.57,0A3.24,3.24,0,0,0,288.89,187.67ZM142.21,317.73a3.23,3.23,0,1,0,4.57,0A3.24,3.24,0,0,0,142.21,317.73ZM274.76,185.18a3.23,3.23,0,1,0,4.57,0A3.24,3.24,0,0,0,274.76,185.18ZM156.34,320.23a3.23,3.23,0,1,0,4.57,0A3.24,3.24,0,0,0,156.34,320.23Zm120.5-120.51a3.23,3.23,0,1,0,4.57,0A3.24,3.24,0,0,0,276.84,199.72Zm22-38.64a3.24,3.24,0,1,0,4.58,0A3.24,3.24,0,0,0,298.86,161.08Zm38.23-21.61a3.23,3.23,0,1,0,4.57,0A3.24,3.24,0,0,0,337.09,139.47ZM130.16,329.78a3.23,3.23,0,1,0,4.57,0A3.24,3.24,0,0,0,130.16,329.78Zm24.1-24.1a3.23,3.23,0,1,0,4.57,0A3.24,3.24,0,0,0,154.26,305.68ZM313,163.57a3.23,3.23,0,1,0,4.57,0A3.24,3.24,0,0,0,313,163.57ZM323,137a3.24,3.24,0,1,0,4.58,0A3.24,3.24,0,0,0,323,137ZM144.29,332.28a3.23,3.23,0,1,0,4.57,0A3.22,3.22,0,0,0,144.29,332.28ZM325,151.52a3.23,3.23,0,1,0,4.57,0A3.24,3.24,0,0,0,325,151.52ZM310.91,149a3.24,3.24,0,1,0,4.58,0A3.24,3.24,0,0,0,310.91,149Zm-96.4,96.4a3.23,3.23,0,1,0,4.57,0A3.24,3.24,0,0,0,214.51,245.43Zm-48.2,48.2a3.23,3.23,0,1,0,4.57,0A3.24,3.24,0,0,0,166.31,293.63Zm72.3-72.3a3.23,3.23,0,1,0,4.57,0A3.24,3.24,0,0,0,238.61,221.33Zm-10,26.59a3.23,3.23,0,1,0,4.57,0A3.24,3.24,0,0,0,228.64,247.92Zm-48.2,48.2a3.24,3.24,0,1,0,4.57,0A3.25,3.25,0,0,0,180.44,296.12Zm82.27-98.89a3.23,3.23,0,1,0,4.57,0A3.24,3.24,0,0,0,262.71,197.23Zm-22,38.64a3.23,3.23,0,1,0,4.57,0A3.24,3.24,0,0,0,240.69,235.87Zm-14.13-2.49a3.23,3.23,0,1,0,4.57,0A3.24,3.24,0,0,0,226.56,233.38Zm-48.2,48.2a3.23,3.23,0,1,0,4.57,0A3.24,3.24,0,0,0,178.36,281.58ZM216.59,260a3.23,3.23,0,1,0,4.57,0A3.24,3.24,0,0,0,216.59,260Zm34.07-50.69a3.23,3.23,0,1,0,4.57,0A3.24,3.24,0,0,0,250.66,209.28Zm14.13,2.49a3.23,3.23,0,1,0,4.57,0A3.24,3.24,0,0,0,264.79,211.77Zm-12.05,12a3.23,3.23,0,1,0,4.57,0A3.24,3.24,0,0,0,252.74,223.82ZM146.36,346a3.24,3.24,0,1,0,4.58,0A3.24,3.24,0,0,0,146.36,346Zm14.13,2.49a3.23,3.23,0,1,0,4.57,0A3.24,3.24,0,0,0,160.49,348.48Zm34.08-50.69a3.23,3.23,0,1,0,4.57,0A3.22,3.22,0,0,0,194.57,297.79Zm14.12,2.49a3.23,3.23,0,1,0,4.57,0A3.24,3.24,0,0,0,208.69,300.28Zm-36.15,36.15a3.23,3.23,0,1,0,4.57,0A3.24,3.24,0,0,0,172.54,336.43Zm12.05-12.05a3.23,3.23,0,1,0,4.57,0A3.24,3.24,0,0,0,184.59,324.38Zm-14.12-2.49a3.23,3.23,0,1,0,4.57,0A3.22,3.22,0,0,0,170.47,321.89Zm-12.06,12.05a3.24,3.24,0,1,0,4.58,0A3.24,3.24,0,0,0,158.41,333.94Zm38.23-21.61a3.23,3.23,0,1,0,4.57,0A3.24,3.24,0,0,0,196.64,312.33Zm-14.12-2.49a3.23,3.23,0,1,0,4.57,0A3.22,3.22,0,0,0,182.52,309.84Zm38.22-21.61a3.24,3.24,0,1,0,4.58,0A3.24,3.24,0,0,0,220.74,288.23ZM269,240a3.23,3.23,0,1,0,4.57,0A3.22,3.22,0,0,0,269,240Zm-2.08-14.55a3.24,3.24,0,1,0,4.57,0A3.25,3.25,0,0,0,266.87,225.48ZM281,228a3.23,3.23,0,1,0,4.57,0A3.22,3.22,0,0,0,281,228Zm-2.08-14.55a3.23,3.23,0,1,0,4.57,0A3.24,3.24,0,0,0,278.92,213.43Zm-24.1,24.1a3.24,3.24,0,1,0,4.57,0A3.25,3.25,0,0,0,254.82,237.53Zm-12,12.06a3.23,3.23,0,1,0,4.57,0A3.24,3.24,0,0,0,242.77,249.59Zm2.08,14.54a3.23,3.23,0,1,0,4.57,0A3.22,3.22,0,0,0,244.85,264.13Zm12-12a3.23,3.23,0,1,0,4.57,0A3.22,3.22,0,0,0,256.9,252.08Zm-26.18,9.56a3.23,3.23,0,1,0,4.57,0A3.22,3.22,0,0,0,230.72,261.64Zm62.33-45.71a3.23,3.23,0,1,0,4.57,0A3.22,3.22,0,0,0,293.05,215.93Zm-60.26,60.25a3.24,3.24,0,1,0,4.58,0A3.24,3.24,0,0,0,232.79,276.18Zm94.33-111a3.23,3.23,0,1,0,4.57,0A3.24,3.24,0,0,0,327.12,165.23Zm14.13,2.5a3.23,3.23,0,1,0,4.57,0A3.24,3.24,0,0,0,341.25,167.73Zm-2.08-14.55a3.23,3.23,0,1,0,4.57,0A3.24,3.24,0,0,0,339.17,153.18Zm14.13,2.5a3.23,3.23,0,1,0,4.57,0A3.24,3.24,0,0,0,353.3,155.68Zm-38.23,21.6a3.23,3.23,0,1,0,4.57,0A3.24,3.24,0,0,0,315.07,177.28ZM303,189.33a3.23,3.23,0,1,0,4.57,0A3.24,3.24,0,0,0,303,189.33Zm26.18-9.55a3.23,3.23,0,1,0,4.57,0A3.24,3.24,0,0,0,329.2,179.78Zm-12.05,12.05a3.23,3.23,0,1,0,4.57,0A3.24,3.24,0,0,0,317.15,191.83ZM291,201.38a3.23,3.23,0,1,0,4.57,0A3.24,3.24,0,0,0,291,201.38Zm14.13,2.5a3.23,3.23,0,1,0,4.57,0A3.22,3.22,0,0,0,305.1,203.88Zm-98.48,81.86a3.23,3.23,0,1,0,4.57,0A3.22,3.22,0,0,0,206.62,285.74Zm12-12.05a3.23,3.23,0,1,0,4.57,0A3.22,3.22,0,0,0,218.67,273.69Zm88.5-56.1a3.24,3.24,0,1,0,4.58,0A3.24,3.24,0,0,0,307.17,217.59Zm2.08,14.54a3.23,3.23,0,1,0,4.57,0A3.24,3.24,0,0,0,309.25,232.13ZM237,304.44a3.23,3.23,0,1,0,4.57,0A3.24,3.24,0,0,0,237,304.44Zm48.2-48.21a3.23,3.23,0,1,0,4.57,0A3.24,3.24,0,0,0,285.15,256.23Zm36.15-36.15a3.23,3.23,0,1,0,4.57,0A3.24,3.24,0,0,0,321.3,220.08Zm-24.1,24.1a3.23,3.23,0,1,0,4.57,0A3.24,3.24,0,0,0,297.2,244.18Zm-96.4,96.41a3.23,3.23,0,1,0,4.57,0A3.24,3.24,0,0,0,200.8,340.59Zm82.27-98.9a3.23,3.23,0,1,0,4.57,0A3.24,3.24,0,0,0,283.07,241.69Zm36.16-36.15a3.23,3.23,0,1,0,4.57,0A3.22,3.22,0,0,0,319.23,205.54Zm-84.36,84.35a3.23,3.23,0,1,0,4.57,0A3.24,3.24,0,0,0,234.87,289.89Zm60.25-60.25a3.24,3.24,0,1,0,4.58,0A3.24,3.24,0,0,0,295.12,229.64Zm-106.37,123a3.23,3.23,0,1,0,4.57,0A3.24,3.24,0,0,0,188.75,352.64ZM176.7,364.69a3.23,3.23,0,1,0,4.57,0A3.24,3.24,0,0,0,176.7,364.69Zm178.68-195.3a3.23,3.23,0,1,0,4.57,0A3.22,3.22,0,0,0,355.38,169.39Zm2.07,14.54a3.23,3.23,0,1,0,4.57,0A3.24,3.24,0,0,0,357.45,183.93Zm-134.63,118a3.23,3.23,0,1,0,4.57,0A3.24,3.24,0,0,0,222.82,301.94ZM369.5,171.88a3.24,3.24,0,1,0,4.58,0A3.24,3.24,0,0,0,369.5,171.88ZM162.57,362.19a3.23,3.23,0,1,0,4.57,0A3.24,3.24,0,0,0,162.57,362.19Zm62.33-45.7a3.23,3.23,0,1,0,4.57,0A3.24,3.24,0,0,0,224.9,316.49Zm106.38-123a3.23,3.23,0,1,0,4.57,0A3.22,3.22,0,0,0,331.28,193.49ZM174.62,350.14a3.23,3.23,0,1,0,4.57,0A3.24,3.24,0,0,0,174.62,350.14ZM333.35,208a3.23,3.23,0,1,0,4.57,0A3.24,3.24,0,0,0,333.35,208Zm12-12.05a3.23,3.23,0,1,0,4.57,0A3.24,3.24,0,0,0,345.4,196Zm-2.07-14.54a3.23,3.23,0,1,0,4.57,0A3.22,3.22,0,0,0,343.33,181.44ZM186.67,338.09a3.23,3.23,0,1,0,4.57,0A3.24,3.24,0,0,0,186.67,338.09Zm60.25-60.25a3.23,3.23,0,1,0,4.57,0A3.24,3.24,0,0,0,246.92,277.84ZM210.77,314a3.23,3.23,0,1,0,4.57,0A3.24,3.24,0,0,0,210.77,314ZM271,253.74a3.23,3.23,0,1,0,4.57,0A3.24,3.24,0,0,0,271,253.74Zm-12,12.05a3.23,3.23,0,1,0,4.57,0A3.24,3.24,0,0,0,259,265.79Zm-46.12,62.75a3.23,3.23,0,1,0,4.57,0A3.24,3.24,0,0,0,212.85,328.54ZM198.72,326a3.23,3.23,0,1,0,4.57,0A3.24,3.24,0,0,0,198.72,326Zm62.33-45.71a3.24,3.24,0,1,0,4.57,0A3.25,3.25,0,0,0,261.05,280.33ZM249,292.38a3.24,3.24,0,1,0,4.57,0A3.25,3.25,0,0,0,249,292.38Zm24.1-24.1a3.23,3.23,0,1,0,4.57,0A3.24,3.24,0,0,0,273.1,268.28ZM192.9,380.89a3.23,3.23,0,1,0,4.57,0A3.24,3.24,0,0,0,192.9,380.89ZM227,330.2a3.23,3.23,0,1,0,4.57,0A3.24,3.24,0,0,0,227,330.2Zm110.53-93.91a3.23,3.23,0,1,0,4.57,0A3.24,3.24,0,0,0,337.51,236.29ZM205,368.84a3.24,3.24,0,1,0,4.58,0A3.24,3.24,0,0,0,205,368.84Zm168.71-168.7a3.23,3.23,0,1,0,4.57,0A3.24,3.24,0,0,0,373.66,200.14Zm-50.28,33.65a3.24,3.24,0,1,0,4.57,0A3.25,3.25,0,0,0,323.38,233.79Zm-22,38.65a3.23,3.23,0,1,0,4.57,0A3.24,3.24,0,0,0,301.36,272.44Zm-12.05,12.05a3.23,3.23,0,1,0,4.57,0A3.22,3.22,0,0,0,289.31,284.49Zm-48.2,48.2a3.23,3.23,0,1,0,4.57,0A3.22,3.22,0,0,0,241.11,332.69Zm-50.28,33.66a3.23,3.23,0,1,0,4.57,0A3.22,3.22,0,0,0,190.83,366.35Zm38.23-21.61a3.23,3.23,0,1,0,4.57,0A3.22,3.22,0,0,0,229.06,344.74ZM275.18,282a3.23,3.23,0,1,0,4.57,0A3.24,3.24,0,0,0,275.18,282Zm72.3-72.31a3.23,3.23,0,1,0,4.57,0A3.24,3.24,0,0,0,347.48,209.69Zm-12.05,12.05a3.24,3.24,0,1,0,4.57,0A3.25,3.25,0,0,0,335.43,221.74Zm-82.27,98.9a3.23,3.23,0,1,0,4.57,0A3.22,3.22,0,0,0,253.16,320.64ZM361.61,212.19a3.23,3.23,0,1,0,4.57,0A3.24,3.24,0,0,0,361.61,212.19Zm-2.08-14.55a3.23,3.23,0,1,0,4.57,0A3.24,3.24,0,0,0,359.53,197.64Zm-10,26.6a3.23,3.23,0,1,0,4.57,0A3.24,3.24,0,0,0,349.56,224.24Zm-84.35,84.35a3.23,3.23,0,1,0,4.57,0A3.22,3.22,0,0,0,265.21,308.59Zm34.07-50.69a3.23,3.23,0,1,0,4.57,0A3.24,3.24,0,0,0,299.28,257.9Zm12.05-12a3.23,3.23,0,1,0,4.57,0A3.24,3.24,0,0,0,311.33,245.85Zm-34.07,50.69a3.23,3.23,0,1,0,4.57,0A3.22,3.22,0,0,0,277.26,296.54ZM385.71,188.09a3.23,3.23,0,1,0,4.57,0A3.24,3.24,0,0,0,385.71,188.09ZM217,356.79a3.24,3.24,0,1,0,4.58,0A3.24,3.24,0,0,0,217,356.79Zm46.13-62.74a3.23,3.23,0,1,0,4.57,0A3.24,3.24,0,0,0,263.13,294.05Zm-48.2,48.2a3.23,3.23,0,1,0,4.57,0A3.22,3.22,0,0,0,214.93,342.25Zm98.48-81.86a3.23,3.23,0,1,0,4.57,0A3.24,3.24,0,0,0,313.41,260.39ZM287.23,270a3.23,3.23,0,1,0,4.57,0A3.24,3.24,0,0,0,287.23,270Zm84.35-84.36a3.23,3.23,0,1,0,4.57,0A3.24,3.24,0,0,0,371.58,185.59Zm-46.12,62.75a3.23,3.23,0,1,0,4.57,0A3.24,3.24,0,0,0,325.46,248.34Zm-122.58,106a3.23,3.23,0,1,0,4.57,0A3.22,3.22,0,0,0,202.88,354.3Zm-24.1,24.1a3.23,3.23,0,1,0,4.57,0A3.22,3.22,0,0,0,178.78,378.4Zm72.3-72.3a3.23,3.23,0,1,0,4.57,0A3.24,3.24,0,0,0,251.08,306.1Zm-12.05,12a3.23,3.23,0,1,0,4.57,0A3.24,3.24,0,0,0,239,318.15ZM195,394.61a3.23,3.23,0,1,0,4.57,0A3.24,3.24,0,0,0,195,394.61ZM375.74,213.85a3.23,3.23,0,1,0,4.57,0A3.24,3.24,0,0,0,375.74,213.85Zm14.13,2.49a3.23,3.23,0,1,0,4.57,0A3.22,3.22,0,0,0,389.87,216.34Zm-96.41,96.41a3.23,3.23,0,1,0,4.57,0A3.24,3.24,0,0,0,293.46,312.75ZM387.79,201.8a3.23,3.23,0,1,0,4.57,0A3.24,3.24,0,0,0,387.79,201.8Zm14.13,2.49a3.23,3.23,0,1,0,4.57,0A3.22,3.22,0,0,0,401.92,204.29ZM243.18,346.4a3.23,3.23,0,1,0,4.57,0A3.24,3.24,0,0,0,243.18,346.4Zm48.2-48.2a3.24,3.24,0,1,0,4.58,0A3.24,3.24,0,0,0,291.38,298.2Zm-82.27,98.9a3.23,3.23,0,1,0,4.57,0A3.24,3.24,0,0,0,209.11,397.1ZM341.66,264.54a3.23,3.23,0,1,0,4.57,0A3.24,3.24,0,0,0,341.66,264.54ZM233.21,373a3.23,3.23,0,1,0,4.57,0A3.24,3.24,0,0,0,233.21,373Zm70.23-86.85a3.23,3.23,0,1,0,4.57,0A3.22,3.22,0,0,0,303.44,286.15Zm24.1-24.1a3.23,3.23,0,1,0,4.57,0A3.22,3.22,0,0,0,327.54,262.05ZM219.08,370.5a3.24,3.24,0,1,0,4.57,0A3.25,3.25,0,0,0,219.08,370.5Zm60.25-60.25a3.24,3.24,0,1,0,4.58,0A3.24,3.24,0,0,0,279.33,310.25Zm2.08,14.55a3.23,3.23,0,1,0,4.57,0A3.24,3.24,0,0,0,281.41,324.8Zm36.15-36.16a3.24,3.24,0,1,0,4.57,0A3.25,3.25,0,0,0,317.56,288.64ZM267.28,322.3a3.23,3.23,0,1,0,4.57,0A3.24,3.24,0,0,0,267.28,322.3Zm-36.15,36.15a3.23,3.23,0,1,0,4.57,0A3.24,3.24,0,0,0,231.13,358.45Zm98.48-81.86a3.24,3.24,0,1,0,4.57,0A3.25,3.25,0,0,0,329.61,276.59Zm-14.12-2.49a3.23,3.23,0,1,0,4.57,0A3.22,3.22,0,0,0,315.49,274.1Zm24.1-24.1a3.23,3.23,0,1,0,4.57,0A3.22,3.22,0,0,0,339.59,250Zm26.17-9.56a3.24,3.24,0,1,0,4.58,0A3.24,3.24,0,0,0,365.76,240.44Zm-96.4,96.41a3.23,3.23,0,1,0,4.57,0A3.24,3.24,0,0,0,269.36,336.85ZM245.26,361a3.23,3.23,0,1,0,4.57,0A3.24,3.24,0,0,0,245.26,361Zm118.43-135a3.23,3.23,0,1,0,4.57,0A3.22,3.22,0,0,0,363.69,225.9Zm14.12,2.49a3.24,3.24,0,1,0,4.58,0A3.24,3.24,0,0,0,377.81,228.39ZM207,382.55a3.24,3.24,0,1,0,4.57,0A3.25,3.25,0,0,0,207,382.55Zm50.28-33.65a3.23,3.23,0,1,0,4.57,0A3.24,3.24,0,0,0,257.31,348.9Zm-36.15,36.15a3.23,3.23,0,1,0,4.57,0A3.24,3.24,0,0,0,221.16,385.05ZM353.71,252.49a3.24,3.24,0,1,0,4.58,0A3.24,3.24,0,0,0,353.71,252.49Zm-98.48,81.86a3.23,3.23,0,1,0,4.57,0A3.24,3.24,0,0,0,255.23,334.35ZM351.64,238a3.23,3.23,0,1,0,4.57,0A3.22,3.22,0,0,0,351.64,238ZM305.51,300.7a3.23,3.23,0,1,0,4.57,0A3.24,3.24,0,0,0,305.51,300.7Z" transform="translate(0.43 -6.38)"/></svg>