<svg xmlns="http://www.w3.org/2000/svg" viewBox="0 0 260 260"><defs><style>.cls-1{fill:#fff;}</style></defs><g id="Layer_2" data-name="Layer 2"><g id="内容"><rect width="260" height="260"/><path class="cls-1" d="M83.22,70.38h63.31V84.62H83.22Z"/><path class="cls-1" d="M20.53,84.62V14H0V0H73.93V14H34.77V84.62Z"/><path class="cls-1" d="M20.53,84.62,65.07,0h14.1L97.61,84.62H83.22l-4-18.85H45.38L35.61,84.62ZM52.36,52.08H76.24l-7-32.53Z"/><path class="cls-1" d="M98.14,155l44.54-84.62h14.1L175.22,155H160.83l-4.05-18.85H123L113.22,155ZM130,122.46h23.88l-7-32.53Z"/><path class="cls-1" d="M99.53,239.62,60.44,181.38v58.24H45.35V155H59.6l38.54,57.67V155h15.08V260Z"/><path class="cls-1" d="M131.25,199.69h6.4a4.41,4.41,0,0,1,4.77,4.44,4.48,4.48,0,0,1-3.83,4.31l2.77,6.52h-2.8l-2.75-6.42h-2V215h-2.57Zm2.57,2.47v3.91h3.63c1.62,0,2.4-.89,2.4-1.94a2,2,0,0,0-2.22-2Z"/><path class="cls-1" d="M144.64,215V199.69h9.78v2.47h-7.21v3.91h7.41v2.47h-7.41v4h5.5V215Z"/><path class="cls-1" d="M157.7,211.28a5.32,5.32,0,0,0,3.73,1.42c1.21,0,2-.53,2-1.39,0-1.66-2.09-2-4-2.67s-3.6-2-3.6-4.44c0-2.9,2.72-4.69,5.59-4.69a7.53,7.53,0,0,1,6,3.15l-1.92,1.67a5.4,5.4,0,0,0-4.18-2.3c-1.87,0-2.9,1.09-2.9,2.1,0,1.46,1.23,2,3.25,2.57,2.37.7,4.38,1.91,4.38,4.41,0,2.72-2.39,4-4.73,4a7.14,7.14,0,0,1-5.17-2Z"/><path class="cls-1" d="M169.09,215V199.69h2.57V215Z"/><path class="cls-1" d="M175,215V199.69h4.92a7.59,7.59,0,0,1,7.91,7.64c0,4.48-3.35,7.63-8.31,7.63Zm4.92-2.52a5,5,0,0,0,5.29-5.11c0-2.88-1.89-5.12-5.32-5.12h-2.32v10.23Z"/><path class="cls-1" d="M190,215V199.69h9.78v2.47h-7.21v3.91H200v2.47h-7.41v4h5.5V215Z"/><path class="cls-1" d="M212.11,215l-7.26-10.81V215h-2.52V199.69h2.57l7.16,10.71V199.69h2.52V215Z"/><path class="cls-1" d="M228.79,204.35a5.12,5.12,0,0,0-4.28-2.29,5.27,5.27,0,0,0,0,10.53,5.89,5.89,0,0,0,3-.85l1.21,2.14a7.68,7.68,0,0,1-11.89-6.55,7.68,7.68,0,0,1,7.66-7.82,7.58,7.58,0,0,1,6.38,3.43Z"/><path class="cls-1" d="M232.2,215V199.69H242v2.47h-7.21v3.91h7.41v2.47h-7.41v4h5.49V215Z"/></g></g></svg>