<svg xmlns="http://www.w3.org/2000/svg" width="416.52" height="46.877" viewBox="0 0 416.52 46.877">
  <g id="Group_1040" data-name="Group 1040" transform="translate(-50.537 -3185.548)">
    <path id="Path_9556" data-name="Path 9556" d="M50.537,3231.9v-45.818h7.712V3231.9Z" fill="#fff"/>
    <path id="Path_9557" data-name="Path 9557" d="M81.57,3199.611,70.985,3231.9H63.122l15.122-45.818h7.787L91.7,3211.1l12.7-25.026h8.165l3.856,45.818h-7.56l-2.873-32.36L93.97,3221.991H86.711Z" fill="#fff"/>
    <path id="Path_9558" data-name="Path 9558" d="M119.889,3231.9l24.119-45.818h7.636l9.981,45.818h-7.788l-2.193-10.208h-18.3l-5.292,10.208Zm17.238-17.617h12.93l-3.781-17.616Z" fill="#fff"/>
    <path id="Path_9559" data-name="Path 9559" d="M194.539,3223.5v-6.653h-8.7v-7.41h16.407v18.373c-4.46,3.478-10.207,4.612-14.743,4.612-13.08,0-22.985-9.98-22.985-23.439,0-13,10.056-23.438,22.985-23.438a22.828,22.828,0,0,1,20.943,13.534l-6.654,3.554c-2.494-4.688-6.729-9.451-14.289-9.451-9.073,0-15.122,7.182-15.122,15.8,0,8.771,6.276,15.8,15.122,15.8A17.637,17.637,0,0,0,194.539,3223.5Z" fill="#fff"/>
    <path id="Path_9560" data-name="Path 9560" d="M214.352,3231.9v-45.818h29.335v7.409H222.063v11.719h22.229v7.41H222.063v11.87h16.483v7.41Z" fill="#fff"/>
    <path id="Path_9561" data-name="Path 9561" d="M285.641,3199.611,275.056,3231.9h-7.864l15.122-45.818H290.1l5.67,25.026,12.7-25.026h8.166L320.5,3231.9h-7.561l-2.873-32.36-12.022,22.455h-7.258Z" fill="#fff"/>
    <path id="Path_9562" data-name="Path 9562" d="M348.789,3185.548c12.929,0,22.984,10.434,22.984,23.438a23.028,23.028,0,0,1-22.984,23.439c-13.08,0-22.985-9.98-22.985-23.439C325.8,3195.982,335.86,3185.548,348.789,3185.548Zm0,39.241c8.846,0,15.122-7.032,15.122-15.8,0-8.619-6.049-15.8-15.122-15.8s-15.122,7.182-15.122,15.8C333.667,3217.757,339.943,3224.789,348.789,3224.789Z" fill="#fff"/>
    <path id="Path_9563" data-name="Path 9563" d="M374.989,3186.078h7.636l6.578,34.25,16.634-34.25h8.241L391.472,3231.9h-7.637Z" fill="#fff"/>
    <path id="Path_9564" data-name="Path 9564" d="M418.58,3231.9v-45.818h7.712V3231.9Z" fill="#fff"/>
    <path id="Path_9565" data-name="Path 9565" d="M437.116,3231.9v-45.818h29.336v7.409H444.828v11.719h22.229v7.41H444.828v11.87h16.483v7.41Z" fill="#fff"/>
  </g>
</svg>
