<svg xmlns="http://www.w3.org/2000/svg" width="153.288" height="414.637" viewBox="0 0 153.288 414.637">
  <g id="Group_1042" data-name="Group 1042" transform="translate(-298.862 -3285.38)">
    <path id="Path_9587" data-name="Path 9587" d="M448.751,3340.522c2.244.613,2.923,1.292,2.923,2.517,0,2.991-3.059,3.807-21.757,3.807H416.59c-8.5,0-10.811-.952-10.811-6.187v-23.39h-3.332c-.475,12.239-1.632,23.526-13.666,31.481l-.884-.884c7.275-8.7,8.159-18.766,8.5-28.625a8.426,8.426,0,0,1-3.944,1.088h-.815v-28.286l5.915,2.517h3.4c.34-2.584.816-6.46,1.088-9.18l9.11,1.768c-.2,1.02-1.019,1.632-2.583,1.7-1.36,1.631-3.536,3.944-5.168,5.712h9.723l2.924-3.2,6.255,4.827a5.31,5.31,0,0,1-2.855,1.36v19.854c-.068.476-2.788,1.7-4.76,1.7H413.8v-1.836h-2.515V3339.5c0,1.563.611,2.039,5.371,2.039h13.6c5.643,0,10.2-.067,12.1-.2,1.428-.136,2.04-.408,2.516-1.02q1.224-1.734,2.856-7.752h.816Zm-51.539-43.991v8.227h5.575v-8.227Zm5.575,10.2h-5.575v8.567h5.575Zm5.3-10.2v8.227H413.8v-8.227ZM413.8,3315.3v-8.567h-5.711v8.567Zm26.042-4.487a26.887,26.887,0,0,0,12.306,13.462l-.135.68c-1.361.816-2.38,3.2-2.72,6.323-6.527-5.983-9.044-13.19-10.743-20.465h-.272v25.361c0,.68-2.584,1.972-4.828,1.972H432.3v-17.678a40.074,40.074,0,0,1-7.343,8.227c6.8,4.759,2.38,10.811-1.292,7.479a13.9,13.9,0,0,0-.612-3.195c-1.9,1.019-4.283,2.243-7.207,3.671a2.316,2.316,0,0,1-1.564,1.428l-2.788-5.78c.885-.067,2.04-.2,3.468-.339.476-3.74.884-8.636,1.02-12.307l7.751,1.5a2.236,2.236,0,0,1-2.448,1.563,64.377,64.377,0,0,1-4.419,9.043c1.632-.2,3.535-.476,5.507-.747a22.125,22.125,0,0,0-2.176-4.012l.681-.408a24.8,24.8,0,0,1,2.651,1.224,47.647,47.647,0,0,0,6.732-17h-8.635l-.544-1.9H432.3v-9.587h-9.723l-.544-1.9H432.3V3286.2l8.364.884c-.137.952-.612,1.632-2.38,1.9v8.431h2.652l3.331-4.352s3.808,2.992,6.051,5.236c-.2.748-.883,1.02-1.767,1.02H438.28v9.587h3.468l3.467-4.42s3.944,3.06,6.324,5.236c-.2.748-.885,1.088-1.836,1.088Z" fill="#fff"/>
    <path id="Path_9588" data-name="Path 9588" d="M448.955,3375.275c-.612.544-1.428.681-3.06.816a154.529,154.529,0,0,1-20.33,11.695l.544.068c-.136.952-.816,1.564-2.38,1.768v31.889c0,4.9-1.291,7.751-10.471,8.567-.34-2.04-.816-3.6-2.243-4.691s-3.6-1.836-8.092-2.449v-1.019s10.335.68,12.239.68c1.36,0,1.836-.476,1.836-1.5V3386.97l6.051.612A122.7,122.7,0,0,0,436.988,3375h-42.9l-.612-1.971H437.94l4.147-3.876Z" fill="#fff"/>
    <path id="Path_9589" data-name="Path 9589" d="M415.434,3454.5a10.382,10.382,0,0,1,5.507-2.04c3.332,0,8.024,1.632,8.024,3.6,0,1.7-1.156,2.991-1.292,4.691-.068.748-.136,1.768-.136,3.2,11.9-1.36,14.414-2.04,15.57-2.04,3.06,0,7.276,1.632,7.276,4.42,0,1.9-1.088,2.312-2.856,2.312-2.72,0-7.276-1.836-20.126-.748,0,3.195-.068,7,0,10.335,1.972,2.243,2.856,5.507,2.856,9.247,0,13.326-10.608,20.67-24.682,23.117l-.68-1.428c8.227-2.991,15.027-7.411,17.61-13.87-6.731,2.311-11.9-3.128-11.9-9.927,0-5.576,3.876-10.063,9.384-10.063,1.02,0,1.971.135,2.787.2-.068-1.768-.135-4.42-.339-7.071a126.432,126.432,0,0,0-16.591,3.2c-3.06.884-4.419,2.108-6.595,2.108-2.448,0-6.12-3.332-6.868-5.643a17.357,17.357,0,0,1-.476-4.556l1.156-.476c2.04,2.583,3.2,4.08,5.44,4.147,2.855.068,15.978-1.767,23.729-2.651-.2-2.38-.339-4.488-.544-6.052a1.991,1.991,0,0,0-1.564-2.039,17.382,17.382,0,0,0-4.555-.884Zm8.363,30.257c0-3.672-1.564-6.255-4.487-6.255-3.2,0-5.372,2.787-5.372,6.323,0,3.331,2.176,5.915,5.236,5.915C422.505,3490.737,423.8,3488.969,423.8,3484.754Z" fill="#fff"/>
    <path id="Path_9590" data-name="Path 9590" d="M405.507,3536.98c1.02,2.108,2.38,4.148,4.148,4.148,2.515,0,10.131-1.972,13.6-2.992,2.108-.748,2.176-1.564,3.468-1.564,2.719,0,7.411,3.672,7.411,6.188,0,1.564-2.108,1.971-4.351,3.74a155.307,155.307,0,0,0-15.367,13.53c-.612.612-.272,1.156.408.884a32.987,32.987,0,0,1,11.355-2.312c8.975,0,16.522,5.711,16.386,15.5-.068,8.84-7.887,15.979-21.35,15.979-7.751,0-13.326-3.332-13.326-8.771,0-4.08,3.672-6.936,8.5-6.936a11.385,11.385,0,0,1,11.355,9.315c6.051-2.107,8.771-6.527,8.839-11.49.136-5.916-4.08-10.947-12.035-10.947-9.315,0-15.91,6.459-21.622,13.8-1.36,1.836-2.039,2.243-3.4,2.243-1.291,0-2.583-1.5-2.447-3.739.068-1.632.952-2.924,2.924-4.76,8.159-8.227,21.554-20.942,24.749-25.565.952-1.292.34-1.7-.612-1.564-2.312.476-7.139,2.652-9.859,4.012-1.292.679-2.312,1.767-3.6,1.767-3.4,0-6.256-3.943-6.6-6.187a12.537,12.537,0,0,1,.34-4.148Zm16.931,47.8c-.884-4.759-3.876-7.479-7.548-7.479-2.515,0-4.215,1.292-4.215,3.4,0,2.516,2.991,4.216,8.7,4.216C420.466,3584.916,421.485,3584.848,422.438,3584.779Z" fill="#fff"/>
    <path id="Path_9591" data-name="Path 9591" d="M353.665,3567.694s4.351,3.2,7,5.576c-.2.747-.884,1.087-1.9,1.087H299.406l-.544-1.972h19.854a4.788,4.788,0,0,1-.952-.679,15.2,15.2,0,0,0-2.583-8.024H303.214l-.612-1.972h23.73v-6.663l8.906.816c-.135.952-.747,1.632-2.515,1.836v4.011h14.006l3.74-4.623s4.351,3.2,7,5.507c-.136.748-.884,1.088-1.835,1.088H339.318l7.072,1.7c-.273.816-1.088,1.428-2.584,1.36a64,64,0,0,1-6.528,5.643h12.511Zm-44.332,33.248c2.244,7.82-1.088,12.783-4.624,14.211-2.311,1.02-5.031.476-5.643-1.7-.544-2.107.884-3.6,2.652-4.351,3.059-1.02,6.459-4.012,6.6-8.16Zm6.664-3.331c0,.544-2.788,1.9-5.44,1.9h-.816v-23.254l6.732,2.719h25.973l3.2-3.4,6.731,5.031a5.316,5.316,0,0,1-2.856,1.429v15.094c-.068.476-3.2,1.768-5.3,1.768h-1.088v-2.788H316ZM344.758,3611c1.971.612,2.515,1.36,2.515,2.516,0,2.788-2.788,3.74-15.434,3.74h-8.568c-6.73,0-8.09-1.02-8.09-5.44v-11.762l8.3.748c-.136.816-.748,1.427-2.04,1.631v8.16c0,.951.272,1.088,2.923,1.088h8.092c3.263,0,6.051,0,7-.069,1.02-.068,1.36-.2,1.768-.815a29.428,29.428,0,0,0,2.516-6.732h.816ZM316,3580.953v5.507h27.129v-5.507Zm27.129,13.19v-5.779H316v5.779Zm-25.43-30.461c7.48,2.448,7.276,7.139,4.828,8.7h12.511c.747-2.583,1.495-6.051,1.971-8.7Zm6.6,34.677c16.862.2,14.21,12.374,7.887,9.587-1.428-3.128-5.3-7-8.431-9.043Zm21.35,2.311c19.921,4.284,15.638,18.018,9.043,13.871-1.292-4.691-5.78-10.063-9.656-13.327Z" fill="#fff"/>
    <path id="Path_9592" data-name="Path 9592" d="M353.6,3687.914s4.827,3.536,7.683,6.119c-.2.748-.884,1.088-1.9,1.088H308.993v2.992c0,.476-2.04,1.9-5.439,1.9H302.4v-60.582l7.479,3.06h38.008l3.944-4.964s4.623,3.468,7.275,5.847c-.2.748-.816,1.088-1.768,1.088H308.993v48.683h40.388Zm-17.951,1.972v-24.274H324.02c-.136,7.683-1.632,17.883-11.831,24.478l-.748-.884c5.847-7.547,6.459-16.862,6.459-25.158V3650.79l7.616,2.584a117.091,117.091,0,0,0,19.717-6.528l6.6,5.847c-.68.613-2.04.681-3.808,0a145.045,145.045,0,0,1-24,2.652v8.3h22.845l3.672-4.556s4.352,3.128,6.935,5.439c-.2.748-.884,1.088-1.835,1.088h-13.8v22.71c0,.34-1.9,1.564-5.1,1.564Z" fill="#fff"/>
  </g>
</svg>
