<svg xmlns="http://www.w3.org/2000/svg" width="197.615" height="34.72" viewBox="0 0 197.615 34.72">
  <g id="Group_1047" data-name="Group 1047" transform="translate(-275.212 -3824.668)">
    <path id="Path_9656" data-name="Path 9656" d="M288.876,3835.084,281.037,3859h-5.825l11.2-33.935h5.768l4.2,18.535,9.409-18.535h6.047L314.692,3859h-5.6l-2.128-23.968-8.9,16.632h-5.376Z"/>
    <path id="Path_9657" data-name="Path 9657" d="M335.8,3824.668a17.363,17.363,0,0,1,0,34.72c-9.688,0-17.024-7.392-17.024-17.36A17.056,17.056,0,0,1,335.8,3824.668Zm0,29.064c6.552,0,11.2-5.208,11.2-11.7,0-6.384-4.48-11.7-11.2-11.7s-11.2,5.32-11.2,11.7C324.6,3848.524,329.252,3853.732,335.8,3853.732Z"/>
    <path id="Path_9658" data-name="Path 9658" d="M355.376,3825.061h5.656l4.872,25.367,12.32-25.367h6.1L367.583,3859h-5.655Z"/>
    <path id="Path_9659" data-name="Path 9659" d="M387.81,3859v-33.935h5.712V3859Z"/>
    <path id="Path_9660" data-name="Path 9660" d="M401.7,3859v-33.935h21.728v5.487H407.415v8.68h16.464v5.488H407.415v8.792h12.208V3859Z"/>
    <path id="Path_9661" data-name="Path 9661" d="M440.353,3849.756H428.817v-5.04h11.536Z"/>
    <path id="Path_9662" data-name="Path 9662" d="M441.915,3859l17.864-33.935h5.656L472.827,3859h-5.768l-1.624-7.56H451.883l-3.92,7.56Zm12.768-13.048h9.576l-2.8-13.048Z"/>
  </g>
</svg>
