<svg xmlns="http://www.w3.org/2000/svg" width="197.642" height="34.72" viewBox="0 0 197.642 34.72">
  <g id="Group_1050" data-name="Group 1050" transform="translate(-275.143 -4434.668)">
    <path id="Path_9666" data-name="Path 9666" d="M288.807,4445.084,280.967,4469h-5.824l11.2-33.936h5.768l4.2,18.536,9.408-18.536h6.048L314.623,4469h-5.6l-2.127-23.968-8.9,16.632h-5.376Z"/>
    <path id="Path_9667" data-name="Path 9667" d="M335.734,4434.668a17.363,17.363,0,0,1,0,34.72c-9.688,0-17.024-7.392-17.024-17.36A17.056,17.056,0,0,1,335.734,4434.668Zm0,29.064c6.552,0,11.2-5.208,11.2-11.7,0-6.384-4.48-11.7-11.2-11.7s-11.2,5.32-11.2,11.7C324.534,4458.524,329.182,4463.732,335.734,4463.732Z"/>
    <path id="Path_9668" data-name="Path 9668" d="M355.306,4435.06h5.656l4.872,25.368,12.319-25.368h6.1L367.514,4469h-5.657Z"/>
    <path id="Path_9669" data-name="Path 9669" d="M387.74,4469V4435.06h5.712V4469Z"/>
    <path id="Path_9670" data-name="Path 9670" d="M401.633,4469V4435.06H423.36v5.488H407.345v8.68h16.464v5.488H407.345v8.792h12.208V4469Z"/>
    <path id="Path_9671" data-name="Path 9671" d="M440.283,4459.756H428.747v-5.04h11.536Z"/>
    <path id="Path_9672" data-name="Path 9672" d="M447.585,4469V4435.06H462.2c6.609,0,10.584,4.424,10.584,9.856a9.784,9.784,0,0,1-5.767,8.736,8.325,8.325,0,0,1,2.183,5.88c0,5.1-4.2,9.464-10.639,9.464Zm5.712-28.448v8.68h8.456c3.584,0,5.32-1.96,5.32-4.312,0-2.3-1.736-4.368-4.927-4.368Zm0,14.168v8.792h5.544a4.365,4.365,0,0,0,4.648-4.312c0-2.464-1.736-4.48-4.927-4.48Z"/>
  </g>
</svg>
