<svg xmlns="http://www.w3.org/2000/svg" width="537.369" height="271.57" viewBox="0 0 537.369 271.57">
  <g id="Group_749" data-name="Group 749" transform="translate(-1051.717 -2520.199)">
    <path id="Path_4893" data-name="Path 4893" d="M1234.788,2520.2h43.863c21.477,0,34.4,14.378,34.4,32.033,0,15.834-13.1,31.851-35.674,31.851h-24.024V2630.5h-18.565Zm18.565,17.836v28.212h23.842c11.649,0,17.291-6.371,17.291-14.015,0-7.462-5.642-14.2-16.017-14.2Z" fill="#fff"/>
    <path id="Path_4894" data-name="Path 4894" d="M1327.1,2630.5V2520.2h18.565v92.095h31.851v18.2Z" fill="#fff"/>
    <path id="Path_4895" data-name="Path 4895" d="M1383.459,2630.5l58.06-110.3H1459.9l24.025,110.3H1465.18l-5.278-24.571h-44.046l-12.74,24.571Zm41.5-42.408h31.123l-9.1-42.407Z" fill="#fff"/>
    <path id="Path_4896" data-name="Path 4896" d="M1571.249,2630.5l-52.418-78.081V2630.5h-18.2V2520.2h18.565l51.69,77.353V2520.2h18.2v110.3Z" fill="#fff"/>
    <path id="Path_4897" data-name="Path 4897" d="M1051.717,2790.5V2680.2h35.491c32.944,0,57.151,23.843,57.151,55.148,0,32.4-24.207,55.148-60.063,55.148Zm35.491-18.2c23.48,0,38.222-15.834,38.222-36.947,0-20.749-13.651-36.948-38.4-36.948h-16.744v73.9Z" fill="#fff"/>
    <path id="Path_4898" data-name="Path 4898" d="M1162.627,2790.5V2680.2h70.619v17.837h-52.055v28.211H1234.7v17.836h-53.511v28.575h39.678V2790.5Z" fill="#fff"/>
    <path id="Path_4899" data-name="Path 4899" d="M1259.049,2763.922c6.552,6.552,16.744,10.192,26.937,10.192,8.736,0,14.56-3.822,14.56-10.01,0-12.012-15.106-14.561-29.121-19.292-14.56-4.915-26.027-14.561-26.027-32.034,0-20.931,19.657-33.853,40.406-33.853,21.841,0,38.221,14.2,43.5,22.751l-13.833,12.012c-4.732-6.734-15.834-16.563-30.213-16.563-13.468,0-20.931,7.827-20.931,15.107,0,10.557,8.919,14.2,23.479,18.565,17.109,5.1,31.669,13.832,31.669,31.851,0,19.657-17.29,29.121-34.217,29.121-15.107,0-28.211-5.46-37.312-14.743Z" fill="#fff"/>
    <path id="Path_4900" data-name="Path 4900" d="M1343.477,2790.5V2680.2h18.565v110.3Z" fill="#fff"/>
    <path id="Path_4901" data-name="Path 4901" d="M1452.932,2770.292v-16.016H1432v-17.837h39.5v44.228c-10.739,8.372-24.571,11.1-35.492,11.1-31.487,0-55.33-24.025-55.33-56.422,0-31.3,24.207-56.422,55.33-56.422,21.841,0,41.134,12.376,50.416,32.579l-16.017,8.555c-6.006-11.285-16.2-22.751-34.4-22.751-21.841,0-36.4,17.29-36.4,38.039,0,21.113,15.106,38.039,36.4,38.039A42.482,42.482,0,0,0,1452.932,2770.292Z" fill="#fff"/>
    <path id="Path_4902" data-name="Path 4902" d="M1571.249,2790.5l-52.418-78.081V2790.5h-18.2V2680.2h18.565l51.69,77.353V2680.2h18.2v110.3Z" fill="#fff"/>
  </g>
</svg>
