<svg xmlns="http://www.w3.org/2000/svg" width="47.251" height="272" viewBox="0 0 47.251 272">
  <g id="Group_1075" data-name="Group 1075" transform="translate(-250 -253.996)">
    <g id="Group_1074" data-name="Group 1074">
      <path id="Path_10341" data-name="Path 10341" d="M271.5,255.018h1.995l5.648,5.06a2.388,2.388,0,0,0,1.722.84,1.422,1.422,0,0,0,1.385-1.533,2.95,2.95,0,0,0-.8-1.805l1.532-1.323a4.447,4.447,0,0,1,1.386,3.3,3.5,3.5,0,0,1-3.464,3.528,4.84,4.84,0,0,1-3.444-1.617L273.6,258v5.018h-2.1Z" fill="#fff"/>
      <path id="Path_10342" data-name="Path 10342" d="M279.962,264.424a4.355,4.355,0,0,1,4.409,4.346,4.239,4.239,0,0,1-4.577,4.22h-4.031a4.253,4.253,0,0,1-4.409-4.346c0-2.331,1.679-4.22,4.577-4.22Zm-.168,2.141h-3.779c-1.911,0-2.52.966-2.52,2.079a2.13,2.13,0,0,0,2.436,2.2h3.779c1.911,0,2.519-.966,2.519-2.079A2.129,2.129,0,0,0,279.794,266.565Z" fill="#fff"/>
      <path id="Path_10343" data-name="Path 10343" d="M271.5,273.527h1.995l5.648,5.06a2.388,2.388,0,0,0,1.722.84,1.422,1.422,0,0,0,1.385-1.533,2.953,2.953,0,0,0-.8-1.806l1.532-1.322a4.445,4.445,0,0,1,1.386,3.3,3.494,3.494,0,0,1-3.464,3.527,4.839,4.839,0,0,1-3.444-1.616l-3.863-3.465v5.018h-2.1Z" fill="#fff"/>
      <path id="Path_10344" data-name="Path 10344" d="M271.5,282.233h1.995l5.648,5.06a2.388,2.388,0,0,0,1.722.84,1.422,1.422,0,0,0,1.385-1.533,2.953,2.953,0,0,0-.8-1.806l1.532-1.322a4.445,4.445,0,0,1,1.386,3.3,3.494,3.494,0,0,1-3.464,3.527,4.839,4.839,0,0,1-3.444-1.616l-3.863-3.465v5.018h-2.1Z" fill="#fff"/>
      <path id="Path_10345" data-name="Path 10345" d="M274.02,292.942a1.333,1.333,0,1,1-2.666,0,1.333,1.333,0,0,1,2.666,0Z" fill="#fff"/>
      <path id="Path_10346" data-name="Path 10346" d="M276.163,313.549h3.7v-4.831h4.117v9.115H273.769a13.537,13.537,0,0,1-2.562-8.191c0-7.267,5.544-12.77,13.022-12.77a12.769,12.769,0,0,1,5.5,24.406l-1.975-3.7c2.605-1.387,5.251-3.739,5.251-7.94,0-5.041-3.99-8.4-8.779-8.4-4.873,0-8.78,3.486-8.78,8.4A9.811,9.811,0,0,0,276.163,313.549Z" fill="#fff"/>
      <path id="Path_10347" data-name="Path 10347" d="M296.957,322.673v10.67c0,4.957-3.319,7.939-7.394,7.939a7.452,7.452,0,0,1-7.183-6.385l-10.88,4.621v-4.663l10.712-4.579v-3.318H271.5v-4.285Zm-4.117,4.285h-6.511v6.049c0,2.688,1.47,3.991,3.234,3.991,1.723,0,3.277-1.3,3.277-3.7Z" fill="#fff"/>
      <path id="Path_10348" data-name="Path 10348" d="M271.5,340.084l25.457,13.4v4.243L271.5,363.272v-4.326l5.671-1.218V347.562l-5.671-2.941Zm9.788,9.578v7.183l9.788-2.1Z" fill="#fff"/>
      <path id="Path_10349" data-name="Path 10349" d="M271.5,381.555l18.021-12.1H271.5v-4.2h25.457v4.285L279.1,381.471h17.853v4.2H271.5Z" fill="#fff"/>
      <path id="Path_10350" data-name="Path 10350" d="M271.5,389.859h25.457v8.191c0,7.6-5.5,13.191-12.728,13.191-7.478,0-12.729-5.587-12.729-13.863Zm4.2,8.191c0,5.419,3.655,8.822,8.528,8.822,4.789,0,8.527-3.151,8.527-8.864v-3.864H275.7Z" fill="#fff"/>
      <path id="Path_10351" data-name="Path 10351" d="M271.5,423.416h25.457v8.191c0,7.6-5.5,13.191-12.728,13.191-7.478,0-12.729-5.587-12.729-13.863Zm4.2,8.191c0,5.419,3.655,8.822,8.528,8.822,4.789,0,8.527-3.151,8.527-8.864V427.7H275.7Z" fill="#fff"/>
      <path id="Path_10352" data-name="Path 10352" d="M271.5,447.129h25.457v16.3H292.84V451.414h-6.511v12.35h-4.117v-12.35h-6.6v9.157H271.5Z" fill="#fff"/>
      <path id="Path_10353" data-name="Path 10353" d="M271.5,466.238h25.457V477.2c0,4.957-3.319,7.94-7.394,7.94a7.338,7.338,0,0,1-6.552-4.328,6.24,6.24,0,0,1-4.411,1.639c-3.823,0-7.1-3.15-7.1-7.981Zm10.712,4.285h-6.6v4.159a3.274,3.274,0,0,0,3.235,3.486c1.848,0,3.36-1.3,3.36-3.7Zm10.628,0h-6.511v6.343c0,2.689,1.47,3.99,3.234,3.99,1.723,0,3.277-1.3,3.277-3.7Z" fill="#fff"/>
      <path id="Path_10354" data-name="Path 10354" d="M280.616,505.784a9.41,9.41,0,0,1,0-18.819h16.341v4.284H280.616a5.066,5.066,0,0,0-5.125,5.125,4.965,4.965,0,0,0,5.125,5.125h16.341v4.285Z" fill="#fff"/>
      <path id="Path_10355" data-name="Path 10355" d="M271.5,512.963h21.256v-6.175h4.2v18.819h-4.2v-8.359H271.5Z" fill="#fff"/>
    </g>
    <rect id="Rectangle_318" data-name="Rectangle 318" width="10" height="272" transform="translate(250 253.996)" fill="#1a53ff"/>
  </g>
</svg>
