<svg xmlns="http://www.w3.org/2000/svg" width="55" height="40" viewBox="0 0 55 40">
  <g id="Group_638" data-name="Group 638" transform="translate(-1672.5 -609.996)">
    <g id="Group_637" data-name="Group 637">
      <g id="Group_634" data-name="Group 634">
        <path id="Path_2329" data-name="Path 2329" d="M1727.5,614a4.012,4.012,0,0,1-4,4h-47a4.012,4.012,0,0,1-4-4h0a4.012,4.012,0,0,1,4-4h47a4.012,4.012,0,0,1,4,4Z"/>
      </g>
      <g id="Group_635" data-name="Group 635">
        <path id="Path_2330" data-name="Path 2330" d="M1727.5,630a4.012,4.012,0,0,1-4,4h-47a4.012,4.012,0,0,1-4-4h0a4.012,4.012,0,0,1,4-4h47a4.012,4.012,0,0,1,4,4Z"/>
      </g>
      <g id="Group_636" data-name="Group 636">
        <path id="Path_2331" data-name="Path 2331" d="M1727.5,646a4.012,4.012,0,0,1-4,4h-47a4.012,4.012,0,0,1-4-4h0a4.012,4.012,0,0,1,4-4h47a4.012,4.012,0,0,1,4,4Z"/>
      </g>
    </g>
  </g>
</svg>
