<svg xmlns="http://www.w3.org/2000/svg" width="55" height="42.082" viewBox="0 0 55 42.082">
  <g id="Group_633" data-name="Group 633" transform="translate(-1672.5 -708.955)">
    <g id="Group_632" data-name="Group 632">
      <path id="Path_2327" data-name="Path 2327" d="M1724.6,708.955h-49.2a2.9,2.9,0,0,0-2.9,2.9v36.279a2.9,2.9,0,0,0,2.9,2.9h49.2a2.9,2.9,0,0,0,2.9-2.9V711.857A2.9,2.9,0,0,0,1724.6,708.955Zm-47.1,35.8q7.608-6.1,15.212-12.206l5.3,4.234a2.9,2.9,0,0,0,3.625-.005l5.646-4.529q7.607,6.064,15.212,12.132v1.656h-45Zm44.989-5.183q-5.025-4.01-10.052-8.016l-2.147-1.715q6.1-4.905,12.21-9.8v12.044Zm.011-25.616v1.275q-10.431,8.371-20.865,16.741a2.9,2.9,0,0,1-3.624.006q-10.256-8.178-20.511-16.354v-1.668h45Zm-32.8,16.2-7.519,6.034-4.684,3.744V720.418q5,3.994,10.011,7.986Z"/>
    </g>
  </g>
</svg>
