<svg xmlns="http://www.w3.org/2000/svg" width="82.5" height="82.507" viewBox="0 0 82.5 82.507">
  <g id="Group_647" data-name="Group 647" transform="translate(-633.75 -183.742)">
    <g id="Group_636" data-name="Group 636">
      <path id="Path_2295" data-name="Path 2295" d="M663.182,205.327a5.908,5.908,0,0,0,.073-8.439l-11.1-11.113a7.015,7.015,0,0,0-9.876,0l-1.855,1.873,20.207,20.207C661.435,207.019,662.327,206.145,663.182,205.327Z"/>
      <path id="Path_2296" data-name="Path 2296" d="M689.481,241.849c-.272.218-.527.418-.745.6-3.11,2.4-9.385-2.437-19.061-12.131-9.694-9.695-14.551-15.951-12.15-19.062.182-.218.382-.473.618-.746l-20.3-20.3-2.183,2.182c-1.45,1.455-2.15,4.7-1.841,9.107.012.177.02.349.035.528.005.055.012.113.017.168.654,7.454,4.106,18.038,11.816,29.125a90.525,90.525,0,0,0,10.471,12.508c21.917,21.916,46.58,25.336,51.418,20.5l2.173-2.155.009-.009h0l.019-.018Z"/>
      <path id="Path_2297" data-name="Path 2297" d="M714.218,247.832,703.1,236.738a5.908,5.908,0,0,0-8.44.073c-.811.847-1.676,1.712-2.506,2.525l0,0h0l-.019.018,20.207,20.207,1.874-1.855A7.018,7.018,0,0,0,714.218,247.832Z"/>
    </g>
  </g>
</svg>
