<svg xmlns="http://www.w3.org/2000/svg" width="19.759" height="201.207" viewBox="0 0 19.759 201.207">
  <g id="Group_1077" data-name="Group 1077" transform="translate(-1599.5 -679.996)">
    <line id="Line_246" data-name="Line 246" y2="100" transform="translate(1600 679.996)" fill="none" stroke="#fff" stroke-miterlimit="10" stroke-width="1"/>
    <path id="Path_10356" data-name="Path 10356" d="M1600,780V880l10-10" fill="none" stroke="#000" stroke-miterlimit="10" stroke-width="1"/>
    <g id="Group_1076" data-name="Group 1076">
      <path id="Path_10357" data-name="Path 10357" d="M1610.758,681.726a3.864,3.864,0,0,0-1.02,2.693c0,.874.383,1.457,1,1.457,1.2,0,1.456-1.511,1.929-2.913a3.316,3.316,0,0,1,3.2-2.6c2.093,0,3.386,1.966,3.386,4.041a5.425,5.425,0,0,1-2.276,4.351l-1.2-1.383a3.907,3.907,0,0,0,1.656-3.022c0-1.347-.782-2.094-1.51-2.094-1.056,0-1.42.893-1.857,2.349-.51,1.711-1.383,3.167-3.186,3.167-1.966,0-2.912-1.729-2.912-3.422a5.147,5.147,0,0,1,1.474-3.732Z" fill="#fff"/>
      <path id="Path_10358" data-name="Path 10358" d="M1615.764,697.139a3.692,3.692,0,0,0,1.656-3.095,3.808,3.808,0,0,0-7.609,0,4.3,4.3,0,0,0,.619,2.185l-1.547.874a5.549,5.549,0,0,1,4.733-8.593,5.544,5.544,0,0,1,5.643,5.534,5.457,5.457,0,0,1-2.476,4.6Z" fill="#fff"/>
      <path id="Path_10359" data-name="Path 10359" d="M1619.131,699.079V703.7a3.184,3.184,0,0,1-3.2,3.441,3.229,3.229,0,0,1-3.113-2.767l-4.715,2v-2.021l4.642-1.983v-1.438H1608.1v-1.857Zm-1.783,1.857h-2.822v2.621c0,1.165.637,1.729,1.4,1.729a1.451,1.451,0,0,0,1.42-1.6Z" fill="#fff"/>
      <path id="Path_10360" data-name="Path 10360" d="M1619.259,712.949a5.644,5.644,0,0,1-11.286,0,5.455,5.455,0,0,1,5.643-5.533A5.543,5.543,0,0,1,1619.259,712.949Zm-9.448,0a3.808,3.808,0,1,0,3.8-3.64A3.645,3.645,0,0,0,1609.811,712.949Z" fill="#fff"/>
      <path id="Path_10361" data-name="Path 10361" d="M1619.259,724.356a5.644,5.644,0,0,1-11.286,0,5.456,5.456,0,0,1,5.643-5.533A5.544,5.544,0,0,1,1619.259,724.356Zm-9.448,0a3.808,3.808,0,1,0,3.8-3.64A3.646,3.646,0,0,0,1609.811,724.356Z" fill="#fff"/>
      <path id="Path_10362" data-name="Path 10362" d="M1608.1,731.019h11.031v1.856h-9.211v3.186h-1.82Z" fill="#fff"/>
    </g>
  </g>
</svg>
