<svg xmlns="http://www.w3.org/2000/svg" width="248.32" height="490.438" viewBox="0 0 248.32 490.438">
  <g id="Group_1073" data-name="Group 1073" transform="translate(-875.84 -64.777)">
    <path id="Path_10329" data-name="Path 10329" d="M1063.055,85.185c0-10.924-.12-16.086-.48-20.408,11.764,1.08,13.565,1.921,13.565,3.241,0,.961-.6,2.041-4.682,3.6v35.414h22.69c2.281-2.761,4.561-5.4,7.442-8.4,11.165,8.883,11.645,9.724,11.645,10.924,0,.841-.72,1.441-1.92,1.441h-39.857v46.459h32.294c2.52-3,5.041-5.883,7.923-8.884,11.524,9.244,12.485,10.564,12.485,11.4s-.72,1.441-1.921,1.441H1026.68l-12.005.6v-5.162l12.005.6h36.375Z" fill="#fff"/>
    <path id="Path_10330" data-name="Path 10330" d="M1013.234,301.634c14.886-4.321,27.372-9.724,35.9-16.326,8.524,3.6,9.724,4.922,9.724,5.762,0,1.2-.84,2.041-6,2.041-11.525,5.282-24.731,8.763-39.016,10.8Zm83.675-62.065c1.32-3,2.16-3.6,3-3.6,1.08,0,2.041.24,4.682,2.4,2.881,2.281,3.361,3.242,3.361,4.2,0,.841-.96,1.8-3.481,3.241V254.1c0,14.646.48,24.97.48,28.331,0,1.921-2.641,3.482-5.522,3.482a1.861,1.861,0,0,1-2.041-1.921v-1.681h-55.223v2.4c0,2.4-2.521,3.722-5.162,3.722-1.8,0-2.521-.48-2.521-1.8,0-2.041.48-10.684.48-31.693,0-8.643,0-13.205-.24-19.208,5.522,1.921,8.044,3,9.124,3.842h18.127l-.84-1.441c10.324-5.762,14.886-13.925,14.886-26.651a136.456,136.456,0,0,0-.48-15.126c6.482,1.921,9,3,9.964,3.842,7.2-1.681,15.366-4.322,21.609-7.683,7.2,5.162,8.523,6.362,8.523,7.683,0,.84-.72,1.32-2.4,1.32a26.481,26.481,0,0,1-4.562-.6,227.724,227.724,0,0,1-24.61,2.4l-.96.96v8.884h26.291c1.921-2.161,3.361-3.962,5.522-6.122,8.163,6.242,9.244,7.563,9.244,8.643,0,.841-.72,1.441-1.921,1.441h-15.967a3.085,3.085,0,0,1-2.04,2.161v1.8c0,3.962.24,8.524.24,10.925,0,1.8-2.762,3.121-5.4,3.121-1.32,0-2.04-.6-2.04-1.8,0-2.041.24-6.963.24-12.245V217.12h-14.406c-1.681,11.765-9.124,18.367-19.688,22.449Zm-53.782,3.962-.961,1.2v7.563h55.223v-8.763Zm54.262,21.368v-8.643h-55.223V264.9Zm0,13.446v-9.484h-55.223v9.484Z" fill="#fff"/>
    <path id="Path_10331" data-name="Path 10331" d="M909.934,277.949c1.441-3.362,2.281-4.082,3.242-4.082,1.08,0,2.161.48,4.8,2.761s3.121,3.242,3.121,4.2c0,.84-.961,1.8-3.482,3.241v9.844c0,11.285.361,15.727.361,19.088,0,2.161-2.761,3.482-5.4,3.482-1.32,0-2.041-.48-2.041-1.8v-3H883.763V377.71c0,2.521-2.76,4.081-5.4,4.081-1.8,0-2.522-.48-2.522-1.8,0-3.242.6-17.768.6-86.2,0-9.123,0-13.685-.24-19.928,5.282,2.041,7.923,3.242,9.243,4.082Zm-25.09,3.961-1.081,1.2v9.364h26.771V281.91Zm-1.081,14.526v11.285h26.771V296.436Zm83.675-18.487c1.561-3.722,2.521-4.442,3.481-4.442,1.2,0,2.041.24,4.922,2.761,3.122,2.641,3.482,3.362,3.482,4.562s-1.081,2.161-4.082,3.6v9.724c0,65.666.48,72.509.48,77.911,0,5.643-5.642,9.244-13.325,9.244-.72-3.841-2.281-6.122-9.964-8.163l.24-2.281a87.775,87.775,0,0,0,10.924.72c3.482,0,4.322-.72,4.322-4.562V311.683H940.067v.96c0,2.4-2.882,3.362-5.042,3.362-1.8,0-2.4-.481-2.4-1.8,0-2.4.36-8.284.36-20.409,0-10.564,0-13.685-.24-19.688,5.642,1.921,8.163,3,9.244,3.842Zm-26.531,3.961-.84,1.081v9.484h27.851V281.91Zm-.84,14.526v11.285h27.851V296.436Z" fill="#fff"/>
    <path id="Path_10332" data-name="Path 10332" d="M906.933,507c20.048-6,36.375-20.048,36.375-41.177,0-12.365-5.162-19.208-14.046-19.208-5.4,0-11.164,2.641-16.567,7.924a52.034,52.034,0,0,0-4.441,4.682c-.721.96-1.441,1.8-2.281,1.8a6.281,6.281,0,0,1-4.442-2.041,11.411,11.411,0,0,1-3.361-7.562c0-4.923,1.8-9,5.4-13.686,4.322-5.643,12.485-12.005,20.768-16.927-7.923-2.521-12.845-6.483-15.006-12.725l2.281-1.561c4.322,5.762,12.845,8.043,19.688,9.244,7.923,1.2,11.525,2.761,11.525,6.723,0,2.281-1.441,3.481-3.722,3.481-2.761,0-5.162-.6-8.043-.6-2.521,0-6.363,1.2-10.564,3.481-4.922,2.761-9.845,6.243-13.326,10.8-2.161,2.882-3,4.923-3,7.444a2.3,2.3,0,0,0,2.4,2.521c.6,0,1.921-.361,5.522-2.281,7.2-3.842,12.605-5.522,17.767-5.522,13.446,0,21.97,10.2,21.97,25.33,0,23.649-18.968,38.536-44.179,42.857Z" fill="#fff"/>
    <path id="Path_10333" data-name="Path 10333" d="M978.962,540.234a14.982,14.982,0,1,1-14.982-14.983A15,15,0,0,1,978.962,540.234Zm-26.122,0a11.14,11.14,0,0,0,22.281,0,11.14,11.14,0,1,0-22.281,0Z" fill="#fff"/>
    <path id="Path_10334" data-name="Path 10334" d="M939.827,328.73c1.44-3.722,2.4-4.322,3.361-4.322,1.32,0,2.521.6,4.922,2.761,2.761,2.4,3.361,3.481,3.361,4.442s-.96,1.921-3.6,3.361v6.843c0,8.644.36,16.327.36,18.848s-3.241,3.721-5.762,3.721a1.679,1.679,0,0,1-1.921-1.8v-3.362H910.9V362.7c0,2.641-2.641,3.961-5.522,3.961q-2.161,0-2.161-1.8c0-3.121.36-10.324.36-24.97,0-7.443-.12-10.084-.36-15.126a69.587,69.587,0,0,1,9.363,3.962Zm.72,3.961H911.855l-.96.961V355.26h29.652Z" fill="#ff0"/>
    <path id="Path_10335" data-name="Path 10335" d="M963.98,551.374a11.148,11.148,0,0,0,11.141-11.14,11.028,11.028,0,0,0-11.141-11.141v-3.842a14.982,14.982,0,0,1,0,29.964Z" fill="#ff0"/>
    <path id="Path_10336" data-name="Path 10336" d="M1013.835,245.211c8.283-8.523,9.724-18.127,9.724-28.932,0-12.725-.12-14.766-.48-18.727,6.242,1.92,8.883,3,9.844,3.721,7.2-1.68,15.486-4.082,21.728-7.563,7.2,5.162,8.524,6.363,8.524,7.683,0,.841-.72,1.321-2.4,1.321a26.468,26.468,0,0,1-4.562-.6,229.054,229.054,0,0,1-24.49,2.28l-1.08,1.081v7.683h26.05c1.921-2.161,3.362-3.721,5.522-5.882,8.284,6.242,9.124,7.323,9.124,8.4,0,.841-.72,1.441-1.921,1.441h-15.606a3.084,3.084,0,0,1-2.041,2.161v1.8c0,5.282.24,10.565.24,12.966,0,1.8-2.761,3.121-5.4,3.121-1.321,0-2.041-.6-2.041-1.8,0-2.161.24-7.923.24-14.286V217.12h-14.165c-.241,13.925-4.442,22.569-15.127,29.772Z" fill="#ff0"/>
    <path id="Path_10337" data-name="Path 10337" d="M1080.222,285.308c12.365,1.08,24.97,3,34.574,7.323,5.642,2.521,7.083,4.8,7.083,7.082a3.638,3.638,0,0,1-3.6,3.722,8.063,8.063,0,0,1-5.042-1.921c-9.964-7.323-21.729-11.284-33.733-13.925Z" fill="#ff0"/>
    <path id="Path_10338" data-name="Path 10338" d="M1063.055,157.455V85.185c0-10.924-.12-16.086-.48-20.408,11.764,1.08,13.565,1.921,13.565,3.241,0,.961-.6,2.041-4.682,3.6v85.835Z" fill="#ff0"/>
    <path id="Path_10339" data-name="Path 10339" d="M1066.656,393.112c-12.845,7.8-17.167,11.885-17.167,19.088,0,5.642,5.282,9.244,15.606,9.244,5.643,0,11.525-.12,16.207-.48a27.459,27.459,0,0,0,7.8-1.681,10.869,10.869,0,0,1,4.082-.72c5.042-.12,7.923,2.041,8.043,4.442.12,1.8-.36,3.361-2.641,3.721-6.723,1.2-17.647,1.561-26.411,1.561a68.722,68.722,0,0,1-14.766-1.2c-8.763-1.921-13.565-7.563-13.565-14.766,0-7.323,6.483-15.126,22.809-24.85l6.483-3.481c10.444-6.123,17.287-10.084,21.969-13.086,3-1.921,4.081-3.121,4.081-4.2a1.862,1.862,0,0,0-1.08-1.8,10.652,10.652,0,0,0-4.922-1.321l.24-2.161a32.98,32.98,0,0,1,5.162-.36,12.93,12.93,0,0,1,4.562,1.081,25.193,25.193,0,0,1,6.243,3.961c1.32,1.2,2.161,2.281,2.161,3.722,0,1.32-1.081,2.04-2.882,2.521a37.775,37.775,0,0,0-7.083,2.641c-10.084,5.162-16.566,8.4-28.211,14.886Z" fill="#ff0"/>
    <path id="Path_10340" data-name="Path 10340" d="M1073.379,389.871c.12,9.724.36,16.327.24,20.528a4.312,4.312,0,0,1-4.442,3.962c-2.161,0-2.881-1.441-2.761-4.442.12-5.522.24-11.045.24-16.807V387.47a79.356,79.356,0,0,0-.48-9.844,5.216,5.216,0,0,0-5.522-4.682c-5.042,0-9.364,1.681-15.126,7.443-3.122,3-5.523,6.363-8.884,10.444a5.448,5.448,0,0,1-4.442,2.281,3.31,3.31,0,0,1-3.361-3.481c0-1.441.84-3.241,3.841-6.243a90.04,90.04,0,0,0,9-10.324,97.13,97.13,0,0,0,10.2-16.927,98.047,98.047,0,0,1-13.806,1.2c-6.842,0-11.884-3-14.045-8.044l2.041-1.8c3.121,3,6.122,4.561,12.845,4.561a78.8,78.8,0,0,0,15.966-2.04,44.773,44.773,0,0,0,3-7.563,21.758,21.758,0,0,0,.96-5.163,3.562,3.562,0,0,0-2.281-3.241,10.851,10.851,0,0,0-5.762-1.2l-.12-1.921a10.821,10.821,0,0,1,5.642-1.681c2.521,0,5.642,1.2,8.884,3.362,1.92,1.32,3.6,2.641,3.6,3.961,0,1.2-.36,1.561-1.32,2.521a13.434,13.434,0,0,0-2.161,2.761c-.841,1.561-2.041,3.962-3.242,6.363,9-2.4,12.725-4.442,13.686-5.162a8.235,8.235,0,0,1,4.442-1.2c2.641.12,3.961,1.441,3.961,3a3.6,3.6,0,0,1-2.161,3.6,43.4,43.4,0,0,1-7.443,2.641c-4.921,1.441-8.4,2.281-15.966,3.962-2.881,5.762-5.882,10.8-10.2,18.007,5.882-3.6,10.444-4.442,13.925-4.442,5.763,0,9.724,4.682,10.325,9.844.24,1.921.36,3,.48,5.523Z" fill="#fff"/>
  </g>
</svg>
