<svg xmlns="http://www.w3.org/2000/svg" width="254.332" height="46.876" viewBox="0 0 254.332 46.876">
  <g id="Group_12" data-name="Group 12" transform="translate(-2381.852 -9737.549)">
    <path id="Path_484" data-name="Path 484" d="M2404.836,9737.549c12.93,0,22.984,10.434,22.984,23.438a23.028,23.028,0,0,1-22.984,23.438c-13.08,0-22.984-9.98-22.984-23.438C2381.852,9747.982,2391.908,9737.549,2404.836,9737.549Zm0,39.24c8.847,0,15.122-7.032,15.122-15.8,0-8.619-6.049-15.8-15.122-15.8s-15.121,7.183-15.121,15.8C2389.715,9769.757,2395.99,9776.789,2404.836,9776.789Z"/>
    <path id="Path_485" data-name="Path 485" d="M2468.764,9767.489a16.935,16.935,0,1,1-33.871,0v-29.411h7.711v29.411a9.117,9.117,0,0,0,9.224,9.224,8.935,8.935,0,0,0,9.225-9.224v-29.411h7.711Z"/>
    <path id="Path_486" data-name="Path 486" d="M2485.075,9783.9v-38.258h-11.114v-7.561h33.872v7.561h-15.046V9783.9Z"/>
    <path id="Path_487" data-name="Path 487" d="M2513.326,9783.9v-45.818h7.712v38.257h13.232v7.562Z"/>
    <path id="Path_488" data-name="Path 488" d="M2540.058,9783.9v-45.818h7.712V9783.9Z"/>
    <path id="Path_489" data-name="Path 489" d="M2587.93,9783.9l-21.776-32.437V9783.9h-7.56v-45.818h7.712l21.471,32.133v-32.133h7.562V9783.9Z"/>
    <path id="Path_490" data-name="Path 490" d="M2606.243,9783.9v-45.818h29.335v7.409h-21.623v11.719h22.229v7.409h-22.229v11.871h16.483v7.41Z"/>
  </g>
</svg>
