<svg xmlns="http://www.w3.org/2000/svg" width="380" height="55.552" viewBox="0 0 380 55.552"><g transform="translate(-2847.904 -166.971)"><path d="M2890.374,184.174a18.169,18.169,0,0,0-15.232-8.153c-10.752,0-17.92,8.511-17.92,18.726,0,10.393,7.437,18.726,17.92,18.726a21.136,21.136,0,0,0,10.752-3.046l4.3,7.616a26.891,26.891,0,0,1-15.053,4.48c-15.5,0-27.238-11.827-27.238-27.776,0-15.411,11.916-27.776,27.238-27.776a26.879,26.879,0,0,1,22.669,12.185Z" fill="#fff"/><path d="M2932.847,166.971c15.322,0,27.238,12.365,27.238,27.776a27.29,27.29,0,0,1-27.238,27.776c-15.5,0-27.238-11.827-27.238-27.776C2905.609,179.336,2917.525,166.971,2932.847,166.971Zm0,46.5c10.483,0,17.92-8.333,17.92-18.726,0-10.215-7.168-18.726-17.92-18.726s-17.92,8.511-17.92,18.726C2914.927,205.14,2922.364,213.473,2932.847,213.473Z" fill="#fff"/><path d="M3010.058,221.9l-25.805-38.439V221.9h-8.96V167.6h9.14l25.446,38.08V167.6h8.96v54.3Z" fill="#fff"/><path d="M3044.6,221.9V176.558H3031.43V167.6h40.141v8.96H3053.74V221.9Z" fill="#fff"/><path d="M3070.266,221.9l28.582-54.3h9.049l11.828,54.3H3110.5l-2.6-12.1h-21.682l-6.273,12.1Zm20.428-20.877h15.322l-4.48-20.877Z" fill="#fff"/><path d="M3171.66,184.174a18.167,18.167,0,0,0-15.232-8.153c-10.752,0-17.92,8.511-17.92,18.726,0,10.393,7.437,18.726,17.92,18.726a21.129,21.129,0,0,0,10.752-3.046l4.3,7.616a26.891,26.891,0,0,1-15.053,4.48c-15.5,0-27.238-11.827-27.238-27.776,0-15.411,11.916-27.776,27.238-27.776a26.879,26.879,0,0,1,22.669,12.185Z" fill="#fff"/><path d="M3200.935,221.9V176.558h-13.171V167.6h40.14v8.96h-17.83V221.9Z" fill="#fff"/></g></svg>