<svg xmlns="http://www.w3.org/2000/svg" viewBox="0 0 262.7 262.82"><defs><style>.cls-1{fill:#fff;}</style></defs><g id="Layer_2" data-name="Layer 2"><g id="飾り"><path class="cls-1" d="M79.26,25.23a4.41,4.41,0,1,0,4.41,4.4A4.41,4.41,0,0,0,79.26,25.23ZM90.48,228.78a4.41,4.41,0,1,0,4.41,4.41A4.41,4.41,0,0,0,90.48,228.78ZM79.26,56.48a4.41,4.41,0,1,0,4.41,4.41A4.41,4.41,0,0,0,79.26,56.48ZM90.48,197.53a4.41,4.41,0,1,0,4.41,4.41A4.4,4.4,0,0,0,90.48,197.53Zm0-31.26a4.41,4.41,0,1,0,4.41,4.41A4.41,4.41,0,0,0,90.48,166.27Zm0-62.51a4.41,4.41,0,1,0,4.41,4.41A4.41,4.41,0,0,0,90.48,103.76Zm0-31.25a4.41,4.41,0,1,0,4.41,4.41A4.4,4.4,0,0,0,90.48,72.51ZM79.26,87.74a4.41,4.41,0,1,0,4.41,4.4A4.41,4.41,0,0,0,79.26,87.74ZM90.48,135a4.41,4.41,0,1,0,4.41,4.41A4.4,4.4,0,0,0,90.48,135Zm0-93.77a4.41,4.41,0,1,0,4.41,4.41A4.41,4.41,0,0,0,90.48,41.25ZM67.24,135a4.41,4.41,0,1,0,4.41,4.41A4.4,4.4,0,0,0,67.24,135Zm0-62.51a4.41,4.41,0,1,0,4.41,4.41A4.4,4.4,0,0,0,67.24,72.51ZM64.79,18.07a4.41,4.41,0,0,0,6.86-3.66s0-.08,0-.11Q68.15,16.09,64.79,18.07Zm2.45,85.69a4.41,4.41,0,1,0,4.41,4.41A4.41,4.41,0,0,0,67.24,103.76Zm12,46.49a4.41,4.41,0,1,0,4.41,4.4A4.41,4.41,0,0,0,79.26,150.25Zm0-31.26a4.41,4.41,0,1,0,4.41,4.41A4.41,4.41,0,0,0,79.26,119Zm0,62.51a4.41,4.41,0,1,0,4.41,4.41A4.41,4.41,0,0,0,79.26,181.5Zm0,31.26a4.41,4.41,0,1,0,4.41,4.4A4.41,4.41,0,0,0,79.26,212.76Zm0,31.25a4.4,4.4,0,0,0-4,6.3q2.59,1.22,5.23,2.33A4.4,4.4,0,0,0,79.26,244Zm-12-202.76a4.41,4.41,0,1,0,4.41,4.41A4.41,4.41,0,0,0,67.24,41.25Zm46.48,187.53a4.41,4.41,0,1,0,4.41,4.41A4.42,4.42,0,0,0,113.72,228.78Zm0-93.76a4.41,4.41,0,1,0,4.41,4.41A4.41,4.41,0,0,0,113.72,135Zm0,62.51a4.41,4.41,0,1,0,4.41,4.41A4.41,4.41,0,0,0,113.72,197.53Zm0-125a4.41,4.41,0,1,0,4.41,4.41A4.41,4.41,0,0,0,113.72,72.51Zm0,31.25a4.41,4.41,0,1,0,4.41,4.41A4.42,4.42,0,0,0,113.72,103.76Zm12,109a4.41,4.41,0,1,0,4.41,4.4A4.41,4.41,0,0,0,125.74,212.76Zm0,31.25a4.41,4.41,0,1,0,4.41,4.41A4.41,4.41,0,0,0,125.74,244Zm-12-202.76a4.41,4.41,0,1,0,4.41,4.41A4.42,4.42,0,0,0,113.72,41.25Zm0-31.25a4.41,4.41,0,1,0,4.41,4.41A4.41,4.41,0,0,0,113.72,10ZM102.5,181.5a4.41,4.41,0,1,0,4.41,4.41A4.41,4.41,0,0,0,102.5,181.5Zm23.24,0a4.41,4.41,0,1,0,4.41,4.41A4.41,4.41,0,0,0,125.74,181.5ZM102.5,212.76a4.41,4.41,0,1,0,4.41,4.4A4.41,4.41,0,0,0,102.5,212.76ZM113.72,260a4.35,4.35,0,0,0-3,1.19c2.23.35,4.47.65,6.73.88A4.38,4.38,0,0,0,113.72,260ZM102.5,150.25a4.41,4.41,0,1,0,4.41,4.4A4.41,4.41,0,0,0,102.5,150.25Zm0,93.76a4.41,4.41,0,1,0,4.41,4.41A4.41,4.41,0,0,0,102.5,244Zm0-218.78a4.41,4.41,0,1,0,4.41,4.4A4.41,4.41,0,0,0,102.5,25.23Zm0,31.25a4.41,4.41,0,1,0,4.41,4.41A4.41,4.41,0,0,0,102.5,56.48Zm0,31.26a4.41,4.41,0,1,0,4.41,4.4A4.41,4.41,0,0,0,102.5,87.74Zm0,31.25a4.41,4.41,0,1,0,4.41,4.41A4.41,4.41,0,0,0,102.5,119Zm-12-109a4.41,4.41,0,1,0,4.41,4.41A4.4,4.4,0,0,0,90.48,10ZM20.76,197.53a4.37,4.37,0,0,0-2.54.81c1.5,2.52,3.08,5,4.74,7.41a4.41,4.41,0,0,0-2.2-8.22Zm0-31.26a4.41,4.41,0,1,0,4.4,4.41A4.41,4.41,0,0,0,20.76,166.27ZM9.54,87.74a4.43,4.43,0,0,0-2.44.73C6.51,90.2,6,91.94,5.42,93.71a4.4,4.4,0,1,0,4.12-6Zm0,31.25a4.41,4.41,0,1,0,4.4,4.41A4.4,4.4,0,0,0,9.54,119Zm11.22,16a4.41,4.41,0,1,0,4.4,4.41A4.4,4.4,0,0,0,20.76,135Zm12,46.48a4.41,4.41,0,1,0,4.41,4.41A4.4,4.4,0,0,0,32.78,181.5Zm-12-77.74a4.41,4.41,0,1,0,4.4,4.41A4.41,4.41,0,0,0,20.76,103.76Zm12,109a4.4,4.4,0,0,0-3.39,1.58q2.74,3.38,5.71,6.56a4.4,4.4,0,0,0-2.32-8.14Zm-12-140.25a4.41,4.41,0,1,0,4.4,4.41A4.4,4.4,0,0,0,20.76,72.51ZM229.93,50.07a4.39,4.39,0,0,0,3.38-1.59q-2.75-3.37-5.71-6.56a4.41,4.41,0,0,0,2.33,8.15ZM9.54,150.25a4.41,4.41,0,1,0,4.4,4.4A4.4,4.4,0,0,0,9.54,150.25Zm23.24,0a4.41,4.41,0,1,0,4.41,4.4A4.4,4.4,0,0,0,32.78,150.25ZM242,65.3a4.36,4.36,0,0,0,2.53-.81q-2.25-3.79-4.74-7.42A4.41,4.41,0,0,0,242,65.3Zm10.94,16q-1.5-3.61-3.19-7.12a4.41,4.41,0,0,0,3.19,7.12ZM218.71,34a4.58,4.58,0,0,0,.83-.08q-2.56-2.31-5.23-4.49a.92.92,0,0,0,0,.16A4.4,4.4,0,0,0,218.71,34ZM0,135.79c.08,2.33.21,4.65.41,7a4.35,4.35,0,0,0,1.51-3.31A4.39,4.39,0,0,0,0,135.79Zm9.82,45.72c1,2.41,2,4.79,3.18,7.12a4.41,4.41,0,0,0-3.18-7.12ZM125.74,2.79A4.42,4.42,0,0,0,129.84,0c-2.7,0-5.39.14-8,.33A4.42,4.42,0,0,0,125.74,2.79Zm23.24,0a4.44,4.44,0,0,0,3-1.19q-3.35-.53-6.74-.89A4.39,4.39,0,0,0,149,2.79Zm-105,101a4.41,4.41,0,1,0,4.41,4.41A4.41,4.41,0,0,0,44,103.76ZM56,119a4.41,4.41,0,1,0,4.41,4.41A4.4,4.4,0,0,0,56,119Zm-23.24,0a4.41,4.41,0,1,0,4.41,4.41A4.4,4.4,0,0,0,32.78,119ZM56,181.5a4.41,4.41,0,1,0,4.41,4.41A4.4,4.4,0,0,0,56,181.5Zm0-93.76a4.41,4.41,0,1,0,4.41,4.4A4.4,4.4,0,0,0,56,87.74ZM67.24,197.53a4.41,4.41,0,1,0,4.41,4.41A4.4,4.4,0,0,0,67.24,197.53ZM56,56.48a4.41,4.41,0,1,0,4.41,4.41A4.4,4.4,0,0,0,56,56.48Zm11.22,172.3a4.41,4.41,0,1,0,4.41,4.41A4.41,4.41,0,0,0,67.24,228.78ZM56,212.76a4.41,4.41,0,1,0,4.41,4.4A4.4,4.4,0,0,0,56,212.76ZM56,25.23a4.41,4.41,0,1,0,4.41,4.4A4.4,4.4,0,0,0,56,25.23Zm0,125a4.41,4.41,0,1,0,4.41,4.4A4.4,4.4,0,0,0,56,150.25ZM44,228.78a3.77,3.77,0,0,0-.83.09q2.55,2.31,5.23,4.48s0-.1,0-.16A4.42,4.42,0,0,0,44,228.78ZM32.78,56.48a4.41,4.41,0,1,0,4.41,4.41A4.4,4.4,0,0,0,32.78,56.48Zm0,31.26a4.41,4.41,0,1,0,4.41,4.4A4.4,4.4,0,0,0,32.78,87.74ZM44,197.53a4.41,4.41,0,1,0,4.41,4.41A4.4,4.4,0,0,0,44,197.53Zm0-31.26a4.41,4.41,0,1,0,4.41,4.41A4.41,4.41,0,0,0,44,166.27Zm0-125a4.41,4.41,0,1,0,4.41,4.41A4.41,4.41,0,0,0,44,41.25Zm0,31.26a4.41,4.41,0,1,0,4.41,4.41A4.4,4.4,0,0,0,44,72.51Zm23.24,93.76a4.41,4.41,0,1,0,4.41,4.41A4.41,4.41,0,0,0,67.24,166.27ZM44,135a4.41,4.41,0,1,0,4.41,4.41A4.4,4.4,0,0,0,44,135Zm69.72,31.25a4.41,4.41,0,1,0,4.41,4.41A4.42,4.42,0,0,0,113.72,166.27Zm93,31.26a4.41,4.41,0,1,0,4.41,4.41A4.4,4.4,0,0,0,206.68,197.53Zm0,31.25a4.41,4.41,0,1,0,4.41,4.41A4.41,4.41,0,0,0,206.68,228.78ZM195.46,119a4.41,4.41,0,1,0,4.41,4.41A4.4,4.4,0,0,0,195.46,119Zm11.22-77.74a4.41,4.41,0,1,0,4.41,4.41A4.41,4.41,0,0,0,206.68,41.25Zm-23.24,125a4.41,4.41,0,1,0,4.41,4.41A4.41,4.41,0,0,0,183.44,166.27Zm12-141a4.41,4.41,0,1,0,4.41,4.4A4.4,4.4,0,0,0,195.46,25.23Zm11.22,47.28a4.41,4.41,0,1,0,4.41,4.41A4.4,4.4,0,0,0,206.68,72.51Zm0,31.25a4.41,4.41,0,1,0,4.41,4.41A4.41,4.41,0,0,0,206.68,103.76Zm0,31.26a4.41,4.41,0,1,0,4.41,4.41A4.4,4.4,0,0,0,206.68,135Zm0,31.25a4.41,4.41,0,1,0,4.41,4.41A4.41,4.41,0,0,0,206.68,166.27ZM195.46,87.74a4.41,4.41,0,1,0,4.41,4.4A4.4,4.4,0,0,0,195.46,87.74Zm-12-15.23a4.41,4.41,0,1,0,4.41,4.41A4.4,4.4,0,0,0,183.44,72.51Zm0,31.25a4.41,4.41,0,1,0,4.41,4.41A4.41,4.41,0,0,0,183.44,103.76Zm0,31.26a4.41,4.41,0,1,0,4.41,4.41A4.4,4.4,0,0,0,183.44,135Zm0-93.77a4.41,4.41,0,1,0,4.41,4.41A4.41,4.41,0,0,0,183.44,41.25Zm7.62,207.17v.11c2.33-1.19,4.61-2.45,6.86-3.77a4.4,4.4,0,0,0-6.86,3.66ZM182.2,10.18a4.42,4.42,0,1,0,5.22,2.34Q184.84,11.29,182.2,10.18Zm13.26,202.58a4.41,4.41,0,1,0,4.41,4.4A4.4,4.4,0,0,0,195.46,212.76Zm0-31.26a4.41,4.41,0,1,0,4.41,4.41A4.4,4.4,0,0,0,195.46,181.5Zm0-31.25a4.41,4.41,0,1,0,4.41,4.4A4.4,4.4,0,0,0,195.46,150.25Zm0-93.77a4.41,4.41,0,1,0,4.41,4.41A4.4,4.4,0,0,0,195.46,56.48ZM242,150.25a4.41,4.41,0,1,0,4.4,4.4A4.4,4.4,0,0,0,242,150.25Zm0-62.51a4.41,4.41,0,1,0,4.4,4.4A4.4,4.4,0,0,0,242,87.74ZM242,119a4.41,4.41,0,1,0,4.4,4.41A4.4,4.4,0,0,0,242,119Zm0,62.51a4.41,4.41,0,1,0,4.4,4.41A4.4,4.4,0,0,0,242,181.5Zm20.34-61.42a4.41,4.41,0,0,0,.41,7Q262.6,123.53,262.29,120.08ZM229.93,72.51a4.41,4.41,0,1,0,4.4,4.41A4.4,4.4,0,0,0,229.93,72.51Zm23.24,31.25a4.41,4.41,0,1,0,4.4,4.41A4.41,4.41,0,0,0,253.17,103.76Zm0,62.51a4.41,4.41,0,1,0,2.43,8.09q.9-2.6,1.68-5.24A4.4,4.4,0,0,0,253.17,166.27Zm0-31.25a4.41,4.41,0,1,0,4.4,4.41A4.4,4.4,0,0,0,253.17,135Zm-34.46,77.74a4.41,4.41,0,1,0,4.4,4.4A4.4,4.4,0,0,0,218.71,212.76Zm11.22-109a4.41,4.41,0,1,0,4.4,4.41A4.41,4.41,0,0,0,229.93,103.76Zm-11.22-16a4.41,4.41,0,1,0,4.4,4.4A4.4,4.4,0,0,0,218.71,87.74Zm0,31.25a4.41,4.41,0,1,0,4.4,4.41A4.4,4.4,0,0,0,218.71,119Zm0,62.51a4.41,4.41,0,1,0,4.4,4.41A4.4,4.4,0,0,0,218.71,181.5Zm0-31.25a4.41,4.41,0,1,0,4.4,4.4A4.4,4.4,0,0,0,218.71,150.25Zm0-93.77a4.41,4.41,0,1,0,4.4,4.41A4.4,4.4,0,0,0,218.71,56.48ZM229.93,135a4.41,4.41,0,1,0,4.4,4.41A4.4,4.4,0,0,0,229.93,135Zm0,31.25a4.41,4.41,0,1,0,4.4,4.41A4.41,4.41,0,0,0,229.93,166.27Zm0,31.26a4.41,4.41,0,1,0,4.4,4.41A4.4,4.4,0,0,0,229.93,197.53Zm-93,0a4.41,4.41,0,1,0,4.41,4.41A4.41,4.41,0,0,0,137,197.53ZM137,10a4.41,4.41,0,1,0,4.41,4.41A4.41,4.41,0,0,0,137,10Zm12,77.74a4.41,4.41,0,1,0,4.41,4.4A4.4,4.4,0,0,0,149,87.74ZM149,244a4.41,4.41,0,1,0,4.41,4.41A4.4,4.4,0,0,0,149,244ZM137,72.51a4.41,4.41,0,1,0,4.41,4.41A4.41,4.41,0,0,0,137,72.51Zm12,77.74a4.41,4.41,0,1,0,4.41,4.4A4.4,4.4,0,0,0,149,150.25Zm0,62.51a4.41,4.41,0,1,0,4.41,4.4A4.4,4.4,0,0,0,149,212.76Zm34.46-15.23a4.41,4.41,0,1,0,4.41,4.41A4.4,4.4,0,0,0,183.44,197.53ZM149,119a4.41,4.41,0,1,0,4.41,4.41A4.4,4.4,0,0,0,149,119Zm0,62.51a4.41,4.41,0,1,0,4.41,4.41A4.4,4.4,0,0,0,149,181.5ZM137,41.25a4.41,4.41,0,1,0,4.41,4.41A4.42,4.42,0,0,0,137,41.25Zm-11.22-16a4.41,4.41,0,1,0,4.41,4.4A4.41,4.41,0,0,0,125.74,25.23Zm0,31.25a4.41,4.41,0,1,0,4.41,4.41A4.41,4.41,0,0,0,125.74,56.48Zm0,31.26a4.41,4.41,0,1,0,4.41,4.4A4.41,4.41,0,0,0,125.74,87.74Zm0,31.25a4.41,4.41,0,1,0,4.41,4.41A4.41,4.41,0,0,0,125.74,119ZM137,228.78a4.41,4.41,0,1,0,4.41,4.41A4.42,4.42,0,0,0,137,228.78Zm0-62.51a4.41,4.41,0,1,0,4.41,4.41A4.42,4.42,0,0,0,137,166.27Zm-11.22-16a4.41,4.41,0,1,0,4.41,4.4A4.41,4.41,0,0,0,125.74,150.25ZM137,135a4.41,4.41,0,1,0,4.41,4.41A4.41,4.41,0,0,0,137,135Zm0,125a4.39,4.39,0,0,0-4.09,2.78c2.7,0,5.38-.13,8-.32A4.4,4.4,0,0,0,137,260Zm0-156.28a4.41,4.41,0,1,0,4.41,4.41A4.42,4.42,0,0,0,137,103.76Zm35.26,77.74a4.41,4.41,0,1,0,4.41,4.41A4.4,4.4,0,0,0,172.22,181.5Zm0-62.51a4.41,4.41,0,1,0,4.41,4.41A4.4,4.4,0,0,0,172.22,119Zm0,31.26a4.41,4.41,0,1,0,4.41,4.4A4.4,4.4,0,0,0,172.22,150.25Zm0,62.51a4.41,4.41,0,1,0,4.41,4.4A4.4,4.4,0,0,0,172.22,212.76Zm0-125a4.41,4.41,0,1,0,4.41,4.4A4.4,4.4,0,0,0,172.22,87.74Zm11.22,141a4.41,4.41,0,1,0,4.41,4.41A4.41,4.41,0,0,0,183.44,228.78ZM172.22,25.23a4.41,4.41,0,1,0,4.41,4.4A4.4,4.4,0,0,0,172.22,25.23Zm0,218.78a4.41,4.41,0,1,0,4.41,4.41A4.4,4.4,0,0,0,172.22,244Zm0-187.53a4.41,4.41,0,1,0,4.41,4.41A4.4,4.4,0,0,0,172.22,56.48Zm-12,172.3a4.41,4.41,0,1,0,4.41,4.41A4.42,4.42,0,0,0,160.2,228.78Zm0-62.51a4.41,4.41,0,1,0,4.41,4.41A4.42,4.42,0,0,0,160.2,166.27ZM149,56.48a4.41,4.41,0,1,0,4.41,4.41A4.4,4.4,0,0,0,149,56.48ZM160.2,197.53a4.41,4.41,0,1,0,4.41,4.41A4.41,4.41,0,0,0,160.2,197.53ZM149,25.23a4.41,4.41,0,1,0,4.41,4.4A4.4,4.4,0,0,0,149,25.23ZM160.2,72.51a4.41,4.41,0,1,0,4.41,4.41A4.41,4.41,0,0,0,160.2,72.51Zm0-62.51a4.41,4.41,0,1,0,4.41,4.41A4.41,4.41,0,0,0,160.2,10Zm0,31.25a4.41,4.41,0,1,0,4.41,4.41A4.42,4.42,0,0,0,160.2,41.25Zm0,93.77a4.41,4.41,0,1,0,4.41,4.41A4.41,4.41,0,0,0,160.2,135Zm0-31.26a4.41,4.41,0,1,0,4.41,4.41A4.42,4.42,0,0,0,160.2,103.76Z"/></g></g></svg>