<svg xmlns="http://www.w3.org/2000/svg" viewBox="0 0 650 165.6"><defs><style>.cls-1{fill:#fff;}.cls-2{fill:none;stroke:#fff;stroke-miterlimit:10;stroke-width:1.2px;}</style></defs><g id="Layer_2" data-name="Layer 2"><g id="内容"><path d="M618.25,82.39c.39-2.17.79-4.38,1.18-6.58.64-3.65,1.26-7.31,1.94-11,.13-.73,0-1.08-.75-1.34a18.17,18.17,0,0,1-7.1-4.6c-.4-.4-.65-.45-1.13-.09a8.34,8.34,0,0,1-6.9,1.3C601,59.26,598,56.51,596,52.57A23.41,23.41,0,0,1,593.45,43a3.44,3.44,0,0,1,1.13-2.75c2.09-2.14,4.15-4.29,6.21-6.45s4.2-4.3,6.22-6.54a3.54,3.54,0,0,1,3.53-1.2c6.24.93,12.47,1.87,18.68,3a76.14,76.14,0,0,1,9,2,11,11,0,0,1,6.18,4,13.39,13.39,0,0,1,1.84,5.34,110.47,110.47,0,0,1,1.49,12.17c.36,4.61.74,9.22,1.09,13.84q.29,3.81.49,7.62c.24,4.62.53,9.25.66,13.88.1,3.92.09,7.86,0,11.79a142.71,142.71,0,0,1-1.2,15.86c-.46,3.18-2.34,5.16-5,6.54a25.85,25.85,0,0,1-9,2.45,26.44,26.44,0,0,1-3.56.17,1.55,1.55,0,0,0-.79.17,51.5,51.5,0,0,1-12.88,4.41A69.42,69.42,0,0,1,599,131.3,116.53,116.53,0,0,1,586,129.92c-4.74-.72-9.45-1.61-14.13-2.64a2.14,2.14,0,0,0-1.2.07,55.33,55.33,0,0,1-10.35,2c-4.73.6-9.48,1-14.24,1.26-5.19.32-10.39.48-15.6.38a2,2,0,0,1-2-2.25c.09-3.65.21-7.31.33-11q.25-7.84.53-15.68c.08-2.24.19-4.49.28-6.73a2.14,2.14,0,0,1,1.85-2.23c7.75-1.43,15.51-2.78,23.31-3.9,3.27-.47,6.55-.87,9.82-1.31a4.44,4.44,0,0,0,3-1.9c5.67-7.15,12.81-12,21.88-13.75,9.58-1.83,18,.74,25.3,7,.58.49,1.12,1,1.68,1.53Zm5.81,40.4a21.11,21.11,0,0,0,4.45-2,2.76,2.76,0,0,1,1.6-.5,24.72,24.72,0,0,0,4.21-.16,22.65,22.65,0,0,0,7.49-2,4.62,4.62,0,0,0,2.7-3.77A167.66,167.66,0,0,0,645.62,97c.1-4.55.08-9.1-.17-13.65s-.52-9-.8-13.55c-.15-2.56-.31-5.13-.52-7.7q-.52-6.51-1.1-13a78.23,78.23,0,0,0-1.45-9.63,4.8,4.8,0,0,0-2.81-3.53,31.67,31.67,0,0,0-7.51-2c-6.61-1.32-13.28-2.32-20-3.32a2.11,2.11,0,0,0-2.13.71q-5.28,5.58-10.62,11.1a2,2,0,0,0-.66,1.81,16.86,16.86,0,0,0,3.29,8.55,7.71,7.71,0,0,0,7.32,3.18c1-.11,1-.3.67-1.22a31.07,31.07,0,0,1-1.46-4c-.36-1.43.14-2.55,1.3-2.93a2.2,2.2,0,0,1,2.8,1.43,23.45,23.45,0,0,0,2.71,4.44,17,17,0,0,0,8.2,6.13,6,6,0,0,0,4.49-.23,28.76,28.76,0,0,0,5.95-3.64c.2-.16.39-.51.67-.34s.07.51,0,.75a11,11,0,0,1-5.6,7.32,2.44,2.44,0,0,1-1.4.39c-.87-.11-1,.39-1.14,1.07q-2,11.49-4,23a2.11,2.11,0,0,1-1.79,2,2.15,2.15,0,0,1-2.32-1.13A30.77,30.77,0,0,0,612,82.61c-6.39-5.51-13.69-7.73-22-6-8.15,1.67-14.46,6.18-19.41,12.72a6,6,0,0,1-3.2,2.34,17.74,17.74,0,0,1-2.36.6c-3.66.59-7.37.88-11,1.45q-9.68,1.53-19.31,3.24a.81.81,0,0,0-.8.82c-.22,1.78-.13,3.57-.22,5.36-.25,5.14-.36,10.29-.53,15.43-.08,2.49-.16,5-.28,7.47,0,.54.17.66.64.67,4,0,8-.17,12-.4,4.81-.28,9.62-.63,14.4-1.27,3.51-.47,7.05-.81,10.39-2.17.49-.2.54-.34.35-.79-.43-1-.81-2.07-1.19-3.12a1.27,1.27,0,0,1,.47-1.52c.53-.39.83.16,1.13.46,1.79,1.74,3.57,3.49,5.32,5.27a3.55,3.55,0,0,0,2,1.06c2.7.45,5.39,1,8.09,1.39A108.78,108.78,0,0,0,598.86,127a63.59,63.59,0,0,0,14.94-1.38,7.85,7.85,0,0,0,4.35-2.06c2.26-2.22,4.47-4.43,5.85-7.33.12-.24.28-.46.41-.7a1,1,0,0,1,1.47-.5c.86.44,1.12.91.84,1.67s-.62,1.5-.94,2.25C625.24,120.14,624.69,121.36,624.06,122.79Z"/><path d="M33.5,80.81c.56-.51,1.1-1,1.68-1.53,7.34-6.27,15.72-8.84,25.3-7C69.55,74,76.69,78.87,82.36,86a4.44,4.44,0,0,0,3,1.9c3.27.44,6.55.84,9.82,1.31,7.8,1.12,15.56,2.47,23.31,3.9a2.14,2.14,0,0,1,1.85,2.23c.09,2.24.2,4.49.28,6.73q.27,7.84.53,15.68c.12,3.65.24,7.31.33,11a2,2,0,0,1-2,2.25c-5.21.1-10.41-.06-15.6-.38-4.76-.3-9.51-.66-14.24-1.26a55.33,55.33,0,0,1-10.35-2,2.14,2.14,0,0,0-1.2-.07c-4.68,1-9.39,1.92-14.13,2.64a116.53,116.53,0,0,1-12.91,1.38,69.42,69.42,0,0,1-18.44-2.08,51.5,51.5,0,0,1-12.88-4.41,1.55,1.55,0,0,0-.79-.17,26.44,26.44,0,0,1-3.56-.17,25.85,25.85,0,0,1-9-2.45c-2.69-1.38-4.57-3.36-5-6.54A142.71,142.71,0,0,1,.1,99.62C0,95.69,0,91.75.07,87.83.2,83.2.49,78.57.73,74q.21-3.81.49-7.62c.35-4.62.73-9.23,1.09-13.84A110.47,110.47,0,0,1,3.8,40.32,13.39,13.39,0,0,1,5.64,35a11,11,0,0,1,6.18-4,76.14,76.14,0,0,1,9-2C27,27.91,33.22,27,39.46,26A3.54,3.54,0,0,1,43,27.24c2,2.24,4.14,4.37,6.22,6.54s4.12,4.31,6.21,6.45A3.44,3.44,0,0,1,56.55,43,23.41,23.41,0,0,1,54,52.57c-2.05,3.94-5,6.69-9.51,7.55a8.34,8.34,0,0,1-6.9-1.3c-.48-.36-.73-.31-1.13.09a18.17,18.17,0,0,1-7.1,4.6c-.78.26-.88.61-.75,1.34.68,3.65,1.3,7.31,1.94,11,.39,2.2.79,4.41,1.18,6.58Zm-9.28,38.1c-.32-.75-.65-1.49-.94-2.25s0-1.23.84-1.67a1,1,0,0,1,1.47.5c.13.24.29.46.41.7,1.38,2.9,3.59,5.11,5.85,7.33a7.85,7.85,0,0,0,4.35,2.06A63.59,63.59,0,0,0,51.14,127a108.78,108.78,0,0,0,12.34-1.36c2.7-.43,5.39-.94,8.09-1.39a3.55,3.55,0,0,0,2-1.06c1.75-1.78,3.53-3.53,5.32-5.27.3-.3.6-.85,1.13-.46a1.27,1.27,0,0,1,.47,1.52c-.38,1-.76,2.09-1.19,3.12-.19.45-.14.59.35.79,3.34,1.36,6.88,1.7,10.39,2.17,4.78.64,9.59,1,14.4,1.27,4,.23,8,.43,12,.4.47,0,.66-.13.64-.67-.12-2.49-.2-5-.28-7.47-.17-5.14-.28-10.29-.53-15.43-.09-1.79,0-3.58-.22-5.36a.81.81,0,0,0-.8-.82Q105.68,95.22,96,93.7c-3.66-.57-7.37-.86-11-1.45a17.74,17.74,0,0,1-2.36-.6,6,6,0,0,1-3.2-2.34c-5-6.54-11.26-11-19.41-12.72-8.35-1.71-15.65.51-22,6a30.77,30.77,0,0,0-5.52,6.26A2.15,2.15,0,0,1,30.12,90a2.11,2.11,0,0,1-1.79-2q-2-11.49-4-23c-.12-.68-.27-1.18-1.14-1.07a2.44,2.44,0,0,1-1.4-.39,11,11,0,0,1-5.6-7.32c-.06-.24-.26-.59,0-.75s.47.18.67.34a28.76,28.76,0,0,0,6,3.64,6,6,0,0,0,4.49.23,17,17,0,0,0,8.2-6.13,23.45,23.45,0,0,0,2.71-4.44A2.2,2.2,0,0,1,41,47.68c1.16.38,1.66,1.5,1.3,2.93a31.07,31.07,0,0,1-1.46,4c-.38.92-.29,1.11.67,1.22a7.71,7.71,0,0,0,7.32-3.18,16.86,16.86,0,0,0,3.29-8.55,2,2,0,0,0-.66-1.81q-5.34-5.52-10.62-11.1a2.11,2.11,0,0,0-2.13-.71c-6.67,1-13.34,2-19.95,3.32a31.67,31.67,0,0,0-7.51,2,4.8,4.8,0,0,0-2.81,3.53A78.23,78.23,0,0,0,7,49.06q-.57,6.52-1.1,13c-.21,2.57-.37,5.14-.52,7.7q-.42,6.78-.8,13.55c-.25,4.55-.27,9.1-.17,13.65a167.66,167.66,0,0,0,1.11,17.35,4.62,4.62,0,0,0,2.7,3.77,22.65,22.65,0,0,0,7.49,2,24.72,24.72,0,0,0,4.21.16,2.76,2.76,0,0,1,1.6.5,21.11,21.11,0,0,0,4.45,2C25.31,121.36,24.76,120.14,24.22,118.91Z"/><rect x="85" width="480" height="165.6"/><path class="cls-1" d="M125,76.76a35.12,35.12,0,0,0-8.57-4.7l2.78-4.1A36.38,36.38,0,0,1,128,72.2Zm4.79,6.38c-2.24,4.74-4.88,9.94-7.43,14.32L117.69,94a135.08,135.08,0,0,0,8.07-14.32Zm-2.28-18.42a34.66,34.66,0,0,0-8.53-5l3-4.06a40,40,0,0,1,8.71,4.65Zm26.94,33.37a24.53,24.53,0,0,0-1.55-3.6c-8.25.73-16.87,1.32-23,1.78l-.73-5.47,3.42-.14a82,82,0,0,0,4.33-11.81h-7.8V73.66h11.72V67.23h-9.44V62h9.44V55.56h5.65V62h9.9v5.2h-9.9v6.43h12v5.19H143.22l.18.05c-1.45,3.83-3.28,8-4.92,11.44,3.65-.18,7.71-.41,11.72-.63-1.14-1.83-2.42-3.61-3.65-5.2l4.65-2.46c3.38,4,7,9.43,8.44,13.26Z"/><path class="cls-1" d="M188,91.94a47.8,47.8,0,0,0,5.2.27c2.46,0,10,0,13-.13a20.31,20.31,0,0,0-1.91,5.51h-11.4c-8.44,0-14.68-1.36-18.79-7.88A23.24,23.24,0,0,1,168,98.37a34,34,0,0,0-4.46-3.7c4.92-3.64,7.15-9.93,8-17.73l5.66.55c-.28,2.05-.59,4-1,5.79a12.29,12.29,0,0,0,6.21,7.15V74.34h-9.72V69.19h25.08v5.15H188V80h12.54v5.11H188ZM171.08,71.51h-5.34V60.12h16.55V55.56H188v4.56h16.69V71.51h-5.61V65.27h-28Z"/><path class="cls-1" d="M211.7,57.61h23.94v5.2h-9.9c-.5,1.5-1.05,2.91-1.59,4.19h11.08V93.22c0,2-.28,3.14-1.46,3.83s-2.56.82-4.56.82a18.12,18.12,0,0,0-1.05-3.7h-3V71.65h-2.1V94.17h-3.51V71.65h-2.37V97.87h-4.38V67h6.48c.41-1.32.82-2.74,1.14-4.19H211.7Zm19.1,14h-2.18V93.72h1.68c.37,0,.5-.14.5-.55Zm23.07-1.55H251V92c0,2.69-.59,4-2.14,4.93s-3.83,1-7.07,1A21.8,21.8,0,0,0,240,92.9c2.14.09,4.19.09,4.88.09s1-.23,1-1V70.1h-9.57V65h9.57v-9.3H251V65h2.87Zm-13.13,3.6a32.53,32.53,0,0,1,3.7,10l-4.65,1.68a35.56,35.56,0,0,0-3.42-10.16Z"/><path class="cls-1" d="M298.23,91.67c0,2.91-.63,4.37-2.46,5.19s-4.65,1-8.75,1a20.64,20.64,0,0,0-1.73-5.2c2.55.14,5.56.1,6.38.1s1.18-.28,1.18-1.1V84.78h-9.62V97.5h-5.47V84.78h-9.3c-.82,5-2.46,10-5.74,13.54a20.31,20.31,0,0,0-4.29-3.51c5-5.47,5.38-13.59,5.38-20V58.57h34.42Zm-20.47-12v-5.6h-8.57v.82c0,1.46,0,3.1-.14,4.78Zm-8.57-16V69h8.57V63.72Zm23.66,0h-9.62V69h9.62Zm0,16v-5.6h-9.62v5.6Z"/><path class="cls-1" d="M348.34,88.38H332.75v9.76h-5.61V88.38H306.62V83.19h7.21v-12h13.31V65.77h-9.76a41.24,41.24,0,0,1-6.2,8.3,41.81,41.81,0,0,0-4.69-3.51c4.1-3.47,7.61-9.3,9.57-15.19l5.52,1.42a28.4,28.4,0,0,1-1.51,3.74h25.76v5.24H332.75v5.47h12v5h-12v6.93h15.59Zm-21.2-5.19V76.26h-7.89v6.93Z"/><path class="cls-1" d="M393.57,68.73c-1,6.75-2.51,12.4-5,17a21.3,21.3,0,0,0,8.07,7.57A20.92,20.92,0,0,0,392.93,98a24.67,24.67,0,0,1-7.66-7.25,29.62,29.62,0,0,1-9.62,7.48,22.09,22.09,0,0,0-1.73-3.1l-2.06,2.1a42.13,42.13,0,0,0-4.74-3.42c-2.69,2-6.34,3.33-11.21,4.33a12.49,12.49,0,0,0-2.15-4.51,24.36,24.36,0,0,0,8.67-2.42A24.07,24.07,0,0,0,359.87,90l-.5.86-4.74-1.45c1-1.6,2.14-3.65,3.28-5.84h-4.33V79.17h6.61c.55-1.14,1.1-2.23,1.55-3.23l1,.22V71.79a33.3,33.3,0,0,1-6.84,5.29,16.47,16.47,0,0,0-2.74-3.92,24.29,24.29,0,0,0,8-5.7h-7.12V63.17h3.47a24.61,24.61,0,0,0-2.37-5.29l3.92-1.64a19.44,19.44,0,0,1,2.73,5.65l-2.91,1.28h3.83V55.51h5v7.66h3.61l-3-1.32a44,44,0,0,0,3.05-5.79l4.56,1.82c-1.41,2-2.83,3.88-3.92,5.29h4.33v4.29h-7.48c2.19,1.23,5.43,3.14,6.43,3.83L372.41,75c-1-1-2.92-2.55-4.7-4v5.51H364.8l2,.42-1.1,2.18h10.85A31.52,31.52,0,0,0,372.82,76c3.88-4.65,6.06-12.4,7.16-20.52l5.47.73c-.36,2.55-.87,5.06-1.46,7.48h12.13v5ZM362.11,86c1.36.54,2.69,1.09,4,1.73a13.86,13.86,0,0,0,1.73-4.15h-4.42ZM373,83.55A18.34,18.34,0,0,1,370.54,90a42.83,42.83,0,0,1,3.79,2.42,22.52,22.52,0,0,0,8-6.88,47.88,47.88,0,0,1-3.1-9,29.42,29.42,0,0,1-2.1,3.29c-.18-.19-.36-.41-.64-.69v4.38Zm9.75-14.82a57.17,57.17,0,0,0,2.79,10.72A48.64,48.64,0,0,0,388,68.73Z"/><path class="cls-1" d="M421.72,96.53v-14H398.44V72.83l32.62-42.06,8.28,6.4L412,72.41h9.75V65.07H432v7.34h7.13V82.58H432v14Z"/><path class="cls-1" d="M487.08,42.62,454.57,98.21l-9.23-5.35,29.05-49.61H448.17V33h38.91Z"/><path class="cls-1" d="M533.08,88.38H517.49v9.76h-5.61V88.38H491.36V83.19h7.2v-12h13.32V65.77h-9.76a41.24,41.24,0,0,1-6.2,8.3,41,41,0,0,0-4.7-3.51c4.11-3.47,7.62-9.3,9.58-15.19l5.52,1.42a29.85,29.85,0,0,1-1.51,3.74h25.76v5.24H517.49v5.47h12v5h-12v6.93h15.59Zm-21.2-5.19V76.26H504v6.93Z"/><path class="cls-1" d="M133.91,127.1a20.5,20.5,0,0,0-1,2.14,34.3,34.3,0,0,1-3.24,6.53,62.05,62.05,0,0,1,5.71,5.28l-2.47,2.76a47.17,47.17,0,0,0-5.3-5.28,30.12,30.12,0,0,1-8.93,7.41l-2.76-2.47a26.07,26.07,0,0,0,9.12-7.08,63.78,63.78,0,0,0-6.43-4.53l2.06-2.48c1.92,1.2,4.39,2.88,6.34,4.32a26.44,26.44,0,0,0,2.64-5.68,18.86,18.86,0,0,0,.57-2.21Z"/><path class="cls-1" d="M147.82,139.32a22.67,22.67,0,0,0,8.74-9.34l1.87,3.39a25.45,25.45,0,0,1-8.88,8.88,25.93,25.93,0,0,1-8.9,3.38l-2-3.16A24.7,24.7,0,0,0,147.82,139.32Zm0-7.78-2.44,2.52a50.19,50.19,0,0,0-6-5.18l2.25-2.4A50.38,50.38,0,0,1,147.82,131.54Z"/><path class="cls-1" d="M178.44,132.6a19.64,19.64,0,0,0,2.18-.14v3.12c-.6-.05-1.51-.08-2.18-.08h-5.78a15.36,15.36,0,0,1-1.54,6.17,11.49,11.49,0,0,1-4.83,4.61l-2.8-2a10,10,0,0,0,4.34-3.43,10.41,10.41,0,0,0,1.49-5.31h-6.6c-.7,0-1.63.05-2.31.1v-3.14c.72.07,1.56.14,2.31.14Zm-12.65-3.29c-.84,0-1.85.05-2.57.1v-3.1a17.91,17.91,0,0,0,2.55.17h9.65a18.88,18.88,0,0,0,2.59-.17v3.1c-.84,0-1.75-.1-2.59-.1Z"/><path class="cls-1" d="M201.25,131.18c1.11,0,2.12-.09,2.62-.14v3.26c-.5,0-1.68-.09-2.64-.09h-5.4c-.14,4.82-1.66,8.76-6.84,11.85l-3-2.2a10.25,10.25,0,0,0,6.51-9.65H186.4c-1.06,0-2,.07-2.76.12V131c.72.07,1.7.16,2.66.16h6.24v-2.64a11.73,11.73,0,0,0-.31-2.8h3.82a17.88,17.88,0,0,0-.2,2.83v2.61Z"/><path class="cls-1" d="M215.84,139.32a22.71,22.71,0,0,0,8.73-9.34l1.88,3.39a25.57,25.57,0,0,1-8.89,8.88,25.93,25.93,0,0,1-8.9,3.38l-2-3.16A24.82,24.82,0,0,0,215.84,139.32Zm0-7.78-2.45,2.52a50.19,50.19,0,0,0-6-5.18l2.25-2.4A51.25,51.25,0,0,1,215.84,131.54Z"/><path class="cls-1" d="M245.92,128.45a11.82,11.82,0,0,0-.84,1.49,35.39,35.39,0,0,1-3.76,6.6A66.74,66.74,0,0,1,248,143.4l-2.73,2.38a55.73,55.73,0,0,0-6.05-6.8,31.68,31.68,0,0,1-9,6.75l-2.47-2.59a27.34,27.34,0,0,0,9.84-6.89,18.58,18.58,0,0,0,3.58-5.88H233c-1,0-2.33.14-2.83.17v-3.41c.65.09,2.11.17,2.83.17h8.45A8.55,8.55,0,0,0,244,127Z"/><path class="cls-1" d="M257.89,137.78c-1.68,1.95-3.62,4-5.26,5.64L250.81,141c1.32-1.3,3.46-3.5,5.42-5.69Zm-2.23-6.19a25.62,25.62,0,0,0-4.18-3.62l2-2.09a25,25,0,0,1,4.27,3.36Zm10.51,2.23a11.7,11.7,0,0,0,7.32,10.37,30.68,30.68,0,0,0-1.82,2.62,13.19,13.19,0,0,1-7-8.33,14.1,14.1,0,0,1-7.87,8.33,13.32,13.32,0,0,0-1.73-2.4c6.48-2.59,8.09-7.9,8.09-10.56v-2.47h-1.92a19.76,19.76,0,0,1-2.5,4.39,17.1,17.1,0,0,0-2.68-1.56c2-2.21,3.48-5.91,4.22-9.75l3,.55a34.72,34.72,0,0,1-1,3.51h8.25l.55-.14,2.12,1.22a33,33,0,0,1-2.76,6.6A23.8,23.8,0,0,0,268,135a23.59,23.59,0,0,0,1.51-3.64h-3.38Z"/><path class="cls-1" d="M297.48,128.45H293.4a10.45,10.45,0,0,1,1,1.63l-2.24.86h3.29v6.15h-7.51v1.41h8.9s0,.68,0,1c-.24,3.22-.53,4.75-1.16,5.4a2.52,2.52,0,0,1-1.82.84,25.61,25.61,0,0,1-3.05.05,6.28,6.28,0,0,0-.79-2.59,19.53,19.53,0,0,0,2.45.09,1.09,1.09,0,0,0,.81-.21,4.59,4.59,0,0,0,.58-2.21h-5.88v5.93h-2.76v-4.75a22.21,22.21,0,0,1-7.61,4.49,11,11,0,0,0-1.78-2.24,22.24,22.24,0,0,0,7.13-3.43H280.1l-.14.55-2.88-.33a46.6,46.6,0,0,0,1.58-6.34h6.51v-1.49H277.8v-2.33H281a13.3,13.3,0,0,0-1.13-2.49h-.31a20.44,20.44,0,0,1-2.18,2.76,17.29,17.29,0,0,0-2.31-1.56,14.36,14.36,0,0,0,3.75-5.45l2.64.72c-.17.43-.39.89-.6,1.32h5.35v1.9a13.16,13.16,0,0,0,2.33-3.94l2.68.67c-.16.46-.38.91-.59,1.37h6.81Zm-12.31,8.64H281l-.34,1.41h4.47Zm-2.38-8.64a10.63,10.63,0,0,1,.75,1.61l-2,.88h5.59a15.94,15.94,0,0,0-2.28-1.53,10.45,10.45,0,0,0,1.06-1Zm9.07,2.49a12.72,12.72,0,0,0-1.51-2.49h-1a16.15,16.15,0,0,1-2.06,2.49Zm.77,2.33h-4.7v1.49h4.7Z"/><path class="cls-1" d="M302.15,128.18c2-.16,5.93-.52,10.27-.91,2.45-.19,5-.33,6.72-.41l0,3.08a24.49,24.49,0,0,0-4.59.31,7.21,7.21,0,0,0-5,6.65c0,3.91,3.65,5.32,7.68,5.52l-1.11,3.29c-5-.32-9.69-3-9.69-8.17a9.42,9.42,0,0,1,3.5-7.32c-2.06.22-7.06.75-9.82,1.35l-.31-3.27C300.78,128.28,301.69,128.23,302.15,128.18Zm15.6,7.32-1.82.82a19.05,19.05,0,0,0-1.87-3.34l1.77-.74A29.34,29.34,0,0,1,317.75,135.5Zm2.79-1.17-1.8.86a21.61,21.61,0,0,0-2-3.24l1.75-.81A36.71,36.71,0,0,1,320.54,134.33Z"/><path class="cls-1" d="M323.43,141.86h3.82V130.63H324v-2.18a11.52,11.52,0,0,0,4.13-1.49h2.61v14.9h3.34v2.86H323.43Z"/><path class="cls-1" d="M337.2,135.77c0-6.15,2.4-9.15,6-9.15s6,3,6,9.15-2.4,9.29-6,9.29S337.2,141.89,337.2,135.77Zm8.68,0c0-5-1.15-6.41-2.66-6.41s-2.69,1.44-2.69,6.41,1.15,6.53,2.69,6.53S345.88,140.76,345.88,135.77Z"/><path class="cls-1" d="M351.87,135.77c0-6.15,2.4-9.15,6-9.15s6,3,6,9.15-2.4,9.29-6,9.29S351.87,141.89,351.87,135.77Zm8.69,0c0-5-1.15-6.41-2.66-6.41s-2.69,1.44-2.69,6.41,1.15,6.53,2.69,6.53S360.56,140.76,360.56,135.77Z"/><path class="cls-1" d="M388.49,141.7h-8.21v5.13h-2.95V141.7h-10.8V139h3.79v-6.29h7v-2.88h-5.14a21.25,21.25,0,0,1-3.26,4.37,22.7,22.7,0,0,0-2.47-1.85,18.53,18.53,0,0,0,5-8l2.9.74a15.87,15.87,0,0,1-.79,2h13.56v2.76h-6.89v2.88h6.34v2.64h-6.34V139h8.21ZM377.33,139v-3.65h-4.15V139Z"/><path class="cls-1" d="M398.82,125.3a37.79,37.79,0,0,1-2.23,4.64v16.8h-2.71V134.06a23.74,23.74,0,0,1-2,2.26,19,19,0,0,0-1.49-2.9,25.44,25.44,0,0,0,5.78-9Zm14.5,18V146H397.84v-2.69h6.38v-4.77h-5.06v-2.69h5.06v-4.18h-5.83V129h6.82a36.94,36.94,0,0,0-4-2.64l1.9-2a33.14,33.14,0,0,1,5.42,3.48l-1.06,1.2H413v2.69h-5.83v4.18h5.18v2.69h-5.18v4.77Z"/><path class="cls-1" d="M433,143.83c1.29,0,1.51-.5,1.7-3.31a8.61,8.61,0,0,0,2.83,1.18c-.38,3.86-1.27,4.94-4.29,4.94h-4.64c-3.5,0-4.46-.91-4.46-4v-3l-7.94.84-.34-2.76,8.28-.82v-2.42c-1.7.26-3.41.48-5,.65a9.33,9.33,0,0,0-.84-2.5c4.68-.55,9.72-1.49,12.79-2.81l2.23,2.36a36.9,36.9,0,0,1-6,1.72v2.69l9.68-1,.33,2.64-10,1.06v3.24c0,1.08.22,1.22,1.64,1.22Zm-13.73-11.69h-2.91V126.5H425v-2.08h3v2.08h8.84v5.64h-3.05v-2.95H419.24Z"/><path class="cls-1" d="M457.94,134.18a8.84,8.84,0,0,1,2.31,5.72c0,3.57-3.22,6.16-8.43,6.16-3.74,0-6.38-1.63-6.38-5.59,0-.57.07-1.41.16-2.4a27.15,27.15,0,0,1-4.56-.79l.17-2.88a20.56,20.56,0,0,0,4.68.94c.15-1.06.27-2.16.41-3.24a30.3,30.3,0,0,1-4.73-.84l.17-2.76a22.14,22.14,0,0,0,4.87.88c.1-.72.15-1.36.19-1.89a14.36,14.36,0,0,0,.05-2.11l3.34.19c-.19.86-.31,1.49-.41,2.11-.07.41-.14,1-.26,1.8a33.54,33.54,0,0,0,4.36-.29l-.09,2.83a41,41,0,0,1-4.63.22c-.15,1.06-.29,2.18-.41,3.24h.17a46.54,46.54,0,0,0,4.77-.29l-.07,2.83c-1.34.12-2.74.22-4.2.22h-1c0,.7-.1,1.3-.1,1.73,0,1.94,1.2,3,3.56,3,3.31,0,5.13-1.51,5.13-3.48,0-1.61-.91-3.14-2.44-4.61Z"/><path class="cls-1" d="M471.92,140.06c-.48-.69-1.27-1.7-2.06-2.61v9.36h-2.81v-8.14a19.7,19.7,0,0,1-2.66,2.16,12.16,12.16,0,0,0-1.3-2.71,17.91,17.91,0,0,0,6.29-6.72H464v-2.57h3.07v-4.41h2.81v4.41h1l.48-.12,1.59,1a24.34,24.34,0,0,1-2.5,4.9c1.06.91,2.79,2.57,3.24,3.05Zm11.36,4.13c.4,0,.5-.31.55-2.66a7,7,0,0,0,2.28,1c-.24,3.24-.89,4.05-2.52,4.05h-1.68c-2.09,0-2.55-.76-2.55-3.09v-4.37h-1.2c-.38,3.43-1.44,6.09-5.4,7.68a7,7,0,0,0-1.61-2.21c3.25-1.13,4-3,4.3-5.47h-1.56V125.57h10.59v13.56H482v4.32c0,.67,0,.74.4.74Zm-6.8-14.78h5.26v-1.59h-5.26Zm0,3.74h5.26v-1.61h-5.26Zm0,3.72h5.26v-1.61h-5.26Z"/><path class="cls-1" d="M495.46,142.59c1.44-.15,2.9-.32,4.37-.49l.07,2.5c-4.08.58-8.43,1.08-11.55,1.49L488,143.3c1.29-.12,2.9-.24,4.68-.43v-2.64h-3.89v-2.57h3.89v-1.94h-3.94V125.5h10.66v10.22h-4v1.94h4v2.57h-4Zm-4.37-13h1.8v-1.77h-1.8Zm0,3.91h1.8v-1.8h-1.8Zm5.9-5.68h-1.72v1.77H497Zm0,3.88h-1.72v1.8H497Zm13.68,2a48.21,48.21,0,0,1-1.6,6.07l-2.31-.48c.24-.84.51-2,.75-3.21H506v7.65c0,1.37-.27,2.16-1.2,2.59a9.36,9.36,0,0,1-3.94.49A11.17,11.17,0,0,0,500,144a25,25,0,0,0,2.64,0c.36,0,.48-.07.48-.38v-7.58h-3.17v-2.72h5a29.69,29.69,0,0,0-4.39-2.61l1.75-1.75c.65.28,1.35.62,2,1a19.08,19.08,0,0,0,1.59-1.92h-5.76V125.5h7.65l.63-.15,1.8,1.3a23.34,23.34,0,0,1-3.8,4.61c.72.5,1.42,1,1.95,1.39l-.63.69h.56l.4-.07Z"/><path class="cls-1" d="M518.8,126.41a21.71,21.71,0,0,0-.58,2.11,59.6,59.6,0,0,0-1.15,8.71,11.92,11.92,0,0,0,.1,1.54c.33-.84.72-1.63,1.05-2.4l1.49,1.15a57.65,57.65,0,0,0-1.7,5.83,7.44,7.44,0,0,0-.15,1.11c0,.26,0,.64,0,1l-2.73.19a30.26,30.26,0,0,1-.94-7.77,66.49,66.49,0,0,1,1-9.41,17.16,17.16,0,0,0,.24-2.33Zm5.57,11.73a8,8,0,0,0-.29,2c0,1.05.91,1.68,3.31,1.68a27.45,27.45,0,0,0,6-.63l.08,3.22a33,33,0,0,1-6.15.48c-4.1,0-6-1.49-6-3.91a14.61,14.61,0,0,1,.41-3.1Zm8.3-10.17V131a66.79,66.79,0,0,1-10.2,0l0-3.07A48.46,48.46,0,0,0,532.67,128Z"/><path class="cls-1" d="M131.68,34.7v-1h-3.21v1h-2.89V27.31h-3.26v9.63h15V39.7h-15v1.51h-2.95V27.31H116V24.55h3.41v-5h2.95v5h3.26V19h2.89v5.57h3.21V19.22h2.88v5.33h3.55v2.76h-3.55V34.7Zm0-3.62V27.31h-3.21v3.77Z"/><path class="cls-1" d="M148.58,19.87a38.26,38.26,0,0,1-2.24,4.42V41.16h-3V28.56a22.49,22.49,0,0,1-2.5,2.69,18.61,18.61,0,0,0-1.58-2.91A25.07,25.07,0,0,0,145.84,19Zm6.57,8.69c.68,5.33,1.95,8.88,3.87,9.12.55,0,.84-1.15,1-3.82a9.76,9.76,0,0,0,2.33,1.64c-.6,4.63-1.9,5.73-3.24,5.66-4.06-.38-5.95-4.9-6.82-12.22l-4.73.65-.41-2.76,4.85-.65c-.16-2.16-.31-4.51-.38-7h2.9c0,2.35.15,4.61.32,6.65l6.84-.89.4,2.69Zm4.3-4.25a20.19,20.19,0,0,0-3.29-4L158.3,19a21.32,21.32,0,0,1,3.45,3.86Z"/><path class="cls-1" d="M174.86,35.66c0-.69.07-1.8.09-2.83-1.75,1-2.71,1.9-2.71,3.07s1.13,1.68,3.46,1.68a36.54,36.54,0,0,0,6.74-.69L182.35,40a63.53,63.53,0,0,1-6.72.39c-3.72,0-6.53-.89-6.53-4s2.88-4.95,5.59-6.34a1.85,1.85,0,0,0-1.66-.81,5.88,5.88,0,0,0-3.72,1.63,31.33,31.33,0,0,0-2.21,2.61l-2.54-1.89a23.16,23.16,0,0,0,5.23-6.53h-.29c-1,0-2.71,0-4-.17V22.13a30.72,30.72,0,0,0,4.17.26h1.16a14.27,14.27,0,0,0,.48-2.71l3.12.26c-.12.58-.29,1.4-.58,2.36a57.86,57.86,0,0,0,6.72-.7l0,2.78a77.4,77.4,0,0,1-7.76.63,14,14,0,0,1-1.37,2.4,7.31,7.31,0,0,1,2.69-.48,3.23,3.23,0,0,1,3.17,1.85c1.23-.58,2.23-1,3.22-1.42s1.75-.82,2.61-1.23l1.2,2.77a26.81,26.81,0,0,0-2.83,1c-1,.41-2.4.94-3.86,1.61,0,1.32.07,3.07.09,4.15Z"/><path class="cls-1" d="M194.18,37.32a16,16,0,0,0,4.89.55c1.83,0,8.24,0,10.4-.09a11.09,11.09,0,0,0-1.08,2.83h-9.32c-4.46,0-7.32-.6-9.21-3.29a17.81,17.81,0,0,1-1.11,3.89A15.53,15.53,0,0,0,186.47,40c1.2-2.38,1.39-6.24,1.42-10.32l2.49.17c0,1.1,0,2.21-.09,3.26a7.35,7.35,0,0,0,1.34,2.55V28.44h-4.51V25.92h4.06V23.71h-3.51V21.24h3.51V18.81h2.64v2.43h3.41v2.47h-3.41v2.21h3.81v.6a6.43,6.43,0,0,0,2.86-4.47h-2.57V19.68h10.59s0,.65,0,1c-.17,4-.38,5.74-1,6.41a2.34,2.34,0,0,1-1.61.82,19.49,19.49,0,0,1-2.66.05,5.59,5.59,0,0,0-.7-2.4,18.11,18.11,0,0,0,1.95.09.88.88,0,0,0,.69-.24c.22-.31.39-1.2.51-3.34h-2.55a9.06,9.06,0,0,1-4,6.51,13.81,13.81,0,0,0-1.49-1.22v1.1h-3.45v2.62h3.17v2.47h-3.17Zm4.37-8.47h9.38v7.56h-9.38Zm2.66,5.28h3.89v-3h-3.89Z"/><path class="cls-1" d="M224.85,28.49c-1.08.93-3.31,3-3.86,3.57a2.48,2.48,0,0,1,.88.2,2.31,2.31,0,0,1,1.47,1.6c.21.65.43,1.56.65,2.16a1.5,1.5,0,0,0,1.68,1.11,24.57,24.57,0,0,0,4.65-.41l-.19,3.12a35,35,0,0,1-4.66.34c-2.25,0-3.48-.48-4.05-2-.27-.7-.53-1.8-.7-2.4-.29-.84-.79-1.16-1.27-1.16a2.52,2.52,0,0,0-1.54,1,59,59,0,0,0-4.24,4.85l-2.84-2A16.29,16.29,0,0,0,212.49,37c1.22-1.25,6.07-6.07,8.26-8.38-1.68.08-4.52.32-5.88.44-.82.07-1.54.19-2,.28L212.54,26c.55,0,1.41.08,2.28.08,1.13,0,6.53-.24,8.49-.51a7.55,7.55,0,0,0,1.35-.28l1.75,2C225.79,27.72,225.28,28.15,224.85,28.49Zm.72-7.61-.38,2.81c-2.5-.22-6.94-.72-9.77-1.2l.45-2.76C218.54,20.23,223.1,20.73,225.57,20.88Z"/><path class="cls-1" d="M248.61,22.65c-.58.36-1.13.73-1.66,1.08-1.27.89-3.76,3-5.25,4.21a7.83,7.83,0,0,1,2.23-.27c4,0,7.11,2.52,7.11,6,0,3.74-2.86,6.72-8.6,6.72-3.31,0-5.81-1.51-5.81-3.89a4,4,0,0,1,4.28-3.7A4.79,4.79,0,0,1,246,36.84a3.46,3.46,0,0,0,1.94-3.24c0-2.14-2.16-3.58-4.92-3.58-3.64,0-6,1.95-8.56,4.83l-2.16-2.23c1.68-1.37,4.53-3.8,5.95-4.95s3.79-3.09,5-4.13c-1.23,0-4.49.17-5.74.27a14.17,14.17,0,0,0-1.94.19l-.1-3.1c.67.07,1.49.12,2.16.12,1.25,0,6.34-.12,7.68-.24a11.31,11.31,0,0,0,1.82-.24Zm-5.38,15c-.14-1.54-1-2.55-2.32-2.55-.89,0-1.47.53-1.47,1.13,0,.89,1,1.49,2.4,1.49A12,12,0,0,0,243.23,37.61Z"/><path class="cls-1" d="M261.67,19.7a39.4,39.4,0,0,1-2.24,4.64v16.8h-2.71V28.46a23.74,23.74,0,0,1-2,2.26,19,19,0,0,0-1.49-2.9,25.6,25.6,0,0,0,5.79-9Zm14.49,18.05v2.69H260.68V37.75h6.39V33H262V30.29h5.07V26.11h-5.84V23.42h6.82a36.94,36.94,0,0,0-4-2.64l1.9-2a32.49,32.49,0,0,1,5.42,3.48l-1.05,1.2h5.49v2.69H270v4.18h5.18V33H270v4.77Z"/><path class="cls-1" d="M295,39.24a18,18,0,0,0-4.8-3.29c0,.31,0,.6,0,.84,0,2-1.54,3.6-4.68,3.6-3.79,0-5.81-1.44-5.81-4s2.21-4.08,5.88-4.08c.5,0,1,0,1.46.07,0-.72-.07-1.46-.09-2.16h-1.23c-1.39,0-4.12-.12-5.71-.31l0-2.81a42,42,0,0,0,5.73.44h1.13V25.1h-1.13a38.94,38.94,0,0,1-5.16-.36l0-2.71a31.21,31.21,0,0,0,5.16.46h1.17V21.41a9.19,9.19,0,0,0-.12-1.64H290a15.75,15.75,0,0,0-.16,1.68l0,.94a47.84,47.84,0,0,0,5.67-.58l.07,2.74c-1.56.15-3.48.34-5.76.46l0,2.47c2.4-.1,4.4-.31,6.34-.55v2.81c-2.14.24-4,.4-6.29.48.05.88.1,1.84.17,2.76a18.23,18.23,0,0,1,6.65,3.6ZM287.13,35a12.17,12.17,0,0,0-1.94-.17c-1.68,0-2.6.65-2.6,1.46s.84,1.47,2.48,1.47c1.27,0,2.08-.39,2.08-1.75C287.15,35.71,287.15,35.38,287.13,35Z"/><path class="cls-1" d="M304.36,24.91c0,1.54,0,3.34.15,5,.33,3.43,1.05,5.76,2.54,5.76,1.13,0,2.06-2.78,2.52-4.65l2.4,2.88c-1.58,4.12-3.07,5.59-5,5.59-2.59,0-4.87-2.35-5.55-8.74-.21-2.18-.26-4.94-.26-6.41A13.23,13.23,0,0,0,301,22l3.65.05A18.58,18.58,0,0,0,304.36,24.91Zm16.52,9.77-3.15,1.2c-.36-3.82-1.63-9.41-4.22-12.34l3-1C318.79,25.3,320.61,31,320.88,34.68Z"/><line class="cls-2" x1="115" y1="111.6" x2="535" y2="111.6"/></g></g></svg>