<svg xmlns="http://www.w3.org/2000/svg" viewBox="0 0 300 239.34"><defs><style>.cls-1{opacity:0.2;}</style></defs><g id="Layer_2" data-name="Layer 2"><g id="内容"><path class="cls-1" d="M61.15,133.32c.34.73.69,1.46,1.05,2.18L187.92,9.78c-.73-.36-1.45-.71-2.19-1Zm3.35,6.51c.39.68.79,1.36,1.19,2L194.29,13.28c-.68-.41-1.36-.81-2-1.19Zm7.92,11.8c.47.61,1,1.2,1.44,1.79l132-132c-.59-.49-1.19-1-1.79-1.45ZM58.25,126.36c.29.78.59,1.56.9,2.33l122-122q-1.17-.47-2.34-.9ZM77,157c.51.56,1,1.12,1.56,1.67L211.05,26.1c-.55-.53-1.1-1.05-1.67-1.57Zm-8.68-11c.43.64.87,1.28,1.32,1.91L200.26,17.17q-1-.68-1.92-1.32Zm-12.43-27c.23.84.48,1.67.73,2.5L173.82,4.16c-.83-.26-1.67-.5-2.5-.74Zm5.09-64.27q-1.26,2.76-2.34,5.58l54-54c-1.88.72-3.73,1.5-5.57,2.34Zm9.38-16L91,17.9a93.6,93.6,0,0,0-11.17,9.55A94.57,94.57,0,0,0,70.31,38.63ZM55.47,70c-.37,1.41-.7,2.82-1,4.24L126.61,2.05c-1.41.3-2.83.63-4.23,1Zm-3,22.77c0,1.07,0,2.15,0,3.22L148.37,0c-1.08,0-2.15,0-3.22,0Zm.71-10.57c-.15,1.2-.27,2.41-.37,3.61L138.19.34c-1.21.1-2.41.22-3.61.37Zm-.33,20.06c.09,1,.19,2,.31,2.92L157.56.69c-1-.12-1.95-.22-2.93-.31ZM54,110.89c.17.9.34,1.8.54,2.7L166,2.11c-.89-.19-1.79-.37-2.69-.54Zm38.73,59.89c.64.45,1.28.88,1.93,1.31L224.5,42.23c-.42-.64-.86-1.29-1.3-1.92ZM155.37,187c1.23-.12,2.45-.27,3.67-.43l80-80c.17-1.22.32-2.45.44-3.67Zm-19.6-.12c1,.1,2,.2,3,.28L239.6,86.31c-.08-1-.17-2-.28-3Zm9.3.56c1.08,0,2.16,0,3.25,0L239.88,95.9c0-1.08,0-2.16,0-3.25Zm22.09-2.36c1.45-.33,2.9-.7,4.33-1.1l64.93-64.93c.41-1.44.77-2.89,1.1-4.34ZM81.84,161.94l1.68,1.55L215.91,31.11c-.51-.57-1-1.13-1.55-1.69Zm99.72,18.63q3-1.22,5.87-2.63L230.35,135q1.43-2.89,2.63-5.86Zm36.27-26.41-11.25,11.25c2-1.7,4-3.49,5.86-5.38S216.13,156.17,217.83,154.16ZM98.74,174.63c.68.4,1.37.79,2.06,1.17L228.22,48.38c-.38-.69-.77-1.38-1.17-2.06Zm6.42,3.44c.73.35,1.46.7,2.2,1L231.52,54.94c-.34-.73-.68-1.47-1-2.2ZM87.09,166.55c.6.48,1.2,1,1.81,1.43L220.39,36.48c-.46-.6-.94-1.2-1.43-1.8Zm40.16,19c.91.19,1.81.36,2.72.52L238.5,77.55c-.16-.9-.34-1.81-.52-2.71Zm-7.89-2c.84.25,1.68.49,2.53.71L236.72,69.47c-.23-.84-.46-1.69-.71-2.52ZM112,181.07c.78.3,1.57.6,2.36.88l120-120c-.29-.79-.58-1.57-.89-2.35Z"/><path d="M37.6,98.88A105.77,105.77,0,0,0,143.34,201.75v37.59A143.37,143.37,0,0,1,0,98.88Z"/><path d="M287.23,124.41H222.51a12.77,12.77,0,0,1-12.77-12.77h0a12.76,12.76,0,0,1,12.77-12.76h64.72A12.76,12.76,0,0,1,300,111.64h0A12.77,12.77,0,0,1,287.23,124.41Z"/><path class="cls-1" d="M206.64,227.78h-.07a7.76,7.76,0,0,1-6.19-3.12,4.27,4.27,0,0,0-3.39-1.72h0a4.23,4.23,0,0,0-3.37,1.66l-.13.16a7.76,7.76,0,0,1-6.17,3h-.07a7.78,7.78,0,0,1-6.19-3.12l-.21-.28a4.27,4.27,0,0,0-6.68-.2l-2.7-2.29a7.8,7.8,0,0,1,12.21.37l.21.27a4.29,4.29,0,0,0,6.81.06l.12-.16a7.76,7.76,0,0,1,6.17-3H197a7.78,7.78,0,0,1,6.19,3.12,4.23,4.23,0,0,0,3.39,1.71h0a4.23,4.23,0,0,0,3.38-1.65l.13-.16a7.76,7.76,0,0,1,6.17-3h.07a7.78,7.78,0,0,1,6.19,3.12,4.28,4.28,0,0,0,6.8.06l.13-.16a7.76,7.76,0,0,1,6.17-3h.07a7.78,7.78,0,0,1,6.19,3.12,4.22,4.22,0,0,0,3.38,1.71h0a4.26,4.26,0,0,0,3.38-1.65l.13-.16a7.76,7.76,0,0,1,6.17-3h.07a7.76,7.76,0,0,1,6.18,3.12,4.25,4.25,0,0,0,3.39,1.71h0a4.26,4.26,0,0,0,3.38-1.65l.12-.16a7.83,7.83,0,0,1,12.43.1,4.29,4.29,0,0,0,6.81.06l.12-.16a7.83,7.83,0,0,1,12.43.1l-2.83,2.13a4.27,4.27,0,0,0-3.39-1.72h0a4.23,4.23,0,0,0-3.37,1.66l-.13.16a7.76,7.76,0,0,1-6.17,3H284a7.78,7.78,0,0,1-6.19-3.12,4.27,4.27,0,0,0-3.39-1.72h0A4.27,4.27,0,0,0,271,224.6l-.13.16a7.76,7.76,0,0,1-6.17,3h-.07a7.78,7.78,0,0,1-6.19-3.12,4.25,4.25,0,0,0-3.38-1.72h0a4.27,4.27,0,0,0-3.38,1.66l-.13.16a7.76,7.76,0,0,1-6.17,3h-.07a7.76,7.76,0,0,1-6.18-3.12,4.29,4.29,0,0,0-3.39-1.72h0a4.27,4.27,0,0,0-3.38,1.66l-.12.16a7.78,7.78,0,0,1-6.18,3h-.06a7.76,7.76,0,0,1-6.19-3.12,4.28,4.28,0,0,0-6.81-.06l-.12.16A7.77,7.77,0,0,1,206.64,227.78Z"/><path d="M181,189.65c1.47,2.57,4.23,3.66,8.11,3.81a180.41,180.41,0,0,0,19.16-.34,18.8,18.8,0,0,0-1.32,4.19c-4.79.27-13.12.34-17.84.11-4.53-.18-7.62-1.28-9.88-4.22-1.44,1.51-2.91,3-4.72,4.6l-2.11-4.26a55.69,55.69,0,0,0,4.45-3.51V181.7h-3.88v-4.12h8v10.3c2.6-4.07,2.87-9.54,2.87-13.65v-8.07h9.62V163h4.33v3.21h9.47v3.62H187.87v3.65h3.21v-3H195v3h4.23v-3h4v3h3.88v3.48h-3.88v6.45H191.08v-6.45H187.8c-.19,4.63-1.06,10.14-3.81,13.91a20.53,20.53,0,0,0-3-2Zm-3.28-17.16a26,26,0,0,0-5-6.49l3.55-2.26A27.89,27.89,0,0,1,181.5,170Zm7.77,18a11.5,11.5,0,0,0,3.43-6l3.21,1c-.68,2.53-1.7,5.13-3.66,6.79Zm7.54,1.25a33.78,33.78,0,0,0-.19-6.45l3.14-.15a38.14,38.14,0,0,1,.37,6.45Zm2-14.86V180h4.23v-3.13Zm5.13,8a33.25,33.25,0,0,1,1.7,6.19l-3.2.79a31.42,31.42,0,0,0-1.51-6.3ZM204.7,192a27.92,27.92,0,0,0-3.17-6.79l3.05-1.13a28.8,28.8,0,0,1,3.36,6.6Z"/><path d="M252.62,174.57v4H218.86v-4h8.48a19.1,19.1,0,0,0-1.62-4.3l1.55-.31h-6.34v-4h12.34V163H238V166h12.9v4h-6l1.62.34c-.75,1.55-1.43,3.1-2.07,4.27Zm-28.45,6.3h23.77V198.1h-4.72v-1.2H228.66v1.24h-4.49Zm4.49,3.69v2.57h14.56v-2.57Zm14.56,8.64v-2.68H228.66v2.68ZM230.47,170a15.84,15.84,0,0,1,1.7,4.34l-1.13.27h9.58l-.94-.23A29.27,29.27,0,0,0,241.3,170Z"/><path d="M298.57,192.71V197H275.11v-4.26h10.07v-7.54H277.9V181h7.28v-6.19H281a25.8,25.8,0,0,1-2.11,5.21,38.42,38.42,0,0,0-4-2c.38-.68.76-1.39,1.13-2.19l-2.15,1a25.51,25.51,0,0,0-1.43-4.33v25.76H268v-27a48,48,0,0,1-1.7,10L263,180a44.38,44.38,0,0,0,1.85-9.81l3.17.45V163h4.49v7.13l2.19-.91a44.4,44.4,0,0,1,2.07,4.75,45.22,45.22,0,0,0,2-9.2l4.38.61c-.27,1.77-.57,3.54-.95,5.24h3v-7.4h4.49v7.4h7.7v4.22h-7.7V181h6.9v4.19h-6.9v7.54Z"/><path d="M3.76,40.85a8.39,8.39,0,0,0,5.86,2.22c1.9,0,3.17-.83,3.17-2.18,0-2.61-3.29-3.17-6.34-4.2s-5.66-3.16-5.66-7c0-4.55,4.28-7.36,8.79-7.36A11.79,11.79,0,0,1,19,27.31l-3,2.61a8.53,8.53,0,0,0-6.58-3.6c-2.93,0-4.55,1.7-4.55,3.29,0,2.29,1.94,3.08,5.11,4,3.72,1.11,6.89,3,6.89,6.93,0,4.28-3.76,6.34-7.45,6.34A11.19,11.19,0,0,1,1.35,43.7Z"/><path d="M28.14,46.63v-20H22.32v-4H40.06v4H32.18v20Z"/><path d="M44.63,22.64H54.69c4.67,0,7.48,3.12,7.48,7a7,7,0,0,1-6,6.77l4.36,10.25h-4.4L51.8,36.53H48.67v10.1h-4Zm4,3.88v6.13h5.7c2.54,0,3.76-1.38,3.76-3a3.15,3.15,0,0,0-3.48-3.09Z"/><path d="M78.08,22.36a12.06,12.06,0,0,1,12,12.27,12.07,12.07,0,0,1-12,12.28A11.87,11.87,0,0,1,66,34.63,12.06,12.06,0,0,1,78.08,22.36Zm0,20.55c4.63,0,7.92-3.68,7.92-8.28s-3.17-8.27-7.92-8.27-7.92,3.76-7.92,8.27S73.45,42.91,78.08,42.91Z"/><path d="M111.22,46.63l-11.41-17v17h-4v-24h4l11.25,16.82V22.64h4v24Z"/><path d="M136.53,42.24V38.75H132V34.87h8.59v9.62a12.73,12.73,0,0,1-7.72,2.42,11.87,11.87,0,0,1-12-12.28,12.06,12.06,0,0,1,12-12.27,11.93,11.93,0,0,1,11,7.09l-3.48,1.86c-1.31-2.46-3.52-4.95-7.48-4.95-4.76,0-7.92,3.76-7.92,8.27s3.28,8.28,7.92,8.28A9.35,9.35,0,0,0,136.53,42.24Z"/><path d="M2.38,56.92h9.54c4.67,0,7.48,3.13,7.48,7,0,3.44-2.85,6.93-7.76,6.93H6.41v10.1h-4Zm4,3.88v6.14H11.6c2.53,0,3.76-1.39,3.76-3a3.16,3.16,0,0,0-3.48-3.09Z"/><path d="M33.51,56.64a12.28,12.28,0,0,1,0,24.55,11.86,11.86,0,0,1-12-12.27A12.06,12.06,0,0,1,33.51,56.64Zm0,20.56c4.64,0,7.92-3.69,7.92-8.28s-3.17-8.28-7.92-8.28-7.92,3.77-7.92,8.28S28.88,77.2,33.51,77.2Z"/><path d="M49.83,80.92v-24h4v24Z"/><path d="M75.08,80.92l-11.4-17v17h-4v-24h4L75,73.75V56.92h4v24Z"/><path d="M87.86,80.92v-20H82v-4H99.78v4H91.9v20Z"/><path d="M101.66,76.16a2.52,2.52,0,1,1,0,5,2.52,2.52,0,0,1,0-5Z"/><path d="M107.75,65a8.22,8.22,0,0,1,8.19-8.32c4.36,0,8,3.29,8,8.64v7.6a8,8,0,0,1-8.19,8.31c-4.4,0-8-3.16-8-8.63Zm4,.32V72.4c0,3.61,1.82,4.76,3.92,4.76s4.15-1.27,4.15-4.6V65.43c0-3.6-1.82-4.75-3.92-4.75S111.79,62,111.79,65.28Z"/><path d="M131.82,70.62V66.86h1.66c2.57,0,3.8-1.31,3.8-3.13a3,3,0,0,0-3.09-3.09,5.12,5.12,0,0,0-3.56,1.43l-2.42-2.81a8.29,8.29,0,0,1,6.1-2.62,6.93,6.93,0,0,1,7.09,7,6,6,0,0,1-2.34,4.91A6.14,6.14,0,0,1,142,74c0,4.12-3.28,7.16-8.15,7.16a9.14,9.14,0,0,1-7.72-3.76l2.65-2.69a6.81,6.81,0,0,0,5,2.73c2.53,0,4-1.38,4-3.44,0-1.9-1.31-3.41-4.28-3.41Z"/></g></g></svg>