<svg xmlns="http://www.w3.org/2000/svg" viewBox="0 0 357.23 46.88"><g id="Layer_2" data-name="Layer 2"><g id="内容"><path d="M5.67,35.31a16.06,16.06,0,0,0,11.19,4.23c3.63,0,6.05-1.59,6.05-4.16,0-5-6.28-6.05-12.1-8C4.76,25.33,0,21.32,0,14.06,0,5.37,8.17,0,16.78,0c9.08,0,15.88,5.9,18.07,9.45l-5.74,5c-2-2.8-6.58-6.88-12.55-6.88-5.6,0-8.7,3.25-8.7,6.28,0,4.38,3.71,5.89,9.76,7.71,7.1,2.11,13.15,5.74,13.15,13.23,0,8.16-7.18,12.1-14.21,12.1a21.35,21.35,0,0,1-15.5-6.13Z"/><path d="M49.12,46.35V8.09H38V.53H71.88V8.09h-15V46.35Z"/><path d="M77.38.53h19.2c8.92,0,14.29,6,14.29,13.31,0,5.74-4.16,11.56-11.49,12.92l8.31,19.59H99.3L91.06,27.07h-6V46.35H77.38Zm7.71,7.41V19.66H96c4.83,0,7.18-2.65,7.18-5.82s-2.35-5.9-6.66-5.9Z"/><path d="M151.58,29.94a16.94,16.94,0,1,1-33.87,0V.53h7.71V29.94a9.12,9.12,0,0,0,9.22,9.22,8.93,8.93,0,0,0,9.23-9.22V.53h7.71Z"/><path d="M194.44,14.52a15.32,15.32,0,0,0-12.85-6.88c-9.07,0-15.12,7.18-15.12,15.8s6.27,15.8,15.12,15.8a17.78,17.78,0,0,0,9.07-2.57l3.63,6.43a22.71,22.71,0,0,1-12.7,3.78c-13.08,0-23-10-23-23.44,0-13,10-23.44,23-23.44a22.68,22.68,0,0,1,19.13,10.28Z"/><path d="M214.06,46.35V8.09H202.94V.53h33.88V8.09h-15V46.35Z"/><path d="M275.84,29.94a16.94,16.94,0,1,1-33.87,0V.53h7.71V29.94a9.12,9.12,0,0,0,9.22,9.22,8.93,8.93,0,0,0,9.23-9.22V.53h7.71Z"/><path d="M286.25.53h19.21c8.92,0,14.29,6,14.29,13.31,0,5.74-4.16,11.56-11.49,12.92l8.31,19.59h-8.39l-8.24-19.28h-6V46.35h-7.72ZM294,7.94V19.66h10.88c4.84,0,7.19-2.65,7.19-5.82s-2.35-5.9-6.66-5.9Z"/><path d="M327.29,46.35V.53h29.34V7.94H335V19.66h22.23v7.41H335V38.94h16.48v7.41Z"/></g></g></svg>