<svg xmlns="http://www.w3.org/2000/svg" viewBox="0 0 195 29.8"><defs><style>.cls-1{fill:#0062af;}</style></defs><g id="Layer_2" data-name="Layer 2"><g id="内容"><path class="cls-1" d="M47,27.47c-.12-1.72-.18-3.17-.22-4.89,0-2.26-.07-4.16-.08-6.42a13.22,13.22,0,0,0-.45-3.42,5.43,5.43,0,0,0-2.7-3.5,9,9,0,0,0-2.55-1,21.82,21.82,0,0,0-8.67-.17,10.71,10.71,0,0,0-2.35.68,6.21,6.21,0,0,0-3.69,4.05A5.05,5.05,0,0,0,26,15a1.05,1.05,0,0,0,.12.38l7,.17a3.1,3.1,0,0,1,.19-1.24A2.15,2.15,0,0,1,34.66,13a4.11,4.11,0,0,1,2.79,0,1.9,1.9,0,0,1,1.27,1.28,1.24,1.24,0,0,1-.18,1.12,1.7,1.7,0,0,1-.8.62,6,6,0,0,1-.6.2,26.28,26.28,0,0,1-2.8.6c-.78.13-1.44.25-2.22.41a27,27,0,0,0-3,.78,6.17,6.17,0,0,0-2.41,1.4,5.11,5.11,0,0,0-1.66,3.16,6.36,6.36,0,0,0,.1,2.42,5.76,5.76,0,0,0,4.13,4.39A10.09,10.09,0,0,0,36.18,29a6.57,6.57,0,0,0,2.72-2l-.49-3.57A3,3,0,0,1,37,24.57a5.28,5.28,0,0,1-1.66.43,3.65,3.65,0,0,1-1.43-.12,2,2,0,0,1-1-.6,1.75,1.75,0,0,1-.46-.87A1.38,1.38,0,0,1,33,22a2.76,2.76,0,0,1,.87-.52c.82-.29,1.51-.52,2.34-.75a19.41,19.41,0,0,0,2.79-1,7.89,7.89,0,0,1,0,2.17,3.46,3.46,0,0,1-.55,1.48L38.9,27c.16.51.3.93.47,1.43a2.12,2.12,0,0,0,.42.71H47.5A3.26,3.26,0,0,1,47,27.47"/><path class="cls-1" d="M93.63,27.47c-.12-1.72-.18-3.17-.22-4.89,0-2.26-.07-4.16-.09-6.42a13.65,13.65,0,0,0-.44-3.42,5.43,5.43,0,0,0-2.7-3.5,9,9,0,0,0-2.56-1A21.77,21.77,0,0,0,79,8.1a10.56,10.56,0,0,0-2.35.68,6.25,6.25,0,0,0-3.7,4.05,4.9,4.9,0,0,0-.2,2.15,1.27,1.27,0,0,0,.11.38l7,.17A3.1,3.1,0,0,1,80,14.29,2.15,2.15,0,0,1,81.33,13a4.11,4.11,0,0,1,2.79,0,1.86,1.86,0,0,1,1.26,1.28,1.24,1.24,0,0,1-.17,1.12,1.7,1.7,0,0,1-.8.62c-.21.08-.39.14-.6.2a26.28,26.28,0,0,1-2.8.6c-.78.13-1.44.25-2.23.41a28.22,28.22,0,0,0-3,.78,6.2,6.2,0,0,0-2.4,1.4,5.11,5.11,0,0,0-1.66,3.16,6.17,6.17,0,0,0,.09,2.42A5.79,5.79,0,0,0,76,29.3,10.12,10.12,0,0,0,82.85,29a6.57,6.57,0,0,0,2.72-2l-.49-3.57a3,3,0,0,1-1.38,1.18A5.35,5.35,0,0,1,82,25a3.63,3.63,0,0,1-1.43-.12,2,2,0,0,1-1-.6,1.66,1.66,0,0,1-.45-.87A1.37,1.37,0,0,1,79.64,22a2.92,2.92,0,0,1,.88-.52c.81-.29,1.51-.52,2.34-.75a19.29,19.29,0,0,0,2.78-1,7.89,7.89,0,0,1,0,2.17,3.59,3.59,0,0,1-.55,1.48L85.57,27c.15.51.29.93.47,1.43a2,2,0,0,0,.42.71h7.7a3.35,3.35,0,0,1-.53-1.63"/><path class="cls-1" d="M130.1,7.91a15.5,15.5,0,0,0-4.71,0,10.83,10.83,0,0,0-6.07,3,9.87,9.87,0,0,0-3.11,6.49,11.64,11.64,0,0,0,.4,4.47,10.27,10.27,0,0,0,3.81,5.64,9.93,9.93,0,0,0,4.11,1.9,13.85,13.85,0,0,0,3.21.35,14,14,0,0,0,3.22-.35,10,10,0,0,0,4.11-1.9l-4.47-4.87a3.13,3.13,0,0,1-4.14,1.57,3,3,0,0,1-1.57-1.57,7.38,7.38,0,0,1-.59-2,11.46,11.46,0,0,1,.09-4.17,5.21,5.21,0,0,1,.82-2,3,3,0,0,1,4.19-.88,2.84,2.84,0,0,1,.88.88,5.37,5.37,0,0,1,.82,2,11.69,11.69,0,0,1,.09,4.17,7.38,7.38,0,0,1-.59,2l4.47,4.87a10.32,10.32,0,0,0,3.81-5.64,12,12,0,0,0,.4-4.47,9.88,9.88,0,0,0-3.12-6.49,10.77,10.77,0,0,0-6.06-3"/><path class="cls-1" d="M14.17,20.14H8.83V13.32H12.3c.66,0,1.21,0,1.87-.05a2.87,2.87,0,0,0,2.22-1.2,2.64,2.64,0,0,0,.51-1.26,4.51,4.51,0,0,0,0-1.16A2.93,2.93,0,0,0,14,7H8.83V29.1H0V0H14.44C15,0,15.5,0,16.07,0a9.86,9.86,0,0,1,8.6,5.81,9.87,9.87,0,0,1,.92,5.53,9.44,9.44,0,0,1-7.49,8.33,17.34,17.34,0,0,1-3.93.43"/><path class="cls-1" d="M105.16,21.45a12,12,0,0,1,1.67.42,1.37,1.37,0,0,1,.91,1,1.55,1.55,0,0,1-.42,1.43,2.38,2.38,0,0,1-1.39.7,4,4,0,0,1-2.08-.19,2.86,2.86,0,0,1-.88-.51,2.2,2.2,0,0,1-.73-1.09,3.46,3.46,0,0,1-.15-1.11H94.47v.45a5.44,5.44,0,0,0,.37,2,6.34,6.34,0,0,0,1.69,2.52A8.19,8.19,0,0,0,100,29a18.43,18.43,0,0,0,8.25.51,11.5,11.5,0,0,0,3.69-1.2,7.68,7.68,0,0,0,1.44-1,6.34,6.34,0,0,0,2-6.92,5,5,0,0,0-1.56-2.36,8.77,8.77,0,0,0-3.45-1.88l-.83-.24a37.93,37.93,0,0,0-4.71-1c-.45-.07-.83-.14-1.27-.24a3.69,3.69,0,0,1-.56-.19.93.93,0,0,1-.47-1.23l0-.07a1.79,1.79,0,0,1,1.12-.89,4,4,0,0,1,2.52.06,1.88,1.88,0,0,1,1.29,1.89h7.34a7.42,7.42,0,0,0-.45-2.51,4.43,4.43,0,0,0-1.5-2.07,6.83,6.83,0,0,0-2-1.12A9.75,9.75,0,0,0,108.78,8a21.22,21.22,0,0,0-5.22-.3,16.62,16.62,0,0,0-3,.43A9,9,0,0,0,97,9.9a5.81,5.81,0,0,0-2,2.76,4.88,4.88,0,0,0-.29,1.52,5.75,5.75,0,0,0,.43,2.53,5.53,5.53,0,0,0,3.2,3.21,13.53,13.53,0,0,0,2.25.67c1.6.33,3,.59,4.57.86"/><path class="cls-1" d="M56.17,10.51A12.78,12.78,0,0,1,59.4,8.42,8.42,8.42,0,0,1,65.54,8a6.69,6.69,0,0,1,4.64,4.53,10.19,10.19,0,0,1,.49,3.2V29.1H62.42V17a3.61,3.61,0,0,0-.18-1.13,2.28,2.28,0,0,0-1.33-1.49A3.11,3.11,0,0,0,57,15.72a3.36,3.36,0,0,0-.49,1.8V29.1h-8V8.31H56l.18,2.2"/><path class="cls-1" d="M148.11,10.51a12.78,12.78,0,0,1,3.23-2.09A8.42,8.42,0,0,1,157.48,8a6.69,6.69,0,0,1,4.64,4.53,10.19,10.19,0,0,1,.49,3.2V29.1h-8.25V17a3.92,3.92,0,0,0-.17-1.13,2.32,2.32,0,0,0-1.34-1.49,3.13,3.13,0,0,0-3.94,1.3,3.45,3.45,0,0,0-.48,1.8V29.1h-8V8.31h7.5l.18,2.2"/><rect class="cls-1" x="164.21" y="8.31" width="7.77" height="20.79"/><rect class="cls-1" x="164.21" width="7.77" height="5.49"/><path class="cls-1" d="M192.86,26.4a10.21,10.21,0,0,1-5.59,3.08,13.58,13.58,0,0,1-4.36.21,10.31,10.31,0,0,1-5.34-2.08,11.23,11.23,0,0,1-3.13-3.52,9.85,9.85,0,0,1-1.23-3.44,11.49,11.49,0,0,1,.25-5,10.24,10.24,0,0,1,8-7.54,13.78,13.78,0,0,1,6.54.15,9,9,0,0,1,4.09,2.24,8.06,8.06,0,0,1,1.79,2.35,6.3,6.3,0,0,1,.74,3.38h-7.11a3.5,3.5,0,0,0-1.38-2.3,2.89,2.89,0,0,0-3.34-.16,3.34,3.34,0,0,0-1.46,1.88,9.59,9.59,0,0,0-.09,5.71,4.34,4.34,0,0,0,1.24,2.06,3,3,0,0,0,2.57.81,2.37,2.37,0,0,0,1.5-.8,3.09,3.09,0,0,0,.78-1.61,10.65,10.65,0,0,0,.15-1.25H195a7.55,7.55,0,0,1-2.12,5.88"/><path class="cls-1" d="M47,27.47c-.12-1.72-.18-3.17-.22-4.89,0-2.26-.07-4.16-.08-6.42a13.22,13.22,0,0,0-.45-3.42,5.43,5.43,0,0,0-2.7-3.5,9,9,0,0,0-2.55-1,21.82,21.82,0,0,0-8.67-.17,10.71,10.71,0,0,0-2.35.68,6.21,6.21,0,0,0-3.69,4.05A5.05,5.05,0,0,0,26,15a1.05,1.05,0,0,0,.12.38l7,.17a3.1,3.1,0,0,1,.19-1.24A2.15,2.15,0,0,1,34.66,13a4.11,4.11,0,0,1,2.79,0,1.9,1.9,0,0,1,1.27,1.28,1.24,1.24,0,0,1-.18,1.12,1.7,1.7,0,0,1-.8.62,6,6,0,0,1-.6.2,26.28,26.28,0,0,1-2.8.6c-.78.13-1.44.25-2.22.41a27,27,0,0,0-3,.78,6.17,6.17,0,0,0-2.41,1.4,5.11,5.11,0,0,0-1.66,3.16,6.36,6.36,0,0,0,.1,2.42,5.76,5.76,0,0,0,4.13,4.39A10.09,10.09,0,0,0,36.18,29a6.57,6.57,0,0,0,2.72-2l-.49-3.57A3,3,0,0,1,37,24.57a5.28,5.28,0,0,1-1.66.43,3.65,3.65,0,0,1-1.43-.12,2,2,0,0,1-1-.6,1.75,1.75,0,0,1-.46-.87A1.38,1.38,0,0,1,33,22a2.76,2.76,0,0,1,.87-.52c.82-.29,1.51-.52,2.34-.75a19.41,19.41,0,0,0,2.79-1,7.89,7.89,0,0,1,0,2.17,3.46,3.46,0,0,1-.55,1.48L38.9,27c.16.51.3.93.47,1.43a2.12,2.12,0,0,0,.42.71H47.5A3.26,3.26,0,0,1,47,27.47"/><path class="cls-1" d="M93.63,27.47c-.12-1.72-.18-3.17-.22-4.89,0-2.26-.07-4.16-.09-6.42a13.65,13.65,0,0,0-.44-3.42,5.43,5.43,0,0,0-2.7-3.5,9,9,0,0,0-2.56-1A21.77,21.77,0,0,0,79,8.1a10.56,10.56,0,0,0-2.35.68,6.25,6.25,0,0,0-3.7,4.05,4.9,4.9,0,0,0-.2,2.15,1.27,1.27,0,0,0,.11.38l7,.17A3.1,3.1,0,0,1,80,14.29,2.15,2.15,0,0,1,81.33,13a4.11,4.11,0,0,1,2.79,0,1.86,1.86,0,0,1,1.26,1.28,1.24,1.24,0,0,1-.17,1.12,1.7,1.7,0,0,1-.8.62c-.21.08-.39.14-.6.2a26.28,26.28,0,0,1-2.8.6c-.78.13-1.44.25-2.23.41a28.22,28.22,0,0,0-3,.78,6.2,6.2,0,0,0-2.4,1.4,5.11,5.11,0,0,0-1.66,3.16,6.17,6.17,0,0,0,.09,2.42A5.79,5.79,0,0,0,76,29.3,10.12,10.12,0,0,0,82.85,29a6.57,6.57,0,0,0,2.72-2l-.49-3.57a3,3,0,0,1-1.38,1.18A5.35,5.35,0,0,1,82,25a3.63,3.63,0,0,1-1.43-.12,2,2,0,0,1-1-.6,1.66,1.66,0,0,1-.45-.87A1.37,1.37,0,0,1,79.64,22a2.92,2.92,0,0,1,.88-.52c.81-.29,1.51-.52,2.34-.75a19.29,19.29,0,0,0,2.78-1,7.89,7.89,0,0,1,0,2.17,3.59,3.59,0,0,1-.55,1.48L85.57,27c.15.51.29.93.47,1.43a2,2,0,0,0,.42.71h7.7a3.35,3.35,0,0,1-.53-1.63"/><path class="cls-1" d="M130.1,7.91a15.5,15.5,0,0,0-4.71,0,10.83,10.83,0,0,0-6.07,3,9.87,9.87,0,0,0-3.11,6.49,11.64,11.64,0,0,0,.4,4.47,10.27,10.27,0,0,0,3.81,5.64,9.93,9.93,0,0,0,4.11,1.9,13.85,13.85,0,0,0,3.21.35,14,14,0,0,0,3.22-.35,10,10,0,0,0,4.11-1.9l-4.47-4.87a3.13,3.13,0,0,1-4.14,1.57,3,3,0,0,1-1.57-1.57,7.38,7.38,0,0,1-.59-2,11.46,11.46,0,0,1,.09-4.17,5.21,5.21,0,0,1,.82-2,3,3,0,0,1,4.19-.88,2.84,2.84,0,0,1,.88.88,5.37,5.37,0,0,1,.82,2,11.69,11.69,0,0,1,.09,4.17,7.38,7.38,0,0,1-.59,2l4.47,4.87a10.32,10.32,0,0,0,3.81-5.64,12,12,0,0,0,.4-4.47,9.88,9.88,0,0,0-3.12-6.49,10.77,10.77,0,0,0-6.06-3"/><path class="cls-1" d="M14.17,20.14H8.83V13.32H12.3c.66,0,1.21,0,1.87-.05a2.87,2.87,0,0,0,2.22-1.2,2.64,2.64,0,0,0,.51-1.26,4.51,4.51,0,0,0,0-1.16A2.93,2.93,0,0,0,14,7H8.83V29.1H0V0H14.44C15,0,15.5,0,16.07,0a9.86,9.86,0,0,1,8.6,5.81,9.87,9.87,0,0,1,.92,5.53,9.44,9.44,0,0,1-7.49,8.33,17.34,17.34,0,0,1-3.93.43"/><path class="cls-1" d="M105.16,21.45a12,12,0,0,1,1.67.42,1.37,1.37,0,0,1,.91,1,1.55,1.55,0,0,1-.42,1.43,2.38,2.38,0,0,1-1.39.7,4,4,0,0,1-2.08-.19,2.86,2.86,0,0,1-.88-.51,2.2,2.2,0,0,1-.73-1.09,3.46,3.46,0,0,1-.15-1.11H94.47v.45a5.44,5.44,0,0,0,.37,2,6.34,6.34,0,0,0,1.69,2.52A8.19,8.19,0,0,0,100,29a18.43,18.43,0,0,0,8.25.51,11.5,11.5,0,0,0,3.69-1.2,7.68,7.68,0,0,0,1.44-1,6.34,6.34,0,0,0,2-6.92,5,5,0,0,0-1.56-2.36,8.77,8.77,0,0,0-3.45-1.88l-.83-.24a37.93,37.93,0,0,0-4.71-1c-.45-.07-.83-.14-1.27-.24a3.69,3.69,0,0,1-.56-.19.93.93,0,0,1-.47-1.23l0-.07a1.79,1.79,0,0,1,1.12-.89,4,4,0,0,1,2.52.06,1.88,1.88,0,0,1,1.29,1.89h7.34a7.42,7.42,0,0,0-.45-2.51,4.43,4.43,0,0,0-1.5-2.07,6.83,6.83,0,0,0-2-1.12A9.75,9.75,0,0,0,108.78,8a21.22,21.22,0,0,0-5.22-.3,16.62,16.62,0,0,0-3,.43A9,9,0,0,0,97,9.9a5.81,5.81,0,0,0-2,2.76,4.88,4.88,0,0,0-.29,1.52,5.75,5.75,0,0,0,.43,2.53,5.53,5.53,0,0,0,3.2,3.21,13.53,13.53,0,0,0,2.25.67c1.6.33,3,.59,4.57.86"/><path class="cls-1" d="M56.17,10.51A12.78,12.78,0,0,1,59.4,8.42,8.42,8.42,0,0,1,65.54,8a6.69,6.69,0,0,1,4.64,4.53,10.19,10.19,0,0,1,.49,3.2V29.1H62.42V17a3.61,3.61,0,0,0-.18-1.13,2.28,2.28,0,0,0-1.33-1.49A3.11,3.11,0,0,0,57,15.72a3.36,3.36,0,0,0-.49,1.8V29.1h-8V8.31H56l.18,2.2"/><path class="cls-1" d="M148.11,10.51a12.78,12.78,0,0,1,3.23-2.09A8.42,8.42,0,0,1,157.48,8a6.69,6.69,0,0,1,4.64,4.53,10.19,10.19,0,0,1,.49,3.2V29.1h-8.25V17a3.92,3.92,0,0,0-.17-1.13,2.32,2.32,0,0,0-1.34-1.49,3.13,3.13,0,0,0-3.94,1.3,3.45,3.45,0,0,0-.48,1.8V29.1h-8V8.31h7.5l.18,2.2"/><rect class="cls-1" x="164.21" y="8.31" width="7.77" height="20.79"/><rect class="cls-1" x="164.21" width="7.77" height="5.49"/><path class="cls-1" d="M192.86,26.4a10.21,10.21,0,0,1-5.59,3.08,13.58,13.58,0,0,1-4.36.21,10.31,10.31,0,0,1-5.34-2.08,11.23,11.23,0,0,1-3.13-3.52,9.85,9.85,0,0,1-1.23-3.44,11.49,11.49,0,0,1,.25-5,10.24,10.24,0,0,1,8-7.54,13.78,13.78,0,0,1,6.54.15,9,9,0,0,1,4.09,2.24,8.06,8.06,0,0,1,1.79,2.35,6.3,6.3,0,0,1,.74,3.38h-7.11a3.5,3.5,0,0,0-1.38-2.3,2.89,2.89,0,0,0-3.34-.16,3.34,3.34,0,0,0-1.46,1.88,9.59,9.59,0,0,0-.09,5.71,4.34,4.34,0,0,0,1.24,2.06,3,3,0,0,0,2.57.81,2.37,2.37,0,0,0,1.5-.8,3.09,3.09,0,0,0,.78-1.61,10.65,10.65,0,0,0,.15-1.25H195a7.55,7.55,0,0,1-2.12,5.88"/></g></g></svg>