<svg xmlns="http://www.w3.org/2000/svg" viewBox="0 0 130 44.35"><defs><style>.cls-1{fill:#e75400;}</style></defs><g id="Layer_2" data-name="Layer 2"><g id="内容"><path class="cls-1" d="M10.67,30.88A1.7,1.7,0,0,1,9,29.18V5.27H0v25.5a8.3,8.3,0,0,0,8.3,8.31H20.54v-8.2Z"/><path class="cls-1" d="M120.13,30.88a1.7,1.7,0,0,1-1.7-1.7V5.27h-9v25.5a8.3,8.3,0,0,0,8.3,8.31H130v-8.2Z"/><rect class="cls-1" x="29.31" y="5.27" width="9.1" height="33.8"/><rect class="cls-1" x="89.9" y="5.27" width="9.1" height="33.8"/><path class="cls-1" d="M70.64,20.88,82,5.27,74.72,0,64.16,14.54,53.6,0,46.34,5.27,57.68,20.88a2.33,2.33,0,0,1,0,2.58L46.34,39.07l7.26,5.28L64.16,29.81,74.72,44.35,82,39.07,70.64,23.46a2.33,2.33,0,0,1,0-2.58"/></g></g></svg>