<svg xmlns="http://www.w3.org/2000/svg" width="420" height="335.079" viewBox="0 0 420 335.079">
  <g id="Group_872" data-name="Group 872" transform="translate(-1345.758 -3699.571)">
    <g id="Group_870" data-name="Group 870">
      <g id="Group_868" data-name="Group 868">
        <g id="Group_867" data-name="Group 867">
          <path id="Path_7613" data-name="Path 7613" d="M1505.73,3711.8q-1.536.716-3.055,1.473l176,176q.756-1.521,1.472-3.055Zm-9.114,4.694q-1.44.813-2.861,1.666l180.035,180.035q.852-1.422,1.666-2.861Zm-16.528,11.087q-1.263.993-2.506,2.021l184.766,184.766q1.029-1.244,2.021-2.506Zm35.39-19.84q-1.641.608-3.269,1.258l170.742,170.742q.652-1.627,1.258-3.269Zm-42.858,26.18q-1.179,1.078-2.338,2.189l185.558,185.557q1.112-1.158,2.189-2.337Zm15.459-12.157q-1.348.906-2.679,1.848l182.938,182.938q.942-1.33,1.848-2.679Zm37.833-17.4q-1.755.487-3.5,1.026l164.145,164.144q.537-1.744,1.026-3.5Zm89.979,7.133q-3.859-1.77-7.8-3.278l75.641,75.641q-1.508-3.944-3.278-7.805ZM1653.942,3738a132.2,132.2,0,0,0-15.642-13.378l29.02,29.02A132.285,132.285,0,0,0,1653.942,3738Zm-59.513-34.161q-2.952-.771-5.931-1.4l101.009,101.009q-.631-2.979-1.4-5.931Zm-31.877-4.262c-1.5-.016-3.005-.016-4.507.02l134.3,134.3c.036-1.5.036-3,.02-4.507Zm14.794.986q-2.52-.312-5.049-.522l119.6,119.6q-.215-2.529-.521-5.049Zm-28.077-.462c-1.367.123-2.733.264-4.1.431l146.237,146.237c.167-1.363.308-2.729.431-4.1Zm-12.139,1.67q-1.891.35-3.775.751l156.065,156.065q.4-1.883.751-3.776ZM1453.278,3756q-.931,1.341-1.827,2.7l181.8,181.8q1.359-.9,2.7-1.828Zm-22.747,87.713q.253,2.574.61,5.137L1543.1,3960.8q2.563.354,5.137.611Zm.176-27.439q-.228,2.064-.393,4.134l141.226,141.226q2.07-.164,4.134-.393Zm-.793,13.014c-.018,1.515-.017,3.03.018,4.545l128.183,128.183c1.515.035,3.03.035,4.545.018Zm3.309,30.924q.7,3.049,1.542,6.07l90.9,90.9q3.019.844,6.069,1.543Zm32.437-119.445q-1.1,1.167-2.172,2.354l185.338,185.339q1.188-1.068,2.355-2.172Zm-26.077,139.613q1.692,4.154,3.681,8.208l60.1,60.1q4.053,1.988,8.208,3.681Zm28.753,43.232q3.978,3.978,8.209,7.538L1460.8,3915.4Q1464.365,3919.622,1468.336,3923.61Zm-20.444-159.191q-.841,1.434-1.643,2.884L1624.643,3945.7q1.449-.8,2.884-1.643Zm-4.813,9q-.745,1.531-1.447,3.079l173.82,173.821q1.548-.7,3.08-1.447Zm16.129-25.294q-1.018,1.254-2,2.524l184.1,184.1q1.272-.984,2.524-2Zm-26.622,56.223q-.389,1.9-.724,3.8L1583.8,3960.084q1.906-.333,3.8-.724Zm2.76-11.047q-.523,1.76-.994,3.532l160.766,160.766q1.771-.472,3.532-.994Zm3.533-10.275q-.641,1.64-1.235,3.292L1605.633,3954.3q1.651-.6,3.292-1.235Z" fill="#fff" opacity="0.2"/>
          <path id="Path_7614" data-name="Path 7614" d="M1713.117,3838a148.091,148.091,0,0,1-148.037,144.025v52.629c109.5,0,198.51-87.677,200.678-196.654Z" fill="#fff"/>
          <path id="Path_7615" data-name="Path 7615" d="M1363.632,3873.745h90.615a17.874,17.874,0,0,0,17.874-17.874h0A17.874,17.874,0,0,0,1454.247,3838h-90.615a17.874,17.874,0,0,0-17.874,17.875h0A17.874,17.874,0,0,0,1363.632,3873.745Z" fill="#fff"/>
          <path id="Path_7616" data-name="Path 7616" d="M1476.468,4018.466h.094a10.859,10.859,0,0,0,8.664-4.378,5.951,5.951,0,0,1,4.744-2.4h.052a5.943,5.943,0,0,1,4.73,2.317l.175.225a10.863,10.863,0,0,0,8.642,4.232h.095a10.862,10.862,0,0,0,8.664-4.378l.291-.388a5.991,5.991,0,0,1,9.362-.281l3.777-3.2a10.947,10.947,0,0,0-17.1.514l-.291.389a5.991,5.991,0,0,1-9.525.079l-.176-.225a10.86,10.86,0,0,0-8.641-4.232h-.095a10.862,10.862,0,0,0-8.664,4.378,5.946,5.946,0,0,1-4.743,2.4h-.052a5.945,5.945,0,0,1-4.731-2.317l-.175-.225a10.862,10.862,0,0,0-8.641-4.232h-.095a10.862,10.862,0,0,0-8.664,4.378,5.992,5.992,0,0,1-9.526.079l-.175-.225a10.863,10.863,0,0,0-8.642-4.232h-.094a10.859,10.859,0,0,0-8.664,4.378,5.949,5.949,0,0,1-4.744,2.4h-.052a5.943,5.943,0,0,1-4.73-2.317l-.175-.225a10.864,10.864,0,0,0-8.642-4.232h-.095a10.862,10.862,0,0,0-8.664,4.378,5.946,5.946,0,0,1-4.743,2.4h-.052a5.945,5.945,0,0,1-4.731-2.317l-.175-.225a10.944,10.944,0,0,0-17.4.146,5.992,5.992,0,0,1-9.526.079l-.175-.225a10.944,10.944,0,0,0-17.4.146l3.962,2.971a5.947,5.947,0,0,1,4.743-2.4h.052a5.945,5.945,0,0,1,4.731,2.317l.175.225a10.862,10.862,0,0,0,8.642,4.232h.094a10.86,10.86,0,0,0,8.664-4.378,5.95,5.95,0,0,1,4.743-2.4h.052a5.945,5.945,0,0,1,4.731,2.317l.175.225a10.864,10.864,0,0,0,8.642,4.232h.1a10.862,10.862,0,0,0,8.664-4.378,5.947,5.947,0,0,1,4.743-2.4h.052a5.941,5.941,0,0,1,4.73,2.317l.176.225a10.86,10.86,0,0,0,8.641,4.232h.095a10.862,10.862,0,0,0,8.664-4.378,5.947,5.947,0,0,1,4.743-2.4h.052a5.945,5.945,0,0,1,4.731,2.317l.175.225a10.862,10.862,0,0,0,8.641,4.232h.1a10.862,10.862,0,0,0,8.664-4.378,5.992,5.992,0,0,1,9.526-.079l.175.225A10.862,10.862,0,0,0,1476.468,4018.466Z" fill="#fff" opacity="0.2"/>
        </g>
      </g>
      <g id="Group_869" data-name="Group 869">
        <path id="Path_7617" data-name="Path 7617" d="M1467.2,3813.516v-36.655h15.787c7.137,0,11.432,4.779,11.432,10.646a10.567,10.567,0,0,1-6.23,9.435,8.987,8.987,0,0,1,2.359,6.351c0,5.505-4.536,10.223-11.492,10.223Zm6.17-30.727v9.375h9.133c3.871,0,5.746-2.117,5.746-4.657,0-2.48-1.875-4.718-5.322-4.718Zm0,15.3v9.5h5.987a4.715,4.715,0,0,0,5.021-4.657c0-2.662-1.875-4.839-5.322-4.839Z" fill="#fff"/>
        <path id="Path_7618" data-name="Path 7618" d="M1492.8,3813.516l19.3-36.655h6.109l7.985,36.655h-6.231l-1.754-8.166h-14.638l-4.234,8.166Zm13.791-14.094h10.343l-3.025-14.093Z" fill="#fff"/>
        <path id="Path_7619" data-name="Path 7619" d="M1534.808,3813.516V3782.91h-8.891v-6.049h27.1v6.049h-12.037v30.606Z" fill="#fff"/>
        <path id="Path_7620" data-name="Path 7620" d="M1580.526,3813.516v-15.364h-16.815v15.364h-6.17v-36.655h6.17V3792.1h16.815v-15.243h6.169v36.655Z" fill="#fff"/>
        <path id="Path_7621" data-name="Path 7621" d="M1613.3,3776.861h15.363c7.138,0,11.433,4.779,11.433,10.646,0,4.6-3.327,9.254-9.2,10.343l6.654,15.666h-6.714l-6.593-15.424h-4.778v15.424h-6.17Zm6.17,5.928v9.375h8.71c3.871,0,5.746-2.117,5.746-4.657,0-2.48-1.875-4.718-5.324-4.718Z" fill="#fff"/>
        <path id="Path_7622" data-name="Path 7622" d="M1661.959,3776.438a18.754,18.754,0,0,1,0,37.5c-10.464,0-18.388-7.984-18.388-18.751A18.423,18.423,0,0,1,1661.959,3776.438Zm0,31.392c7.077,0,12.1-5.625,12.1-12.642,0-6.9-4.839-12.641-12.1-12.641s-12.1,5.746-12.1,12.641C1649.862,3802.205,1654.883,3807.83,1661.959,3807.83Z" fill="#fff"/>
        <path id="Path_7623" data-name="Path 7623" d="M1702.461,3776.438a18.754,18.754,0,0,1,0,37.5c-10.464,0-18.388-7.984-18.388-18.751A18.423,18.423,0,0,1,1702.461,3776.438Zm0,31.392c7.077,0,12.1-5.625,12.1-12.642,0-6.9-4.839-12.641-12.1-12.641s-12.1,5.746-12.1,12.641C1690.364,3802.205,1695.385,3807.83,1702.461,3807.83Z" fill="#fff"/>
        <path id="Path_7624" data-name="Path 7624" d="M1736.244,3787.688l-8.468,25.828h-6.29l12.1-36.655h6.23l4.537,20.021,10.162-20.021h6.532l3.085,36.655h-6.049l-2.3-25.889-9.617,17.965h-5.807Z" fill="#fff"/>
      </g>
    </g>
    <g id="Group_871" data-name="Group 871">
      <path id="Path_7625" data-name="Path 7625" d="M1554.171,3842.266l4.248.888c-.216.768-.552,2.208-.648,2.761a57.794,57.794,0,0,1-1.968,7.056,32.921,32.921,0,0,1-3.529,7.009l-4.1-1.729a29.206,29.206,0,0,0,3.768-6.744A34.69,34.69,0,0,0,1554.171,3842.266Zm6.144.912,3.888-1.248c1.032,1.921,2.736,5.833,3.576,8.017.793,2.064,2.065,5.976,2.737,8.472l-4.344,1.417a75.306,75.306,0,0,0-2.376-8.593A66.689,66.689,0,0,0,1560.315,3843.178Zm8.137-.168-2.28.96a32.346,32.346,0,0,0-1.849-3.336l2.257-.912C1567.18,3840.61,1568.02,3842.17,1568.452,3843.01Zm2.976-1.176-2.256.96a26.8,26.8,0,0,0-1.9-3.312l2.257-.912A34.027,34.027,0,0,1,1571.428,3841.834Z" fill="#fff"/>
      <path id="Path_7626" data-name="Path 7626" d="M1593.078,3842.722a13.477,13.477,0,0,0-.984,1.753,37.242,37.242,0,0,1-3.624,6.336,63.734,63.734,0,0,1,6.528,6.7l-3.336,2.9a47.658,47.658,0,0,0-5.736-6.577,32.181,32.181,0,0,1-8.809,6.553l-3.024-3.144a26.766,26.766,0,0,0,9.816-6.745,17.587,17.587,0,0,0,3.361-5.424h-7.465c-1.08,0-2.4.144-3.073.192v-4.129a28.492,28.492,0,0,0,3.073.192h8.017a10.154,10.154,0,0,0,2.88-.36Z" fill="#fff"/>
      <path id="Path_7627" data-name="Path 7627" d="M1598.363,3858.083a11.023,11.023,0,0,0,4.033-5.664c.672-1.968.7-6.384.7-9.385a9.311,9.311,0,0,0-.264-2.472h4.273a18.875,18.875,0,0,0-.193,2.424c0,2.952-.071,7.969-.7,10.393a14.424,14.424,0,0,1-4.3,7.057Zm11.186.48a9.172,9.172,0,0,0,.216-1.992v-13.777a12.553,12.553,0,0,0-.216-2.232h4.32a14.58,14.58,0,0,0-.192,2.256v11.809a13.439,13.439,0,0,0,5.329-4.584l2.231,3.216a27.708,27.708,0,0,1-8.112,6.5,7.79,7.79,0,0,0-1.152.792Z" fill="#fff"/>
      <path id="Path_7628" data-name="Path 7628" d="M1624.608,3847.595c.96.072,2.976.168,4.153.168h12.745c1.08,0,2.256-.12,2.952-.168v4.584c-.624-.024-1.969-.144-2.952-.144h-12.745c-1.368,0-3.169.072-4.153.144Z" fill="#fff"/>
      <path id="Path_7629" data-name="Path 7629" d="M1664.958,3860.34c-.287-.792-.647-1.7-1.056-2.664-3.96.48-10.848,1.176-13.753,1.488-.6.072-1.608.216-2.4.312l-.672-4.248c.864,0,2.04,0,2.857-.024l.359-.025c1.393-3.6,3.265-9.624,3.984-12.193a19.878,19.878,0,0,0,.624-3.024l4.609.936c-.36.792-.744,1.824-1.128,2.928-.817,2.377-2.569,7.849-3.721,11.041,2.568-.24,5.425-.575,7.633-.84a27.164,27.164,0,0,0-2.28-4.056l3.648-1.488a76.1,76.1,0,0,1,5.233,10.1Z" fill="#fff"/>
    </g>
  </g>
</svg>
