<svg xmlns="http://www.w3.org/2000/svg" viewBox="0 0 420 335.08"><defs><style>.cls-1,.cls-2{fill:#fff;}.cls-1{opacity:0.2;}</style></defs><g id="Layer_2" data-name="Layer 2"><g id="内容"><path class="cls-1" d="M85.61,186.65c.47,1,1,2,1.47,3l176-176c-1-.51-2-1-3.05-1.47Zm4.69,9.11c.54,1,1.1,1.91,1.67,2.86l180-180c-.95-.57-1.9-1.13-2.86-1.67Zm11.09,16.53c.66.84,1.33,1.67,2,2.5L288.18,30c-.83-.69-1.67-1.36-2.51-2ZM81.55,176.9q.6,1.64,1.26,3.27L253.55,9.42c-1.09-.43-2.18-.85-3.27-1.25Zm26.18,42.86c.72.78,1.45,1.56,2.19,2.33L295.48,36.54c-.78-.75-1.56-1.47-2.34-2.19ZM95.57,204.3c.61.9,1.22,1.79,1.85,2.68L280.36,24c-.89-.63-1.78-1.25-2.68-1.85ZM78.18,166.46c.32,1.17.66,2.34,1,3.5L243.35,5.82c-1.17-.36-2.33-.7-3.5-1Zm7.13-90Q83.54,80.35,82,84.29L157.67,8.65c-2.63,1-5.23,2.1-7.8,3.28Zm13.13-22.4,29-29a132,132,0,0,0-29,29ZM77.65,98q-.77,2.94-1.4,5.93l101-101c-2,.42-4,.89-5.93,1.4Zm-4.26,31.87c0,1.51,0,3,0,4.51L207.71,0c-1.5,0-3,0-4.5,0Zm1-14.79c-.21,1.68-.38,3.36-.52,5L193.46.47c-1.68.15-3.37.32-5.05.53Zm-.46,28.08c.12,1.36.26,2.73.43,4.09L220.59,1c-1.37-.16-2.73-.3-4.1-.43Zm1.67,12.13c.23,1.27.48,2.52.75,3.78L232.4,3c-1.25-.27-2.51-.52-3.77-.76Zm54.22,83.86c.89.62,1.79,1.23,2.7,1.82L314.31,59.13q-.9-1.37-1.83-2.7Zm87.71,22.74c1.72-.16,3.43-.37,5.14-.61l112-112c.23-1.71.44-3.42.61-5.14Zm-27.44-.17q2.07.22,4.14.39L335.44,120.83c-.11-1.37-.24-2.75-.39-4.13Zm13,.79c1.51,0,3,0,4.54,0L335.83,134.26c0-1.51,0-3,0-4.54ZM234,259.15c2-.46,4.06-1,6.07-1.54l90.9-90.9c.57-2,1.08-4,1.54-6.07ZM114.58,226.72c.78.73,1.56,1.46,2.35,2.17L302.27,43.55c-.71-.79-1.44-1.58-2.17-2.36Zm139.61,26.07c2.77-1.13,5.51-2.35,8.21-3.68L322.49,189c1.33-2.71,2.56-5.44,3.68-8.21Zm50.77-37-15.75,15.75q4.23-3.57,8.21-7.54C300.07,221.39,302.58,218.64,305,215.83ZM138.23,244.48q1.44.84,2.88,1.65l178.4-178.4c-.54-1-1.08-1.93-1.64-2.88Zm9,4.82c1,.49,2,1,3.08,1.44L324.13,76.92c-.47-1-.95-2.06-1.45-3.08Zm-25.3-16.13c.84.68,1.68,1.34,2.53,2L308.55,51.07c-.65-.84-1.32-1.68-2-2.52Zm56.23,26.62c1.26.26,2.53.5,3.8.72L333.9,108.58c-.23-1.27-.47-2.54-.73-3.81Zm-11-2.76c1.17.35,2.35.68,3.53,1L331.41,97.26c-.32-1.18-.65-2.36-1-3.54Zm-10.28-3.53c1.1.42,2.19.83,3.3,1.23l168-168c-.39-1.1-.8-2.2-1.23-3.29Z"/><path class="cls-2" d="M52.64,138.43a148.08,148.08,0,0,0,148,144v52.63C91.18,335.08,2.17,247.4,0,138.43Z"/><path class="cls-2" d="M402.13,174.17H311.51a17.87,17.87,0,0,1-17.87-17.87h0a17.87,17.87,0,0,1,17.87-17.87h90.62A17.87,17.87,0,0,1,420,156.3h0A17.87,17.87,0,0,1,402.13,174.17Z"/><path class="cls-1" d="M289.29,318.9h-.09a10.88,10.88,0,0,1-8.67-4.38,6,6,0,0,0-4.74-2.4h-.05a5.92,5.92,0,0,0-4.73,2.32l-.18.22a10.85,10.85,0,0,1-8.64,4.24h-.1a10.86,10.86,0,0,1-8.66-4.38l-.29-.39a6,6,0,0,0-9.36-.28L240,310.64a11,11,0,0,1,17.1.52l.29.39a6,6,0,0,0,9.53.08l.17-.23a10.87,10.87,0,0,1,8.64-4.23h.1a10.84,10.84,0,0,1,8.66,4.38,6,6,0,0,0,4.75,2.39h.05a6,6,0,0,0,4.73-2.31l.17-.23a10.89,10.89,0,0,1,8.65-4.23h.09a10.84,10.84,0,0,1,8.66,4.38,6,6,0,0,0,9.53.08l.18-.23a10.86,10.86,0,0,1,8.64-4.23H330a10.87,10.87,0,0,1,8.67,4.38,5.94,5.94,0,0,0,4.74,2.39h.05a5.94,5.94,0,0,0,4.73-2.31l.18-.23a10.86,10.86,0,0,1,8.64-4.23h.09a10.87,10.87,0,0,1,8.67,4.38,5.94,5.94,0,0,0,4.74,2.39h0a5.94,5.94,0,0,0,4.73-2.31l.18-.23a10.94,10.94,0,0,1,17.4.15,6,6,0,0,0,9.52.08l.18-.23a10.94,10.94,0,0,1,17.4.15l-4,3a6,6,0,0,0-4.75-2.4h-.05a5.94,5.94,0,0,0-4.73,2.32l-.17.22a10.85,10.85,0,0,1-8.64,4.24h-.1a10.86,10.86,0,0,1-8.66-4.38,6,6,0,0,0-4.75-2.4h-.05a5.94,5.94,0,0,0-4.73,2.32l-.17.22a10.87,10.87,0,0,1-8.65,4.24h-.09a10.86,10.86,0,0,1-8.66-4.38,6,6,0,0,0-4.75-2.4h0a5.93,5.93,0,0,0-4.73,2.32l-.18.22a10.84,10.84,0,0,1-8.64,4.24h-.09a10.9,10.9,0,0,1-8.67-4.38,6,6,0,0,0-4.74-2.4h-.05a5.92,5.92,0,0,0-4.73,2.32l-.18.22a10.84,10.84,0,0,1-8.64,4.24h-.09a10.9,10.9,0,0,1-8.67-4.38,6,6,0,0,0-9.52-.08l-.18.22A10.85,10.85,0,0,1,289.29,318.9Z"/><path class="cls-2" d="M27.1,114l-3.87-24.2L14.64,114h-7L.48,77.29H6.59L12,104.87l9.74-27.58H27.4l4.23,27.34L43.25,77.29H49.6L33.69,114Z"/><path class="cls-2" d="M43.86,114,63.15,77.29h6.11l8,36.66H71l-1.76-8.17H54.63L50.39,114Zm13.79-14.1H68L65,85.76Z"/><path class="cls-2" d="M84.82,105.11a12.81,12.81,0,0,0,9,3.39c2.9,0,4.84-1.27,4.84-3.33,0-4-5-4.83-9.68-6.41-4.84-1.63-8.65-4.84-8.65-10.64,0-7,6.53-11.25,13.43-11.25a18,18,0,0,1,14.45,7.56l-4.59,4c-1.58-2.24-5.27-5.5-10-5.5-4.48,0-7,2.6-7,5,0,3.5,3,4.71,7.8,6.17,5.69,1.69,10.53,4.59,10.53,10.58,0,6.53-5.75,9.68-11.37,9.68a17.11,17.11,0,0,1-12.4-4.9Z"/><path class="cls-2" d="M136,114V98.58H119.2V114H113V77.29h6.17V92.53H136V77.29h6.17V114Z"/><path class="cls-2" d="M170.91,105.11a12.83,12.83,0,0,0,9,3.39c2.9,0,4.84-1.27,4.84-3.33,0-4-5-4.83-9.68-6.41-4.84-1.63-8.65-4.84-8.65-10.64,0-7,6.53-11.25,13.43-11.25a18.05,18.05,0,0,1,14.46,7.56l-4.6,4c-1.57-2.24-5.26-5.5-10-5.5-4.48,0-7,2.6-7,5,0,3.5,3,4.71,7.8,6.17C186.15,95.8,191,98.7,191,104.69c0,6.53-5.75,9.68-11.37,9.68a17.11,17.11,0,0,1-12.4-4.9Z"/><path class="cls-2" d="M205.76,114V83.34h-8.89v-6H224v6h-12V114Z"/><path class="cls-2" d="M219.21,114l19.3-36.66h6.11l8,36.66h-6.23l-1.75-8.17H230L225.74,114ZM233,99.85h10.35l-3-14.09Z"/><path class="cls-2" d="M281.75,114,264.33,88v26h-6.05V77.29h6.17L281.63,103V77.29h6.05V114Z"/><path class="cls-2" d="M296.53,114V77.29h11.8c10.95,0,19,7.92,19,18.33,0,10.76-8,18.33-20,18.33Zm11.8-6c7.8,0,12.7-5.27,12.7-12.28s-4.53-12.28-12.76-12.28H302.7V107.9Z"/><path class="cls-2" d="M100.87,150.93a17.81,17.81,0,0,0-4.32-2.79l1.9-2.54a19.07,19.07,0,0,1,4.46,2.52Zm2.74,3c-1,2.59-2.16,5.25-3.36,7.75l-3.07-2.11a71.55,71.55,0,0,0,3.86-7.64Zm-1.9-9.27a16.71,16.71,0,0,0-4-3l2.06-2.4a18.3,18.3,0,0,1,4.22,2.74Zm14.69,13.87c.36,0,.43-.48.51-3.31a9.13,9.13,0,0,0,3,1.35c-.26,3.88-1,5-3.12,5h-1.58c-2.55,0-3.1-1-3.1-3.93V152h-1.46c-.39,4.2-1.32,7.66-6.2,9.77a9.39,9.39,0,0,0-2.06-2.83c4-1.51,4.51-4,4.78-6.94h-3.32v-3.31h1.73a21.44,21.44,0,0,0-2.52-1.56c1.44-1.8,2.4-4.82,2.84-7.82l3.5.62c-.14.86-.34,1.73-.55,2.57H110V139h3.48v3.53h4.85v3.26h-4.85v2.93h5.93V152h-3.91v5.57c0,.82.05.91.34.91Zm-8.61-12.72a17.77,17.77,0,0,1-1.47,2.93H110v-2.93Z"/><path class="cls-2" d="M135.2,143.56l-.53,1.68h8.88v16.59H140v-1.2H127v1.2H123.6V145.24H131c.07-.55.17-1.13.24-1.68h-8.54v-3.29H144.6v3.29ZM127,157.43h1.9v-9H127Zm7.9-9H132v1.13h2.9Zm0,3.82H132v1.27h2.9Zm-2.9,5.18h2.9v-1.22H132Zm8-9h-2v9h2Z"/><path class="cls-2" d="M163.15,141.26c2.33,1.92,5.24,4.68,6.48,6.79l-3,2.33a15.52,15.52,0,0,0-1.42-2.09c-6.26.31-12.87.55-17.38.74l-.19-3.53c1.13,0,2.4-.07,3.74-.09a38.54,38.54,0,0,0,3.29-6.63l4,1.3c-.94,1.78-2,3.58-3.08,5.18,2.16-.09,4.4-.16,6.63-.26-.63-.6-1.23-1.18-1.83-1.7ZM150,150.93h16.49V161.8h-3.77v-.91h-9.14v.91H150Zm3.58,3.34v3.26h9.14v-3.26Z"/></g></g></svg>