<svg xmlns="http://www.w3.org/2000/svg" viewBox="0 0 420 335.08"><defs><style>.cls-1,.cls-2{fill:#fff;}.cls-1{opacity:0.2;}</style></defs><g id="Layer_2" data-name="Layer 2"><g id="内容"><path class="cls-1" d="M160,12.23c-1,.47-2,1-3.05,1.47l176,176c.5-1,1-2,1.47-3Zm-9.11,4.69c-1,.54-1.91,1.1-2.86,1.67l180,180c.57-1,1.13-1.9,1.67-2.86ZM134.33,28c-.84.66-1.68,1.33-2.51,2L316.59,214.79c.69-.83,1.36-1.66,2-2.5ZM169.72,8.17c-1.09.4-2.18.82-3.27,1.25L337.19,180.17q.66-1.63,1.26-3.27ZM126.86,34.35c-.78.72-1.56,1.44-2.34,2.19L310.08,222.09c.74-.77,1.47-1.55,2.19-2.33Zm15.46-12.16c-.9.6-1.79,1.22-2.68,1.85L322.58,207c.63-.89,1.24-1.78,1.85-2.68Zm37.83-17.4c-1.17.33-2.33.67-3.5,1L340.8,170c.36-1.16.7-2.33,1-3.5Zm90,7.14c-2.57-1.18-5.17-2.28-7.8-3.28L338,84.29q-1.52-3.95-3.28-7.81Zm38.05,26.5a131.72,131.72,0,0,0-15.64-13.37l29,29A131,131,0,0,0,308.18,38.43ZM248.67,4.27c-2-.51-3.94-1-5.93-1.4l101,101q-.63-3-1.4-5.93ZM216.79,0c-1.5,0-3,0-4.5,0l134.3,134.3c0-1.5,0-3,0-4.51Zm14.8,1c-1.68-.21-3.36-.38-5.05-.53l119.6,119.61c-.14-1.69-.31-3.37-.52-5ZM203.51.53c-1.37.13-2.73.27-4.1.43L345.65,147.2c.17-1.36.31-2.73.43-4.09ZM191.37,2.2c-1.26.24-2.52.49-3.77.76L343.66,159c.27-1.26.52-2.51.75-3.78ZM107.52,56.43q-.93,1.34-1.83,2.7l181.8,181.79c.91-.59,1.81-1.2,2.7-1.82ZM84.77,144.14c.17,1.72.38,3.43.61,5.14l112,112c1.71.24,3.42.45,5.14.61ZM85,116.7c-.15,1.38-.28,2.76-.39,4.13L225.78,262.06q2.07-.17,4.14-.39Zm-.79,13c0,1.51,0,3,0,4.54L212.36,262.44c1.51,0,3,0,4.54,0Zm3.31,30.92c.46,2,1,4.06,1.54,6.07l90.9,90.9c2,.56,4,1.08,6.07,1.54ZM119.9,41.19c-.73.78-1.46,1.57-2.17,2.36L303.07,228.89c.79-.71,1.57-1.44,2.35-2.17ZM93.83,180.81c1.12,2.77,2.35,5.5,3.68,8.21l60.09,60.09c2.7,1.33,5.44,2.55,8.21,3.68ZM122.58,224q4,4,8.21,7.54L115,215.83C117.42,218.64,119.93,221.39,122.58,224ZM102.13,64.85c-.56,1-1.1,1.92-1.64,2.88l178.4,178.4q1.44-.81,2.88-1.65Zm-4.81,9c-.5,1-1,2-1.45,3.08L269.69,250.74c1-.47,2.06-1,3.08-1.44Zm16.13-25.29c-.68.84-1.35,1.68-2,2.52l184.09,184.1c.85-.66,1.69-1.32,2.53-2ZM86.83,104.77c-.26,1.27-.5,2.54-.73,3.81L238,260.51c1.27-.22,2.54-.46,3.8-.72Zm2.76-11c-.35,1.18-.68,2.36-1,3.54L249.36,258c1.18-.31,2.36-.64,3.53-1Zm3.53-10.27c-.43,1.09-.84,2.19-1.23,3.29l168,168c1.11-.4,2.2-.81,3.3-1.23Z"/><path class="cls-2" d="M367.36,138.43a148.08,148.08,0,0,1-148,144v52.63c109.5,0,198.51-87.68,200.68-196.65Z"/><path class="cls-2" d="M17.87,174.17h90.62a17.87,17.87,0,0,0,17.87-17.87h0a17.87,17.87,0,0,0-17.87-17.87H17.87A17.87,17.87,0,0,0,0,156.3H0A17.87,17.87,0,0,0,17.87,174.17Z"/><path class="cls-1" d="M130.71,318.9h.09a10.88,10.88,0,0,0,8.67-4.38,6,6,0,0,1,4.74-2.4h0a5.92,5.92,0,0,1,4.73,2.32l.18.22a10.85,10.85,0,0,0,8.64,4.24h.1a10.86,10.86,0,0,0,8.66-4.38l.29-.39a6,6,0,0,1,9.36-.28l3.78-3.21a11,11,0,0,0-17.1.52l-.29.39a6,6,0,0,1-9.53.08l-.17-.23a10.87,10.87,0,0,0-8.64-4.23h-.1a10.84,10.84,0,0,0-8.66,4.38,6,6,0,0,1-4.75,2.39h0a6,6,0,0,1-4.73-2.31l-.17-.23a10.89,10.89,0,0,0-8.65-4.23h-.09a10.84,10.84,0,0,0-8.66,4.38,6,6,0,0,1-9.53.08l-.18-.23a10.86,10.86,0,0,0-8.64-4.23H90a10.87,10.87,0,0,0-8.67,4.38,5.94,5.94,0,0,1-4.74,2.39h0a5.94,5.94,0,0,1-4.73-2.31l-.18-.23A10.86,10.86,0,0,0,63,307.17h-.09a10.87,10.87,0,0,0-8.67,4.38,5.94,5.94,0,0,1-4.74,2.39h-.05a5.94,5.94,0,0,1-4.73-2.31l-.18-.23a10.94,10.94,0,0,0-17.4.15,6,6,0,0,1-9.52.08l-.18-.23a10.86,10.86,0,0,0-8.74-4.23A10.84,10.84,0,0,0,0,311.55l4,3a6,6,0,0,1,4.75-2.4h0a5.94,5.94,0,0,1,4.73,2.32l.17.22a10.85,10.85,0,0,0,8.64,4.24h.1a10.86,10.86,0,0,0,8.66-4.38,6,6,0,0,1,4.75-2.4h0a5.94,5.94,0,0,1,4.73,2.32l.17.22a10.87,10.87,0,0,0,8.65,4.24h.09a10.86,10.86,0,0,0,8.66-4.38,6,6,0,0,1,4.75-2.4H63a5.93,5.93,0,0,1,4.73,2.32l.18.22a10.84,10.84,0,0,0,8.64,4.24h.09a10.9,10.9,0,0,0,8.67-4.38,6,6,0,0,1,4.74-2.4h0a5.92,5.92,0,0,1,4.73,2.32l.18.22a10.84,10.84,0,0,0,8.64,4.24h.09a10.9,10.9,0,0,0,8.67-4.38,6,6,0,0,1,9.52-.08l.18.22A10.85,10.85,0,0,0,130.71,318.9Z"/><path class="cls-2" d="M109.23,113.94l19.3-36.65h6.11l8,36.65h-6.23l-1.75-8.16H120l-4.24,8.16ZM123,99.85h10.35l-3-14.09Z"/><path class="cls-2" d="M173.75,88.48A12.26,12.26,0,0,0,163.47,83c-7.26,0-12.1,5.74-12.1,12.64s5,12.64,12.1,12.64a14.22,14.22,0,0,0,7.25-2.06l2.91,5.14a18.11,18.11,0,0,1-10.16,3c-10.47,0-18.39-8-18.39-18.75a18.42,18.42,0,0,1,18.39-18.75,18.15,18.15,0,0,1,15.3,8.22Z"/><path class="cls-2" d="M208.75,88.48A12.26,12.26,0,0,0,198.46,83c-7.25,0-12.09,5.74-12.09,12.64s5,12.64,12.09,12.64a14.23,14.23,0,0,0,7.26-2.06l2.91,5.14a18.16,18.16,0,0,1-10.17,3c-10.46,0-18.38-8-18.38-18.75a18.41,18.41,0,0,1,18.38-18.75,18.16,18.16,0,0,1,15.31,8.22Z"/><path class="cls-2" d="M217.77,113.94V77.29h23.47v5.93h-17.3v9.37h17.79v5.93H223.94V108h13.19v5.92Z"/><path class="cls-2" d="M271.6,113.94,254.18,88v25.94h-6.05V77.29h6.17L271.48,103V77.29h6v36.65Z"/><path class="cls-2" d="M291,113.94V83.34h-8.89v-6h27.1v6h-12v30.6Z"/><path class="cls-2" d="M336.22,113.94V83.34h-8.89v-6h27.1v6h-12v30.6Z"/><path class="cls-2" d="M359,113.94V77.29h6.17v36.65Z"/><path class="cls-2" d="M373.92,113.94V77.29h6.17V107.9h10.58v6Z"/><path class="cls-2" d="M395.45,113.94V77.29h23.46v5.93H401.62v9.37H419.4v5.93H401.62V108H414.8v5.92Z"/><path class="cls-2" d="M168.44,143.3c-.29.36-.84,1-1.08,1.44a25.33,25.33,0,0,1-5.67,6.57l-3-2.4a12.91,12.91,0,0,0,4-4H150.8a28.63,28.63,0,0,0-3.05.19v-4a21.37,21.37,0,0,0,3.05.26h12.45a17,17,0,0,0,2.88-.24Zm-9.89,3.26c0,5.64.12,10.83-6.65,14.59l-3.39-2.76a9.11,9.11,0,0,0,2.74-1.46c2.67-2,3.26-4.06,3.26-8a13.15,13.15,0,0,0-.19-2.4Z"/><path class="cls-2" d="M189,144.67a10.53,10.53,0,0,0-.93,2,25.23,25.23,0,0,1-4.16,7.88,23.09,23.09,0,0,1-9.74,6.91l-3.46-3.07c5.19-1.59,7.68-3.63,9.72-5.91a15.25,15.25,0,0,0,3.17-6h-6a30.15,30.15,0,0,1-6.05,5.74l-3.27-2.43a21.68,21.68,0,0,0,7.47-7.51,12.35,12.35,0,0,0,1.27-2.86l4.25,1.4c-.55.76-1.13,1.75-1.49,2.37h3.86a9.09,9.09,0,0,0,2.38-.31Z"/><path class="cls-2" d="M203.3,152.47a19.7,19.7,0,0,0,3.57-4.4l-6.4,1.27v5.91c0,1.42.31,1.92,2.8,1.92a41.36,41.36,0,0,0,7.64-.84l-.12,3.94a62.84,62.84,0,0,1-7.4.52c-6,0-6.79-1.39-6.79-4.51v-6.14c-2,.41-3.74.77-4.78,1l-.69-3.8c1.15-.14,3.19-.48,5.47-.88v-3a24.62,24.62,0,0,0-.22-3.07h4.33a24.07,24.07,0,0,0-.24,3.07v2.31c3.12-.58,6-1.18,7.15-1.45a8.64,8.64,0,0,0,1.94-.64l2.81,2.18c-.24.38-.65,1-.89,1.49a33.26,33.26,0,0,1-5,7Z"/><path class="cls-2" d="M223.83,153.93a23.26,23.26,0,0,0,9.17-9.6l2.25,4.1a26,26,0,0,1-9.33,9.1,25.62,25.62,0,0,1-8.6,3.17l-2.47-3.84A24.72,24.72,0,0,0,223.83,153.93Zm.81-7.85-3,3a51.31,51.31,0,0,0-6-5.26l2.76-3A48.81,48.81,0,0,1,224.64,146.08Z"/><path class="cls-2" d="M252.79,154.41a74,74,0,0,0-8.25-3.43v6.17c0,.64.14,2.54.26,3.62h-4.56a26.6,26.6,0,0,0,.29-3.62V143.44a16.92,16.92,0,0,0-.29-3.12h4.53a30.3,30.3,0,0,0-.23,3.12v3.29a80.9,80.9,0,0,1,9.91,3.62Z"/><path class="cls-2" d="M278.33,144.26a13.31,13.31,0,0,0-.94,2,27.46,27.46,0,0,1-3.19,6.22c.89.58,1.68,1.11,2.28,1.54l-2.64,3.43c-.58-.5-1.37-1.1-2.23-1.73a22.48,22.48,0,0,1-8.52,5.74l-3.39-2.93a20,20,0,0,0,8.64-5c-1.46-1-2.9-1.85-4-2.5l2.47-2.78c1.18.62,2.64,1.42,4.09,2.26A15.69,15.69,0,0,0,273,146h-6.17a30.13,30.13,0,0,1-6.32,6.15l-3.14-2.43A22.61,22.61,0,0,0,265,142a12.35,12.35,0,0,0,1.27-2.86l4.2,1.3c-.53.74-1.08,1.68-1.44,2.3h4a9.07,9.07,0,0,0,2.37-.31Z"/><path class="cls-2" d="M294,157.31a18.12,18.12,0,0,0,.23,3.48h-4.6a33.85,33.85,0,0,0,.19-3.48v-7.22a43.43,43.43,0,0,1-7.85,3l-2.06-3.52a35.37,35.37,0,0,0,11-4.33,24.71,24.71,0,0,0,6.27-5.47l3.12,2.81a41.4,41.4,0,0,1-6.31,5.14Z"/><path class="cls-2" d="M300.6,158.51a11,11,0,0,0,4-5.66c.67-2,.7-6.38.7-9.38a9.25,9.25,0,0,0-.27-2.48h4.28a18.22,18.22,0,0,0-.2,2.43c0,3-.07,8-.69,10.39a14.44,14.44,0,0,1-4.3,7.06Zm11.19.48a9.12,9.12,0,0,0,.21-2V143.22a13,13,0,0,0-.21-2.23h4.32a14,14,0,0,0-.2,2.26v11.81a13.47,13.47,0,0,0,5.33-4.59l2.23,3.22a27.47,27.47,0,0,1-8.11,6.5,8.21,8.21,0,0,0-1.15.8Z"/></g></g></svg>