<svg xmlns="http://www.w3.org/2000/svg" width="420" height="335.079" viewBox="0 0 420 335.079">
  <g id="Group_477" data-name="Group 477" transform="translate(-1117.008 -2480.571)">
    <g id="Group_475" data-name="Group 475">
      <g id="Group_473" data-name="Group 473">
        <g id="Group_472" data-name="Group 472">
          <path id="Path_6088" data-name="Path 6088" d="M1202.616,2667.216q.716,1.534,1.473,3.055l176-176q-1.519-.756-3.054-1.473Zm4.693,9.114q.815,1.44,1.666,2.861l180.036-180.035q-1.422-.852-2.861-1.666Zm11.087,16.528q.993,1.263,2.022,2.506L1405.183,2510.6q-1.242-1.029-2.505-2.021Zm-19.84-35.39q.608,1.641,1.259,3.269L1370.557,2490q-1.627-.653-3.269-1.258Zm26.18,42.858q1.078,1.179,2.19,2.337l185.557-185.557q-1.158-1.111-2.337-2.189Zm-12.156-15.459q.9,1.349,1.848,2.679l182.938-182.938q-1.33-.942-2.679-1.848Zm-17.4-37.834q.488,1.757,1.026,3.5l164.144-164.144q-1.744-.537-3.5-1.026Zm7.133-89.978q-1.772,3.859-3.278,7.805l75.641-75.641q-3.944,1.508-7.805,3.278Zm13.129-22.409,29.019-29.02a132.333,132.333,0,0,0-29.019,29.02Zm-20.783,43.871q-.773,2.952-1.4,5.931l101.009-101.009q-2.977.632-5.931,1.4Zm-4.263,31.877c-.016,1.5-.015,3,.02,4.507l134.3-134.3c-1.5-.036-3-.036-4.506-.02Zm.987-14.794q-.312,2.52-.522,5.049l119.6-119.6q-2.528.215-5.049.522Zm-.462,28.077q.184,2.05.43,4.1l146.238-146.237c-1.363-.167-2.729-.308-4.1-.431Zm1.669,12.138c.234,1.262.481,2.521.752,3.776l156.064-156.065q-1.883-.4-3.775-.751Zm54.224,83.852q1.341.933,2.7,1.828l181.8-181.8q-.9-1.359-1.828-2.7Zm87.713,22.748q2.572-.253,5.137-.611l111.956-111.956q.354-2.563.61-5.137Zm-27.44-.176q2.066.228,4.134.393l141.227-141.226q-.165-2.07-.394-4.134Zm13.015.793c1.515.017,3.03.017,4.544-.018l128.184-128.183c.035-1.515.035-3.03.018-4.545Zm30.924-3.309q3.049-.7,6.069-1.543l90.9-90.9q.844-3.019,1.542-6.07Zm-119.446-32.437q1.169,1.1,2.355,2.172l185.339-185.339q-1.07-1.187-2.173-2.354Zm139.614,26.077q4.152-1.692,8.207-3.681l60.1-60.1q1.988-4.053,3.68-8.208Zm50.769-36.962-15.747,15.747q4.223-3.567,8.21-7.538T1421.967,2696.4Zm-166.728,28.653q1.434.842,2.884,1.643L1436.517,2548.3q-.8-1.451-1.644-2.884Zm8.994,4.813q1.533.744,3.08,1.447l173.821-173.821q-.7-1.547-1.447-3.079Zm-25.293-16.129q1.253,1.018,2.524,2l184.1-184.1q-.983-1.27-2-2.524Zm56.223,26.622q1.9.388,3.8.724L1450.9,2589.146q-.331-1.905-.724-3.8Zm-11.048-2.76q1.761.523,3.533.994l160.766-160.766q-.474-1.771-.994-3.532Zm-10.274-3.533q1.64.639,3.292,1.235l167.988-167.989q-.594-1.653-1.235-3.292Z" fill="#fff" opacity="0.2"/>
          <path id="Path_6089" data-name="Path 6089" d="M1169.648,2619a148.091,148.091,0,0,0,148.038,144.025v52.629c-109.5,0-198.511-87.677-200.678-196.654Z" fill="#fff"/>
          <path id="Path_6090" data-name="Path 6090" d="M1519.133,2654.745h-90.614a17.875,17.875,0,0,1-17.875-17.874h0A17.875,17.875,0,0,1,1428.519,2619h90.614a17.875,17.875,0,0,1,17.875,17.875h0A17.875,17.875,0,0,1,1519.133,2654.745Z" fill="#fff"/>
          <path id="Path_6091" data-name="Path 6091" d="M1406.3,2799.466h-.095a10.862,10.862,0,0,1-8.664-4.378,5.947,5.947,0,0,0-4.743-2.4h-.052a5.945,5.945,0,0,0-4.731,2.317l-.175.225a10.862,10.862,0,0,1-8.641,4.232h-.095a10.86,10.86,0,0,1-8.664-4.378l-.291-.388a5.991,5.991,0,0,0-9.362-.281l-3.777-3.2a10.946,10.946,0,0,1,17.1.514l.291.389a5.992,5.992,0,0,0,9.526.079l.175-.225a10.863,10.863,0,0,1,8.642-4.232h.094a10.859,10.859,0,0,1,8.664,4.378,5.949,5.949,0,0,0,4.744,2.4h.052a5.943,5.943,0,0,0,4.73-2.317l.175-.225a10.864,10.864,0,0,1,8.642-4.232h.095a10.862,10.862,0,0,1,8.664,4.378,5.992,5.992,0,0,0,9.526.079l.175-.225a10.861,10.861,0,0,1,8.641-4.232h.1a10.862,10.862,0,0,1,8.664,4.378,5.946,5.946,0,0,0,4.743,2.4h.052a5.945,5.945,0,0,0,4.731-2.317l.175-.225a10.862,10.862,0,0,1,8.642-4.232h.094a10.861,10.861,0,0,1,8.664,4.378,5.949,5.949,0,0,0,4.744,2.4h.052a5.944,5.944,0,0,0,4.73-2.317l.175-.225a10.945,10.945,0,0,1,17.4.146,5.991,5.991,0,0,0,9.525.079l.176-.225a10.944,10.944,0,0,1,17.4.146l-3.962,2.971a5.951,5.951,0,0,0-4.744-2.4h-.052a5.943,5.943,0,0,0-4.73,2.317l-.176.225a10.86,10.86,0,0,1-8.641,4.232h-.095a10.862,10.862,0,0,1-8.664-4.378,5.947,5.947,0,0,0-4.743-2.4h-.052a5.945,5.945,0,0,0-4.731,2.317l-.175.225a10.86,10.86,0,0,1-8.641,4.232h-.1a10.862,10.862,0,0,1-8.664-4.378,5.947,5.947,0,0,0-4.743-2.4h-.052a5.945,5.945,0,0,0-4.731,2.317l-.175.225a10.862,10.862,0,0,1-8.642,4.232h-.094a10.859,10.859,0,0,1-8.664-4.378,5.951,5.951,0,0,0-4.744-2.4h-.051a5.945,5.945,0,0,0-4.731,2.317l-.175.225a10.864,10.864,0,0,1-8.642,4.232h-.1a10.862,10.862,0,0,1-8.664-4.378,5.992,5.992,0,0,0-9.526-.079l-.175.225A10.86,10.86,0,0,1,1406.3,2799.466Z" fill="#fff" opacity="0.2"/>
        </g>
      </g>
      <g id="Group_474" data-name="Group 474">
        <path id="Path_6092" data-name="Path 6092" d="M1120.637,2594.516v-36.655h6.17v16.332l20.2-17.6,3.992,4.537-16.029,13.972,13.61,19.416h-7.561l-10.706-15.364-3.508,3.085v12.279Z" fill="#fff"/>
        <path id="Path_6093" data-name="Path 6093" d="M1154.693,2594.516v-36.655h6.169v36.655Z" fill="#fff"/>
        <path id="Path_6094" data-name="Path 6094" d="M1174.251,2594.516V2563.91h-8.891v-6.049h27.1v6.049h-12.037v30.606Z" fill="#fff"/>
        <path id="Path_6095" data-name="Path 6095" d="M1222.377,2569.051a12.266,12.266,0,0,0-10.282-5.5c-7.259,0-12.1,5.746-12.1,12.641,0,7.017,5.02,12.642,12.1,12.642a14.257,14.257,0,0,0,7.258-2.057l2.9,5.142a18.15,18.15,0,0,1-10.161,3.024c-10.465,0-18.388-7.984-18.388-18.751a18.422,18.422,0,0,1,18.388-18.75,18.142,18.142,0,0,1,15.3,8.226Z" fill="#fff"/>
        <path id="Path_6096" data-name="Path 6096" d="M1254.388,2594.516v-15.364h-16.815v15.364H1231.4v-36.655h6.169V2573.1h16.815v-15.243h6.17v36.655Z" fill="#fff"/>
        <path id="Path_6097" data-name="Path 6097" d="M1269.415,2594.516v-36.655h23.468v5.928h-17.3v9.375h17.783v5.928h-17.783v9.5h13.186v5.928Z" fill="#fff"/>
        <path id="Path_6098" data-name="Path 6098" d="M1323.244,2594.516l-17.42-25.949v25.949h-6.049v-36.655h6.17l17.178,25.707v-25.707h6.048v36.655Z" fill="#fff"/>
      </g>
    </g>
    <g id="Group_476" data-name="Group 476">
      <path id="Path_6099" data-name="Path 6099" d="M1235.066,2633.444c-.72.048-1.824.24-2.736.384-1.057.168-2.833.456-4.8.768.336,1.752.624,3.24.792,4.056.168.72.408,1.608.624,2.448l-4.176.72c-.12-.936-.168-1.8-.312-2.52-.12-.744-.408-2.256-.744-4.08-2.28.384-4.345.744-5.329.936-1.08.192-1.992.36-2.544.5l-.816-3.84c.672-.025,1.872-.169,2.688-.288,1.056-.168,3.1-.481,5.352-.841l-.624-3.288c-1.992.312-3.72.6-4.368.72-.864.169-1.536.336-2.352.552l-.768-3.96c.84-.048,1.608-.1,2.352-.192.768-.1,2.5-.336,4.465-.648l-.384-1.992c-.169-.72-.337-1.32-.529-1.921l4.105-.648c.072.48.144,1.369.264,1.969.048.36.192,1.08.36,2.016,1.848-.288,3.48-.576,4.248-.72.792-.144,1.873-.384,2.544-.576l.7,3.792c-.624.048-1.729.216-2.5.312l-4.344.7.624,3.288c1.992-.336,3.792-.648,4.8-.84.936-.191,1.945-.432,2.641-.624Z" fill="#fff"/>
      <path id="Path_6100" data-name="Path 6100" d="M1245.147,2632.436l-3.552,1.32a43.611,43.611,0,0,0-2.208-5.593l3.5-1.248C1243.563,2628.259,1244.667,2631.043,1245.147,2632.436Zm12.265-4.849c-.336.936-.5,1.512-.672,2.088a19.686,19.686,0,0,1-3.216,6.817,19.015,19.015,0,0,1-8.137,6.12l-3.048-3.12a16.193,16.193,0,0,0,8.04-4.992,16,16,0,0,0,2.929-8.233Zm-6.936,3.336-3.481,1.2a45.125,45.125,0,0,0-1.992-5.377l3.456-1.128C1248.939,2626.675,1250.116,2629.795,1250.476,2630.923Z" fill="#fff"/>
      <path id="Path_6101" data-name="Path 6101" d="M1280.2,2628.475c.5,0,1.776-.1,2.328-.144v3.72c-.72-.048-1.56-.095-2.256-.095h-5.929a12.647,12.647,0,0,1-6.144,9.768l-3.721-2.5a9.537,9.537,0,0,0,5.977-7.272h-6.289c-.72,0-1.656.047-2.3.095v-3.72c.72.072,1.512.144,2.28.144h6.481v-2.856c-2.232.168-4.585.264-6.1.288l-.912-3.336a57.62,57.62,0,0,0,8.257-.384,23.526,23.526,0,0,0,5.976-1.488l2.377,3.192c-.985.24-1.7.432-2.137.528-1.127.288-2.352.528-3.624.72v3.336Z" fill="#fff"/>
      <path id="Path_6102" data-name="Path 6102" d="M1294.193,2634.5a23.2,23.2,0,0,0,9.169-9.6l2.257,4.1a25.958,25.958,0,0,1-9.337,9.1,25.625,25.625,0,0,1-8.593,3.168l-2.472-3.84A24.7,24.7,0,0,0,1294.193,2634.5Zm.817-7.849-2.977,3.048a50,50,0,0,0-6.024-5.256l2.76-2.952A48.505,48.505,0,0,1,1295.01,2626.651Z" fill="#fff"/>
    </g>
  </g>
</svg>
