<svg xmlns="http://www.w3.org/2000/svg" width="202.962" height="206.089" viewBox="0 0 202.962 206.089"><g transform="translate(-2407.535 -446.907)"><path d="M2509.282,615.327A191.879,191.879,0,0,0,2555.29,592.8c22.007-14.982,39.9-34.077,48.882-59.582,7.689-21.828,8.192-49.236-7.794-67.721-14.025-16.222-38.941-20.773-59-14.941-9.981,2.911-21.148,8.234-28.623,15.7-7.483-7.463-18.118-12.786-28.106-15.7-20.054-5.832-44.969-1.281-59,14.941-15.978,18.485-15.478,45.89-7.788,67.721,8.983,25.508,26.873,44.6,48.881,59.582a190.212,190.212,0,0,0,46.538,22.527" fill="#f5bcb7"/><path d="M2420.745,464.717c-16.905,19.557-15.225,48.415-8.014,68.9,8.284,23.524,24.423,43.21,49.337,60.174,22.421,15.259,46.63,22.608,46.873,22.679a1.221,1.221,0,0,0,.693,0,195.186,195.186,0,0,0,46.33-22.679c24.912-16.964,41.051-36.646,49.336-60.174,7.211-20.489,8.891-49.346-8.013-68.9-13.355-15.45-38.13-21.742-60.24-15.308-11.305,3.288-21.52,8.814-28.292,15.219-6.889-6.538-16.915-12.062-27.773-15.219-22.107-6.438-46.88-.142-60.237,15.308m42.67,127.1c-24.469-16.664-40.316-35.963-48.424-58.995a88.883,88.883,0,0,1-5.066-29.013c0-13.352,3.447-26.894,12.632-37.52,12.763-14.766,36.513-20.757,57.755-14.578,10.914,3.181,20.974,8.793,27.59,15.4a1.2,1.2,0,0,0,1.695,0c6.478-6.465,16.73-12.077,28.124-15.393,21.241-6.182,44.989-.188,57.757,14.575,9.183,10.626,12.632,24.165,12.632,37.517a89.041,89.041,0,0,1-5.064,29.016c-8.116,23.035-23.951,42.331-48.435,58.995a193.11,193.11,0,0,1-45.333,22.264c-2.993-.948-25.193-8.2-45.863-22.264" fill="#543800"/><path d="M2436.595,479.109c-13.934,16.118-12.57,39.866-6.629,56.713,6.795,19.306,20.029,35.453,40.459,49.363a158.468,158.468,0,0,0,38.393,18.58,1.388,1.388,0,0,0,.834-.007,159.428,159.428,0,0,0,37.957-18.573c20.427-13.91,33.661-30.057,40.46-49.363,5.935-16.847,7.306-40.6-6.629-56.716-11.019-12.743-31.441-17.942-49.66-12.637-9.134,2.654-17.4,7.088-22.978,12.246-5.658-5.258-13.778-9.694-22.549-12.25-18.219-5.3-38.641-.1-49.658,12.644m35.452,103.7c-19.909-13.552-32.781-29.232-39.372-47.94a72.369,72.369,0,0,1-4.117-23.544c0-10.8,2.8-21.751,10.211-30.332,10.309-11.925,29.506-16.765,46.685-11.763,8.841,2.573,16.982,7.113,22.331,12.454a1.439,1.439,0,0,0,2.033,0c5.234-5.23,13.529-9.767,22.763-12.454,17.178-5,36.375-.159,46.683,11.76,7.425,8.584,10.209,19.532,10.209,30.335a72.228,72.228,0,0,1-4.119,23.544c-6.584,18.708-19.459,34.388-39.364,47.94a156.854,156.854,0,0,1-36.763,18.071,155.411,155.411,0,0,1-37.18-18.071" fill="#fdebd1"/><path d="M2526.158,572.992s15.336,12.459,19.81,12.142,12.143-9.588,15.015-13.741,4.156-10.223-1.6-10.539c-4.141-.229-14.376,11.5-14.376,11.5s-15.336-10.544-19.166-12.782c-3.326-1.934-7.349,12.141-7.349,12.141Z" fill="#f5bcb7"/><path d="M2524.221,558.392c-3.4,1.359-6.331,11.062-6.88,12.994l-.362,1.292s8.1,1.35,8.677,1.451c3.069,2.479,15.813,12.529,20.4,12.2,6.191-.445,15.821-14.119,15.916-14.253,1.86-2.692,3.54-6.864,2.124-9.762-.549-1.122-1.8-2.506-4.64-2.661-4.075-.226-11.873,8.035-14.642,11.11-3.324-2.279-15.019-10.276-18.363-12.222a2.439,2.439,0,0,0-2.229-.152m.893,2.222c.072-.034.084-.027.126,0,3.756,2.19,18.938,12.625,19.092,12.728l.884.6.7-.8c4.094-4.689,10.953-11.228,13.41-11.093,2.029.112,2.475,1.025,2.62,1.322.755,1.541-.061,4.63-1.936,7.343-3.737,5.389-10.715,12.98-14.122,13.227-2.911.206-13.179-7.173-18.967-11.878l-.247-.2-6.631-1.107c1.469-4.674,3.671-9.582,5.075-10.142" fill="#543800"/><path d="M2498.351,561.083c-12.3,3.437-31.4,8.949-37.664,19.4-2.361,3.934-.27,8.843,5.752,7.374,6.28-1.72,14.647-6.142,19.881-9.335,3.4-1.72,6.532-3.931,10.2-5.65" fill="#f5bcb7"/><path d="M2459.658,579.873a6.537,6.537,0,0,0-.048,7.254c1.438,1.957,4.03,2.644,7.114,1.893,6.281-1.717,14.561-6.02,20.219-9.474-.088.043,4.452-2.5,4.452-2.5,1.793-1.062,3.652-2.158,5.638-3.082l-1.022-2.176c-2.086.976-3.989,2.1-5.838,3.2l-4.4,2.47c-5.355,3.26-13.637,7.594-19.655,9.247-2.095.516-3.732.162-4.592-.995a4.211,4.211,0,0,1,.18-4.6c6.132-10.251,26.191-15.852,36.961-18.864l-.647-2.307c-11.869,3.315-31.748,8.874-38.367,19.94" fill="#543800"/><path d="M2499.3,607.519c-3.621,3.74-23.425,40.634-14.975,41.5,5.774.594,11.592-10.662,14.246-15.854a109.222,109.222,0,0,0,8.938-21.617" fill="#f5bcb7"/><path d="M2481.392,647.974a3.233,3.233,0,0,0,2.806,2.237c6.65.68,12.587-10.917,15.439-16.5,3.618-6.161,7.217-15.648,9.025-21.827l-2.311-.668a107.886,107.886,0,0,1-8.817,21.345c-2.231,4.362-8.08,15.778-13.084,15.265a.847.847,0,0,1-.806-.675c-2.244-6.147,13.27-35.446,16.511-38.809l-1.723-1.662c-3.291,3.408-19.912,33.44-17.04,41.291" fill="#543800"/><path d="M2518.841,615.1c0,8.631-.259,15.693.521,24.847.558,6.526.748,13.47,7.589,11.511,5.492-1.569,5.753-34.263.781-42.642" fill="#f5bcb7"/><path d="M2526.7,609.434c4.134,6.961,4.372,31.114,1.285,38.882-.681,1.72-1.264,1.961-1.368,2a4.031,4.031,0,0,1-3.459-.169c-1.861-1.285-2.2-5.34-2.521-9.258l-.084-1.036c-.622-7.23-.582-13.252-.541-19.625l.023-5.12h-2.394l-.021,5.109c-.046,6.426-.084,12.5.546,19.842l.085,1.022c.387,4.685.751,9.111,3.545,11.039,1.406.971,3.246,1.14,5.481.5,1.2-.343,2.155-1.457,2.939-3.413,3.322-8.36,3.03-33.437-1.458-40.988Z" fill="#543800"/><path d="M2526.518,557.336h-29.56c-4.45,13.716-11.509,31.649-9.94,46.429a14.641,14.641,0,0,0,5.625,10.712c-1.777-3.575-2.5-8.468-1.591-15.113,2.3-16.972,9.094-31,20.318-31s18.016,12.782,20.864,29.676c1.207,7.174.657,12.351-1,16.092a14.716,14.716,0,0,0,5.222-10.365c1.569-14.78-5.492-32.713-9.938-46.429" fill="#f5bcb7"/><path d="M2532.234,598.038c-2.848-16.894-9.639-29.677-20.866-29.677s-18.01,14.03-20.316,31c-.91,6.643-.186,11.537,1.591,15.113,4.2,3.25,10.57,4.823,18.7,5.115h.791c8.4-.309,14.921-1.982,19.1-5.463,1.658-3.741,2.207-8.918,1-16.091" fill="#fdebd1"/><path d="M2496.958,556.138h-.869l-2.214,6.656c-4.2,12.512-9.435,28.081-8.053,41.1,1.044,10.783,9.38,16.31,25.475,16.9h.834c16.139-.591,24.475-6.118,25.518-16.907,1.385-13.009-3.851-28.581-8.063-41.094l-2.2-6.645-.863-.007Zm28.693,2.4c.409,1.217,1.666,5.018,1.666,5.018,3.86,11.471,8.163,24.294,8.163,35.768a39.845,39.845,0,0,1-.216,4.317c-.922,9.525-8.285,14.213-23.177,14.759h-.714c-14.881-.546-22.248-5.234-23.163-14.749a39.444,39.444,0,0,1-.221-4.321c0-11.48,4.312-24.3,8.162-35.767,0,0,1.261-3.808,1.67-5.025Z" fill="#543800"/><path d="M2478.177,490.475c-2.956-10.853-13.082-25.672-25.968-24.363-12.35,1.065-22.146,16.632-15.764,26.843,2.7,4.562,9.855,8.781,16.358,9.835,4.421.711,9.868,1.975,16.183,1.182" fill="#f5bcb7"/><path d="M2452.088,464.92c-6.731.581-13.3,5.361-16.69,12.169-2.9,5.815-2.892,11.827.035,16.505,2.823,4.78,10.214,9.253,17.178,10.375l1.946.335a47.943,47.943,0,0,0,14.578.86l-.3-2.378c-5.235.651-9.82-.141-13.868-.846l-1.973-.331c-6.229-1.009-13.045-5.075-15.514-9.261-2.487-3.977-2.463-9.137.057-14.186,3.032-6.084,8.834-10.344,14.776-10.857,12.162-1.235,21.927,13.285,24.711,23.483l2.314-.63c-3.088-11.314-13.58-26.628-27.251-25.238" fill="#543800"/><path d="M2542.864,490.475c2.963-10.853,13.089-25.669,25.969-24.363,12.351,1.065,22.147,16.632,15.766,26.847-2.7,4.558-9.855,8.781-16.358,9.831-4.421.711-9.867,1.975-16.182,1.182" fill="#f5bcb7"/><path d="M2541.707,490.159l2.315.63c2.781-10.2,12.549-24.718,24.689-23.487,5.961.515,11.758,4.775,14.8,10.857,2.516,5.049,2.546,10.212.076,14.162-2.486,4.211-9.3,8.28-15.529,9.288l-1.977.333c-4.053.7-8.634,1.494-13.87.845l-.3,2.376a47.87,47.87,0,0,0,14.583-.86l1.948-.333c6.96-1.123,14.35-5.6,17.192-10.4,2.91-4.649,2.923-10.662.022-16.476-3.4-6.814-9.96-11.589-16.715-12.172-13.654-1.384-24.14,13.925-27.227,25.241" fill="#543800"/><path d="M2474.128,493.454c-2.387-5.6-14.4-19.177-20.536-10.007-6.418,9.685,10.1,15.6,16.928,15.1" fill="#fdebd1"/><path d="M2546.916,493.454c2.388-5.6,14.4-19.177,20.534-10.007,6.418,9.685-10.1,15.6-16.922,15.1" fill="#fdebd1"/><path d="M2511.077,531.96c6.188-22.109,34.01-32.3,52.035-19.356-6.382-20.456-25.9-39.76-51.332-39.76h-1.309c-25.391,0-44.889,19.247-51.3,39.672,18.03-12.806,45.745-2.616,51.906,19.444" fill="#f5bcb7"/><path d="M2563.112,512.6c-18.024-12.941-45.847-2.753-52.034,19.356-6.163-22.06-33.877-32.25-51.907-19.444a49.387,49.387,0,0,0-2.06,9.844c-1.134,11.377-1.045,20.484,7.583,28.258,7.192,6.479,19.371,8.724,31.388,9.487,4.942.308,8.614.368,14.39.368a145.671,145.671,0,0,0,20.421-1.221c9.374-1.359,18.172-4.071,24.575-9.147,7.848-6.227,10.815-16.368,9.68-27.745a48.8,48.8,0,0,0-2.036-9.756" fill="#fdebd1"/><path d="M2510.472,471.643c-29.608,0-52.116,26.161-54.554,50.6-1.109,11.083-1.266,20.938,7.976,29.268,6.236,5.612,16.735,8.815,32.109,9.788,5.035.316,8.828.371,14.469.371a144.192,144.192,0,0,0,20.6-1.235c10.8-1.564,19.263-4.731,25.146-9.4,7.767-6.155,11.361-16.384,10.126-28.795-2.436-24.44-24.942-50.6-54.559-50.6Zm-14.315,87.265c-14.817-.941-24.841-3.939-30.658-9.176-8.427-7.593-8.27-16.457-7.194-27.253,2.333-23.394,23.854-48.441,52.167-48.441h1.309c28.323,0,49.841,25.047,52.176,48.441,1.157,11.575-2.124,21.046-9.232,26.684-5.553,4.4-13.626,7.395-24,8.906a142.757,142.757,0,0,1-20.252,1.207c-5.6,0-9.352-.057-14.315-.368" fill="#543800"/><path d="M2481.9,525.936a11.27,11.27,0,0,0-1.711,5.2c-.121,2.856,1.191,5.662,3.88,6.627,5.144,1.585,6.7-6.681,5.122-10.129a6.66,6.66,0,0,0-1.71-2.256,3.477,3.477,0,0,0-2.561-1.065,4.13,4.13,0,0,0-3.02,1.628" fill="#190913"/><path d="M2540.93,525.906a11.016,11.016,0,0,1,1.446,5.223c-.014,2.858-1.46,5.647-4.179,6.561-5.193,1.5-6.338-6.792-4.59-10.213a6.929,6.929,0,0,1,1.811-2.229,3.568,3.568,0,0,1,2.6-1.022,3.946,3.946,0,0,1,2.915,1.68" fill="#190913"/><path d="M2517.12,546.081c0,2.169-2.706,4.449-5.756,4.449s-5.507-2.439-5.27-4.449c.183-1.574,2.462-2.873,5.51-2.873s5.516,1.288,5.516,2.873" fill="#190913"/></g></svg>