<svg xmlns="http://www.w3.org/2000/svg" width="185.18" height="143.385" viewBox="0 0 185.18 143.385"><g transform="translate(-2567.902 -1022.304)"><path d="M2730.772,1043.316c-4.459-7.858-10.854-13.4-18.495-16.011a54.383,54.383,0,0,0-17.773-3.191,38.928,38.928,0,0,0-24.583,8.516,53.258,53.258,0,0,0-9.844,10.231,51.134,51.134,0,0,0-9.79-10.86c-6.532-5.312-14.478-8.005-23.611-8.005-.727,0-1.489.013-2.357.046a41.1,41.1,0,0,0-28.786,13.1,42.215,42.215,0,0,0-11.1,28.781,45.657,45.657,0,0,0,1.626,12c3.625,13.268,11.169,26.463,23.063,40.339,4.906,5.724,16.86,18.429,28.081,28.753a2.731,2.731,0,0,0,3.858-.161c.039-.042.065-.089.1-.134,3.808-3.11,14.843-14.328,17.248-16.816,8.751-9.046,32.062-35.513,35.954-40.517,4.7-6.046,7.089-11.7,7.1-16.789a13.073,13.073,0,0,0-4.063-9.756,10.855,10.855,0,0,0-7.425-3.283c-2.933,0-6.064,1.412-9.572,4.321-.138.114-.334.321-.542.539-.676.714-1.442,1.522-2.293,1.522a1.246,1.246,0,0,1-.45-.083c-.324-.125-.672-.277-1.037-.436a10.229,10.229,0,0,0-3.749-1.1h-.074a6.391,6.391,0,0,0-4.736,2.1,7.669,7.669,0,0,0-1.824,5.213,11.123,11.123,0,0,0,.345,2.355,7.092,7.092,0,0,1-.02,4.462,29.368,29.368,0,0,1-4.375,6.726c-4.085,3.8-24.509,21.41-24.509,21.41l-.7-.975c-2.244-2.577-5.617-6.57-8.939-10.963-2.453-3.242-4.51-6.216-6.111-8.839a34.234,34.234,0,0,1-3.68-7.545,3.175,3.175,0,0,0-3.957-2.142,3.175,3.175,0,0,0-2.144,3.95,43.372,43.372,0,0,0,5.19,10.4c6.074,9.5,14.856,19.4,17.4,22.2l.092.1,0-.006a3.144,3.144,0,0,0,2.211,1.029l.134,0a3.168,3.168,0,0,0,2.157-.844l-.032.05c.141-.151.456-.443,1.215-1.144,2.629-2.433,27.069-24.849,28.982-26.6a6.892,6.892,0,0,0,2.5-4.414,7.489,7.489,0,0,0-.631-4.377,14.813,14.813,0,0,1-.813-2.769l-.015-.082c-.034-.21-.058-.414-.077-.614a4.072,4.072,0,0,1,.85-3.238,2.687,2.687,0,0,1,2.034-.858,3.539,3.539,0,0,1,.765.085l.193.044a6.162,6.162,0,0,1,3.062,2.148c.17.208.329.424.484.634.6.81.969,1.31,1.579,1.31a1.5,1.5,0,0,0,.32-.042c.67-.147,1.7-1.391,2.437-2.29a14.63,14.63,0,0,1,1.2-1.351c1.837-1.694,4.595-3.945,7.325-3.945a4.562,4.562,0,0,1,3.336,1.45,9.261,9.261,0,0,1,2.5,6.132c.011,2.239-1.154,6.53-6.352,13.639-8.4,11.509-15.747,18.192-24.833,27.962-1.723,1.85-18.3,20.195-25.886,26.5-10.458-9.8-21.14-21.177-25.674-26.469-11.357-13.25-18.534-25.753-21.941-38.223a40.146,40.146,0,0,1-1.434-10.561,36.766,36.766,0,0,1,9.656-25.076,35.668,35.668,0,0,1,24.989-11.345c.72-.027,1.426-.04,2.13-.042a31.1,31.1,0,0,1,20.183,6.786c3.8,3.072,7.243,7.177,10.843,12.919a2.73,2.73,0,0,0,2.278,1.28,2.765,2.765,0,0,0,2.311-1.221,51.127,51.127,0,0,1,11.01-12.294,33.6,33.6,0,0,1,21.221-7.352h.08a49.448,49.448,0,0,1,15.917,2.9c8.035,2.751,12.871,8.882,15.514,13.54a43.356,43.356,0,0,1,5.4,21.047,38.193,38.193,0,0,1-3.514,16.385c-6.149,12.8-19.277,30.92-35.118,48.462-16.588,18.367-27.716,26.63-30.32,26.63-.717,0-3.733-.547-12.43-7.587a2.731,2.731,0,1,0-3.436,4.245c9.748,7.89,13.724,8.8,15.866,8.8,1.931,0,5.531-.89,14.474-8.59a233.365,233.365,0,0,0,19.9-19.841c16.172-17.908,29.626-36.51,35.989-49.762a43.678,43.678,0,0,0,4.052-18.747A48.936,48.936,0,0,0,2730.772,1043.316Z" fill="#f5bcb7" stroke="#f5bcb7" stroke-miterlimit="10" stroke-width="3.385"/><path d="M2570.707,1127.272a7.943,7.943,0,0,0,5.535,2.094c1.8,0,2.992-.785,2.992-2.057,0-2.468-3.1-2.992-5.984-3.964-2.991-1.01-5.348-2.992-5.348-6.582,0-4.3,4.039-6.957,8.3-6.957a11.154,11.154,0,0,1,8.939,4.675l-2.843,2.469a8.029,8.029,0,0,0-6.208-3.4c-2.768,0-4.3,1.609-4.3,3.1,0,2.17,1.832,2.918,4.824,3.815,3.516,1.047,6.508,2.843,6.508,6.545,0,4.039-3.553,5.984-7.031,5.984a10.572,10.572,0,0,1-7.667-3.029Z"/><path d="M2604.235,1124.616a8.378,8.378,0,1,1-16.755,0v-14.548h3.815v14.548a4.51,4.51,0,0,0,4.562,4.563,4.421,4.421,0,0,0,4.564-4.563v-14.548h3.814Z"/><path d="M2609.176,1110.068h9.012c4.414,0,7.069,2.955,7.069,6.582,0,3.254-2.693,6.545-7.33,6.545h-4.937v9.537h-3.814Zm3.814,3.665v5.8h4.9c2.393,0,3.552-1.309,3.552-2.88a2.98,2.98,0,0,0-3.291-2.917Z"/><path d="M2627.954,1110.068h9.013c4.413,0,7.068,2.955,7.068,6.582,0,3.254-2.692,6.545-7.33,6.545h-4.936v9.537h-3.815Zm3.815,3.665v5.8h4.9c2.394,0,3.553-1.309,3.553-2.88a2.98,2.98,0,0,0-3.291-2.917Z"/><path d="M2656.99,1109.806a11.6,11.6,0,0,1,0,23.188,11.211,11.211,0,0,1-11.369-11.594A11.391,11.391,0,0,1,2656.99,1109.806Zm0,19.411a7.488,7.488,0,0,0,7.481-7.817c0-4.263-2.992-7.816-7.481-7.816s-7.479,3.553-7.479,7.816A7.487,7.487,0,0,0,2656.99,1129.217Z"/><path d="M2671.973,1110.068h9.5c4.413,0,7.068,2.955,7.068,6.582a6.634,6.634,0,0,1-5.685,6.4l4.115,9.686h-4.152l-4.076-9.537h-2.955v9.537h-3.814Zm3.814,3.665v5.8h5.386c2.393,0,3.553-1.309,3.553-2.88a2.981,2.981,0,0,0-3.291-2.917Z"/><path d="M2695.594,1132.732v-18.924h-5.5v-3.74h16.755v3.74h-7.443v18.924Z"/><path d="M2708.263,1128.244a2.376,2.376,0,1,1,0,4.75,2.376,2.376,0,0,1,0-4.75Z"/><path d="M2713.373,1113.891a9.7,9.7,0,0,1,9.678-9.818c5.143,0,9.4,3.88,9.4,10.192v8.976a9.472,9.472,0,0,1-9.677,9.819c-5.19,0-9.4-3.741-9.4-10.193Zm4.77.374v8.415c0,4.255,2.15,5.611,4.628,5.611,2.571,0,4.909-1.5,4.909-5.424v-8.415c0-4.255-2.151-5.611-4.629-5.611C2720.479,1108.841,2718.143,1110.337,2718.143,1114.265Z"/><path d="M2745.229,1132.732v-6.218h-10.38v-4.348l14.54-18.748,3.693,2.852-12.2,15.709h4.349v-3.273h4.581v3.273h3.179v4.535h-3.179v6.218Z"/><path d="M2581.779,1055.489c3.807,0,3.727,2.244,3.647,4.087,1.643-.04,3.446-.04,6.091-.16,1.4-.04,8.013-.441,8.815-.441.882,0,3.526,0,3.526,3.326a2.8,2.8,0,0,1-2.524,3.125c-2.284.321-13.023.561-16.269.641,0,.281-.08,1.4-.08,1.643a29.037,29.037,0,0,1,4.047-.28c6.612,0,9.376,1.442,11.42,2.965a11.276,11.276,0,0,1,4.528,9.456c0,9.417-8.054,12.021-13.7,12.021-2.524,0-3.406-1.482-3.406-3.246,0-2.724,1.563-2.885,3.486-3.085,3.927-.36,6.572-1.763,6.572-5.97a6.045,6.045,0,0,0-1.2-3.887,4.753,4.753,0,0,0-2.765-1.723,35.577,35.577,0,0,1-6.571,10.619,4.02,4.02,0,0,1,.4,1.642,3.572,3.572,0,0,1-3.566,3.406,2.536,2.536,0,0,1-2-.761,11.9,11.9,0,0,1-5.891,1.843c-3.887,0-7.132-3.125-7.132-8.455,0-7.372,5.61-11.1,8.976-12.661,0-.562.08-2.926.08-3.406h-4.288c-1.242,0-3.767,0-3.767-3.286,0-3.246,2.6-3.246,4.248-3.246h4.047C2578.534,1057.693,2578.614,1055.489,2581.779,1055.489Zm-3.485,20.716a7.494,7.494,0,0,0-2.886,5.81c0,.8.161,2.565,1.844,2.565a5.064,5.064,0,0,0,2.4-.882A28.922,28.922,0,0,1,2578.294,1076.2Zm9.416-3.246a11.369,11.369,0,0,0-2.885.281,33.2,33.2,0,0,0,.28,4.888A28.256,28.256,0,0,0,2587.71,1072.959Z"/><path d="M2635.485,1070.034a6.093,6.093,0,0,1,4.568,1.763c1.683,1.723,1.683,4.568,1.683,5.129a33.176,33.176,0,0,1-.241,4.127c-.04.521-.08.962-.08,1.122,0,1.323.481,2.445,1.884,2.445,3.566,0,3.847-6.211,4.047-10.659.04-1.042.16-3.366,3.526-3.366,3.687,0,3.687,2.645,3.687,3.847a33.351,33.351,0,0,1-1.644,10.138,10.62,10.62,0,0,1-5.569,6.25,12.4,12.4,0,0,1-4.609.842,9.686,9.686,0,0,1-5.449-1.523c-2.564-1.923-2.564-5.289-2.564-6.451,0-.8.24-4.368.24-5.089,0-.561,0-2-2-2-4.208,0-5.811,6.531-6.651,10.658-.522,2.4-1,3.967-3.607,3.967-1.844,0-3.807-1.162-3.807-3.206a10.431,10.431,0,0,1,.561-2.764c2.124-7.453,4.368-14.906,6.853-22.279.28-.841,1.442-4.408,1.682-4.969a3.138,3.138,0,0,1,3.125-2.243c.562,0,4.007.28,4.007,3.045,0,.961-.24,1.562-1.683,5.329-1.522,3.967-1.682,4.448-2.4,6.251a10.015,10.015,0,0,0-.4,1.122A8.725,8.725,0,0,1,2635.485,1070.034Z"/><path d="M2678.291,1059.5c0,.04,0,.6-.04,1.322-.4,7.774-.681,12.462-.681,17.03,0,3.606.321,7.052,6.732,7.052,7.092,0,9.977-3.125,11.059-8.855.4-2.244.761-4.128,3.686-4.128.521,0,3.967.041,3.967,3.206a18.612,18.612,0,0,1-3.967,10.658c-3.245,4.168-8.214,5.891-14.545,5.891-6.291,0-9.777-1.483-11.94-4.368-1.083-1.4-2.124-3.2-2.124-11.259,0-2.685.32-16.629.32-16.95.2-1.8.842-3.245,3.887-3.245C2678.291,1055.85,2678.291,1058.534,2678.291,1059.5Z"/><path d="M2732.958,1070.034a6.09,6.09,0,0,1,4.567,1.763c1.684,1.723,1.684,4.568,1.684,5.129a33.176,33.176,0,0,1-.241,4.127c-.04.521-.08.962-.08,1.122,0,1.323.481,2.445,1.883,2.445,3.567,0,3.847-6.211,4.047-10.659.04-1.042.161-3.366,3.527-3.366,3.686,0,3.686,2.645,3.686,3.847a33.35,33.35,0,0,1-1.643,10.138,10.617,10.617,0,0,1-5.57,6.25,12.4,12.4,0,0,1-4.608.842,9.685,9.685,0,0,1-5.449-1.523c-2.565-1.923-2.565-5.289-2.565-6.451,0-.8.241-4.368.241-5.089,0-.561,0-2-2-2-4.208,0-5.811,6.531-6.652,10.658-.521,2.4-1,3.967-3.606,3.967-1.844,0-3.807-1.162-3.807-3.206a10.4,10.4,0,0,1,.561-2.764c2.124-7.453,4.368-14.906,6.852-22.279.281-.841,1.443-4.408,1.683-4.969a3.138,3.138,0,0,1,3.125-2.243c.561,0,4.007.28,4.007,3.045,0,.961-.241,1.562-1.683,5.329-1.522,3.967-1.683,4.448-2.4,6.251a10.109,10.109,0,0,0-.4,1.122A8.729,8.729,0,0,1,2732.958,1070.034Z"/></g></svg>