<?xml version="1.0" encoding="utf-8"?>
<!-- Generator: Adobe Illustrator 16.0.0, SVG Export Plug-In . SVG Version: 6.00 Build 0)  -->
<!DOCTYPE svg PUBLIC "-//W3C//DTD SVG 1.1//EN" "http://www.w3.org/Graphics/SVG/1.1/DTD/svg11.dtd">
<svg version="1.1" id="Layer_1" xmlns="http://www.w3.org/2000/svg" xmlns:xlink="http://www.w3.org/1999/xlink" x="0px" y="0px"
	 width="786.801px" height="110px" viewBox="0 0 786.801 110" enable-background="new 0 0 786.801 110" xml:space="preserve">
<g>
	<defs>
		<rect id="SVGID_1_" width="786.801" height="110"/>
	</defs>
	<clipPath id="SVGID_2_">
		<use xlink:href="#SVGID_1_"  overflow="visible"/>
	</clipPath>
	<g clip-path="url(#SVGID_2_)">
		<defs>
			<rect id="SVGID_3_" width="786.801" height="109.999"/>
		</defs>
		<clipPath id="SVGID_4_">
			<use xlink:href="#SVGID_3_"  overflow="visible"/>
		</clipPath>
		<path clip-path="url(#SVGID_4_)" d="M103.146,29.187C94.659,17.217,82.256,9.384,66.153,9.384
			c-26.113,0-43.521,20.672-43.521,45.479c0,25.242,18.061,45.48,43.521,45.48c9.575,0,18.279-2.829,26.113-7.399l10.444,18.496
			c-9.792,6.746-22.848,10.881-36.557,10.881c-37.646,0-66.152-28.724-66.152-67.458c0-37.428,28.941-67.457,66.152-67.457
			c20.019,0,41.345,8.921,55.054,29.594L103.146,29.187z"/>
		<path clip-path="url(#SVGID_4_)" d="M180.782-12.594c37.21,0,66.152,30.029,66.152,67.458c0,38.733-30.247,67.457-66.152,67.457
			c-37.646,0-66.152-28.724-66.152-67.457C114.629,17.436,143.572-12.594,180.782-12.594 M180.782,100.344
			c25.46,0,43.521-20.237,43.521-45.479c0-24.808-17.408-45.48-43.521-45.48c-26.113,0-43.521,20.672-43.521,45.48
			C137.261,80.106,155.322,100.344,180.782,100.344"/>
		<polygon clip-path="url(#SVGID_4_)" points="342.784,120.798 280.114,27.445 280.114,120.798 258.353,120.798 258.353,-11.071 
			280.549,-11.071 342.349,81.411 342.349,-11.071 364.109,-11.071 364.109,120.798 		"/>
		<path clip-path="url(#SVGID_4_)" d="M478.542,29.187c-8.487-11.969-20.89-19.802-36.993-19.802
			c-26.113,0-43.521,20.672-43.521,45.479c0,25.242,18.061,45.48,43.521,45.48c9.575,0,18.279-2.829,26.113-7.399l10.443,18.496
			c-9.792,6.746-22.848,10.881-36.557,10.881c-37.646,0-66.152-28.724-66.152-67.458c0-37.428,28.941-67.457,66.152-67.457
			c20.02,0,41.345,8.921,55.054,29.594L478.542,29.187z"/>
		<polygon clip-path="url(#SVGID_4_)" points="499.709,120.798 499.709,-11.071 584.141,-11.071 584.141,10.254 521.905,10.254 
			521.905,43.983 585.882,43.983 585.882,65.31 521.905,65.31 521.905,99.473 569.344,99.473 569.344,120.798 		"/>
		<path clip-path="url(#SVGID_4_)" d="M597.627-11.071h52.443c25.678,0,41.127,17.191,41.127,38.299
			c0,18.931-15.668,38.081-42.65,38.081h-28.725v55.489h-22.195V-11.071z M619.822,10.254v33.729h28.506
			c13.928,0,20.674-7.616,20.674-16.755c0-8.922-6.746-16.974-19.149-16.974H619.822z"/>
		<polygon clip-path="url(#SVGID_4_)" points="721.309,120.798 721.309,10.69 689.321,10.69 689.321,-11.071 786.808,-11.071 
			786.808,10.69 743.505,10.69 743.505,120.798 		"/>
	</g>
	<g clip-path="url(#SVGID_2_)">
		<defs>
			<rect id="SVGID_5_" width="786.801" height="110"/>
		</defs>
		<clipPath id="SVGID_6_">
			<use xlink:href="#SVGID_5_"  overflow="visible"/>
		</clipPath>
		<g opacity="0.25" clip-path="url(#SVGID_6_)">
			<g>
				<defs>
					<rect id="SVGID_7_" x="145.747" y="19.829" width="70.07" height="70.07"/>
				</defs>
				<clipPath id="SVGID_8_">
					<use xlink:href="#SVGID_7_"  overflow="visible"/>
				</clipPath>
				<path clip-path="url(#SVGID_8_)" d="M149.011,69.655c0.127,0.274,0.258,0.545,0.393,0.816l46.986-46.986
					c-0.271-0.134-0.543-0.266-0.816-0.393L149.011,69.655z M150.264,72.089c0.144,0.257,0.293,0.511,0.445,0.764l48.062-48.062
					c-0.253-0.152-0.508-0.3-0.764-0.445L150.264,72.089z M153.224,76.501c0.176,0.226,0.356,0.447,0.539,0.669l49.325-49.326
					c-0.221-0.183-0.444-0.363-0.668-0.539L153.224,76.501z M147.927,67.054c0.108,0.292,0.22,0.583,0.336,0.873l45.581-45.583
					c-0.289-0.116-0.58-0.228-0.872-0.336L147.927,67.054z M154.916,78.495c0.192,0.209,0.386,0.417,0.585,0.624l49.536-49.537
					c-0.206-0.198-0.414-0.393-0.624-0.585L154.916,78.495z M151.671,74.368c0.161,0.239,0.325,0.479,0.493,0.715l48.838-48.837
					c-0.237-0.167-0.476-0.332-0.716-0.493L151.671,74.368z M147.026,64.269c0.087,0.312,0.179,0.624,0.274,0.934l43.821-43.82
					c-0.311-0.096-0.622-0.187-0.935-0.274L147.026,64.269z M148.931,40.248c-0.315,0.687-0.607,1.381-0.875,2.083l20.193-20.193
					c-0.702,0.268-1.397,0.56-2.084,0.875L148.931,40.248z M152.436,34.265l7.747-7.747c-1.461,1.064-2.858,2.254-4.176,3.571
					C154.689,31.406,153.5,32.804,152.436,34.265 M146.887,45.977c-0.137,0.526-0.262,1.053-0.374,1.584l26.965-26.966
					c-0.53,0.113-1.058,0.238-1.583,0.375L146.887,45.977z M145.75,54.486c-0.005,0.401-0.004,0.802,0.005,1.203l35.853-35.853
					c-0.401-0.009-0.802-0.009-1.203-0.005L145.75,54.486z M146.013,50.538c-0.055,0.448-0.101,0.898-0.139,1.347l31.929-31.929
					c-0.45,0.038-0.899,0.084-1.348,0.139L146.013,50.538z M145.89,58.032c0.032,0.365,0.07,0.73,0.114,1.094l39.041-39.04
					c-0.365-0.044-0.729-0.082-1.094-0.115L145.89,58.032z M146.335,61.273c0.063,0.336,0.129,0.672,0.201,1.007l41.663-41.663
					c-0.335-0.072-0.671-0.138-1.007-0.2L146.335,61.273z M160.811,83.658c0.238,0.166,0.479,0.328,0.72,0.488l48.534-48.533
					c-0.16-0.242-0.322-0.482-0.488-0.721L160.811,83.658z M184.227,89.731c0.458-0.045,0.915-0.101,1.371-0.164l29.888-29.887
					c0.063-0.457,0.118-0.914,0.163-1.372L184.227,89.731z M176.901,89.685c0.368,0.04,0.736,0.075,1.104,0.104l37.702-37.703
					c-0.029-0.368-0.064-0.736-0.105-1.103L176.901,89.685z M180.376,89.896c0.404,0.004,0.809,0.004,1.213-0.005l34.22-34.221
					c0.009-0.404,0.01-0.808,0.005-1.213L180.376,89.896z M188.631,89.013c0.543-0.124,1.083-0.262,1.621-0.412l24.267-24.268
					c0.15-0.536,0.287-1.077,0.412-1.619L188.631,89.013z M156.744,80.354c0.208,0.196,0.417,0.389,0.629,0.579l49.478-49.478
					c-0.19-0.211-0.384-0.421-0.58-0.628L156.744,80.354z M194.016,87.314c0.739-0.301,1.469-0.629,2.191-0.982l16.043-16.044
					c0.354-0.721,0.682-1.452,0.983-2.19L194.016,87.314z M207.569,77.447l-4.204,4.203c0.752-0.634,1.484-1.304,2.192-2.012
					S206.934,78.198,207.569,77.447 M163.059,85.097c0.255,0.149,0.512,0.296,0.77,0.438l47.624-47.625
					c-0.142-0.258-0.289-0.514-0.438-0.77L163.059,85.097z M165.46,86.382c0.273,0.132,0.547,0.261,0.822,0.386l46.404-46.403
					c-0.125-0.276-0.254-0.55-0.387-0.822L165.46,86.382z M158.708,82.075c0.223,0.182,0.447,0.36,0.673,0.534l49.147-49.146
					c-0.175-0.226-0.353-0.451-0.534-0.674L158.708,82.075z M173.717,89.183c0.338,0.068,0.676,0.134,1.016,0.192l40.561-40.561
					c-0.059-0.339-0.124-0.678-0.193-1.016L173.717,89.183z M170.768,88.445c0.313,0.093,0.628,0.182,0.943,0.265l42.918-42.917
					c-0.084-0.316-0.172-0.63-0.265-0.944L170.768,88.445z M168.025,87.502c0.292,0.114,0.585,0.225,0.879,0.33l44.847-44.847
					c-0.106-0.294-0.216-0.587-0.33-0.879L168.025,87.502z"/>
			</g>
		</g>
		<g opacity="0.25" clip-path="url(#SVGID_6_)">
			<g>
				<defs>
					<rect id="SVGID_9_" x="407.115" y="19.829" width="70.069" height="70.07"/>
				</defs>
				<clipPath id="SVGID_10_">
					<use xlink:href="#SVGID_9_"  overflow="visible"/>
				</clipPath>
				<path clip-path="url(#SVGID_10_)" d="M410.379,69.655c0.127,0.274,0.258,0.545,0.394,0.816l46.984-46.986
					c-0.27-0.134-0.542-0.266-0.814-0.393L410.379,69.655z M411.632,72.089c0.145,0.257,0.293,0.511,0.444,0.764l48.063-48.062
					c-0.253-0.152-0.508-0.3-0.764-0.445L411.632,72.089z M414.591,76.501c0.177,0.226,0.357,0.447,0.54,0.669l49.325-49.326
					c-0.221-0.183-0.444-0.363-0.668-0.539L414.591,76.501z M409.295,67.054c0.108,0.292,0.22,0.583,0.336,0.873l45.581-45.583
					c-0.289-0.116-0.58-0.228-0.872-0.336L409.295,67.054z M416.284,78.495c0.191,0.209,0.386,0.417,0.585,0.624l49.536-49.537
					c-0.206-0.198-0.414-0.393-0.624-0.585L416.284,78.495z M413.039,74.368c0.161,0.239,0.325,0.479,0.493,0.715l48.838-48.837
					c-0.237-0.167-0.477-0.332-0.716-0.493L413.039,74.368z M408.394,64.269c0.088,0.312,0.18,0.624,0.274,0.934l43.821-43.82
					c-0.312-0.096-0.622-0.187-0.936-0.274L408.394,64.269z M410.299,40.248c-0.314,0.687-0.606,1.381-0.875,2.083l20.193-20.193
					c-0.702,0.268-1.397,0.56-2.084,0.875L410.299,40.248z M413.804,34.265l7.747-7.747c-1.461,1.064-2.857,2.254-4.176,3.571
					C416.057,31.406,414.868,32.804,413.804,34.265 M408.255,45.977c-0.137,0.526-0.262,1.053-0.375,1.584l26.966-26.966
					c-0.529,0.113-1.058,0.238-1.583,0.375L408.255,45.977z M407.118,54.486c-0.005,0.401-0.005,0.802,0.005,1.203l35.853-35.853
					c-0.4-0.009-0.802-0.009-1.202-0.005L407.118,54.486z M407.381,50.538c-0.055,0.448-0.101,0.898-0.139,1.347l31.929-31.929
					c-0.45,0.038-0.898,0.084-1.348,0.139L407.381,50.538z M407.257,58.032c0.033,0.365,0.071,0.73,0.115,1.094l39.041-39.04
					c-0.365-0.044-0.729-0.082-1.094-0.115L407.257,58.032z M407.703,61.273c0.063,0.336,0.128,0.672,0.201,1.007l41.663-41.663
					c-0.335-0.072-0.671-0.138-1.008-0.2L407.703,61.273z M422.179,83.658c0.238,0.166,0.479,0.328,0.721,0.488l48.533-48.533
					c-0.159-0.242-0.322-0.482-0.487-0.721L422.179,83.658z M445.595,89.731c0.458-0.045,0.915-0.101,1.371-0.164l29.888-29.887
					c0.063-0.457,0.118-0.914,0.163-1.372L445.595,89.731z M438.269,89.685c0.368,0.04,0.736,0.075,1.104,0.104l37.702-37.703
					c-0.029-0.368-0.064-0.736-0.105-1.103L438.269,89.685z M441.744,89.896c0.404,0.004,0.809,0.004,1.213-0.005l34.22-34.221
					c0.009-0.404,0.009-0.808,0.005-1.213L441.744,89.896z M449.999,89.013c0.543-0.124,1.083-0.262,1.621-0.412l24.267-24.268
					c0.15-0.536,0.287-1.077,0.411-1.619L449.999,89.013z M418.112,80.354c0.208,0.196,0.417,0.389,0.629,0.579l49.478-49.478
					c-0.189-0.211-0.384-0.421-0.58-0.628L418.112,80.354z M455.384,87.314c0.738-0.301,1.469-0.629,2.191-0.982l16.043-16.044
					c0.354-0.721,0.682-1.452,0.982-2.19L455.384,87.314z M468.937,77.447l-4.203,4.203c0.751-0.634,1.483-1.304,2.191-2.012
					S468.302,78.198,468.937,77.447 M424.427,85.097c0.255,0.149,0.513,0.296,0.771,0.438l47.624-47.625
					c-0.144-0.258-0.289-0.514-0.439-0.77L424.427,85.097z M426.828,86.382c0.272,0.132,0.547,0.261,0.822,0.386l46.403-46.403
					c-0.125-0.276-0.254-0.55-0.387-0.822L426.828,86.382z M420.076,82.075c0.223,0.182,0.447,0.36,0.673,0.534l49.147-49.146
					c-0.176-0.226-0.354-0.451-0.535-0.674L420.076,82.075z M435.085,89.183c0.338,0.068,0.676,0.134,1.016,0.192l40.562-40.561
					c-0.061-0.339-0.124-0.678-0.193-1.016L435.085,89.183z M432.136,88.445c0.313,0.093,0.628,0.182,0.943,0.265l42.918-42.917
					c-0.084-0.316-0.172-0.63-0.265-0.944L432.136,88.445z M429.393,87.502c0.292,0.114,0.584,0.225,0.88,0.33l44.846-44.847
					c-0.105-0.294-0.216-0.587-0.329-0.879L429.393,87.502z"/>
			</g>
		</g>
	</g>
</g>
</svg>
