<svg xmlns="http://www.w3.org/2000/svg" xmlns:xlink="http://www.w3.org/1999/xlink" width="750" height="108" viewBox="0 0 750 108">
  <defs>
    <clipPath id="clip-path">
      <rect id="Rectangle_302" data-name="Rectangle 302" width="750" height="108" transform="translate(0 1453.996)" fill="none"/>
    </clipPath>
  </defs>
  <g id="Group_608" data-name="Group 608" transform="translate(0 -1453.996)">
    <g id="Group_607" data-name="Group 607" clip-path="url(#clip-path)">
      <g id="Group_606" data-name="Group 606">
        <path id="Path_2249" data-name="Path 2249" d="M97.829,1482.652c-8.332-11.75-20.51-19.442-36.32-19.442-25.638,0-42.73,20.3-42.73,44.653,0,24.783,17.733,44.652,42.73,44.652a50.376,50.376,0,0,0,25.638-7.264L97.4,1563.412c-9.614,6.623-22.433,10.682-35.893,10.682-36.961,0-64.949-28.2-64.949-66.231,0-36.748,28.415-66.231,64.949-66.231a64.086,64.086,0,0,1,54.053,29.056Z"/>
        <path id="Path_2250" data-name="Path 2250" d="M174.054,1441.632c36.534,0,64.949,29.483,64.949,66.231,0,38.029-29.7,66.231-64.949,66.231-36.961,0-64.949-28.2-64.949-66.231C109.105,1471.115,137.52,1441.632,174.054,1441.632Zm0,110.883c25,0,42.729-19.869,42.729-44.652,0-24.356-17.091-44.653-42.729-44.653s-42.73,20.3-42.73,44.653C131.324,1532.646,149.057,1552.515,174.054,1552.515Z"/>
        <path id="Path_2251" data-name="Path 2251" d="M333.111,1572.6l-61.531-91.656V1572.6H250.215V1443.127h21.792l60.676,90.8v-90.8h21.365V1572.6Z"/>
        <path id="Path_2252" data-name="Path 2252" d="M466.4,1482.652c-8.332-11.75-20.51-19.442-36.32-19.442-25.639,0-42.73,20.3-42.73,44.653,0,24.783,17.732,44.652,42.73,44.652a50.379,50.379,0,0,0,25.638-7.264l10.254,18.161c-9.614,6.623-22.433,10.682-35.892,10.682-36.962,0-64.95-28.2-64.95-66.231,0-36.748,28.416-66.231,64.95-66.231a64.086,64.086,0,0,1,54.053,29.056Z"/>
        <path id="Path_2253" data-name="Path 2253" d="M487.183,1572.6V1443.127h82.9v20.938h-61.1v33.115h62.813v20.938H508.975v33.543H555.55V1572.6Z"/>
        <path id="Path_2254" data-name="Path 2254" d="M583.32,1443.127h51.49c25.21,0,40.379,16.879,40.379,37.6,0,18.588-15.383,37.389-41.875,37.389h-28.2V1572.6H583.32Zm21.792,20.938v33.115H633.1c13.674,0,20.3-7.477,20.3-16.451,0-8.759-6.623-16.664-18.8-16.664Z"/>
        <path id="Path_2255" data-name="Path 2255" d="M704.753,1572.6V1464.492H673.347v-21.365h95.714v21.365H726.545V1572.6Z"/>
      </g>
    </g>
    <path id="Path_2256" data-name="Path 2256" d="M142.86,1522.386q.188.4.386.8l46.132-46.132q-.4-.2-.8-.386Zm1.23,2.389c.143.251.288.5.437.75l47.189-47.189q-.374-.224-.75-.437Zm2.906,4.332q.261.331.53.657l48.429-48.429q-.325-.268-.657-.53Zm-5.2-9.276c.106.287.216.572.33.857l44.753-44.753c-.285-.114-.57-.224-.857-.33Zm6.862,11.233q.283.309.574.613l48.636-48.636c-.2-.194-.407-.385-.613-.574Zm-3.186-4.051c.158.235.32.469.484.7l47.95-47.95q-.35-.246-.7-.484Zm-4.56-9.917q.127.461.269.918l43.024-43.024q-.458-.141-.918-.269Zm1.87-23.584q-.465,1.011-.859,2.046l19.826-19.826q-1.033.394-2.046.859Zm3.441-5.874,7.606-7.606a34.644,34.644,0,0,0-7.606,7.606Zm-5.447,11.5q-.2.774-.368,1.555l26.475-26.475q-.781.165-1.555.368Zm-1.118,8.356c0,.393,0,.787.006,1.181l35.2-35.2c-.394-.01-.788-.01-1.181-.006Zm.259-3.878q-.081.66-.137,1.323l31.349-31.349q-.663.057-1.323.137Zm-.121,7.359c.032.358.069.716.113,1.074l38.33-38.33c-.358-.044-.716-.081-1.074-.113Zm.437,3.182c.062.33.127.66.2.989l40.906-40.906c-.329-.07-.659-.135-.989-.2Zm14.213,21.978q.351.244.707.479l47.651-47.651q-.234-.356-.479-.707Zm22.99,5.962q.675-.066,1.347-.16l29.344-29.344q.093-.672.16-1.347Zm-7.192-.046c.361.04.722.075,1.084.1l37.016-37.016q-.042-.543-.1-1.084Zm3.411.208c.4,0,.794,0,1.191-.005l33.6-33.6c.009-.4.01-.794.005-1.191Zm8.106-.867q.8-.183,1.591-.405l23.825-23.825q.222-.792.4-1.591Zm-31.308-8.5q.306.288.617.569l48.579-48.579q-.28-.311-.569-.617Zm36.594,6.835q1.089-.444,2.151-.965l15.752-15.752q.521-1.062.965-2.151Zm13.307-9.688-4.127,4.127q1.105-.934,2.151-1.976T200.354,1530.036Zm-43.7,7.51q.377.22.756.43l46.758-46.758q-.21-.38-.43-.756Zm2.358,1.261c.267.13.537.257.807.38l45.56-45.56c-.123-.27-.25-.54-.38-.807Zm-6.63-4.227c.219.178.439.353.662.525l48.253-48.253c-.172-.223-.347-.443-.525-.662Zm14.737,6.978q.5.1,1,.189l39.824-39.824q-.087-.5-.189-1Zm-2.9-.724c.307.092.616.178.926.261l42.138-42.138c-.083-.31-.169-.619-.261-.926Zm-2.693-.926q.429.168.863.324l44.031-44.031q-.156-.434-.324-.863Z" opacity="0.25"/>
    <path id="Path_2257" data-name="Path 2257" d="M399.476,1522.386q.188.4.386.8l46.132-46.132q-.4-.2-.8-.386Zm1.23,2.389q.213.376.437.75l47.189-47.189q-.373-.224-.75-.437Zm2.906,4.332c.174.221.35.44.53.657l48.429-48.429c-.218-.179-.436-.356-.657-.53Zm-5.2-9.276c.106.287.216.572.33.857l44.753-44.753c-.285-.114-.57-.224-.857-.33Zm6.862,11.233q.284.309.574.613l48.636-48.636c-.2-.194-.407-.385-.613-.574Zm-3.186-4.051c.158.235.32.469.484.7l47.95-47.95q-.35-.246-.7-.484Zm-4.56-9.917q.127.461.269.918l43.024-43.024q-.458-.141-.918-.269Zm1.87-23.584q-.465,1.011-.859,2.046l19.826-19.826q-1.033.394-2.046.859Zm3.441-5.874,7.606-7.606a34.644,34.644,0,0,0-7.606,7.606Zm-5.447,11.5q-.2.774-.368,1.555l26.475-26.475q-.781.165-1.555.368Zm-1.118,8.356c0,.393,0,.787.006,1.181l35.2-35.2c-.394-.01-.788-.01-1.182-.006Zm.259-3.878c-.055.44-.1.881-.137,1.323l31.349-31.349q-.663.057-1.323.137Zm-.121,7.359c.032.358.069.716.113,1.074l38.33-38.33c-.358-.044-.716-.081-1.074-.113Zm.437,3.182c.062.33.127.66.2.989l40.906-40.906c-.329-.07-.659-.135-.989-.2Zm14.213,21.978q.351.244.707.479l47.651-47.651c-.157-.237-.316-.473-.479-.707Zm22.99,5.962q.675-.066,1.347-.16l29.344-29.344q.093-.672.16-1.347Zm-7.192-.046c.361.04.722.075,1.084.1l37.016-37.016q-.043-.543-.1-1.084Zm3.411.208c.4,0,.794,0,1.191-.005l33.6-33.6q.014-.6.005-1.191Zm8.106-.867q.8-.183,1.59-.405l23.826-23.825q.222-.792.4-1.591Zm-31.308-8.5q.306.288.617.569l48.579-48.579q-.281-.311-.569-.617Zm36.594,6.835q1.089-.444,2.151-.965l15.752-15.752q.52-1.062.965-2.151Zm13.307-9.688-4.127,4.127q1.105-.934,2.151-1.976T456.97,1530.036Zm-43.7,7.51q.376.22.756.43l46.758-46.758q-.21-.38-.43-.756Zm2.358,1.261q.4.2.807.38l45.56-45.56c-.123-.27-.25-.54-.38-.807ZM409,1534.58c.219.178.439.353.662.525l48.253-48.253c-.172-.223-.347-.443-.525-.662Zm14.736,6.978q.5.1,1,.189l39.824-39.824c-.058-.333-.122-.665-.189-1Zm-2.895-.724c.307.092.616.178.926.261l42.138-42.138c-.083-.31-.169-.619-.261-.926Zm-2.693-.926q.429.168.863.324l44.031-44.031q-.156-.434-.324-.863Z" opacity="0.25"/>
  </g>
</svg>
