<svg id="Layer_1" data-name="Layer 1" xmlns="http://www.w3.org/2000/svg" xmlns:xlink="http://www.w3.org/1999/xlink" viewBox="0 0 786.81 134.92"><defs><style>.cls-1{fill:none;}.cls-2{clip-path:url(#clip-path);}.cls-3{opacity:0.25;}</style><clipPath id="clip-path" transform="translate(0 12.59)"><rect class="cls-1" x="-506.5" width="2000" height="110"/></clipPath></defs><title>concept2</title><g class="cls-2"><path d="M103.15,29.19c-8.49-12-20.89-19.81-37-19.81C40,9.38,22.63,30.06,22.63,54.86c0,25.25,18.06,45.48,43.52,45.48a51.34,51.34,0,0,0,26.12-7.4l10.44,18.5c-9.79,6.75-22.85,10.88-36.56,10.88C28.51,122.32,0,93.6,0,54.86,0,17.44,28.94-12.59,66.15-12.59A65.29,65.29,0,0,1,121.21,17Z" transform="translate(0 12.59)"/><path d="M180.78-12.59c37.21,0,66.15,30,66.15,67.45,0,38.74-30.24,67.46-66.15,67.46-37.64,0-66.15-28.72-66.15-67.46C114.63,17.44,143.57-12.59,180.78-12.59Zm0,112.93c25.46,0,43.52-20.23,43.52-45.48,0-24.8-17.41-45.48-43.52-45.48s-43.52,20.68-43.52,45.48C137.26,80.11,155.32,100.34,180.78,100.34Z" transform="translate(0 12.59)"/><path d="M342.78,120.8,280.11,27.45V120.8H258.35V-11.07h22.2l61.8,92.48V-11.07h21.76V120.8Z" transform="translate(0 12.59)"/><path d="M478.54,29.19c-8.49-12-20.89-19.81-37-19.81C415.44,9.38,398,30.06,398,54.86c0,25.25,18.06,45.48,43.52,45.48a51.3,51.3,0,0,0,26.11-7.4l10.45,18.5c-9.8,6.75-22.85,10.88-36.56,10.88-37.65,0-66.15-28.72-66.15-67.46,0-37.42,28.94-67.45,66.15-67.45A65.27,65.27,0,0,1,496.6,17Z" transform="translate(0 12.59)"/><path d="M499.71,120.8V-11.07h84.43V10.25H521.91V44h64V65.31h-64V99.47h47.43V120.8Z" transform="translate(0 12.59)"/><path d="M597.63-11.07h52.44c25.68,0,41.13,17.19,41.13,38.3,0,18.93-15.67,38.08-42.65,38.08H619.82V120.8H597.63Zm22.19,21.32V44h28.51C662.26,44,669,36.37,669,27.23c0-8.92-6.74-17-19.15-17Z" transform="translate(0 12.59)"/><path d="M721.31,120.8V10.69h-32V-11.07h97.49V10.69H743.5V120.8Z" transform="translate(0 12.59)"/></g><path class="cls-3" d="M149,69.66l.39.81,47-47-.82-.4Zm1.25,2.43.45.76,48.06-48.06-.76-.44Zm3,4.41.54.67,49.33-49.33-.67-.53Zm-5.29-9.45c.1.3.22.59.33.88l45.58-45.59L193,22Zm7,11.44.58.63L205,29.58l-.63-.58Zm-3.25-4.12.49.71L201,26.25l-.71-.5ZM147,64.27q.12.47.27.93l43.82-43.82-.93-.27Zm1.9-24c-.31.68-.61,1.38-.87,2.08l20.19-20.19c-.7.27-1.4.56-2.08.87Zm3.51-6,7.74-7.74A34.1,34.1,0,0,0,156,30.09,34.86,34.86,0,0,0,152.44,34.26ZM146.89,46c-.14.52-.27,1.05-.38,1.58l27-27c-.53.12-1.06.24-1.59.38Zm-1.14,8.51v1.2l35.86-35.85H180.4Zm.26-4c0,.45-.1.89-.14,1.34L177.8,20c-.45,0-.9.08-1.34.13ZM145.89,58c0,.37.07.73.11,1.1l39-39c-.36-.05-.72-.09-1.09-.12Zm.45,3.24c.06.34.12.68.2,1L188.2,20.62l-1-.2Zm14.47,22.39.72.49,48.53-48.54-.48-.72Zm23.42,6.07c.45,0,.91-.1,1.37-.16l29.89-29.89c.06-.46.11-.91.16-1.37Zm-7.33,0,1.11.11,37.7-37.7c0-.37-.07-.74-.11-1.11Zm3.48.22h1.21l34.22-34.22c0-.4,0-.81,0-1.21Zm8.25-.89c.54-.12,1.08-.26,1.62-.41l24.27-24.27c.15-.53.29-1.07.41-1.62Zm-31.89-8.66.63.58,49.48-49.48c-.19-.21-.38-.42-.58-.62Zm37.28,7c.73-.3,1.47-.62,2.19-1l16-16c.35-.72.68-1.45,1-2.19Zm13.55-9.86-4.2,4.2q1.13-.95,2.19-2T207.57,77.45ZM163.06,85.1c.25.15.51.29.77.43l47.62-47.62c-.14-.26-.29-.51-.44-.77Zm2.4,1.28.82.39,46.41-46.41-.39-.82Zm-6.75-4.3.67.53,49.15-49.15-.54-.67Zm15,7.1,1,.2,40.56-40.57c-.06-.33-.12-.67-.19-1Zm-2.95-.73.94.26,42.92-42.92c-.09-.31-.17-.63-.27-.94Zm-2.75-1,.88.33L213.75,43l-.33-.88Z" transform="translate(0 12.59)"/><path class="cls-3" d="M410.38,69.66l.39.81,47-47-.82-.4Zm1.25,2.43c.15.26.29.51.45.76l48.06-48.06-.76-.44Zm3,4.41.54.67,49.33-49.33-.67-.53Zm-5.3-9.45c.11.3.22.59.34.88l45.58-45.59-.87-.33Zm7,11.44.59.63,49.54-49.54-.63-.58ZM413,74.37c.16.24.32.48.49.71l48.84-48.83-.72-.5Zm-4.65-10.1c.09.31.18.62.28.93l43.82-43.82-.94-.27Zm1.91-24c-.32.68-.61,1.38-.88,2.08l20.2-20.19c-.71.27-1.4.56-2.09.87Zm3.5-6,7.75-7.74a34.1,34.1,0,0,0-4.17,3.57A35.9,35.9,0,0,0,413.8,34.26ZM408.26,46c-.14.52-.27,1.05-.38,1.58l27-27c-.53.12-1.06.24-1.59.38Zm-1.14,8.51q0,.6,0,1.2L443,19.84h-1.21Zm.26-4c-.05.45-.1.89-.14,1.34L439.17,20c-.45,0-.9.08-1.35.13ZM407.26,58c0,.37.07.73.11,1.1l39-39c-.36-.05-.73-.09-1.09-.12Zm.44,3.24c.07.34.13.68.2,1l41.67-41.66-1-.2Zm14.48,22.39.72.49,48.53-48.54-.49-.72Zm23.41,6.07c.46,0,.92-.1,1.38-.16l29.88-29.89c.07-.46.12-.91.17-1.37Zm-7.32,0,1.1.11,37.71-37.7c0-.37-.07-.74-.11-1.11Zm3.47.22H443l34.22-34.22c0-.4,0-.81,0-1.21ZM450,89c.54-.12,1.08-.26,1.62-.41l24.27-24.27c.15-.53.28-1.07.41-1.62Zm-31.89-8.66.63.58,49.48-49.48c-.19-.21-.38-.42-.58-.62Zm37.27,7c.74-.3,1.47-.62,2.19-1l16.05-16c.35-.72.68-1.45,1-2.19Zm13.56-9.86-4.21,4.2c.75-.63,1.49-1.3,2.19-2S468.3,78.2,468.94,77.45ZM424.43,85.1c.25.15.51.29.77.43l47.62-47.62c-.14-.26-.29-.51-.44-.77Zm2.4,1.28.82.39,46.4-46.41c-.12-.27-.25-.55-.38-.82Zm-6.75-4.3c.22.18.44.36.67.53L469.9,33.46l-.54-.67Zm15,7.1,1,.2,40.56-40.57c-.06-.33-.12-.67-.19-1Zm-2.95-.73.94.26L476,45.79l-.27-.94Zm-2.75-1c.29.12.59.23.88.33L475.12,43l-.33-.88Z" transform="translate(0 12.59)"/></svg>