<svg xmlns="http://www.w3.org/2000/svg" xmlns:xlink="http://www.w3.org/1999/xlink" width="819.208" height="368.546" viewBox="0 0 819.208 368.546">
  <defs>
    <clipPath id="clip-path">
      <path id="Path_5768" data-name="Path 5768" d="M1250,780v143.95c0,104.5,85.5,190,190,190h560V780Z" fill="none"/>
    </clipPath>
  </defs>
  <g id="Group_839" data-name="Group 839" transform="translate(-1180.792 -779.996)">
    <path id="Path_5766" data-name="Path 5766" d="M1250,890a194.7,194.7,0,0,0,194.629,189.354v69.192c-143.958,0-260.987-115.271-263.837-258.546Z"/>
    <g id="Group_838" data-name="Group 838">
      <g id="Group_837" data-name="Group 837" clip-path="url(#clip-path)">
        <path id="Path_5767" data-name="Path 5767" d="M1293.344,953.392q.939,2.019,1.936,4.016l231.394-231.394q-2-.994-4.016-1.936Zm6.17,11.983q1.07,1.891,2.191,3.761l236.7-236.7q-1.87-1.121-3.761-2.19Zm14.577,21.73q1.305,1.659,2.657,3.294l242.916-242.916q-1.633-1.353-3.293-2.658Zm-26.084-46.529q.8,2.157,1.654,4.3L1514.14,720.4q-2.141-.858-4.3-1.654Zm34.419,56.346q1.417,1.551,2.878,3.074l243.958-243.957q-1.524-1.462-3.074-2.879ZM1306.444,976.6q1.19,1.773,2.429,3.522l240.514-240.514q-1.749-1.239-3.522-2.429Zm-22.872-49.741q.642,2.309,1.349,4.6l215.8-215.8q-2.293-.705-4.6-1.349Zm9.378-118.3q-2.328,5.074-4.31,10.262l99.448-99.447q-5.186,1.981-10.262,4.309Zm17.261-29.462,38.153-38.153a174.043,174.043,0,0,0-38.153,38.153Zm-27.324,57.679q-1.014,3.881-1.846,7.8l132.8-132.8q-3.915.831-7.8,1.846Zm-5.6,41.91c-.021,1.975-.02,3.95.027,5.925l176.568-176.568c-1.975-.047-3.95-.047-5.926-.027Zm1.3-19.451c-.274,2.209-.5,4.422-.686,6.638L1435.14,708.629c-2.216.188-4.429.412-6.638.686Zm-.608,36.914c.162,1.8.347,3.593.566,5.386L1470.8,709.273q-2.689-.327-5.386-.566Zm2.195,15.959c.307,1.658.632,3.313.988,4.963L1486.338,711.89c-1.65-.355-3.305-.681-4.963-.988Zm71.289,110.242q1.762,1.226,3.549,2.4L1594.02,785.74q-1.178-1.786-2.4-3.549Zm115.318,29.907q3.384-.333,6.754-.8l147.192-147.192q.467-3.371.8-6.754Zm-36.075-.232q2.715.3,5.435.517l185.674-185.674q-.214-2.721-.517-5.435Zm17.11,1.043c1.992.023,3.984.023,5.976-.023L1622.312,884.52c.045-1.992.046-3.984.023-5.975Zm40.658-4.351q4.008-.916,7.979-2.027l119.51-119.51q1.11-3.969,2.027-7.979Zm-157.039-42.645q1.536,1.449,3.1,2.856l243.67-243.67q-1.405-1.561-2.856-3.095Zm183.554,34.284q5.46-2.225,10.79-4.839l79.011-79.01q2.613-5.329,4.839-10.791Zm66.748-48.6-20.7,20.7q5.55-4.691,10.793-9.91T1581.731,991.762Zm-219.2,37.671q1.884,1.107,3.791,2.16l234.539-234.539q-1.055-1.906-2.16-3.791Zm11.825,6.328q2.015.979,4.049,1.9l228.526-228.526q-.924-2.034-1.9-4.049Zm-33.254-21.206q1.647,1.34,3.318,2.634l242.037-242.037q-1.293-1.671-2.634-3.318Zm73.918,35q2.495.511,5,.952l199.756-199.756q-.438-2.507-.952-5Zm-14.525-3.628q2.314.687,4.645,1.307L1616.5,835.872q-.622-2.33-1.307-4.645Zm-13.508-4.645q2.156.84,4.328,1.623l220.859-220.859q-.781-2.172-1.624-4.328Z" opacity="0.25"/>
      </g>
    </g>
    <path id="Path_5769" data-name="Path 5769" d="M1709.478,937H1590.344a23.5,23.5,0,0,1-23.5-23.5h0a23.5,23.5,0,0,1,23.5-23.5h119.134a23.5,23.5,0,0,1,23.5,23.5h0A23.5,23.5,0,0,1,1709.478,937Z"/>
  </g>
</svg>
