<svg xmlns="http://www.w3.org/2000/svg" width="400" height="319.123" viewBox="0 0 400 319.123"><g transform="translate(-2184.016 -1457.873)"><path d="M2265.547,1635.63q.681,1.462,1.4,2.91l167.62-167.621q-1.448-.72-2.909-1.4Zm4.47,8.681q.774,1.369,1.587,2.724l171.462-171.462q-1.354-.812-2.725-1.587Zm10.559,15.741q.947,1.2,1.925,2.386l175.968-175.967q-1.185-.981-2.387-1.926Zm-18.9-33.7q.579,1.561,1.2,3.113l162.612-162.611q-1.551-.623-3.113-1.2Zm24.933,40.817q1.028,1.122,2.085,2.226l176.722-176.721q-1.1-1.059-2.227-2.086Zm-11.577-14.723q.861,1.284,1.76,2.552l174.226-174.227q-1.266-.9-2.551-1.76Zm-16.568-36.032q.464,1.672.977,3.334l156.328-156.328q-1.662-.512-3.334-.977Zm6.793-85.694q-1.686,3.677-3.122,7.434l72.039-72.04q-3.756,1.437-7.433,3.122Zm12.5-21.342,27.638-27.638a126.02,126.02,0,0,0-27.638,27.638Zm-19.793,41.782q-.735,2.811-1.338,5.648l96.2-96.2q-2.836.6-5.648,1.337Zm-4.06,30.359c-.015,1.431-.014,2.862.019,4.292l127.905-127.9c-1.43-.034-2.861-.035-4.292-.02Zm.94-14.09q-.3,2.4-.5,4.809l113.908-113.908q-2.409.2-4.809.5Zm-.44,26.741c.117,1.3.251,2.6.41,3.9L2394.1,1458.792q-1.948-.237-3.9-.41Zm1.59,11.56c.222,1.2.458,2.4.715,3.6l148.633-148.633c-1.2-.258-2.394-.494-3.595-.716Zm51.641,79.859q1.277.888,2.571,1.741l173.14-173.141q-.852-1.293-1.74-2.571Zm83.536,21.664q2.451-.24,4.893-.581L2502.7,1600.042q.338-2.442.581-4.893Zm-26.132-.167q1.965.217,3.937.374l134.5-134.5q-.156-1.971-.375-3.937Zm12.394.755c1.443.017,2.886.016,4.329-.017L2503.85,1585.74c.033-1.443.034-2.886.017-4.329Zm29.452-3.152q2.9-.664,5.78-1.468l86.572-86.573q.8-2.875,1.469-5.78Zm-113.758-30.892q1.113,1.05,2.243,2.069l176.513-176.513q-1.019-1.131-2.069-2.242Zm132.965,24.835q3.955-1.611,7.817-3.505l57.235-57.235q1.893-3.859,3.5-7.816Zm48.352-35.2-15,15q4.02-3.4,7.818-7.179T2474.453,1663.425Zm-158.789,27.289q1.365.8,2.747,1.565l169.9-169.9q-.765-1.382-1.565-2.746Zm8.566,4.584q1.459.71,2.934,1.378l165.543-165.543q-.671-1.475-1.378-2.933Zm-24.088-15.361q1.192.969,2.4,1.907l175.33-175.329q-.936-1.212-1.908-2.4Zm53.545,25.354c1.205.247,2.412.479,3.622.689l144.7-144.7q-.316-1.815-.689-3.622Zm-10.521-2.628q1.675.5,3.364.947L2499.64,1550.5q-.45-1.687-.946-3.364Zm-9.786-3.365q1.562.609,3.136,1.176L2496.5,1540.485q-.567-1.573-1.176-3.135Z" fill="#fff" opacity="0.2"/><path d="M2234.149,1589.707a141.042,141.042,0,0,0,140.989,137.167V1777c-104.283,0-189.058-83.5-191.122-187.289Z" fill="#fff"/><path d="M2566.992,1623.753h-86.3a17.023,17.023,0,0,1-17.024-17.023h0a17.023,17.023,0,0,1,17.024-17.023h86.3a17.023,17.023,0,0,1,17.024,17.023h0A17.023,17.023,0,0,1,2566.992,1623.753Z" fill="#fff"/><path d="M2459.53,1761.583h-.09a10.348,10.348,0,0,1-8.252-4.169,5.662,5.662,0,0,0-4.517-2.283h-.05a5.66,5.66,0,0,0-4.505,2.207l-.167.214a10.343,10.343,0,0,1-8.23,4.031h-.09a10.348,10.348,0,0,1-8.252-4.169l-.277-.37a5.706,5.706,0,0,0-8.916-.268l-3.6-3.052a10.424,10.424,0,0,1,16.287.49l.277.37a5.706,5.706,0,0,0,9.072.075l.167-.214a10.345,10.345,0,0,1,8.23-4.031h.09a10.348,10.348,0,0,1,8.252,4.169,5.663,5.663,0,0,0,4.517,2.283h.05a5.66,5.66,0,0,0,4.5-2.207l.167-.214a10.345,10.345,0,0,1,8.23-4.031h.09a10.348,10.348,0,0,1,8.252,4.169,5.705,5.705,0,0,0,9.072.076l.167-.214a10.343,10.343,0,0,1,8.23-4.031h.09a10.347,10.347,0,0,1,8.251,4.169,5.664,5.664,0,0,0,4.518,2.283h.049a5.662,5.662,0,0,0,4.506-2.207l.166-.214a10.346,10.346,0,0,1,8.23-4.031h.091a10.347,10.347,0,0,1,8.251,4.169,5.663,5.663,0,0,0,4.518,2.283h.049a5.66,5.66,0,0,0,4.505-2.207l.167-.214a10.423,10.423,0,0,1,16.572.138,5.705,5.705,0,0,0,9.072.076l.167-.215a10.424,10.424,0,0,1,16.572.139l-3.774,2.831a5.663,5.663,0,0,0-4.517-2.283h-.05a5.66,5.66,0,0,0-4.505,2.207l-.167.215a10.346,10.346,0,0,1-8.23,4.03h-.09a10.348,10.348,0,0,1-8.252-4.169,5.661,5.661,0,0,0-4.517-2.283h-.049a5.661,5.661,0,0,0-4.506,2.207l-.167.214a10.343,10.343,0,0,1-8.23,4.031h-.09a10.349,10.349,0,0,1-8.252-4.169,5.662,5.662,0,0,0-4.517-2.283h-.049a5.661,5.661,0,0,0-4.506,2.207l-.166.214a10.347,10.347,0,0,1-8.231,4.031h-.09a10.345,10.345,0,0,1-8.251-4.169,5.664,5.664,0,0,0-4.518-2.283h-.049a5.663,5.663,0,0,0-4.506,2.207l-.166.215a10.348,10.348,0,0,1-8.23,4.03h-.091a10.346,10.346,0,0,1-8.251-4.169,5.705,5.705,0,0,0-9.072-.076l-.167.214A10.345,10.345,0,0,1,2459.53,1761.583Z" fill="#fff" opacity="0.2"/><path d="M2278.553,1557.046v-45.818h7.712v38.257h13.23v7.561Z" fill="#fff"/><path d="M2324.513,1510.7c12.928,0,22.984,10.434,22.984,23.439a23.028,23.028,0,0,1-22.984,23.438c-13.08,0-22.985-9.98-22.985-23.438C2301.528,1521.132,2311.584,1510.7,2324.513,1510.7Zm0,39.24c8.846,0,15.122-7.031,15.122-15.8,0-8.619-6.049-15.8-15.122-15.8s-15.121,7.183-15.121,15.8C2309.392,1542.907,2315.667,1549.938,2324.513,1549.938Z" fill="#fff"/><path d="M2388.118,1525.215a15.334,15.334,0,0,0-12.853-6.88c-9.073,0-15.121,7.183-15.121,15.8,0,8.77,6.275,15.8,15.121,15.8a17.825,17.825,0,0,0,9.073-2.57l3.629,6.426a22.689,22.689,0,0,1-12.7,3.781c-13.08,0-22.985-9.98-22.985-23.438,0-13.005,10.056-23.439,22.985-23.439a22.681,22.681,0,0,1,19.129,10.283Z" fill="#fff"/><path d="M2391.948,1557.046l24.119-45.818h7.636l9.981,45.818H2425.9l-2.193-10.207h-18.3l-5.292,10.207Zm17.239-17.617h12.929l-3.78-17.616Z" fill="#fff"/><path d="M2444.524,1557.046v-38.258H2433.41v-7.56h33.872v7.56h-15.046v38.258Z" fill="#fff"/><path d="M2473.042,1557.046v-45.818h7.712v45.818Z" fill="#fff"/><path d="M2511.744,1510.7c12.929,0,22.985,10.434,22.985,23.439a23.028,23.028,0,0,1-22.985,23.438c-13.08,0-22.984-9.98-22.984-23.438C2488.76,1521.132,2498.815,1510.7,2511.744,1510.7Zm0,39.24c8.847,0,15.122-7.031,15.122-15.8,0-8.619-6.049-15.8-15.122-15.8s-15.121,7.183-15.121,15.8C2496.623,1542.907,2502.9,1549.938,2511.744,1549.938Z" fill="#fff"/><path d="M2572.075,1557.046,2550.3,1524.61v32.436h-7.561v-45.818h7.712l21.472,32.133v-32.133h7.561v45.818Z" fill="#fff"/></g></svg>