<svg xmlns="http://www.w3.org/2000/svg" width="355.847" height="46.877" viewBox="0 0 355.847 46.877">
  <g id="Group_418" data-name="Group 418" transform="translate(-1117.544 -49.548)">
    <path id="Path_5200" data-name="Path 5200" d="M1117.544,95.9V50.078h7.712V88.335h13.231V95.9Z" fill="#fff"/>
    <path id="Path_5201" data-name="Path 5201" d="M1140.956,95.9l24.118-45.818h7.637l9.98,45.818H1174.9l-2.192-10.207h-18.3L1149.121,95.9Zm17.238-17.617h12.929l-3.78-17.616Z" fill="#fff"/>
    <path id="Path_5202" data-name="Path 5202" d="M1218.963,95.9,1197.188,63.46V95.9h-7.56V50.078h7.712l21.472,32.133V50.078h7.561V95.9Z" fill="#fff"/>
    <path id="Path_5203" data-name="Path 5203" d="M1237.277,95.9V50.078h14.744c13.684,0,23.74,9.9,23.74,22.909,0,13.458-10.056,22.909-24.95,22.909Zm14.744-7.561c9.752,0,15.876-6.578,15.876-15.348,0-8.62-5.669-15.349-15.953-15.349h-6.955v30.7Z" fill="#fff"/>
    <path id="Path_5204" data-name="Path 5204" d="M1285.835,84.857a16.053,16.053,0,0,0,11.189,4.234c3.63,0,6.049-1.588,6.049-4.158,0-4.99-6.275-6.049-12.1-8.015-6.049-2.041-10.813-6.048-10.813-13.307,0-8.694,8.166-14.063,16.785-14.063,9.072,0,15.877,5.9,18.071,9.451l-5.747,4.99c-1.965-2.8-6.578-6.88-12.55-6.88-5.6,0-8.7,3.251-8.7,6.276,0,4.385,3.705,5.9,9.753,7.711,7.108,2.117,13.157,5.747,13.157,13.232,0,8.165-7.183,12.1-14.214,12.1a21.372,21.372,0,0,1-15.5-6.124Z" fill="#fff"/>
    <path id="Path_5205" data-name="Path 5205" d="M1352.871,64.065a15.328,15.328,0,0,0-12.852-6.88c-9.074,0-15.123,7.182-15.123,15.8,0,8.77,6.276,15.8,15.123,15.8a17.825,17.825,0,0,0,9.072-2.571l3.63,6.427a22.7,22.7,0,0,1-12.7,3.78c-13.081,0-22.986-9.98-22.986-23.438,0-13.005,10.057-23.439,22.986-23.439a22.675,22.675,0,0,1,19.127,10.283Z" fill="#fff"/>
    <path id="Path_5206" data-name="Path 5206" d="M1356.435,95.9l24.119-45.818h7.635L1398.17,95.9h-7.787l-2.194-10.207h-18.3L1364.6,95.9Zm17.238-17.617h12.93l-3.781-17.616Z" fill="#fff"/>
    <path id="Path_5207" data-name="Path 5207" d="M1405.106,50.078h18.222c8.922,0,14.289,5.973,14.289,13.307,0,6.577-5.443,13.231-14.818,13.231h-9.981V95.9h-7.712Zm7.712,7.409V69.206h9.905c4.839,0,7.182-2.646,7.182-5.821,0-3.1-2.343-5.9-6.653-5.9Z" fill="#fff"/>
    <path id="Path_5208" data-name="Path 5208" d="M1443.45,95.9V50.078h29.336v7.409h-21.624V69.206h22.229v7.41h-22.229v11.87h16.483V95.9Z" fill="#fff"/>
  </g>
</svg>
