<svg xmlns="http://www.w3.org/2000/svg" width="644.571" height="319.123" viewBox="0 0 644.571 319.123"><g transform="translate(-2184.016 -5168.199)"><path d="M2265.547,5345.956q.681,1.463,1.4,2.909l167.62-167.62q-1.448-.72-2.909-1.4Zm4.47,8.68q.774,1.37,1.587,2.725L2443.066,5185.9q-1.354-.812-2.725-1.587Zm10.559,15.741q.947,1.2,1.925,2.387L2458.469,5196.8q-1.185-.979-2.387-1.925Zm-18.9-33.7q.579,1.562,1.2,3.113l162.612-162.612q-1.551-.621-3.113-1.2Zm24.933,40.816q1.028,1.124,2.085,2.227l176.722-176.722q-1.1-1.059-2.227-2.085Zm-11.577-14.722q.861,1.284,1.76,2.551l174.226-174.226q-1.266-.9-2.551-1.76Zm-16.568-36.032q.464,1.673.977,3.334l156.328-156.328q-1.662-.512-3.334-.977Zm6.793-85.694q-1.686,3.675-3.122,7.433l72.039-72.039q-3.756,1.436-7.433,3.122Zm12.5-21.342,27.638-27.638a126,126,0,0,0-27.638,27.638Zm-19.793,41.782q-.735,2.811-1.338,5.648l96.2-96.2q-2.836.6-5.648,1.338Zm-4.06,30.359c-.015,1.431-.014,2.862.019,4.292l127.905-127.9c-1.43-.033-2.861-.034-4.292-.019Zm.94-14.09q-.3,2.4-.5,4.809l113.908-113.908q-2.409.2-4.809.5Zm-.44,26.74c.117,1.3.251,2.6.41,3.9L2394.1,5169.118c-1.3-.159-2.6-.293-3.9-.41Zm1.59,11.561c.222,1.2.458,2.4.715,3.6l148.633-148.632c-1.2-.258-2.394-.494-3.595-.716Zm51.641,79.859q1.277.888,2.571,1.74l173.14-173.14q-.852-1.294-1.74-2.571Zm83.536,21.664q2.451-.24,4.893-.581L2502.7,5310.368q.338-2.442.581-4.893Zm-26.132-.168q1.965.219,3.937.375l134.5-134.5q-.156-1.971-.375-3.937Zm12.394.756c1.443.017,2.886.016,4.329-.017l122.079-122.079c.033-1.443.034-2.886.017-4.329Zm29.452-3.152q2.9-.664,5.78-1.469l86.572-86.572q.8-2.876,1.469-5.78Zm-113.758-30.892q1.113,1.05,2.243,2.069l176.513-176.513q-1.019-1.131-2.069-2.243Zm132.965,24.835q3.955-1.611,7.817-3.5l57.235-57.235q1.893-3.859,3.5-7.817Zm48.352-35.2-15,15q4.02-3.4,7.818-7.178T2474.453,5373.751Zm-158.789,27.289q1.365.8,2.747,1.565l169.9-169.9q-.765-1.381-1.565-2.747Zm8.566,4.584q1.459.71,2.934,1.378l165.543-165.543q-.671-1.474-1.378-2.934Zm-24.088-15.362q1.192.97,2.4,1.908l175.33-175.33q-.936-1.21-1.908-2.4Zm53.545,25.355q1.808.37,3.622.689l144.7-144.7q-.316-1.815-.689-3.622Zm-10.521-2.628q1.675.5,3.364.946l153.11-153.11q-.45-1.687-.946-3.364Zm-9.786-3.365q1.562.609,3.136,1.176L2496.5,5250.811q-.567-1.575-1.176-3.136Z" fill="#fff" opacity="0.2"/><path d="M2234.149,5300.032A141.042,141.042,0,0,0,2375.138,5437.2v50.123c-104.283,0-189.058-83.5-191.122-187.29Z" fill="#fff"/><path d="M2566.992,5334.079h-86.3a17.024,17.024,0,0,1-17.024-17.023h0a17.024,17.024,0,0,1,17.024-17.024h86.3a17.024,17.024,0,0,1,17.024,17.024h0A17.024,17.024,0,0,1,2566.992,5334.079Z" fill="#fff"/><path d="M2459.53,5471.909h-.09a10.35,10.35,0,0,1-8.252-4.17,5.665,5.665,0,0,0-4.517-2.282h-.05a5.661,5.661,0,0,0-4.505,2.206l-.167.215a10.343,10.343,0,0,1-8.23,4.031h-.09a10.35,10.35,0,0,1-8.252-4.17l-.277-.369a5.706,5.706,0,0,0-8.916-.268l-3.6-3.052a10.424,10.424,0,0,1,16.287.49l.277.369a5.705,5.705,0,0,0,9.072.076l.167-.215a10.344,10.344,0,0,1,8.23-4.03h.09a10.347,10.347,0,0,1,8.252,4.169,5.663,5.663,0,0,0,4.517,2.283h.05a5.662,5.662,0,0,0,4.5-2.207l.167-.215a10.344,10.344,0,0,1,8.23-4.03h.09a10.347,10.347,0,0,1,8.252,4.169,5.705,5.705,0,0,0,9.072.076l.167-.215a10.342,10.342,0,0,1,8.23-4.03h.09a10.346,10.346,0,0,1,8.251,4.169,5.665,5.665,0,0,0,4.518,2.283h.049a5.664,5.664,0,0,0,4.506-2.207l.166-.215a10.345,10.345,0,0,1,8.23-4.03h.091a10.346,10.346,0,0,1,8.251,4.169,5.663,5.663,0,0,0,4.518,2.283h.049a5.662,5.662,0,0,0,4.505-2.207l.167-.215a10.424,10.424,0,0,1,16.572.139,5.705,5.705,0,0,0,9.072.076l.167-.215a10.424,10.424,0,0,1,16.572.139l-3.774,2.83a5.666,5.666,0,0,0-4.517-2.282h-.05a5.661,5.661,0,0,0-4.505,2.206l-.167.216a10.346,10.346,0,0,1-8.23,4.03h-.09a10.35,10.35,0,0,1-8.252-4.17,5.664,5.664,0,0,0-4.517-2.282h-.049a5.662,5.662,0,0,0-4.506,2.206l-.167.215a10.343,10.343,0,0,1-8.23,4.031h-.09a10.351,10.351,0,0,1-8.252-4.17,5.665,5.665,0,0,0-4.517-2.282h-.049a5.663,5.663,0,0,0-4.506,2.206l-.166.215a10.347,10.347,0,0,1-8.231,4.031h-.09a10.348,10.348,0,0,1-8.251-4.17,5.667,5.667,0,0,0-4.518-2.282h-.049a5.664,5.664,0,0,0-4.506,2.206l-.166.215a10.346,10.346,0,0,1-8.23,4.031h-.091a10.348,10.348,0,0,1-8.251-4.17,5.707,5.707,0,0,0-9.072-.076l-.167.215A10.345,10.345,0,0,1,2459.53,5471.909Z" fill="#fff" opacity="0.2"/><path d="M2278.553,5267.372v-45.818h7.711v38.257H2299.5v7.561Z" fill="#fff"/><path d="M2304,5267.372v-45.818h7.713v45.818Z" fill="#fff"/><path d="M2321.25,5267.372v-45.818h29.864v7.409h-22.153v11.72h16.18v7.409h-16.18v19.28Z" fill="#fff"/><path d="M2355.322,5267.372v-45.818h29.336v7.409h-21.624v11.72h22.229v7.409h-22.229v11.87h16.483v7.41Z" fill="#fff"/><path d="M2412.171,5267.372v-45.818h7.712v45.818Z" fill="#fff"/><path d="M2458.758,5267.372l-21.776-32.436v32.436h-7.56v-45.818h7.712l21.471,32.133v-32.133h7.562v45.818Z" fill="#fff"/><path d="M2475.786,5267.372v-45.818h29.864v7.409H2483.5v11.72h16.18v7.409H2483.5v19.28Z" fill="#fff"/><path d="M2528.443,5221.024c12.928,0,22.985,10.434,22.985,23.439a23.029,23.029,0,0,1-22.985,23.438c-13.08,0-22.985-9.98-22.985-23.438C2505.458,5231.458,2515.514,5221.024,2528.443,5221.024Zm0,39.241c8.846,0,15.121-7.032,15.121-15.8,0-8.619-6.048-15.8-15.121-15.8s-15.122,7.183-15.122,15.8C2513.321,5253.233,2519.6,5260.265,2528.443,5260.265Z" fill="#fff"/><path d="M2557.887,5221.554h19.2c8.922,0,14.29,5.972,14.29,13.306,0,5.746-4.158,11.569-11.492,12.93l8.316,19.582h-8.392l-8.242-19.28H2565.6v19.28h-7.712Zm7.712,7.409v11.72h10.887c4.838,0,7.182-2.647,7.182-5.823,0-3.1-2.344-5.9-6.652-5.9Z" fill="#fff"/><path d="M2610.225,5235.087l-10.584,32.285h-7.864l15.121-45.818h7.788l5.67,25.026,12.7-25.026h8.166l3.855,45.818h-7.56l-2.874-32.36-12.021,22.455h-7.259Z" fill="#fff"/><path d="M2647.258,5267.372l24.119-45.818h7.637l9.98,45.818h-7.788l-2.192-10.207h-18.3l-5.293,10.207Zm17.238-17.617h12.93l-3.78-17.616Z" fill="#fff"/><path d="M2698.282,5267.372v-38.258h-11.114v-7.56h33.872v7.56h-15.046v38.258Z" fill="#fff"/><path d="M2725.248,5267.372v-45.818h7.711v45.818Z" fill="#fff"/><path d="M2762.4,5221.024c12.928,0,22.985,10.434,22.985,23.439A23.029,23.029,0,0,1,2762.4,5267.9c-13.08,0-22.985-9.98-22.985-23.438C2739.413,5231.458,2749.469,5221.024,2762.4,5221.024Zm0,39.241c8.846,0,15.122-7.032,15.122-15.8,0-8.619-6.049-15.8-15.122-15.8s-15.122,7.183-15.122,15.8C2747.276,5253.233,2753.552,5260.265,2762.4,5260.265Z" fill="#fff"/><path d="M2821.178,5267.372l-21.776-32.436v32.436h-7.56v-45.818h7.712l21.471,32.133v-32.133h7.562v45.818Z" fill="#fff"/></g></svg>