<svg xmlns="http://www.w3.org/2000/svg" width="700" height="130" viewBox="0 0 700 130">
  <g id="Group_509" data-name="Group 509" transform="translate(-1092.008 -13159.996)">
    <rect id="Rectangle_77" data-name="Rectangle 77" width="700" height="130" rx="65" transform="translate(1092.008 13159.996)"/>
    <g id="Group_508" data-name="Group 508">
      <path id="Path_6583" data-name="Path 6583" d="M1181.439,13218.445a76.752,76.752,0,0,1-3.976,19.936c5.208,4.145,12.264,4.984,20.44,5.039,3.3,0,14.672,0,18.76-.168a23.527,23.527,0,0,0-2.576,6.5h-16.352c-9.464,0-17.08-1.119-23.016-5.6a23.91,23.91,0,0,1-6.216,7.225,23.652,23.652,0,0,0-4.983-4.48,21.5,21.5,0,0,0,6.551-7.5,37.764,37.764,0,0,1-5.264-10.863l5.208-1.9a27.62,27.62,0,0,0,2.744,6.328,59.094,59.094,0,0,0,1.96-9.408h-3.808l-.728,1.623-6.048-1.566c2.408-4.928,5.1-10.977,7.168-15.848h-7.28v-5.824h10.248l1.008-.225,4.536,1.232c-1.68,4.367-3.976,9.688-6.272,14.783h2.8l1.176-.168Zm12.208-10.977H1183.4v-5.039h10.248v-3.193h6.5v3.193h11.648v7.336h4.2v5.1h-4.2v7.336h-11.648v2.463h12.1v4.816h-12.1v2.633h14.672v5.207h-14.672v4.537h-6.5v-4.537h-13.272v-5.207h13.272v-2.633h-10.864v-4.816h10.864v-2.463h-10.528v-5.041h10.528v-2.295h-14.056v-5.1h14.056Zm6.5,0v2.3h5.1v-2.3Zm5.1,7.393h-5.1v2.295h5.1Z" fill="#fff"/>
      <path id="Path_6584" data-name="Path 6584" d="M1244.765,13229.422c-2.016.559-3.976,1.23-6.048,1.848v19.936h-6.1v-18.088c-3.024.9-5.824,1.791-8.4,2.463l-1.624-6.326c2.8-.617,6.216-1.514,10.024-2.576v-10.7h-3.752a50.861,50.861,0,0,1-2.072,7.168,48.834,48.834,0,0,0-4.7-3.08c1.736-4.424,2.688-11.424,3.192-18.031l5.544.951c-.224,2.24-.5,4.424-.84,6.664h2.632V13198.9h6.1v10.752h4.648v6.328h-4.648V13225l5.152-1.455Zm30.128-21.9s-.057,2.24-.112,3.023c-1.064,24.977-2.073,34.1-4.2,36.9a6.138,6.138,0,0,1-4.369,2.912,32.116,32.116,0,0,1-6.327.168,18.634,18.634,0,0,0-1.848-6.5,45.3,45.3,0,0,0,4.984.225,2.34,2.34,0,0,0,2.072-1.064c1.4-1.793,2.407-9.408,3.3-29.512h-.279c-2.744,14.111-8.513,28.672-17.528,36.119a24.843,24.843,0,0,0-5.432-3.863c8.96-6.441,14.56-19.152,17.36-32.256h-2.632c-2.464,9.128-7.168,19.152-12.824,24.527a23.539,23.539,0,0,0-5.1-3.752c5.544-4.367,9.911-12.656,12.376-20.775h-2.856a41.7,41.7,0,0,1-5.768,10.023,37.951,37.951,0,0,0-5.04-3.752c4.424-4.871,7.5-12.881,9.184-21.111l6.048,1.119c-.56,2.576-1.288,5.1-2.072,7.561Z" fill="#fff"/>
      <path id="Path_6585" data-name="Path 6585" d="M1293.923,13217.828a7.168,7.168,0,1,1-7.168,7.168A7.218,7.218,0,0,1,1293.923,13217.828Z" fill="#fff"/>
      <path id="Path_6586" data-name="Path 6586" d="M1325.665,13231.27c1.735-.729,3.471-1.456,5.151-2.186l1.512,5.881c-5.936,2.969-12.32,5.936-17.472,8.344l-2.688-6.719c2.017-.729,4.48-1.682,7.28-2.8v-15.736H1312.9v-6.328h6.552v-12.152h6.217v12.152h5.655v6.328h-5.655Zm29.9,12.879c3.08,0,3.64-1.287,4.144-7a16.858,16.858,0,0,0,5.824,2.408c-.9,7.84-2.856,10.527-9.408,10.527H1344.2c-7.56,0-9.744-2.07-9.744-9.8v-14.393l-3.024,1.289-2.464-5.937,5.488-2.295v-14.729h6.384v11.984l4.648-1.961v-15.455h6.216v12.768l4.424-1.9,1.176-.783,1.176-.783,4.648,1.623-.224,1.119c0,10.641-.112,17.361-.392,19.656-.168,2.576-1.176,3.92-2.856,4.648a15.6,15.6,0,0,1-5.824.783,18.286,18.286,0,0,0-1.4-5.6,25.192,25.192,0,0,0,2.688.113c.672,0,1.008-.225,1.232-1.232.112-.9.168-4.984.168-12.936l-4.816,2.127v19.768h-6.216v-17.08l-4.648,2.018v17.248c0,3.3.5,3.807,3.92,3.807Z" fill="#fff"/>
      <path id="Path_6587" data-name="Path 6587" d="M1390.054,13218.949c-3.136.168-6.159.336-9.072.447-.616,4.873-2.128,9.969-5.656,13.664a20.669,20.669,0,0,0-4.144-3.471,18.084,18.084,0,0,0,4.536-9.912l-3.471.168-.281-5.041,4.2-.111v-11.76h6.383c.56-1.4,1.008-2.912,1.345-4.088l5.711.672c-.5,1.232-1.064,2.352-1.512,3.416h7.336v10.975l2.3-.111-.056,4.705-2.24.111v7.168c0,2.463-.336,3.92-1.9,4.76s-3.7.9-6.608.9a18.278,18.278,0,0,0-.84-3.474h-2.8v-7.729h4.088v6.273h2.016c.5-.057.672-.225.672-.785Zm26.992,25.367h6.272v5.152h-50.96v-5.152h6.161v-11.928h38.527Zm-35.671-29.848,3.191-.111a28.474,28.474,0,0,0-2.184-5.264l3.808-1.289a31.127,31.127,0,0,1,2.408,5.041l-4.032,1.512,5.488-.225v-6.775h-8.679v7.111Zm3.359,29.848h4.48v-6.832h-4.48Zm10.528-6.832v6.832h4.592v-6.832Zm24.7-21.671a21.821,21.821,0,0,1-5.768,9.071,39.9,39.9,0,0,0,9.744,2.016,18.582,18.582,0,0,0-3.528,5.041,36.12,36.12,0,0,1-11.368-3.529,39.517,39.517,0,0,1-9.688,3.361,23.136,23.136,0,0,0-3.08-4.873,38.5,38.5,0,0,0,7.784-1.959,21.273,21.273,0,0,1-4.032-4.873l3.752-1.008h-4.984v-4.48h.5a21.9,21.9,0,0,0-2.912-3.023c3.864-2.072,4.368-4.592,4.368-7.055v-3.7h15.512v6.832c0,1.232.112,1.344.728,1.344h1.232c.672,0,.84-.447.952-3.752a14.5,14.5,0,0,0,4.48,1.848c-.5,5.041-1.736,6.385-4.76,6.385h-2.912c-3.92,0-4.928-1.344-4.928-5.768v-2.3h-5.1a11.568,11.568,0,0,1-4.424,9.184h14.112l1.008-.111Zm-14.448,3.247a13.172,13.172,0,0,0,3.528,3.248,15.409,15.409,0,0,0,3.36-3.248Zm.392,18.424v6.832h4.592v-6.832Z" fill="#fff"/>
      <path id="Path_6588" data-name="Path 6588" d="M1451.594,13264.01V13200.9l-16.23,6.439-4.508-11.205,22.927-10.176h10.947v78.053Z" fill="#fff"/>
      <path id="Path_6589" data-name="Path 6589" d="M1484.646,13212.1a26.717,26.717,0,0,1,26.661-27.047c14.168,0,25.888,10.689,25.888,28.078v24.729c0,15.973-11.72,27.049-26.661,27.049-14.3,0-25.888-10.3-25.888-28.078Zm13.137,1.031v23.184c0,11.721,5.925,15.455,12.751,15.455,7.084,0,13.525-4.121,13.525-14.939v-23.184c0-11.721-5.925-15.457-12.752-15.457C1504.223,13198.193,1497.783,13202.314,1497.783,13213.135Z" fill="#fff"/>
      <path id="Path_6590" data-name="Path 6590" d="M1601.739,13239.221h-19.151v11.984H1575.7v-11.984h-25.2v-6.383h8.848v-14.674H1575.7v-6.719h-11.983a50.308,50.308,0,0,1-7.616,10.191,51.78,51.78,0,0,0-5.768-4.312c5.04-4.256,9.352-11.424,11.76-18.646l6.776,1.734a35.994,35.994,0,0,1-1.848,4.594h31.639v6.439h-16.071v6.719h14.784v6.16h-14.784v8.514h19.151Zm-26.04-6.383v-8.514h-9.687v8.514Z" fill="#fff"/>
      <path id="Path_6591" data-name="Path 6591" d="M1627.546,13200.973a93.612,93.612,0,0,1-5.208,11.033v39.031h-6.328v-29.289a63.825,63.825,0,0,1-4.256,4.984,44.613,44.613,0,0,0-3.584-6.832,59.053,59.053,0,0,0,13.216-20.943Zm22.063,30.633a42.171,42.171,0,0,0,12.825,12.208,28.4,28.4,0,0,0-4.7,5.319,46.268,46.268,0,0,1-11.368-12.432v14.447h-6.719v-14.168a44.936,44.936,0,0,1-12.1,12.041,27.449,27.449,0,0,0-4.592-5.32,40.227,40.227,0,0,0,13.495-12.1H1624.97v-6.049h14.672v-5.039h-10.976v-19.209h29.4v19.209h-11.7v5.039h14.449v6.049Zm-14.615-16.969H1651.4v-7.5h-16.407Z" fill="#fff"/>
      <path id="Path_6592" data-name="Path 6592" d="M1667.854,13208.309h20.777v5.264h-20.777Zm19.153,40.6h-11.088v2.186h-5.6V13232h16.689Zm-.393-27.607h-16.127v-4.984h16.127Zm-16.127,2.8h16.127v5.039h-16.127Zm16.127-18.48h-15.791v-5.039h15.791Zm-10.7,31.641v6.383h5.376v-6.383Zm44.352,5.711v6.217H1688.8v-6.217h3.416v-26.543h6.216v26.543h4.256v-34.943h-12.32v-6.328h28.84v6.328h-9.969v13.215h9.689v6.273h-9.689v15.455Z" fill="#fff"/>
    </g>
  </g>
</svg>
